<svg width="171" height="157" viewBox="0 0 171 157" fill="none" xmlns="http://www.w3.org/2000/svg">
<path d="M0 0H84.4821H171V157H0V0Z" fill="white"/>
<path d="M6.5 6.5H164.5V150.5H83H6.5V6.5Z" fill="white" stroke="#282624"/>
<path d="M22.148 84.416C22.148 84.5747 22.1877 84.703 22.267 84.801C22.3463 84.8943 22.456 84.969 22.596 85.025C22.736 85.0763 22.89 85.1207 23.058 85.158C23.2307 85.1907 23.408 85.2257 23.59 85.263C23.772 85.2957 23.947 85.3423 24.115 85.403C24.2877 85.459 24.4417 85.5383 24.577 85.641C24.717 85.739 24.8267 85.8673 24.906 86.026C24.99 86.1847 25.032 86.3853 25.032 86.628C25.032 86.9407 24.9527 87.2067 24.794 87.426C24.64 87.6453 24.4277 87.811 24.157 87.923C23.8863 88.035 23.576 88.091 23.226 88.091C22.876 88.091 22.5633 88.0373 22.288 87.93C22.0173 87.8227 21.791 87.6593 21.609 87.44C21.4317 87.2207 21.3103 86.9453 21.245 86.614H22.064C22.134 86.8847 22.267 87.0923 22.463 87.237C22.659 87.377 22.9157 87.447 23.233 87.447C23.5597 87.447 23.807 87.3817 23.975 87.251C24.143 87.1203 24.227 86.9477 24.227 86.733C24.227 86.565 24.1873 86.4297 24.108 86.327C24.0287 86.2197 23.919 86.138 23.779 86.082C23.639 86.0213 23.4827 85.9723 23.31 85.935C23.142 85.893 22.967 85.8533 22.785 85.816C22.603 85.7787 22.4257 85.732 22.253 85.676C22.085 85.62 21.931 85.5453 21.791 85.452C21.6557 85.354 21.546 85.228 21.462 85.074C21.3827 84.92 21.343 84.7217 21.343 84.479C21.343 84.241 21.4083 84.0217 21.539 83.821C21.6697 83.6157 21.8587 83.4523 22.106 83.331C22.358 83.2097 22.666 83.149 23.03 83.149C23.3427 83.149 23.6297 83.2027 23.891 83.31C24.157 83.4127 24.3787 83.5737 24.556 83.793C24.7333 84.0077 24.85 84.29 24.906 84.64H24.073C24.0077 84.346 23.884 84.1313 23.702 83.996C23.52 83.8607 23.289 83.793 23.009 83.793C22.7383 83.793 22.526 83.8513 22.372 83.968C22.2227 84.08 22.148 84.2293 22.148 84.416ZM25.7343 88V84.269H26.4833V88H25.7343ZM26.4833 85.809H26.1893C26.2126 85.445 26.2826 85.1417 26.3993 84.899C26.516 84.6563 26.6723 84.4743 26.8683 84.353C27.0643 84.2317 27.286 84.171 27.5333 84.171C27.776 84.171 27.9836 84.2223 28.1563 84.325C28.3336 84.423 28.469 84.5723 28.5623 84.773C28.6603 84.969 28.7093 85.214 28.7093 85.508V88H27.9603V85.662C27.9603 85.48 27.937 85.326 27.8903 85.2C27.8436 85.0693 27.7713 84.969 27.6733 84.899C27.5753 84.829 27.4493 84.794 27.2953 84.794C27.1693 84.794 27.055 84.8243 26.9523 84.885C26.8543 84.941 26.768 85.0157 26.6933 85.109C26.6233 85.2023 26.5696 85.3097 26.5323 85.431C26.4996 85.5523 26.4833 85.6783 26.4833 85.809ZM28.7093 85.809H28.3243C28.3476 85.445 28.42 85.1417 28.5413 84.899C28.6626 84.6563 28.8236 84.4743 29.0243 84.353C29.2296 84.2317 29.463 84.171 29.7243 84.171C29.9716 84.171 30.1863 84.2223 30.3683 84.325C30.5503 84.423 30.6903 84.5723 30.7883 84.773C30.8863 84.969 30.9353 85.214 30.9353 85.508V88H30.1863V85.662C30.1863 85.48 30.163 85.326 30.1163 85.2C30.0696 85.0693 29.9973 84.969 29.8993 84.899C29.8013 84.829 29.6753 84.794 29.5213 84.794C29.3953 84.794 29.281 84.8243 29.1783 84.885C29.0803 84.941 28.9963 85.0157 28.9263 85.109C28.8563 85.2023 28.8026 85.3097 28.7653 85.431C28.728 85.5523 28.7093 85.6783 28.7093 85.809ZM33.4066 88.091C33.0473 88.091 32.737 88.014 32.4756 87.86C32.2143 87.7013 32.0136 87.475 31.8736 87.181C31.7336 86.887 31.6636 86.5393 31.6636 86.138C31.6636 85.7133 31.7336 85.3563 31.8736 85.067C32.0183 84.773 32.2213 84.5513 32.4826 84.402C32.7486 84.248 33.0566 84.171 33.4066 84.171C33.7706 84.171 34.0833 84.2503 34.3446 84.409C34.606 84.5677 34.8043 84.794 34.9396 85.088C35.0796 85.3773 35.1496 85.7273 35.1496 86.138C35.1496 86.5533 35.0796 86.908 34.9396 87.202C34.7996 87.4913 34.599 87.713 34.3376 87.867C34.0763 88.0163 33.766 88.091 33.4066 88.091ZM33.4066 87.461C33.724 87.461 33.9666 87.3467 34.1346 87.118C34.3026 86.8893 34.3866 86.5627 34.3866 86.138C34.3866 85.7087 34.3026 85.3797 34.1346 85.151C33.9666 84.9177 33.724 84.801 33.4066 84.801C33.0893 84.801 32.8466 84.9153 32.6786 85.144C32.5106 85.3727 32.4266 85.704 32.4266 86.138C32.4266 86.5627 32.5106 86.8893 32.6786 87.118C32.8513 87.3467 33.094 87.461 33.4066 87.461ZM35.8788 88V82.96H36.6278V88H35.8788ZM36.5018 85.984L38.1118 84.269H39.0078L37.3418 85.984H36.5018ZM36.5018 85.984L37.3488 85.872L39.1058 88H38.1748L36.5018 85.984ZM42.3055 85.767L41.8785 86.117C41.8785 85.6923 41.7945 85.3657 41.6265 85.137C41.4585 84.9083 41.2182 84.794 40.9055 84.794C40.5882 84.794 40.3455 84.9107 40.1775 85.144C40.0142 85.3727 39.9325 85.704 39.9325 86.138C39.9325 86.5627 40.0188 86.8917 40.1915 87.125C40.3688 87.3537 40.6185 87.468 40.9405 87.468C41.1785 87.468 41.3768 87.412 41.5355 87.3C41.6988 87.188 41.8132 87.0153 41.8785 86.782H42.6625C42.5598 87.216 42.3545 87.5427 42.0465 87.762C41.7432 87.9813 41.3745 88.091 40.9405 88.091C40.5765 88.091 40.2615 88.014 39.9955 87.86C39.7295 87.7013 39.5242 87.475 39.3795 87.181C39.2395 86.887 39.1695 86.5393 39.1695 86.138C39.1695 85.7133 39.2395 85.3563 39.3795 85.067C39.5242 84.773 39.7272 84.5513 39.9885 84.402C40.2498 84.248 40.5555 84.171 40.9055 84.171C41.2648 84.171 41.5728 84.2503 41.8295 84.409C42.0862 84.563 42.2845 84.7823 42.4245 85.067C42.5645 85.3517 42.6345 85.6947 42.6345 86.096V86.278H39.4775V85.767H42.3055ZM44.7847 88.091C44.458 88.091 44.1757 88.014 43.9377 87.86C43.6997 87.7013 43.5177 87.475 43.3917 87.181C43.2657 86.887 43.2027 86.5393 43.2027 86.138C43.2027 85.5033 43.345 85.018 43.6297 84.682C43.9144 84.3413 44.2994 84.171 44.7847 84.171C45.2047 84.171 45.5384 84.339 45.7857 84.675C46.0377 85.011 46.1637 85.4987 46.1637 86.138C46.1637 86.5393 46.1077 86.887 45.9957 87.181C45.8837 87.4703 45.7227 87.6943 45.5127 87.853C45.3074 88.0117 45.0647 88.091 44.7847 88.091ZM44.8827 87.461C45.1814 87.461 45.4077 87.349 45.5617 87.125C45.7204 86.8963 45.7997 86.5673 45.7997 86.138C45.7997 85.7087 45.718 85.3797 45.5547 85.151C45.396 84.9177 45.172 84.801 44.8827 84.801C44.584 84.801 44.3554 84.9153 44.1967 85.144C44.0427 85.3727 43.9657 85.704 43.9657 86.138C43.9657 86.5627 44.045 86.8893 44.2037 87.118C44.367 87.3467 44.5934 87.461 44.8827 87.461ZM45.7997 88V82.96H46.5487V88H45.7997ZM49.5191 84.416C49.5191 84.5747 49.5588 84.703 49.6381 84.801C49.7174 84.8943 49.8271 84.969 49.9671 85.025C50.1071 85.0763 50.2611 85.1207 50.4291 85.158C50.6018 85.1907 50.7791 85.2257 50.9611 85.263C51.1431 85.2957 51.3181 85.3423 51.4861 85.403C51.6588 85.459 51.8128 85.5383 51.9481 85.641C52.0881 85.739 52.1978 85.8673 52.2771 86.026C52.3611 86.1847 52.4031 86.3853 52.4031 86.628C52.4031 86.9407 52.3238 87.2067 52.1651 87.426C52.0111 87.6453 51.7988 87.811 51.5281 87.923C51.2574 88.035 50.9471 88.091 50.5971 88.091C50.2471 88.091 49.9344 88.0373 49.6591 87.93C49.3884 87.8227 49.1621 87.6593 48.9801 87.44C48.8028 87.2207 48.6814 86.9453 48.6161 86.614H49.4351C49.5051 86.8847 49.6381 87.0923 49.8341 87.237C50.0301 87.377 50.2868 87.447 50.6041 87.447C50.9308 87.447 51.1781 87.3817 51.3461 87.251C51.5141 87.1203 51.5981 86.9477 51.5981 86.733C51.5981 86.565 51.5584 86.4297 51.4791 86.327C51.3998 86.2197 51.2901 86.138 51.1501 86.082C51.0101 86.0213 50.8538 85.9723 50.6811 85.935C50.5131 85.893 50.3381 85.8533 50.1561 85.816C49.9741 85.7787 49.7968 85.732 49.6241 85.676C49.4561 85.62 49.3021 85.5453 49.1621 85.452C49.0268 85.354 48.9171 85.228 48.8331 85.074C48.7538 84.92 48.7141 84.7217 48.7141 84.479C48.7141 84.241 48.7794 84.0217 48.9101 83.821C49.0408 83.6157 49.2298 83.4523 49.4771 83.331C49.7291 83.2097 50.0371 83.149 50.4011 83.149C50.7138 83.149 51.0008 83.2027 51.2621 83.31C51.5281 83.4127 51.7498 83.5737 51.9271 83.793C52.1044 84.0077 52.2211 84.29 52.2771 84.64H51.4441C51.3788 84.346 51.2551 84.1313 51.0731 83.996C50.8911 83.8607 50.6601 83.793 50.3801 83.793C50.1094 83.793 49.8971 83.8513 49.7431 83.968C49.5938 84.08 49.5191 84.2293 49.5191 84.416ZM53.8124 85.487H53.0634C53.1054 85.2117 53.1941 84.976 53.3294 84.78C53.4647 84.584 53.6467 84.4347 53.8754 84.332C54.1041 84.2247 54.3724 84.171 54.6804 84.171C55.0164 84.171 55.2964 84.234 55.5204 84.36C55.7491 84.4813 55.9194 84.6517 56.0314 84.871C56.1434 85.0903 56.1994 85.3447 56.1994 85.634V87.09C56.1994 87.314 56.2087 87.496 56.2274 87.636C56.2507 87.776 56.2834 87.8973 56.3254 88H55.5414C55.4994 87.9067 55.4737 87.79 55.4644 87.65C55.4551 87.51 55.4504 87.3677 55.4504 87.223V85.641C55.4504 85.3703 55.3827 85.1627 55.2474 85.018C55.1167 84.8733 54.9091 84.801 54.6244 84.801C54.3817 84.801 54.1927 84.864 54.0574 84.99C53.9267 85.1113 53.8451 85.277 53.8124 85.487ZM55.5554 85.725V86.236C55.1727 86.236 54.8601 86.2547 54.6174 86.292C54.3747 86.3293 54.1857 86.383 54.0504 86.453C53.9151 86.5183 53.8217 86.5977 53.7704 86.691C53.7191 86.7797 53.6934 86.88 53.6934 86.992C53.6934 87.1507 53.7541 87.2767 53.8754 87.37C53.9967 87.4587 54.1554 87.503 54.3514 87.503C54.5614 87.503 54.7481 87.454 54.9114 87.356C55.0794 87.2533 55.2101 87.118 55.3034 86.95C55.4014 86.782 55.4504 86.6 55.4504 86.404H55.7864C55.7677 86.7027 55.7094 86.9593 55.6114 87.174C55.5134 87.3887 55.3874 87.5637 55.2334 87.699C55.0841 87.8343 54.9207 87.9347 54.7434 88C54.5661 88.0607 54.3887 88.091 54.2114 88.091C53.9594 88.091 53.7377 88.0513 53.5464 87.972C53.3551 87.8927 53.2057 87.7737 53.0984 87.615C52.9911 87.4563 52.9374 87.258 52.9374 87.02C52.9374 86.7633 53.0074 86.544 53.1474 86.362C53.2874 86.18 53.4974 86.04 53.7774 85.942C54.0387 85.8533 54.3094 85.795 54.5894 85.767C54.8694 85.739 55.1914 85.725 55.5554 85.725ZM60.2326 84.269V88H59.4906V84.269H60.2326ZM59.4906 86.453H59.7776C59.7589 86.8217 59.6866 87.1273 59.5606 87.37C59.4393 87.6127 59.2759 87.7947 59.0706 87.916C58.8699 88.0327 58.6389 88.091 58.3776 88.091C58.1256 88.091 57.9063 88.042 57.7196 87.944C57.5329 87.8413 57.3883 87.692 57.2856 87.496C57.1876 87.3 57.1386 87.055 57.1386 86.761V84.269H57.8876V86.607C57.8876 86.7843 57.9133 86.9383 57.9646 87.069C58.0159 87.1997 58.0953 87.3 58.2026 87.37C58.3099 87.4353 58.4453 87.468 58.6086 87.468C58.7439 87.468 58.8653 87.44 58.9726 87.384C59.0846 87.328 59.1779 87.2533 59.2526 87.16C59.3273 87.062 59.3856 86.9523 59.4276 86.831C59.4696 86.7097 59.4906 86.5837 59.4906 86.453ZM61.7395 85.249C61.7395 85.3843 61.7815 85.4893 61.8655 85.564C61.9495 85.634 62.0638 85.69 62.2085 85.732C62.3531 85.7693 62.5095 85.802 62.6775 85.83C62.8501 85.8533 63.0205 85.886 63.1885 85.928C63.3565 85.9653 63.5105 86.0213 63.6505 86.096C63.7951 86.166 63.9095 86.2663 63.9935 86.397C64.0821 86.5277 64.1265 86.7027 64.1265 86.922C64.1265 87.1553 64.0611 87.3607 63.9305 87.538C63.7998 87.7153 63.6178 87.853 63.3845 87.951C63.1558 88.0443 62.8898 88.091 62.5865 88.091C62.1385 88.091 61.7628 87.986 61.4595 87.776C61.1608 87.5613 60.9765 87.23 60.9065 86.782H61.6555C61.6928 87.0153 61.7955 87.195 61.9635 87.321C62.1315 87.447 62.3461 87.51 62.6075 87.51C62.8595 87.51 63.0508 87.4587 63.1815 87.356C63.3121 87.2533 63.3775 87.125 63.3775 86.971C63.3775 86.8403 63.3355 86.7377 63.2515 86.663C63.1675 86.5883 63.0531 86.5347 62.9085 86.502C62.7685 86.4647 62.6145 86.432 62.4465 86.404C62.2785 86.376 62.1105 86.3433 61.9425 86.306C61.7791 86.264 61.6275 86.2057 61.4875 86.131C61.3475 86.0563 61.2355 85.9537 61.1515 85.823C61.0675 85.6877 61.0255 85.5103 61.0255 85.291C61.0255 85.095 61.0745 84.913 61.1725 84.745C61.2751 84.5723 61.4291 84.4347 61.6345 84.332C61.8445 84.2247 62.1081 84.171 62.4255 84.171C62.7055 84.171 62.9551 84.2177 63.1745 84.311C63.3938 84.3997 63.5758 84.542 63.7205 84.738C63.8651 84.9293 63.9561 85.179 63.9935 85.487H63.2445C63.2025 85.2257 63.1091 85.0413 62.9645 84.934C62.8198 84.822 62.6285 84.766 62.3905 84.766C62.1851 84.766 62.0241 84.8127 61.9075 84.906C61.7955 84.9947 61.7395 85.109 61.7395 85.249ZM65.5155 85.487H64.7665C64.8085 85.2117 64.8972 84.976 65.0325 84.78C65.1678 84.584 65.3498 84.4347 65.5785 84.332C65.8072 84.2247 66.0755 84.171 66.3835 84.171C66.7195 84.171 66.9995 84.234 67.2235 84.36C67.4522 84.4813 67.6225 84.6517 67.7345 84.871C67.8465 85.0903 67.9025 85.3447 67.9025 85.634V87.09C67.9025 87.314 67.9118 87.496 67.9305 87.636C67.9538 87.776 67.9865 87.8973 68.0285 88H67.2445C67.2025 87.9067 67.1768 87.79 67.1675 87.65C67.1582 87.51 67.1535 87.3677 67.1535 87.223V85.641C67.1535 85.3703 67.0858 85.1627 66.9505 85.018C66.8198 84.8733 66.6122 84.801 66.3275 84.801C66.0848 84.801 65.8958 84.864 65.7605 84.99C65.6298 85.1113 65.5482 85.277 65.5155 85.487ZM67.2585 85.725V86.236C66.8758 86.236 66.5632 86.2547 66.3205 86.292C66.0778 86.3293 65.8888 86.383 65.7535 86.453C65.6182 86.5183 65.5248 86.5977 65.4735 86.691C65.4222 86.7797 65.3965 86.88 65.3965 86.992C65.3965 87.1507 65.4572 87.2767 65.5785 87.37C65.6998 87.4587 65.8585 87.503 66.0545 87.503C66.2645 87.503 66.4512 87.454 66.6145 87.356C66.7825 87.2533 66.9132 87.118 67.0065 86.95C67.1045 86.782 67.1535 86.6 67.1535 86.404H67.4895C67.4708 86.7027 67.4125 86.9593 67.3145 87.174C67.2165 87.3887 67.0905 87.5637 66.9365 87.699C66.7872 87.8343 66.6238 87.9347 66.4465 88C66.2692 88.0607 66.0918 88.091 65.9145 88.091C65.6625 88.091 65.4408 88.0513 65.2495 87.972C65.0582 87.8927 64.9088 87.7737 64.8015 87.615C64.6942 87.4563 64.6405 87.258 64.6405 87.02C64.6405 86.7633 64.7105 86.544 64.8505 86.362C64.9905 86.18 65.2005 86.04 65.4805 85.942C65.7418 85.8533 66.0125 85.795 66.2925 85.767C66.5725 85.739 66.8945 85.725 67.2585 85.725ZM70.1857 88.021C69.8684 88.021 69.5954 87.944 69.3667 87.79C69.1381 87.636 68.9631 87.4167 68.8417 87.132C68.7204 86.8427 68.6597 86.4997 68.6597 86.103C68.6597 85.4777 68.7951 84.9993 69.0657 84.668C69.3411 84.3367 69.7144 84.171 70.1857 84.171C70.6664 84.171 71.0257 84.339 71.2637 84.675C71.5017 85.0063 71.6207 85.48 71.6207 86.096C71.6207 86.726 71.4901 87.2043 71.2287 87.531C70.9721 87.8577 70.6244 88.021 70.1857 88.021ZM70.3397 87.391C70.6384 87.391 70.8647 87.2813 71.0187 87.062C71.1774 86.838 71.2567 86.516 71.2567 86.096C71.2567 85.6853 71.1751 85.368 71.0117 85.144C70.8531 84.9153 70.6291 84.801 70.3397 84.801C70.0411 84.801 69.8124 84.913 69.6537 85.137C69.4997 85.3563 69.4227 85.6783 69.4227 86.103C69.4227 86.5137 69.5021 86.831 69.6607 87.055C69.8194 87.279 70.0457 87.391 70.3397 87.391ZM72.0057 88.119C72.0057 88.4597 71.9357 88.742 71.7957 88.966C71.6557 89.19 71.4667 89.358 71.2287 89.47C70.9954 89.582 70.7294 89.638 70.4307 89.638C69.9827 89.638 69.6071 89.5307 69.3037 89.316C69.0051 89.106 68.8231 88.784 68.7577 88.35H69.5067C69.5394 88.574 69.6374 88.7443 69.8007 88.861C69.9687 88.9777 70.1764 89.036 70.4237 89.036C70.6757 89.036 70.8764 88.966 71.0257 88.826C71.1797 88.686 71.2567 88.455 71.2567 88.133V84.269H72.0057V88.119ZM75.8699 85.767L75.4429 86.117C75.4429 85.6923 75.3589 85.3657 75.1909 85.137C75.0229 84.9083 74.7826 84.794 74.4699 84.794C74.1526 84.794 73.9099 84.9107 73.7419 85.144C73.5786 85.3727 73.4969 85.704 73.4969 86.138C73.4969 86.5627 73.5833 86.8917 73.7559 87.125C73.9333 87.3537 74.1829 87.468 74.5049 87.468C74.7429 87.468 74.9413 87.412 75.0999 87.3C75.2633 87.188 75.3776 87.0153 75.4429 86.782H76.2269C76.1243 87.216 75.9189 87.5427 75.6109 87.762C75.3076 87.9813 74.9389 88.091 74.5049 88.091C74.1409 88.091 73.8259 88.014 73.5599 87.86C73.2939 87.7013 73.0886 87.475 72.9439 87.181C72.8039 86.887 72.7339 86.5393 72.7339 86.138C72.7339 85.7133 72.8039 85.3563 72.9439 85.067C73.0886 84.773 73.2916 84.5513 73.5529 84.402C73.8143 84.248 74.1199 84.171 74.4699 84.171C74.8293 84.171 75.1373 84.2503 75.3939 84.409C75.6506 84.563 75.8489 84.7823 75.9889 85.067C76.1289 85.3517 76.1989 85.6947 76.1989 86.096V86.278H73.0419V85.767H75.8699Z" fill="#282624"/>
<path d="M21.511 104V99.24H22.295V104H21.511ZM22.078 104V103.37H24.794V104H22.078ZM22.078 99.87V99.24H24.794V99.87H22.078ZM22.078 101.851V101.228H24.528V101.851H22.078ZM27.3069 100.171C27.6336 100.171 27.9136 100.25 28.1469 100.409C28.3849 100.563 28.5669 100.787 28.6929 101.081C28.8189 101.37 28.8819 101.718 28.8819 102.124C28.8819 102.759 28.7396 103.246 28.4549 103.587C28.1702 103.923 27.7876 104.091 27.3069 104.091C26.8822 104.091 26.5439 103.923 26.2919 103.587C26.0446 103.251 25.9209 102.763 25.9209 102.124C25.9209 101.727 25.9769 101.382 26.0889 101.088C26.2056 100.794 26.3666 100.568 26.5719 100.409C26.7819 100.25 27.0269 100.171 27.3069 100.171ZM27.2089 100.801C26.9056 100.801 26.6769 100.915 26.5229 101.144C26.3689 101.368 26.2919 101.695 26.2919 102.124C26.2919 102.553 26.3712 102.885 26.5299 103.118C26.6886 103.347 26.9149 103.461 27.2089 103.461C27.5029 103.461 27.7269 103.347 27.8809 103.118C28.0396 102.889 28.1189 102.558 28.1189 102.124C28.1189 101.699 28.0396 101.373 27.8809 101.144C27.7222 100.915 27.4982 100.801 27.2089 100.801ZM26.2919 104H25.5429V98.96H26.2919V104ZM29.6103 104V100.269H30.3593V104H29.6103ZM29.6103 99.807V98.96H30.3593V99.807H29.6103ZM32.6946 104V99.24H33.4786V104H32.6946ZM33.3736 101.641L35.5296 99.24H36.4816L34.2906 101.641H33.3736ZM33.3736 101.641L34.2556 101.48L36.5516 104H35.5296L33.3736 101.641ZM37.6727 101.487H36.9237C36.9657 101.212 37.0544 100.976 37.1897 100.78C37.3251 100.584 37.5071 100.435 37.7357 100.332C37.9644 100.225 38.2327 100.171 38.5407 100.171C38.8767 100.171 39.1567 100.234 39.3807 100.36C39.6094 100.481 39.7797 100.652 39.8917 100.871C40.0037 101.09 40.0597 101.345 40.0597 101.634V103.09C40.0597 103.314 40.0691 103.496 40.0877 103.636C40.1111 103.776 40.1437 103.897 40.1857 104H39.4017C39.3597 103.907 39.3341 103.79 39.3247 103.65C39.3154 103.51 39.3107 103.368 39.3107 103.223V101.641C39.3107 101.37 39.2431 101.163 39.1077 101.018C38.9771 100.873 38.7694 100.801 38.4847 100.801C38.2421 100.801 38.0531 100.864 37.9177 100.99C37.7871 101.111 37.7054 101.277 37.6727 101.487ZM39.4157 101.725V102.236C39.0331 102.236 38.7204 102.255 38.4777 102.292C38.2351 102.329 38.0461 102.383 37.9107 102.453C37.7754 102.518 37.6821 102.598 37.6307 102.691C37.5794 102.78 37.5537 102.88 37.5537 102.992C37.5537 103.151 37.6144 103.277 37.7357 103.37C37.8571 103.459 38.0157 103.503 38.2117 103.503C38.4217 103.503 38.6084 103.454 38.7717 103.356C38.9397 103.253 39.0704 103.118 39.1637 102.95C39.2617 102.782 39.3107 102.6 39.3107 102.404H39.6467C39.6281 102.703 39.5697 102.959 39.4717 103.174C39.3737 103.389 39.2477 103.564 39.0937 103.699C38.9444 103.834 38.7811 103.935 38.6037 104C38.4264 104.061 38.2491 104.091 38.0717 104.091C37.8197 104.091 37.5981 104.051 37.4067 103.972C37.2154 103.893 37.0661 103.774 36.9587 103.615C36.8514 103.456 36.7977 103.258 36.7977 103.02C36.7977 102.763 36.8677 102.544 37.0077 102.362C37.1477 102.18 37.3577 102.04 37.6377 101.942C37.8991 101.853 38.1697 101.795 38.4497 101.767C38.7297 101.739 39.0517 101.725 39.4157 101.725ZM41.0969 102.887V99.408H41.8459V102.845C41.8459 103.06 41.8879 103.218 41.9719 103.321C42.0606 103.424 42.2333 103.475 42.4899 103.475H42.6369V104.021C42.5996 104.044 42.5366 104.061 42.4479 104.07C42.3639 104.084 42.2706 104.091 42.1679 104.091C41.8086 104.091 41.5403 103.991 41.3629 103.79C41.1856 103.589 41.0969 103.288 41.0969 102.887ZM40.5929 100.85V100.269H42.6509V100.85H40.5929ZM43.8088 101.249C43.8088 101.384 43.8508 101.489 43.9348 101.564C44.0188 101.634 44.1331 101.69 44.2778 101.732C44.4225 101.769 44.5788 101.802 44.7468 101.83C44.9195 101.853 45.0898 101.886 45.2578 101.928C45.4258 101.965 45.5798 102.021 45.7198 102.096C45.8645 102.166 45.9788 102.266 46.0628 102.397C46.1515 102.528 46.1958 102.703 46.1958 102.922C46.1958 103.155 46.1305 103.361 45.9998 103.538C45.8691 103.715 45.6871 103.853 45.4538 103.951C45.2251 104.044 44.9591 104.091 44.6558 104.091C44.2078 104.091 43.8321 103.986 43.5288 103.776C43.2301 103.561 43.0458 103.23 42.9758 102.782H43.7248C43.7621 103.015 43.8648 103.195 44.0328 103.321C44.2008 103.447 44.4155 103.51 44.6768 103.51C44.9288 103.51 45.1201 103.459 45.2508 103.356C45.3815 103.253 45.4468 103.125 45.4468 102.971C45.4468 102.84 45.4048 102.738 45.3208 102.663C45.2368 102.588 45.1225 102.535 44.9778 102.502C44.8378 102.465 44.6838 102.432 44.5158 102.404C44.3478 102.376 44.1798 102.343 44.0118 102.306C43.8485 102.264 43.6968 102.206 43.5568 102.131C43.4168 102.056 43.3048 101.954 43.2208 101.823C43.1368 101.688 43.0948 101.51 43.0948 101.291C43.0948 101.095 43.1438 100.913 43.2418 100.745C43.3445 100.572 43.4985 100.435 43.7038 100.332C43.9138 100.225 44.1775 100.171 44.4948 100.171C44.7748 100.171 45.0245 100.218 45.2438 100.311C45.4631 100.4 45.6451 100.542 45.7898 100.738C45.9345 100.929 46.0255 101.179 46.0628 101.487H45.3138C45.2718 101.226 45.1785 101.041 45.0338 100.934C44.8891 100.822 44.6978 100.766 44.4598 100.766C44.2545 100.766 44.0935 100.813 43.9768 100.906C43.8648 100.995 43.8088 101.109 43.8088 101.249ZM49.9719 100.269V104H49.2299V100.269H49.9719ZM49.2299 102.453H49.5169C49.4982 102.822 49.4259 103.127 49.2999 103.37C49.1785 103.613 49.0152 103.795 48.8099 103.916C48.6092 104.033 48.3782 104.091 48.1169 104.091C47.8649 104.091 47.6455 104.042 47.4589 103.944C47.2722 103.841 47.1275 103.692 47.0249 103.496C46.9269 103.3 46.8779 103.055 46.8779 102.761V100.269H47.6269V102.607C47.6269 102.784 47.6525 102.938 47.7039 103.069C47.7552 103.2 47.8345 103.3 47.9419 103.37C48.0492 103.435 48.1845 103.468 48.3479 103.468C48.4832 103.468 48.6045 103.44 48.7119 103.384C48.8239 103.328 48.9172 103.253 48.9919 103.16C49.0665 103.062 49.1249 102.952 49.1669 102.831C49.2089 102.71 49.2299 102.584 49.2299 102.453Z" fill="#282624"/>
<path d="M66.732 32V23.84H68.652V32H66.732ZM70.452 32H68.136V30.476H70.404C70.764 30.476 71.04 30.388 71.232 30.212C71.424 30.036 71.52 29.8 71.52 29.504C71.52 29.224 71.42 28.996 71.22 28.82C71.02 28.636 70.728 28.544 70.344 28.544H68.136V27.152H69.96C70.328 27.152 70.6 27.072 70.776 26.912C70.96 26.744 71.052 26.532 71.052 26.276C71.052 25.996 70.96 25.776 70.776 25.616C70.6 25.448 70.34 25.364 69.996 25.364H68.136V23.84H70.044C70.964 23.84 71.692 24.052 72.228 24.476C72.764 24.892 73.032 25.452 73.032 26.156C73.032 26.62 72.888 27.008 72.6 27.32C72.32 27.624 71.94 27.828 71.46 27.932V27.524C72.108 27.62 72.608 27.848 72.96 28.208C73.312 28.56 73.488 29.02 73.488 29.588C73.488 30.356 73.224 30.952 72.696 31.376C72.168 31.792 71.42 32 70.452 32ZM83.213 30.476V29H87.089V30.476H83.213ZM87.305 32L85.409 26.648L85.097 25.46H85.241L84.917 26.648L83.021 32H81.089L84.065 23.84H86.369L89.357 32H87.305ZM100.722 32.192C99.8737 32.192 99.1457 32.02 98.5377 31.676C97.9297 31.332 97.4577 30.844 97.1217 30.212C96.7937 29.572 96.6297 28.812 96.6297 27.932C96.6297 27.052 96.7937 26.292 97.1217 25.652C97.4577 25.004 97.9297 24.508 98.5377 24.164C99.1457 23.82 99.8737 23.648 100.722 23.648C101.562 23.648 102.286 23.82 102.894 24.164C103.502 24.508 103.97 25.004 104.298 25.652C104.634 26.292 104.802 27.052 104.802 27.932C104.802 28.812 104.634 29.572 104.298 30.212C103.97 30.844 103.502 31.332 102.894 31.676C102.286 32.02 101.562 32.192 100.722 32.192ZM100.722 30.62C101.162 30.62 101.538 30.512 101.85 30.296C102.17 30.08 102.414 29.772 102.582 29.372C102.75 28.964 102.834 28.484 102.834 27.932C102.834 27.372 102.75 26.892 102.582 26.492C102.414 26.084 102.17 25.772 101.85 25.556C101.538 25.332 101.162 25.22 100.722 25.22C100.274 25.22 99.8897 25.332 99.5697 25.556C99.2577 25.772 99.0177 26.084 98.8497 26.492C98.6817 26.892 98.5977 27.372 98.5977 27.932C98.5977 28.484 98.6817 28.964 98.8497 29.372C99.0177 29.772 99.2577 30.08 99.5697 30.296C99.8897 30.512 100.274 30.62 100.722 30.62Z" fill="#282624"/>
<line x1="8" y1="45.5" x2="163" y2="45.5" stroke="#282624"/>
<line x1="8" y1="61.5" x2="163" y2="61.5" stroke="#282624"/>
<line x1="8" y1="77.5" x2="163" y2="77.5" stroke="#282624"/>
<line x1="8" y1="93.5" x2="163" y2="93.5" stroke="#282624"/>
<line x1="8" y1="109.5" x2="163" y2="109.5" stroke="#282624"/>
<line x1="8" y1="125.5" x2="163" y2="125.5" stroke="#282624"/>
<line x1="135.5" y1="45" x2="135.5" y2="126" stroke="#282624"/>
<path d="M25.529 52.654H24.71C24.626 52.3833 24.479 52.1757 24.269 52.031C24.059 51.8817 23.8117 51.807 23.527 51.807C23.2377 51.807 22.9903 51.8817 22.785 52.031C22.5797 52.1757 22.421 52.3833 22.309 52.654C22.197 52.9247 22.141 53.249 22.141 53.627C22.141 54.005 22.1947 54.3293 22.302 54.6C22.414 54.866 22.5727 55.0713 22.778 55.216C22.9833 55.3607 23.233 55.433 23.527 55.433C23.7977 55.433 24.0357 55.363 24.241 55.223C24.451 55.083 24.6027 54.88 24.696 54.614H25.522C25.4333 54.9267 25.291 55.195 25.095 55.419C24.9037 55.6383 24.6727 55.8063 24.402 55.923C24.1313 56.035 23.8397 56.091 23.527 56.091C23.0743 56.091 22.6847 55.993 22.358 55.797C22.0313 55.5963 21.7793 55.3117 21.602 54.943C21.4293 54.5743 21.343 54.1357 21.343 53.627C21.343 53.1183 21.4317 52.6797 21.609 52.311C21.7863 51.9377 22.0383 51.6507 22.365 51.45C22.6963 51.2493 23.0907 51.149 23.548 51.149C23.8653 51.149 24.1593 51.205 24.43 51.317C24.7053 51.429 24.9387 51.5993 25.13 51.828C25.3213 52.052 25.4543 52.3273 25.529 52.654ZM26.2538 56V50.96H27.0028V56H26.2538ZM27.0028 53.809H26.7088C26.7322 53.445 26.8045 53.1417 26.9258 52.899C27.0518 52.6563 27.2175 52.4743 27.4228 52.353C27.6282 52.2317 27.8638 52.171 28.1298 52.171C28.3912 52.171 28.6152 52.2223 28.8018 52.325C28.9885 52.423 29.1332 52.5723 29.2358 52.773C29.3385 52.969 29.3898 53.214 29.3898 53.508V56H28.6478V53.662C28.6478 53.48 28.6198 53.326 28.5638 53.2C28.5078 53.0693 28.4262 52.969 28.3188 52.899C28.2115 52.829 28.0715 52.794 27.8988 52.794C27.7588 52.794 27.6328 52.8243 27.5208 52.885C27.4088 52.941 27.3132 53.0157 27.2338 53.109C27.1592 53.2023 27.1008 53.3097 27.0588 53.431C27.0215 53.5523 27.0028 53.6783 27.0028 53.809ZM31.0077 53.487H30.2587C30.3007 53.2117 30.3894 52.976 30.5247 52.78C30.66 52.584 30.842 52.4347 31.0707 52.332C31.2994 52.2247 31.5677 52.171 31.8757 52.171C32.2117 52.171 32.4917 52.234 32.7157 52.36C32.9444 52.4813 33.1147 52.6517 33.2267 52.871C33.3387 53.0903 33.3947 53.3447 33.3947 53.634V55.09C33.3947 55.314 33.404 55.496 33.4227 55.636C33.446 55.776 33.4787 55.8973 33.5207 56H32.7367C32.6947 55.9067 32.669 55.79 32.6597 55.65C32.6504 55.51 32.6457 55.3677 32.6457 55.223V53.641C32.6457 53.3703 32.578 53.1627 32.4427 53.018C32.312 52.8733 32.1044 52.801 31.8197 52.801C31.577 52.801 31.388 52.864 31.2527 52.99C31.122 53.1113 31.0404 53.277 31.0077 53.487ZM32.7507 53.725V54.236C32.368 54.236 32.0554 54.2547 31.8127 54.292C31.57 54.3293 31.381 54.383 31.2457 54.453C31.1104 54.5183 31.017 54.5977 30.9657 54.691C30.9144 54.7797 30.8887 54.88 30.8887 54.992C30.8887 55.1507 30.9494 55.2767 31.0707 55.37C31.192 55.4587 31.3507 55.503 31.5467 55.503C31.7567 55.503 31.9434 55.454 32.1067 55.356C32.2747 55.2533 32.4054 55.118 32.4987 54.95C32.5967 54.782 32.6457 54.6 32.6457 54.404H32.9817C32.963 54.7027 32.9047 54.9593 32.8067 55.174C32.7087 55.3887 32.5827 55.5637 32.4287 55.699C32.2794 55.8343 32.116 55.9347 31.9387 56C31.7614 56.0607 31.584 56.091 31.4067 56.091C31.1547 56.091 30.933 56.0513 30.7417 55.972C30.5504 55.8927 30.401 55.7737 30.2937 55.615C30.1864 55.4563 30.1327 55.258 30.1327 55.02C30.1327 54.7633 30.2027 54.544 30.3427 54.362C30.4827 54.18 30.6927 54.04 30.9727 53.942C31.234 53.8533 31.5047 53.795 31.7847 53.767C32.0647 53.739 32.3867 53.725 32.7507 53.725ZM34.9289 53.249C34.9289 53.3843 34.9709 53.4893 35.0549 53.564C35.1389 53.634 35.2532 53.69 35.3979 53.732C35.5426 53.7693 35.6989 53.802 35.8669 53.83C36.0396 53.8533 36.2099 53.886 36.3779 53.928C36.5459 53.9653 36.6999 54.0213 36.8399 54.096C36.9846 54.166 37.0989 54.2663 37.1829 54.397C37.2716 54.5277 37.3159 54.7027 37.3159 54.922C37.3159 55.1553 37.2506 55.3607 37.1199 55.538C36.9892 55.7153 36.8072 55.853 36.5739 55.951C36.3452 56.0443 36.0792 56.091 35.7759 56.091C35.3279 56.091 34.9522 55.986 34.6489 55.776C34.3502 55.5613 34.1659 55.23 34.0959 54.782H34.8449C34.8822 55.0153 34.9849 55.195 35.1529 55.321C35.3209 55.447 35.5356 55.51 35.7969 55.51C36.0489 55.51 36.2402 55.4587 36.3709 55.356C36.5016 55.2533 36.5669 55.125 36.5669 54.971C36.5669 54.8403 36.5249 54.7377 36.4409 54.663C36.3569 54.5883 36.2426 54.5347 36.0979 54.502C35.9579 54.4647 35.8039 54.432 35.6359 54.404C35.4679 54.376 35.2999 54.3433 35.1319 54.306C34.9686 54.264 34.8169 54.2057 34.6769 54.131C34.5369 54.0563 34.4249 53.9537 34.3409 53.823C34.2569 53.6877 34.2149 53.5103 34.2149 53.291C34.2149 53.095 34.2639 52.913 34.3619 52.745C34.4646 52.5723 34.6186 52.4347 34.8239 52.332C35.0339 52.2247 35.2976 52.171 35.6149 52.171C35.8949 52.171 36.1446 52.2177 36.3639 52.311C36.5832 52.3997 36.7652 52.542 36.9099 52.738C37.0546 52.9293 37.1456 53.179 37.1829 53.487H36.4339C36.3919 53.2257 36.2986 53.0413 36.1539 52.934C36.0092 52.822 35.8179 52.766 35.5799 52.766C35.3746 52.766 35.2136 52.8127 35.0969 52.906C34.9849 52.9947 34.9289 53.109 34.9289 53.249ZM37.998 56V50.96H38.747V56H37.998ZM38.747 53.809H38.453C38.4763 53.445 38.5486 53.1417 38.67 52.899C38.796 52.6563 38.9616 52.4743 39.167 52.353C39.3723 52.2317 39.608 52.171 39.874 52.171C40.1353 52.171 40.3593 52.2223 40.546 52.325C40.7326 52.423 40.8773 52.5723 40.98 52.773C41.0826 52.969 41.134 53.214 41.134 53.508V56H40.392V53.662C40.392 53.48 40.364 53.326 40.308 53.2C40.252 53.0693 40.1703 52.969 40.063 52.899C39.9556 52.829 39.8156 52.794 39.643 52.794C39.503 52.794 39.377 52.8243 39.265 52.885C39.153 52.941 39.0573 53.0157 38.978 53.109C38.9033 53.2023 38.845 53.3097 38.803 53.431C38.7656 53.5523 38.747 53.6783 38.747 53.809ZM45.1388 52.269V56H44.3968V52.269H45.1388ZM44.3968 54.453H44.6838C44.6652 54.8217 44.5928 55.1273 44.4668 55.37C44.3455 55.6127 44.1822 55.7947 43.9768 55.916C43.7762 56.0327 43.5452 56.091 43.2838 56.091C43.0318 56.091 42.8125 56.042 42.6258 55.944C42.4392 55.8413 42.2945 55.692 42.1918 55.496C42.0938 55.3 42.0448 55.055 42.0448 54.761V52.269H42.7938V54.607C42.7938 54.7843 42.8195 54.9383 42.8708 55.069C42.9222 55.1997 43.0015 55.3 43.1088 55.37C43.2162 55.4353 43.3515 55.468 43.5148 55.468C43.6502 55.468 43.7715 55.44 43.8788 55.384C43.9908 55.328 44.0842 55.2533 44.1588 55.16C44.2335 55.062 44.2918 54.9523 44.3338 54.831C44.3758 54.7097 44.3968 54.5837 44.3968 54.453ZM47.4807 56V51.24H48.2647V56H47.4807ZM49.1887 54.313H48.0477V53.683H49.1467C49.4734 53.683 49.7254 53.6013 49.9027 53.438C50.0801 53.2747 50.1687 53.0553 50.1687 52.78C50.1687 52.5 50.0801 52.2783 49.9027 52.115C49.7254 51.9517 49.4804 51.87 49.1677 51.87H48.0477V51.24H49.1747C49.5481 51.24 49.8677 51.303 50.1337 51.429C50.4044 51.5503 50.6121 51.7253 50.7567 51.954C50.9014 52.178 50.9737 52.451 50.9737 52.773C50.9737 53.263 50.8104 53.6433 50.4837 53.914C50.1617 54.18 49.7301 54.313 49.1887 54.313ZM53.2582 56.091C52.8989 56.091 52.5885 56.014 52.3272 55.86C52.0659 55.7013 51.8652 55.475 51.7252 55.181C51.5852 54.887 51.5152 54.5393 51.5152 54.138C51.5152 53.7133 51.5852 53.3563 51.7252 53.067C51.8699 52.773 52.0729 52.5513 52.3342 52.402C52.6002 52.248 52.9082 52.171 53.2582 52.171C53.6222 52.171 53.9349 52.2503 54.1962 52.409C54.4575 52.5677 54.6559 52.794 54.7912 53.088C54.9312 53.3773 55.0012 53.7273 55.0012 54.138C55.0012 54.5533 54.9312 54.908 54.7912 55.202C54.6512 55.4913 54.4505 55.713 54.1892 55.867C53.9279 56.0163 53.6175 56.091 53.2582 56.091ZM53.2582 55.461C53.5755 55.461 53.8182 55.3467 53.9862 55.118C54.1542 54.8893 54.2382 54.5627 54.2382 54.138C54.2382 53.7087 54.1542 53.3797 53.9862 53.151C53.8182 52.9177 53.5755 52.801 53.2582 52.801C52.9409 52.801 52.6982 52.9153 52.5302 53.144C52.3622 53.3727 52.2782 53.704 52.2782 54.138C52.2782 54.5627 52.3622 54.8893 52.5302 55.118C52.7029 55.3467 52.9455 55.461 53.2582 55.461ZM55.7304 56V52.269H56.4794V56H55.7304ZM56.4794 53.963H56.1994C56.2181 53.543 56.2904 53.2023 56.4164 52.941C56.5471 52.675 56.7081 52.4813 56.8994 52.36C57.0954 52.234 57.3101 52.171 57.5434 52.171C57.6181 52.171 57.6881 52.1803 57.7534 52.199C57.8187 52.213 57.8677 52.2363 57.9004 52.269V52.927C57.8444 52.9083 57.7837 52.8967 57.7184 52.892C57.6531 52.8827 57.5807 52.878 57.5014 52.878C57.3241 52.878 57.1701 52.9037 57.0394 52.955C56.9134 53.0063 56.8084 53.081 56.7244 53.179C56.6404 53.2723 56.5774 53.3867 56.5354 53.522C56.4981 53.6527 56.4794 53.7997 56.4794 53.963ZM58.4101 56V50.96H59.1591V56H58.4101ZM59.0331 53.984L60.6431 52.269H61.5391L59.8731 53.984H59.0331ZM59.0331 53.984L59.8801 53.872L61.6371 56H60.7061L59.0331 53.984Z" fill="#282624"/>
<path d="M21.511 72V67.24H22.295V72H21.511ZM22.19 69.641L24.346 67.24H25.298L23.107 69.641H22.19ZM22.19 69.641L23.072 69.48L25.368 72H24.346L22.19 69.641ZM26.4891 69.487H25.7401C25.7821 69.2117 25.8708 68.976 26.0061 68.78C26.1415 68.584 26.3235 68.4347 26.5521 68.332C26.7808 68.2247 27.0491 68.171 27.3571 68.171C27.6931 68.171 27.9731 68.234 28.1971 68.36C28.4258 68.4813 28.5961 68.6517 28.7081 68.871C28.8201 69.0903 28.8761 69.3447 28.8761 69.634V71.09C28.8761 71.314 28.8855 71.496 28.9041 71.636C28.9275 71.776 28.9601 71.8973 29.0021 72H28.2181C28.1761 71.9067 28.1505 71.79 28.1411 71.65C28.1318 71.51 28.1271 71.3677 28.1271 71.223V69.641C28.1271 69.3703 28.0595 69.1627 27.9241 69.018C27.7935 68.8733 27.5858 68.801 27.3011 68.801C27.0585 68.801 26.8695 68.864 26.7341 68.99C26.6035 69.1113 26.5218 69.277 26.4891 69.487ZM28.2321 69.725V70.236C27.8495 70.236 27.5368 70.2547 27.2941 70.292C27.0515 70.3293 26.8625 70.383 26.7271 70.453C26.5918 70.5183 26.4985 70.5977 26.4471 70.691C26.3958 70.7797 26.3701 70.88 26.3701 70.992C26.3701 71.1507 26.4308 71.2767 26.5521 71.37C26.6735 71.4587 26.8321 71.503 27.0281 71.503C27.2381 71.503 27.4248 71.454 27.5881 71.356C27.7561 71.2533 27.8868 71.118 27.9801 70.95C28.0781 70.782 28.1271 70.6 28.1271 70.404H28.4631C28.4445 70.7027 28.3861 70.9593 28.2881 71.174C28.1901 71.3887 28.0641 71.5637 27.9101 71.699C27.7608 71.8343 27.5975 71.9347 27.4201 72C27.2428 72.0607 27.0655 72.091 26.8881 72.091C26.6361 72.091 26.4145 72.0513 26.2231 71.972C26.0318 71.8927 25.8825 71.7737 25.7751 71.615C25.6678 71.4563 25.6141 71.258 25.6141 71.02C25.6141 70.7633 25.6841 70.544 25.8241 70.362C25.9641 70.18 26.1741 70.04 26.4541 69.942C26.7155 69.8533 26.9861 69.795 27.2661 69.767C27.5461 69.739 27.8681 69.725 28.2321 69.725ZM30.5224 69.487H29.7734C29.8154 69.2117 29.904 68.976 30.0394 68.78C30.1747 68.584 30.3567 68.4347 30.5854 68.332C30.814 68.2247 31.0824 68.171 31.3904 68.171C31.7264 68.171 32.0064 68.234 32.2304 68.36C32.459 68.4813 32.6294 68.6517 32.7414 68.871C32.8534 69.0903 32.9094 69.3447 32.9094 69.634V71.09C32.9094 71.314 32.9187 71.496 32.9374 71.636C32.9607 71.776 32.9934 71.8973 33.0354 72H32.2514C32.2094 71.9067 32.1837 71.79 32.1744 71.65C32.165 71.51 32.1604 71.3677 32.1604 71.223V69.641C32.1604 69.3703 32.0927 69.1627 31.9574 69.018C31.8267 68.8733 31.619 68.801 31.3344 68.801C31.0917 68.801 30.9027 68.864 30.7674 68.99C30.6367 69.1113 30.555 69.277 30.5224 69.487ZM32.2654 69.725V70.236C31.8827 70.236 31.57 70.2547 31.3274 70.292C31.0847 70.3293 30.8957 70.383 30.7604 70.453C30.625 70.5183 30.5317 70.5977 30.4804 70.691C30.429 70.7797 30.4034 70.88 30.4034 70.992C30.4034 71.1507 30.464 71.2767 30.5854 71.37C30.7067 71.4587 30.8654 71.503 31.0614 71.503C31.2714 71.503 31.458 71.454 31.6214 71.356C31.7894 71.2533 31.92 71.118 32.0134 70.95C32.1114 70.782 32.1604 70.6 32.1604 70.404H32.4964C32.4777 70.7027 32.4194 70.9593 32.3214 71.174C32.2234 71.3887 32.0974 71.5637 31.9434 71.699C31.794 71.8343 31.6307 71.9347 31.4534 72C31.276 72.0607 31.0987 72.091 30.9214 72.091C30.6694 72.091 30.4477 72.0513 30.2564 71.972C30.065 71.8927 29.9157 71.7737 29.8084 71.615C29.701 71.4563 29.6474 71.258 29.6474 71.02C29.6474 70.7633 29.7174 70.544 29.8574 70.362C29.9974 70.18 30.2074 70.04 30.4874 69.942C30.7487 69.8533 31.0194 69.795 31.2994 69.767C31.5794 69.739 31.9014 69.725 32.2654 69.725ZM33.8486 72V68.269H34.5976V72H33.8486ZM34.5976 69.963H34.3176C34.3362 69.543 34.4086 69.2023 34.5346 68.941C34.6652 68.675 34.8262 68.4813 35.0176 68.36C35.2136 68.234 35.4282 68.171 35.6616 68.171C35.7362 68.171 35.8062 68.1803 35.8716 68.199C35.9369 68.213 35.9859 68.2363 36.0186 68.269V68.927C35.9626 68.9083 35.9019 68.8967 35.8366 68.892C35.7712 68.8827 35.6989 68.878 35.6196 68.878C35.4422 68.878 35.2882 68.9037 35.1576 68.955C35.0316 69.0063 34.9266 69.081 34.8426 69.179C34.7586 69.2723 34.6956 69.3867 34.6536 69.522C34.6162 69.6527 34.5976 69.7997 34.5976 69.963ZM37.1806 69.487H36.4316C36.4736 69.2117 36.5622 68.976 36.6976 68.78C36.8329 68.584 37.0149 68.4347 37.2436 68.332C37.4722 68.2247 37.7406 68.171 38.0486 68.171C38.3846 68.171 38.6646 68.234 38.8886 68.36C39.1172 68.4813 39.2876 68.6517 39.3996 68.871C39.5116 69.0903 39.5676 69.3447 39.5676 69.634V71.09C39.5676 71.314 39.5769 71.496 39.5956 71.636C39.6189 71.776 39.6516 71.8973 39.6936 72H38.9096C38.8676 71.9067 38.8419 71.79 38.8326 71.65C38.8232 71.51 38.8186 71.3677 38.8186 71.223V69.641C38.8186 69.3703 38.7509 69.1627 38.6156 69.018C38.4849 68.8733 38.2772 68.801 37.9926 68.801C37.7499 68.801 37.5609 68.864 37.4256 68.99C37.2949 69.1113 37.2132 69.277 37.1806 69.487ZM38.9236 69.725V70.236C38.5409 70.236 38.2282 70.2547 37.9856 70.292C37.7429 70.3293 37.5539 70.383 37.4186 70.453C37.2832 70.5183 37.1899 70.5977 37.1386 70.691C37.0872 70.7797 37.0616 70.88 37.0616 70.992C37.0616 71.1507 37.1222 71.2767 37.2436 71.37C37.3649 71.4587 37.5236 71.503 37.7196 71.503C37.9296 71.503 38.1162 71.454 38.2796 71.356C38.4476 71.2533 38.5782 71.118 38.6716 70.95C38.7696 70.782 38.8186 70.6 38.8186 70.404H39.1546C39.1359 70.7027 39.0776 70.9593 38.9796 71.174C38.8816 71.3887 38.7556 71.5637 38.6016 71.699C38.4522 71.8343 38.2889 71.9347 38.1116 72C37.9342 72.0607 37.7569 72.091 37.5796 72.091C37.3276 72.091 37.1059 72.0513 36.9146 71.972C36.7232 71.8927 36.5739 71.7737 36.4666 71.615C36.3592 71.4563 36.3056 71.258 36.3056 71.02C36.3056 70.7633 36.3756 70.544 36.5156 70.362C36.6556 70.18 36.8656 70.04 37.1456 69.942C37.4069 69.8533 37.6776 69.795 37.9576 69.767C38.2376 69.739 38.5596 69.725 38.9236 69.725ZM41.8508 72.021C41.5334 72.021 41.2604 71.944 41.0318 71.79C40.8031 71.636 40.6281 71.4167 40.5068 71.132C40.3854 70.8427 40.3248 70.4997 40.3248 70.103C40.3248 69.4777 40.4601 68.9993 40.7308 68.668C41.0061 68.3367 41.3794 68.171 41.8508 68.171C42.3314 68.171 42.6908 68.339 42.9288 68.675C43.1668 69.0063 43.2858 69.48 43.2858 70.096C43.2858 70.726 43.1551 71.2043 42.8938 71.531C42.6371 71.8577 42.2894 72.021 41.8508 72.021ZM42.0048 71.391C42.3034 71.391 42.5298 71.2813 42.6838 71.062C42.8424 70.838 42.9218 70.516 42.9218 70.096C42.9218 69.6853 42.8401 69.368 42.6768 69.144C42.5181 68.9153 42.2941 68.801 42.0048 68.801C41.7061 68.801 41.4774 68.913 41.3188 69.137C41.1648 69.3563 41.0878 69.6783 41.0878 70.103C41.0878 70.5137 41.1671 70.831 41.3258 71.055C41.4844 71.279 41.7108 71.391 42.0048 71.391ZM43.6708 72.119C43.6708 72.4597 43.6008 72.742 43.4608 72.966C43.3208 73.19 43.1318 73.358 42.8938 73.47C42.6604 73.582 42.3944 73.638 42.0958 73.638C41.6478 73.638 41.2721 73.5307 40.9688 73.316C40.6701 73.106 40.4881 72.784 40.4228 72.35H41.1718C41.2044 72.574 41.3024 72.7443 41.4658 72.861C41.6338 72.9777 41.8414 73.036 42.0888 73.036C42.3408 73.036 42.5414 72.966 42.6908 72.826C42.8448 72.686 42.9218 72.455 42.9218 72.133V68.269H43.6708V72.119ZM47.535 69.767L47.108 70.117C47.108 69.6923 47.024 69.3657 46.856 69.137C46.688 68.9083 46.4476 68.794 46.135 68.794C45.8176 68.794 45.575 68.9107 45.407 69.144C45.2436 69.3727 45.162 69.704 45.162 70.138C45.162 70.5627 45.2483 70.8917 45.421 71.125C45.5983 71.3537 45.848 71.468 46.17 71.468C46.408 71.468 46.6063 71.412 46.765 71.3C46.9283 71.188 47.0426 71.0153 47.108 70.782H47.892C47.7893 71.216 47.584 71.5427 47.276 71.762C46.9726 71.9813 46.604 72.091 46.17 72.091C45.806 72.091 45.491 72.014 45.225 71.86C44.959 71.7013 44.7536 71.475 44.609 71.181C44.469 70.887 44.399 70.5393 44.399 70.138C44.399 69.7133 44.469 69.3563 44.609 69.067C44.7536 68.773 44.9566 68.5513 45.218 68.402C45.4793 68.248 45.785 68.171 46.135 68.171C46.4943 68.171 46.8023 68.2503 47.059 68.409C47.3156 68.563 47.514 68.7823 47.654 69.067C47.794 69.3517 47.864 69.6947 47.864 70.096V70.278H44.707V69.767H47.535ZM54.0622 68.654H53.2432C53.1592 68.3833 53.0122 68.1757 52.8022 68.031C52.5922 67.8817 52.3449 67.807 52.0602 67.807C51.7709 67.807 51.5235 67.8817 51.3182 68.031C51.1129 68.1757 50.9542 68.3833 50.8422 68.654C50.7302 68.9247 50.6742 69.249 50.6742 69.627C50.6742 70.005 50.7279 70.3293 50.8352 70.6C50.9472 70.866 51.1059 71.0713 51.3112 71.216C51.5165 71.3607 51.7662 71.433 52.0602 71.433C52.3309 71.433 52.5689 71.363 52.7742 71.223C52.9842 71.083 53.1359 70.88 53.2292 70.614H54.0552C53.9665 70.9267 53.8242 71.195 53.6282 71.419C53.4369 71.6383 53.2059 71.8063 52.9352 71.923C52.6645 72.035 52.3729 72.091 52.0602 72.091C51.6075 72.091 51.2179 71.993 50.8912 71.797C50.5645 71.5963 50.3125 71.3117 50.1352 70.943C49.9625 70.5743 49.8762 70.1357 49.8762 69.627C49.8762 69.1183 49.9649 68.6797 50.1422 68.311C50.3195 67.9377 50.5715 67.6507 50.8982 67.45C51.2295 67.2493 51.6239 67.149 52.0812 67.149C52.3985 67.149 52.6925 67.205 52.9632 67.317C53.2385 67.429 53.4719 67.5993 53.6632 67.828C53.8545 68.052 53.9875 68.3273 54.0622 68.654ZM54.787 72V66.96H55.536V72H54.787ZM55.536 69.809H55.242C55.2654 69.445 55.3377 69.1417 55.459 68.899C55.585 68.6563 55.7507 68.4743 55.956 68.353C56.1614 68.2317 56.397 68.171 56.663 68.171C56.9244 68.171 57.1484 68.2223 57.335 68.325C57.5217 68.423 57.6664 68.5723 57.769 68.773C57.8717 68.969 57.923 69.214 57.923 69.508V72H57.181V69.662C57.181 69.48 57.153 69.326 57.097 69.2C57.041 69.0693 56.9594 68.969 56.852 68.899C56.7447 68.829 56.6047 68.794 56.432 68.794C56.292 68.794 56.166 68.8243 56.054 68.885C55.942 68.941 55.8464 69.0157 55.767 69.109C55.6924 69.2023 55.634 69.3097 55.592 69.431C55.5547 69.5523 55.536 69.6783 55.536 69.809ZM58.8339 72V68.269H59.5829V72H58.8339ZM58.8339 67.807V66.96H59.5829V67.807H58.8339ZM63.6452 69.571H62.8962C62.8495 69.305 62.7469 69.1113 62.5882 68.99C62.4342 68.864 62.2475 68.801 62.0282 68.801C61.7155 68.801 61.4775 68.9153 61.3142 69.144C61.1509 69.3727 61.0692 69.704 61.0692 70.138C61.0692 70.5627 61.1532 70.8917 61.3212 71.125C61.4939 71.3537 61.7365 71.468 62.0492 71.468C62.2732 71.468 62.4599 71.4073 62.6092 71.286C62.7632 71.1647 62.8682 70.985 62.9242 70.747H63.6662C63.5869 71.2137 63.3979 71.5543 63.0992 71.769C62.8052 71.9837 62.4505 72.091 62.0352 72.091C61.6759 72.091 61.3679 72.014 61.1112 71.86C60.8545 71.7013 60.6562 71.475 60.5162 71.181C60.3762 70.887 60.3062 70.5393 60.3062 70.138C60.3062 69.7133 60.3762 69.3563 60.5162 69.067C60.6562 68.773 60.8545 68.5513 61.1112 68.402C61.3679 68.248 61.6735 68.171 62.0282 68.171C62.3082 68.171 62.5625 68.2247 62.7912 68.332C63.0199 68.4347 63.2089 68.5887 63.3582 68.794C63.5075 68.9993 63.6032 69.2583 63.6452 69.571ZM64.3642 72V66.96H65.1132V72H64.3642ZM64.9872 69.984L66.5972 68.269H67.4932L65.8272 69.984H64.9872ZM64.9872 69.984L65.8342 69.872L67.5912 72H66.6602L64.9872 69.984ZM70.7908 69.767L70.3638 70.117C70.3638 69.6923 70.2798 69.3657 70.1118 69.137C69.9438 68.9083 69.7035 68.794 69.3908 68.794C69.0735 68.794 68.8308 68.9107 68.6628 69.144C68.4995 69.3727 68.4178 69.704 68.4178 70.138C68.4178 70.5627 68.5042 70.8917 68.6768 71.125C68.8542 71.3537 69.1038 71.468 69.4258 71.468C69.6638 71.468 69.8622 71.412 70.0208 71.3C70.1842 71.188 70.2985 71.0153 70.3638 70.782H71.1478C71.0452 71.216 70.8398 71.5427 70.5318 71.762C70.2285 71.9813 69.8598 72.091 69.4258 72.091C69.0618 72.091 68.7468 72.014 68.4808 71.86C68.2148 71.7013 68.0095 71.475 67.8648 71.181C67.7248 70.887 67.6548 70.5393 67.6548 70.138C67.6548 69.7133 67.7248 69.3563 67.8648 69.067C68.0095 68.773 68.2125 68.5513 68.4738 68.402C68.7352 68.248 69.0408 68.171 69.3908 68.171C69.7502 68.171 70.0582 68.2503 70.3148 68.409C70.5715 68.563 70.7698 68.7823 70.9098 69.067C71.0498 69.3517 71.1198 69.6947 71.1198 70.096V70.278H67.9628V69.767H70.7908ZM71.87 72V68.269H72.619V72H71.87ZM72.619 69.809H72.325C72.3484 69.445 72.4207 69.1417 72.542 68.899C72.668 68.6563 72.8337 68.4743 73.039 68.353C73.2444 68.2317 73.48 68.171 73.746 68.171C74.0074 68.171 74.2314 68.2223 74.418 68.325C74.6047 68.423 74.7494 68.5723 74.852 68.773C74.9547 68.969 75.006 69.214 75.006 69.508V72H74.264V69.662C74.264 69.48 74.236 69.326 74.18 69.2C74.124 69.0693 74.0424 68.969 73.935 68.899C73.8277 68.829 73.6877 68.794 73.515 68.794C73.375 68.794 73.249 68.8243 73.137 68.885C73.025 68.941 72.9294 69.0157 72.85 69.109C72.7754 69.2023 72.717 69.3097 72.675 69.431C72.6377 69.5523 72.619 69.6783 72.619 69.809Z" fill="#282624"/>
<path d="M146.408 34.8H147.524V30C147.524 29.464 147.64 29.016 147.872 28.656C148.104 28.288 148.42 28.008 148.82 27.816C149.22 27.624 149.672 27.528 150.176 27.528C150.712 27.528 151.168 27.648 151.544 27.888C151.92 28.12 152.248 28.46 152.528 28.908L151.352 29.556C151.232 29.324 151.072 29.12 150.872 28.944C150.68 28.768 150.444 28.68 150.164 28.68C149.94 28.68 149.752 28.732 149.6 28.836C149.448 28.932 149.332 29.068 149.252 29.244C149.18 29.42 149.144 29.616 149.144 29.832V34.8H152.66V36H146.408V34.8ZM146.6 32.592L146.72 31.608H151.064L150.944 32.592H146.6Z" fill="#282624"/>
<path d="M25.529 116.654H24.71C24.626 116.383 24.479 116.176 24.269 116.031C24.059 115.882 23.8117 115.807 23.527 115.807C23.2377 115.807 22.9903 115.882 22.785 116.031C22.5797 116.176 22.421 116.383 22.309 116.654C22.197 116.925 22.141 117.249 22.141 117.627C22.141 118.005 22.1947 118.329 22.302 118.6C22.414 118.866 22.5727 119.071 22.778 119.216C22.9833 119.361 23.233 119.433 23.527 119.433C23.7977 119.433 24.0357 119.363 24.241 119.223C24.451 119.083 24.6027 118.88 24.696 118.614H25.522C25.4333 118.927 25.291 119.195 25.095 119.419C24.9037 119.638 24.6727 119.806 24.402 119.923C24.1313 120.035 23.8397 120.091 23.527 120.091C23.0743 120.091 22.6847 119.993 22.358 119.797C22.0313 119.596 21.7793 119.312 21.602 118.943C21.4293 118.574 21.343 118.136 21.343 117.627C21.343 117.118 21.4317 116.68 21.609 116.311C21.7863 115.938 22.0383 115.651 22.365 115.45C22.6963 115.249 23.0907 115.149 23.548 115.149C23.8653 115.149 24.1593 115.205 24.43 115.317C24.7053 115.429 24.9387 115.599 25.13 115.828C25.3213 116.052 25.4543 116.327 25.529 116.654ZM29.2078 117.767L28.7808 118.117C28.7808 117.692 28.6968 117.366 28.5288 117.137C28.3608 116.908 28.1205 116.794 27.8078 116.794C27.4905 116.794 27.2478 116.911 27.0798 117.144C26.9165 117.373 26.8348 117.704 26.8348 118.138C26.8348 118.563 26.9212 118.892 27.0938 119.125C27.2712 119.354 27.5208 119.468 27.8428 119.468C28.0808 119.468 28.2792 119.412 28.4378 119.3C28.6012 119.188 28.7155 119.015 28.7808 118.782H29.5648C29.4622 119.216 29.2568 119.543 28.9488 119.762C28.6455 119.981 28.2768 120.091 27.8428 120.091C27.4788 120.091 27.1638 120.014 26.8978 119.86C26.6318 119.701 26.4265 119.475 26.2818 119.181C26.1418 118.887 26.0718 118.539 26.0718 118.138C26.0718 117.713 26.1418 117.356 26.2818 117.067C26.4265 116.773 26.6295 116.551 26.8908 116.402C27.1522 116.248 27.4578 116.171 27.8078 116.171C28.1672 116.171 28.4752 116.25 28.7318 116.409C28.9885 116.563 29.1868 116.782 29.3268 117.067C29.4668 117.352 29.5368 117.695 29.5368 118.096V118.278H26.3798V117.767H29.2078ZM30.287 120V114.96H31.036V120H30.287ZM34.8953 117.767L34.4683 118.117C34.4683 117.692 34.3843 117.366 34.2163 117.137C34.0483 116.908 33.808 116.794 33.4953 116.794C33.178 116.794 32.9353 116.911 32.7673 117.144C32.604 117.373 32.5223 117.704 32.5223 118.138C32.5223 118.563 32.6087 118.892 32.7813 119.125C32.9587 119.354 33.2083 119.468 33.5303 119.468C33.7683 119.468 33.9667 119.412 34.1253 119.3C34.2887 119.188 34.403 119.015 34.4683 118.782H35.2523C35.1497 119.216 34.9443 119.543 34.6363 119.762C34.333 119.981 33.9643 120.091 33.5303 120.091C33.1663 120.091 32.8513 120.014 32.5853 119.86C32.3193 119.701 32.114 119.475 31.9693 119.181C31.8293 118.887 31.7593 118.539 31.7593 118.138C31.7593 117.713 31.8293 117.356 31.9693 117.067C32.114 116.773 32.317 116.551 32.5783 116.402C32.8397 116.248 33.1453 116.171 33.4953 116.171C33.8547 116.171 34.1627 116.25 34.4193 116.409C34.676 116.563 34.8743 116.782 35.0143 117.067C35.1543 117.352 35.2243 117.695 35.2243 118.096V118.278H32.0673V117.767H34.8953ZM35.9745 120V116.269H36.7235V120H35.9745ZM36.7235 117.963H36.4435C36.4622 117.543 36.5345 117.202 36.6605 116.941C36.7912 116.675 36.9522 116.481 37.1435 116.36C37.3395 116.234 37.5542 116.171 37.7875 116.171C37.8622 116.171 37.9322 116.18 37.9975 116.199C38.0629 116.213 38.1119 116.236 38.1445 116.269V116.927C38.0885 116.908 38.0279 116.897 37.9625 116.892C37.8972 116.883 37.8249 116.878 37.7455 116.878C37.5682 116.878 37.4142 116.904 37.2835 116.955C37.1575 117.006 37.0525 117.081 36.9685 117.179C36.8845 117.272 36.8215 117.387 36.7795 117.522C36.7422 117.653 36.7235 117.8 36.7235 117.963ZM38.6542 120V116.269H39.4032V120H38.6542ZM38.6542 115.807V114.96H39.4032V115.807H38.6542ZM41.0155 117.487H40.2665C40.3085 117.212 40.3972 116.976 40.5325 116.78C40.6678 116.584 40.8498 116.435 41.0785 116.332C41.3072 116.225 41.5755 116.171 41.8835 116.171C42.2195 116.171 42.4995 116.234 42.7235 116.36C42.9522 116.481 43.1225 116.652 43.2345 116.871C43.3465 117.09 43.4025 117.345 43.4025 117.634V119.09C43.4025 119.314 43.4118 119.496 43.4305 119.636C43.4538 119.776 43.4865 119.897 43.5285 120H42.7445C42.7025 119.907 42.6768 119.79 42.6675 119.65C42.6582 119.51 42.6535 119.368 42.6535 119.223V117.641C42.6535 117.37 42.5858 117.163 42.4505 117.018C42.3198 116.873 42.1122 116.801 41.8275 116.801C41.5848 116.801 41.3958 116.864 41.2605 116.99C41.1298 117.111 41.0482 117.277 41.0155 117.487ZM42.7585 117.725V118.236C42.3758 118.236 42.0632 118.255 41.8205 118.292C41.5778 118.329 41.3888 118.383 41.2535 118.453C41.1182 118.518 41.0248 118.598 40.9735 118.691C40.9222 118.78 40.8965 118.88 40.8965 118.992C40.8965 119.151 40.9572 119.277 41.0785 119.37C41.1998 119.459 41.3585 119.503 41.5545 119.503C41.7645 119.503 41.9512 119.454 42.1145 119.356C42.2825 119.253 42.4132 119.118 42.5065 118.95C42.6045 118.782 42.6535 118.6 42.6535 118.404H42.9895C42.9708 118.703 42.9125 118.959 42.8145 119.174C42.7165 119.389 42.5905 119.564 42.4365 119.699C42.2872 119.834 42.1238 119.935 41.9465 120C41.7692 120.061 41.5918 120.091 41.4145 120.091C41.1625 120.091 40.9408 120.051 40.7495 119.972C40.5582 119.893 40.4088 119.774 40.3015 119.615C40.1942 119.456 40.1405 119.258 40.1405 119.02C40.1405 118.763 40.2105 118.544 40.3505 118.362C40.4905 118.18 40.7005 118.04 40.9805 117.942C41.2418 117.853 41.5125 117.795 41.7925 117.767C42.0725 117.739 42.3945 117.725 42.7585 117.725ZM47.4987 117.571H46.7497C46.7031 117.305 46.6004 117.111 46.4417 116.99C46.2877 116.864 46.1011 116.801 45.8817 116.801C45.5691 116.801 45.3311 116.915 45.1677 117.144C45.0044 117.373 44.9227 117.704 44.9227 118.138C44.9227 118.563 45.0067 118.892 45.1747 119.125C45.3474 119.354 45.5901 119.468 45.9027 119.468C46.1267 119.468 46.3134 119.407 46.4627 119.286C46.6167 119.165 46.7217 118.985 46.7777 118.747H47.5197C47.4404 119.214 47.2514 119.554 46.9527 119.769C46.6587 119.984 46.3041 120.091 45.8887 120.091C45.5294 120.091 45.2214 120.014 44.9647 119.86C44.7081 119.701 44.5097 119.475 44.3697 119.181C44.2297 118.887 44.1597 118.539 44.1597 118.138C44.1597 117.713 44.2297 117.356 44.3697 117.067C44.5097 116.773 44.7081 116.551 44.9647 116.402C45.2214 116.248 45.5271 116.171 45.8817 116.171C46.1617 116.171 46.4161 116.225 46.6447 116.332C46.8734 116.435 47.0624 116.589 47.2117 116.794C47.3611 116.999 47.4567 117.258 47.4987 117.571ZM53.6657 116.654H52.8467C52.7627 116.383 52.6157 116.176 52.4057 116.031C52.1957 115.882 51.9484 115.807 51.6637 115.807C51.3744 115.807 51.1271 115.882 50.9217 116.031C50.7164 116.176 50.5577 116.383 50.4457 116.654C50.3337 116.925 50.2777 117.249 50.2777 117.627C50.2777 118.005 50.3314 118.329 50.4387 118.6C50.5507 118.866 50.7094 119.071 50.9147 119.216C51.1201 119.361 51.3697 119.433 51.6637 119.433C51.9344 119.433 52.1724 119.363 52.3777 119.223C52.5877 119.083 52.7394 118.88 52.8327 118.614H53.6587C53.5701 118.927 53.4277 119.195 53.2317 119.419C53.0404 119.638 52.8094 119.806 52.5387 119.923C52.2681 120.035 51.9764 120.091 51.6637 120.091C51.2111 120.091 50.8214 119.993 50.4947 119.797C50.1681 119.596 49.9161 119.312 49.7387 118.943C49.5661 118.574 49.4797 118.136 49.4797 117.627C49.4797 117.118 49.5684 116.68 49.7457 116.311C49.9231 115.938 50.1751 115.651 50.5017 115.45C50.8331 115.249 51.2274 115.149 51.6847 115.149C52.0021 115.149 52.2961 115.205 52.5667 115.317C52.8421 115.429 53.0754 115.599 53.2667 115.828C53.4581 116.052 53.5911 116.327 53.6657 116.654ZM54.3905 120V114.96H55.1395V120H54.3905ZM55.1395 117.809H54.8455C54.8689 117.445 54.9412 117.142 55.0625 116.899C55.1885 116.656 55.3542 116.474 55.5595 116.353C55.7649 116.232 56.0005 116.171 56.2665 116.171C56.5279 116.171 56.7519 116.222 56.9385 116.325C57.1252 116.423 57.2699 116.572 57.3725 116.773C57.4752 116.969 57.5265 117.214 57.5265 117.508V120H56.7845V117.662C56.7845 117.48 56.7565 117.326 56.7005 117.2C56.6445 117.069 56.5629 116.969 56.4555 116.899C56.3482 116.829 56.2082 116.794 56.0355 116.794C55.8955 116.794 55.7695 116.824 55.6575 116.885C55.5455 116.941 55.4499 117.016 55.3705 117.109C55.2959 117.202 55.2375 117.31 55.1955 117.431C55.1582 117.552 55.1395 117.678 55.1395 117.809ZM59.1444 117.487H58.3954C58.4374 117.212 58.5261 116.976 58.6614 116.78C58.7968 116.584 58.9788 116.435 59.2074 116.332C59.4361 116.225 59.7044 116.171 60.0124 116.171C60.3484 116.171 60.6284 116.234 60.8524 116.36C61.0811 116.481 61.2514 116.652 61.3634 116.871C61.4754 117.09 61.5314 117.345 61.5314 117.634V119.09C61.5314 119.314 61.5408 119.496 61.5594 119.636C61.5828 119.776 61.6154 119.897 61.6574 120H60.8734C60.8314 119.907 60.8058 119.79 60.7964 119.65C60.7871 119.51 60.7824 119.368 60.7824 119.223V117.641C60.7824 117.37 60.7148 117.163 60.5794 117.018C60.4488 116.873 60.2411 116.801 59.9564 116.801C59.7138 116.801 59.5248 116.864 59.3894 116.99C59.2588 117.111 59.1771 117.277 59.1444 117.487ZM60.8874 117.725V118.236C60.5048 118.236 60.1921 118.255 59.9494 118.292C59.7068 118.329 59.5178 118.383 59.3824 118.453C59.2471 118.518 59.1538 118.598 59.1024 118.691C59.0511 118.78 59.0254 118.88 59.0254 118.992C59.0254 119.151 59.0861 119.277 59.2074 119.37C59.3288 119.459 59.4874 119.503 59.6834 119.503C59.8934 119.503 60.0801 119.454 60.2434 119.356C60.4114 119.253 60.5421 119.118 60.6354 118.95C60.7334 118.782 60.7824 118.6 60.7824 118.404H61.1184C61.0998 118.703 61.0414 118.959 60.9434 119.174C60.8454 119.389 60.7194 119.564 60.5654 119.699C60.4161 119.834 60.2528 119.935 60.0754 120C59.8981 120.061 59.7208 120.091 59.5434 120.091C59.2914 120.091 59.0698 120.051 58.8784 119.972C58.6871 119.893 58.5378 119.774 58.4304 119.615C58.3231 119.456 58.2694 119.258 58.2694 119.02C58.2694 118.763 58.3394 118.544 58.4794 118.362C58.6194 118.18 58.8294 118.04 59.1094 117.942C59.3708 117.853 59.6414 117.795 59.9214 117.767C60.2014 117.739 60.5234 117.725 60.8874 117.725ZM63.0656 117.249C63.0656 117.384 63.1076 117.489 63.1916 117.564C63.2756 117.634 63.39 117.69 63.5346 117.732C63.6793 117.769 63.8356 117.802 64.0036 117.83C64.1763 117.853 64.3466 117.886 64.5146 117.928C64.6826 117.965 64.8366 118.021 64.9766 118.096C65.1213 118.166 65.2356 118.266 65.3196 118.397C65.4083 118.528 65.4526 118.703 65.4526 118.922C65.4526 119.155 65.3873 119.361 65.2566 119.538C65.126 119.715 64.944 119.853 64.7106 119.951C64.482 120.044 64.216 120.091 63.9126 120.091C63.4646 120.091 63.089 119.986 62.7856 119.776C62.487 119.561 62.3026 119.23 62.2326 118.782H62.9816C63.019 119.015 63.1216 119.195 63.2896 119.321C63.4576 119.447 63.6723 119.51 63.9336 119.51C64.1856 119.51 64.377 119.459 64.5076 119.356C64.6383 119.253 64.7036 119.125 64.7036 118.971C64.7036 118.84 64.6616 118.738 64.5776 118.663C64.4936 118.588 64.3793 118.535 64.2346 118.502C64.0946 118.465 63.9406 118.432 63.7726 118.404C63.6046 118.376 63.4366 118.343 63.2686 118.306C63.1053 118.264 62.9536 118.206 62.8136 118.131C62.6736 118.056 62.5616 117.954 62.4776 117.823C62.3936 117.688 62.3516 117.51 62.3516 117.291C62.3516 117.095 62.4006 116.913 62.4986 116.745C62.6013 116.572 62.7553 116.435 62.9606 116.332C63.1706 116.225 63.4343 116.171 63.7516 116.171C64.0316 116.171 64.2813 116.218 64.5006 116.311C64.72 116.4 64.902 116.542 65.0466 116.738C65.1913 116.929 65.2823 117.179 65.3196 117.487H64.5706C64.5286 117.226 64.4353 117.041 64.2906 116.934C64.146 116.822 63.9546 116.766 63.7166 116.766C63.5113 116.766 63.3503 116.813 63.2336 116.906C63.1216 116.995 63.0656 117.109 63.0656 117.249ZM66.1347 120V114.96H66.8837V120H66.1347ZM66.8837 117.809H66.5897C66.613 117.445 66.6854 117.142 66.8067 116.899C66.9327 116.656 67.0984 116.474 67.3037 116.353C67.509 116.232 67.7447 116.171 68.0107 116.171C68.272 116.171 68.496 116.222 68.6827 116.325C68.8694 116.423 69.014 116.572 69.1167 116.773C69.2194 116.969 69.2707 117.214 69.2707 117.508V120H68.5287V117.662C68.5287 117.48 68.5007 117.326 68.4447 117.2C68.3887 117.069 68.307 116.969 68.1997 116.899C68.0924 116.829 67.9524 116.794 67.7797 116.794C67.6397 116.794 67.5137 116.824 67.4017 116.885C67.2897 116.941 67.194 117.016 67.1147 117.109C67.04 117.202 66.9817 117.31 66.9397 117.431C66.9024 117.552 66.8837 117.678 66.8837 117.809ZM73.2756 116.269V120H72.5336V116.269H73.2756ZM72.5336 118.453H72.8206C72.8019 118.822 72.7296 119.127 72.6036 119.37C72.4822 119.613 72.3189 119.795 72.1136 119.916C71.9129 120.033 71.6819 120.091 71.4206 120.091C71.1686 120.091 70.9492 120.042 70.7626 119.944C70.5759 119.841 70.4312 119.692 70.3286 119.496C70.2306 119.3 70.1816 119.055 70.1816 118.761V116.269H70.9306V118.607C70.9306 118.784 70.9562 118.938 71.0076 119.069C71.0589 119.2 71.1382 119.3 71.2456 119.37C71.3529 119.435 71.4882 119.468 71.6516 119.468C71.7869 119.468 71.9082 119.44 72.0156 119.384C72.1276 119.328 72.2209 119.253 72.2956 119.16C72.3702 119.062 72.4286 118.952 72.4706 118.831C72.5126 118.71 72.5336 118.584 72.5336 118.453ZM76.2684 117.487H75.5194C75.5614 117.212 75.6501 116.976 75.7854 116.78C75.9208 116.584 76.1028 116.435 76.3314 116.332C76.5601 116.225 76.8284 116.171 77.1364 116.171C77.4724 116.171 77.7524 116.234 77.9764 116.36C78.2051 116.481 78.3754 116.652 78.4874 116.871C78.5994 117.09 78.6554 117.345 78.6554 117.634V119.09C78.6554 119.314 78.6648 119.496 78.6834 119.636C78.7068 119.776 78.7394 119.897 78.7814 120H77.9974C77.9554 119.907 77.9298 119.79 77.9204 119.65C77.9111 119.51 77.9064 119.368 77.9064 119.223V117.641C77.9064 117.37 77.8388 117.163 77.7034 117.018C77.5728 116.873 77.3651 116.801 77.0804 116.801C76.8378 116.801 76.6488 116.864 76.5134 116.99C76.3828 117.111 76.3011 117.277 76.2684 117.487ZM78.0114 117.725V118.236C77.6288 118.236 77.3161 118.255 77.0734 118.292C76.8308 118.329 76.6418 118.383 76.5064 118.453C76.3711 118.518 76.2778 118.598 76.2264 118.691C76.1751 118.78 76.1494 118.88 76.1494 118.992C76.1494 119.151 76.2101 119.277 76.3314 119.37C76.4528 119.459 76.6114 119.503 76.8074 119.503C77.0174 119.503 77.2041 119.454 77.3674 119.356C77.5354 119.253 77.6661 119.118 77.7594 118.95C77.8574 118.782 77.9064 118.6 77.9064 118.404H78.2424C78.2238 118.703 78.1654 118.959 78.0674 119.174C77.9694 119.389 77.8434 119.564 77.6894 119.699C77.5401 119.834 77.3768 119.935 77.1994 120C77.0221 120.061 76.8448 120.091 76.6674 120.091C76.4154 120.091 76.1938 120.051 76.0024 119.972C75.8111 119.893 75.6618 119.774 75.5544 119.615C75.4471 119.456 75.3934 119.258 75.3934 119.02C75.3934 118.763 75.4634 118.544 75.6034 118.362C75.7434 118.18 75.9534 118.04 76.2334 117.942C76.4948 117.853 76.7654 117.795 77.0454 117.767C77.3254 117.739 77.6474 117.725 78.0114 117.725ZM79.5946 120V116.269H80.3436V120H79.5946ZM80.3436 117.809H80.0496C80.073 117.445 80.1453 117.142 80.2666 116.899C80.3926 116.656 80.5583 116.474 80.7636 116.353C80.969 116.232 81.2046 116.171 81.4706 116.171C81.732 116.171 81.956 116.222 82.1426 116.325C82.3293 116.423 82.474 116.572 82.5766 116.773C82.6793 116.969 82.7306 117.214 82.7306 117.508V120H81.9886V117.662C81.9886 117.48 81.9606 117.326 81.9046 117.2C81.8486 117.069 81.767 116.969 81.6596 116.899C81.5523 116.829 81.4123 116.794 81.2396 116.794C81.0996 116.794 80.9736 116.824 80.8616 116.885C80.7496 116.941 80.654 117.016 80.5746 117.109C80.5 117.202 80.4416 117.31 80.3996 117.431C80.3623 117.552 80.3436 117.678 80.3436 117.809ZM85.0415 120.091C84.7149 120.091 84.4325 120.014 84.1945 119.86C83.9565 119.701 83.7745 119.475 83.6485 119.181C83.5225 118.887 83.4595 118.539 83.4595 118.138C83.4595 117.503 83.6019 117.018 83.8865 116.682C84.1712 116.341 84.5562 116.171 85.0415 116.171C85.4615 116.171 85.7952 116.339 86.0425 116.675C86.2945 117.011 86.4205 117.499 86.4205 118.138C86.4205 118.539 86.3645 118.887 86.2525 119.181C86.1405 119.47 85.9795 119.694 85.7695 119.853C85.5642 120.012 85.3215 120.091 85.0415 120.091ZM85.1395 119.461C85.4382 119.461 85.6645 119.349 85.8185 119.125C85.9772 118.896 86.0565 118.567 86.0565 118.138C86.0565 117.709 85.9749 117.38 85.8115 117.151C85.6529 116.918 85.4289 116.801 85.1395 116.801C84.8409 116.801 84.6122 116.915 84.4535 117.144C84.2995 117.373 84.2225 117.704 84.2225 118.138C84.2225 118.563 84.3019 118.889 84.4605 119.118C84.6239 119.347 84.8502 119.461 85.1395 119.461ZM86.0565 120V114.96H86.8055V120H86.0565ZM89.1389 120V115.24H89.9229V120H89.1389ZM90.7699 119.363C91.1106 119.363 91.3999 119.295 91.6379 119.16C91.8806 119.02 92.0649 118.822 92.1909 118.565C92.3216 118.304 92.3869 117.991 92.3869 117.627C92.3869 117.258 92.3216 116.943 92.1909 116.682C92.0649 116.421 91.8806 116.222 91.6379 116.087C91.3999 115.947 91.1106 115.877 90.7699 115.877H89.7059V115.24H90.7699C91.2693 115.24 91.6986 115.336 92.0579 115.527C92.4173 115.718 92.6949 115.991 92.8909 116.346C93.0869 116.701 93.1849 117.128 93.1849 117.627C93.1849 118.122 93.0869 118.546 92.8909 118.901C92.6949 119.256 92.4173 119.529 92.0579 119.72C91.6986 119.907 91.2693 120 90.7699 120H89.7059V119.363H90.7699ZM94.6981 117.487H93.9491C93.9911 117.212 94.0798 116.976 94.2151 116.78C94.3505 116.584 94.5325 116.435 94.7611 116.332C94.9898 116.225 95.2581 116.171 95.5661 116.171C95.9021 116.171 96.1821 116.234 96.4061 116.36C96.6348 116.481 96.8051 116.652 96.9171 116.871C97.0291 117.09 97.0851 117.345 97.0851 117.634V119.09C97.0851 119.314 97.0945 119.496 97.1131 119.636C97.1365 119.776 97.1691 119.897 97.2111 120H96.4271C96.3851 119.907 96.3595 119.79 96.3501 119.65C96.3408 119.51 96.3361 119.368 96.3361 119.223V117.641C96.3361 117.37 96.2685 117.163 96.1331 117.018C96.0025 116.873 95.7948 116.801 95.5101 116.801C95.2675 116.801 95.0785 116.864 94.9431 116.99C94.8125 117.111 94.7308 117.277 94.6981 117.487ZM96.4411 117.725V118.236C96.0585 118.236 95.7458 118.255 95.5031 118.292C95.2605 118.329 95.0715 118.383 94.9361 118.453C94.8008 118.518 94.7075 118.598 94.6561 118.691C94.6048 118.78 94.5791 118.88 94.5791 118.992C94.5791 119.151 94.6398 119.277 94.7611 119.37C94.8825 119.459 95.0411 119.503 95.2371 119.503C95.4471 119.503 95.6338 119.454 95.7971 119.356C95.9651 119.253 96.0958 119.118 96.1891 118.95C96.2871 118.782 96.3361 118.6 96.3361 118.404H96.6721C96.6535 118.703 96.5951 118.959 96.4971 119.174C96.3991 119.389 96.2731 119.564 96.1191 119.699C95.9698 119.834 95.8065 119.935 95.6291 120C95.4518 120.061 95.2745 120.091 95.0971 120.091C94.8451 120.091 94.6235 120.051 94.4321 119.972C94.2408 119.893 94.0915 119.774 93.9841 119.615C93.8768 119.456 93.8231 119.258 93.8231 119.02C93.8231 118.763 93.8931 118.544 94.0331 118.362C94.1731 118.18 94.3831 118.04 94.6631 117.942C94.9245 117.853 95.1951 117.795 95.4751 117.767C95.7551 117.739 96.0771 117.725 96.4411 117.725ZM98.0243 120V116.269H98.7733V120H98.0243ZM98.0243 115.807V114.96H98.7733V115.807H98.0243ZM99.6786 120V114.96H100.428V120H99.6786ZM100.302 117.984L101.912 116.269H102.808L101.142 117.984H100.302ZM100.302 117.984L101.149 117.872L102.906 120H101.975L100.302 117.984ZM104.712 120.091C104.353 120.091 104.043 120.014 103.781 119.86C103.52 119.701 103.319 119.475 103.179 119.181C103.039 118.887 102.969 118.539 102.969 118.138C102.969 117.713 103.039 117.356 103.179 117.067C103.324 116.773 103.527 116.551 103.788 116.402C104.054 116.248 104.362 116.171 104.712 116.171C105.076 116.171 105.389 116.25 105.65 116.409C105.912 116.568 106.11 116.794 106.245 117.088C106.385 117.377 106.455 117.727 106.455 118.138C106.455 118.553 106.385 118.908 106.245 119.202C106.105 119.491 105.905 119.713 105.643 119.867C105.382 120.016 105.072 120.091 104.712 120.091ZM104.712 119.461C105.03 119.461 105.272 119.347 105.44 119.118C105.608 118.889 105.692 118.563 105.692 118.138C105.692 117.709 105.608 117.38 105.44 117.151C105.272 116.918 105.03 116.801 104.712 116.801C104.395 116.801 104.152 116.915 103.984 117.144C103.816 117.373 103.732 117.704 103.732 118.138C103.732 118.563 103.816 118.889 103.984 119.118C104.157 119.347 104.4 119.461 104.712 119.461ZM107.184 120V116.269H107.933V120H107.184ZM107.933 117.809H107.639C107.663 117.445 107.735 117.142 107.856 116.899C107.982 116.656 108.148 116.474 108.353 116.353C108.559 116.232 108.794 116.171 109.06 116.171C109.322 116.171 109.546 116.222 109.732 116.325C109.919 116.423 110.064 116.572 110.166 116.773C110.269 116.969 110.32 117.214 110.32 117.508V120H109.578V117.662C109.578 117.48 109.55 117.326 109.494 117.2C109.438 117.069 109.357 116.969 109.249 116.899C109.142 116.829 109.002 116.794 108.829 116.794C108.689 116.794 108.563 116.824 108.451 116.885C108.339 116.941 108.244 117.016 108.164 117.109C108.09 117.202 108.031 117.31 107.989 117.431C107.952 117.552 107.933 117.678 107.933 117.809Z" fill="#282624"/>
<path d="M122.455 119.905V115.4H123.22V119.905H122.455ZM123.005 115.935V115.4H123.82V115.935H123.005ZM123.005 119.905V119.37H123.82V119.905H123.005ZM125.129 119L124.179 116.31H125.004L125.549 118.09L125.674 118.66H125.569L125.689 118.09L126.239 116.31H127.024L126.074 119H125.129ZM128.75 119.905H127.985V115.4H128.75V119.905ZM128.2 115.935H127.385V115.4H128.2V115.935ZM128.2 119.905H127.385V119.37H128.2V119.905Z" fill="#282624"/>
<path d="M147.312 54.28C147.312 54.632 147.237 54.9467 147.088 55.224C146.944 55.496 146.728 55.712 146.44 55.872C146.157 56.0267 145.803 56.104 145.376 56.104C144.987 56.104 144.651 56.0427 144.368 55.92C144.085 55.792 143.859 55.6107 143.688 55.376C143.517 55.1413 143.408 54.8587 143.36 54.528H144.216C144.264 54.7947 144.381 55.0053 144.568 55.16C144.76 55.3093 145.027 55.384 145.368 55.384C145.731 55.384 146.003 55.288 146.184 55.096C146.365 54.904 146.456 54.6373 146.456 54.296C146.456 54.152 146.437 54.0133 146.4 53.88C146.368 53.7467 146.307 53.6267 146.216 53.52C146.131 53.408 146.019 53.3227 145.88 53.264C145.741 53.2 145.568 53.168 145.36 53.168C145.179 53.168 145.021 53.192 144.888 53.24C144.755 53.288 144.643 53.3493 144.552 53.424C144.461 53.4987 144.387 53.5813 144.328 53.672L143.56 53.6L143.952 53.144C144.128 52.9467 144.331 52.784 144.56 52.656C144.789 52.5227 145.08 52.456 145.432 52.456C145.773 52.456 146.061 52.5067 146.296 52.608C146.536 52.704 146.731 52.8373 146.88 53.008C147.029 53.1733 147.139 53.368 147.208 53.592C147.277 53.8107 147.312 54.04 147.312 54.28ZM143.72 50.856H147.064V51.528H144.408L144.296 53.336L143.56 53.6L143.72 50.856ZM151.849 53.904H151.105V51.64C151.079 51.64 151.052 51.64 151.025 51.64C150.999 51.64 150.967 51.64 150.929 51.64H150.537V51.12H150.769C150.945 51.12 151.065 51.1013 151.129 51.064C151.193 51.0213 151.225 50.9547 151.225 50.864V50.824H151.849V53.904ZM150.537 53.904V53.376H152.417V53.904H150.537ZM151.129 56L154.721 50.856H155.529L151.929 56H151.129ZM156.145 53.824C156.145 53.9893 156.105 54.1333 156.025 54.256C155.945 54.3733 155.844 54.4773 155.721 54.568C155.599 54.6587 155.468 54.744 155.329 54.824C155.191 54.904 155.06 54.9867 154.937 55.072C154.815 55.1573 154.713 55.2533 154.633 55.36C154.553 55.4667 154.513 55.5947 154.513 55.744L153.833 55.832C153.833 55.6027 153.873 55.4107 153.953 55.256C154.033 55.096 154.132 54.9627 154.249 54.856C154.372 54.7493 154.503 54.656 154.641 54.576C154.78 54.496 154.908 54.4213 155.025 54.352C155.148 54.2773 155.249 54.2 155.329 54.12C155.409 54.04 155.449 53.944 155.449 53.832C155.449 53.6987 155.412 53.5973 155.337 53.528C155.263 53.4533 155.159 53.416 155.025 53.416C154.876 53.416 154.761 53.4533 154.681 53.528C154.601 53.6027 154.548 53.7093 154.521 53.848H153.825C153.868 53.5387 153.993 53.2933 154.201 53.112C154.415 52.9307 154.689 52.84 155.025 52.84C155.271 52.84 155.476 52.8853 155.641 52.976C155.812 53.0613 155.937 53.1787 156.017 53.328C156.103 53.472 156.145 53.6373 156.145 53.824ZM153.833 56V55.832L154.393 55.464H156.145V56H153.833Z" fill="#282624"/>
<path d="M147.312 70.28C147.312 70.632 147.237 70.9467 147.088 71.224C146.944 71.496 146.728 71.712 146.44 71.872C146.157 72.0267 145.803 72.104 145.376 72.104C144.987 72.104 144.651 72.0427 144.368 71.92C144.085 71.792 143.859 71.6107 143.688 71.376C143.517 71.1413 143.408 70.8587 143.36 70.528H144.216C144.264 70.7947 144.381 71.0053 144.568 71.16C144.76 71.3093 145.027 71.384 145.368 71.384C145.731 71.384 146.003 71.288 146.184 71.096C146.365 70.904 146.456 70.6373 146.456 70.296C146.456 70.152 146.437 70.0133 146.4 69.88C146.368 69.7467 146.307 69.6267 146.216 69.52C146.131 69.408 146.019 69.3227 145.88 69.264C145.741 69.2 145.568 69.168 145.36 69.168C145.179 69.168 145.021 69.192 144.888 69.24C144.755 69.288 144.643 69.3493 144.552 69.424C144.461 69.4987 144.387 69.5813 144.328 69.672L143.56 69.6L143.952 69.144C144.128 68.9467 144.331 68.784 144.56 68.656C144.789 68.5227 145.08 68.456 145.432 68.456C145.773 68.456 146.061 68.5067 146.296 68.608C146.536 68.704 146.731 68.8373 146.88 69.008C147.029 69.1733 147.139 69.368 147.208 69.592C147.277 69.8107 147.312 70.04 147.312 70.28ZM143.72 66.856H147.064V67.528H144.408L144.296 69.336L143.56 69.6L143.72 66.856ZM152.545 67.688C152.545 67.8693 152.495 68.0187 152.393 68.136C152.292 68.2533 152.132 68.3387 151.913 68.392C151.7 68.4453 151.423 68.472 151.081 68.472V68.088H151.241C151.412 68.088 151.54 68.0693 151.625 68.032C151.716 67.9893 151.775 67.9387 151.801 67.88C151.833 67.816 151.849 67.7547 151.849 67.696C151.849 67.5787 151.809 67.488 151.729 67.424C151.649 67.3547 151.54 67.32 151.401 67.32C151.252 67.32 151.135 67.36 151.049 67.44C150.964 67.5147 150.908 67.6187 150.881 67.752H150.201C150.244 67.4427 150.372 67.2 150.585 67.024C150.799 66.8427 151.073 66.752 151.409 66.752C151.66 66.752 151.868 66.7947 152.033 66.88C152.199 66.9653 152.324 67.08 152.409 67.224C152.5 67.3627 152.545 67.5173 152.545 67.688ZM152.633 69.016C152.633 69.192 152.585 69.352 152.489 69.496C152.399 69.64 152.263 69.7573 152.081 69.848C151.9 69.9333 151.673 69.976 151.401 69.976C151.055 69.976 150.767 69.8853 150.537 69.704C150.313 69.5227 150.18 69.2747 150.137 68.96H150.817C150.844 69.0987 150.905 69.2107 151.001 69.296C151.097 69.3813 151.231 69.424 151.401 69.424C151.567 69.424 151.697 69.3867 151.793 69.312C151.889 69.2373 151.937 69.1307 151.937 68.992C151.937 68.9173 151.919 68.8507 151.881 68.792C151.844 68.728 151.78 68.6773 151.689 68.64C151.599 68.6027 151.465 68.584 151.289 68.584H151.081V68.112C151.455 68.112 151.753 68.1493 151.977 68.224C152.207 68.2987 152.372 68.4027 152.473 68.536C152.58 68.6693 152.633 68.8293 152.633 69.016ZM151.337 72L154.929 66.856H155.737L152.137 72H151.337ZM155.897 72H155.201V69.696L154.305 70.84H156.273V71.368H153.793V70.752L155.257 68.92H155.897V72Z" fill="#282624"/>
<path d="M147.312 118.28C147.312 118.632 147.237 118.947 147.088 119.224C146.944 119.496 146.728 119.712 146.44 119.872C146.157 120.027 145.803 120.104 145.376 120.104C144.987 120.104 144.651 120.043 144.368 119.92C144.085 119.792 143.859 119.611 143.688 119.376C143.517 119.141 143.408 118.859 143.36 118.528H144.216C144.264 118.795 144.381 119.005 144.568 119.16C144.76 119.309 145.027 119.384 145.368 119.384C145.731 119.384 146.003 119.288 146.184 119.096C146.365 118.904 146.456 118.637 146.456 118.296C146.456 118.152 146.437 118.013 146.4 117.88C146.368 117.747 146.307 117.627 146.216 117.52C146.131 117.408 146.019 117.323 145.88 117.264C145.741 117.2 145.568 117.168 145.36 117.168C145.179 117.168 145.021 117.192 144.888 117.24C144.755 117.288 144.643 117.349 144.552 117.424C144.461 117.499 144.387 117.581 144.328 117.672L143.56 117.6L143.952 117.144C144.128 116.947 144.331 116.784 144.56 116.656C144.789 116.523 145.08 116.456 145.432 116.456C145.773 116.456 146.061 116.507 146.296 116.608C146.536 116.704 146.731 116.837 146.88 117.008C147.029 117.173 147.139 117.368 147.208 117.592C147.277 117.811 147.312 118.04 147.312 118.28ZM143.72 114.856H147.064V115.528H144.408L144.296 117.336L143.56 117.6L143.72 114.856ZM151.849 117.904H151.105V115.64C151.079 115.64 151.052 115.64 151.025 115.64C150.999 115.64 150.967 115.64 150.929 115.64H150.537V115.12H150.769C150.945 115.12 151.065 115.101 151.129 115.064C151.193 115.021 151.225 114.955 151.225 114.864V114.824H151.849V117.904ZM150.537 117.904V117.376H152.417V117.904H150.537ZM151.361 120L154.961 114.856H155.761L152.169 120H151.361ZM155.897 120H155.201V117.696L154.305 118.84H156.273V119.368H153.793V118.752L155.257 116.92H155.897V120Z" fill="#282624"/>
<path d="M145.432 103.408L145.456 104.104C145.035 104.104 144.664 104.011 144.344 103.824C144.024 103.632 143.776 103.339 143.6 102.944C143.424 102.544 143.336 102.04 143.336 101.432C143.336 100.573 143.523 99.912 143.896 99.448C144.269 98.984 144.784 98.752 145.44 98.752C145.931 98.752 146.341 98.888 146.672 99.16C147.008 99.432 147.235 99.8213 147.352 100.328H146.48C146.395 100.045 146.259 99.8347 146.072 99.696C145.891 99.552 145.669 99.48 145.408 99.48C144.997 99.48 144.683 99.648 144.464 99.984C144.245 100.315 144.136 100.797 144.136 101.432C144.136 101.901 144.179 102.283 144.264 102.576C144.355 102.864 144.496 103.075 144.688 103.208C144.88 103.341 145.128 103.408 145.432 103.408ZM145.456 104.104C145.131 104.104 144.845 104.035 144.6 103.896C144.355 103.752 144.163 103.549 144.024 103.288C143.885 103.027 143.816 102.72 143.816 102.368C143.816 102.011 143.891 101.701 144.04 101.44C144.189 101.179 144.392 100.979 144.648 100.84C144.904 100.701 145.192 100.632 145.512 100.632C145.885 100.632 146.211 100.701 146.488 100.84C146.765 100.973 146.981 101.168 147.136 101.424C147.296 101.675 147.376 101.981 147.376 102.344C147.376 102.707 147.293 103.021 147.128 103.288C146.963 103.555 146.733 103.757 146.44 103.896C146.152 104.035 145.824 104.104 145.456 104.104ZM145.432 103.384C145.757 103.384 146.016 103.299 146.208 103.128C146.4 102.952 146.496 102.701 146.496 102.376C146.496 102.157 146.451 101.973 146.36 101.824C146.269 101.669 146.144 101.552 145.984 101.472C145.829 101.387 145.645 101.344 145.432 101.344C145.107 101.344 144.845 101.435 144.648 101.616C144.451 101.792 144.352 102.045 144.352 102.376C144.352 102.691 144.451 102.939 144.648 103.12C144.845 103.296 145.107 103.384 145.432 103.384ZM151.849 101.904H151.105V99.64C151.079 99.64 151.052 99.64 151.025 99.64C150.999 99.64 150.967 99.64 150.929 99.64H150.537V99.12H150.769C150.945 99.12 151.065 99.1013 151.129 99.064C151.193 99.0213 151.225 98.9547 151.225 98.864V98.824H151.849V101.904ZM150.537 101.904V101.376H152.417V101.904H150.537ZM151.129 104L154.721 98.856H155.529L151.929 104H151.129ZM156.145 101.824C156.145 101.989 156.105 102.133 156.025 102.256C155.945 102.373 155.844 102.477 155.721 102.568C155.599 102.659 155.468 102.744 155.329 102.824C155.191 102.904 155.06 102.987 154.937 103.072C154.815 103.157 154.713 103.253 154.633 103.36C154.553 103.467 154.513 103.595 154.513 103.744L153.833 103.832C153.833 103.603 153.873 103.411 153.953 103.256C154.033 103.096 154.132 102.963 154.249 102.856C154.372 102.749 154.503 102.656 154.641 102.576C154.78 102.496 154.908 102.421 155.025 102.352C155.148 102.277 155.249 102.2 155.329 102.12C155.409 102.04 155.449 101.944 155.449 101.832C155.449 101.699 155.412 101.597 155.337 101.528C155.263 101.453 155.159 101.416 155.025 101.416C154.876 101.416 154.761 101.453 154.681 101.528C154.601 101.603 154.548 101.709 154.521 101.848H153.825C153.868 101.539 153.993 101.293 154.201 101.112C154.415 100.931 154.689 100.84 155.025 100.84C155.271 100.84 155.476 100.885 155.641 100.976C155.812 101.061 155.937 101.179 156.017 101.328C156.103 101.472 156.145 101.637 156.145 101.824ZM153.833 104V103.832L154.393 103.464H156.145V104H153.833Z" fill="#282624"/>
<path d="M145.432 87.408L145.456 88.104C145.035 88.104 144.664 88.0107 144.344 87.824C144.024 87.632 143.776 87.3387 143.6 86.944C143.424 86.544 143.336 86.04 143.336 85.432C143.336 84.5733 143.523 83.912 143.896 83.448C144.269 82.984 144.784 82.752 145.44 82.752C145.931 82.752 146.341 82.888 146.672 83.16C147.008 83.432 147.235 83.8213 147.352 84.328H146.48C146.395 84.0453 146.259 83.8347 146.072 83.696C145.891 83.552 145.669 83.48 145.408 83.48C144.997 83.48 144.683 83.648 144.464 83.984C144.245 84.3147 144.136 84.7973 144.136 85.432C144.136 85.9013 144.179 86.2827 144.264 86.576C144.355 86.864 144.496 87.0747 144.688 87.208C144.88 87.3413 145.128 87.408 145.432 87.408ZM145.456 88.104C145.131 88.104 144.845 88.0347 144.6 87.896C144.355 87.752 144.163 87.5493 144.024 87.288C143.885 87.0267 143.816 86.72 143.816 86.368C143.816 86.0107 143.891 85.7013 144.04 85.44C144.189 85.1787 144.392 84.9787 144.648 84.84C144.904 84.7013 145.192 84.632 145.512 84.632C145.885 84.632 146.211 84.7013 146.488 84.84C146.765 84.9733 146.981 85.168 147.136 85.424C147.296 85.6747 147.376 85.9813 147.376 86.344C147.376 86.7067 147.293 87.0213 147.128 87.288C146.963 87.5547 146.733 87.7573 146.44 87.896C146.152 88.0347 145.824 88.104 145.456 88.104ZM145.432 87.384C145.757 87.384 146.016 87.2987 146.208 87.128C146.4 86.952 146.496 86.7013 146.496 86.376C146.496 86.1573 146.451 85.9733 146.36 85.824C146.269 85.6693 146.144 85.552 145.984 85.472C145.829 85.3867 145.645 85.344 145.432 85.344C145.107 85.344 144.845 85.4347 144.648 85.616C144.451 85.792 144.352 86.0453 144.352 86.376C144.352 86.6907 144.451 86.9387 144.648 87.12C144.845 87.296 145.107 87.384 145.432 87.384Z" fill="#282624"/>
</svg>
