<svg width="275" height="124" viewBox="0 0 275 124" fill="none" xmlns="http://www.w3.org/2000/svg">
<path d="M0 0H275V124H0V61.5603V0Z" fill="white"/>
<rect x="6.5" y="5.5" width="262" height="113" fill="white" stroke="#282624"/>
<rect x="8" y="7" width="259" height="38" fill="#282624"/>
<path d="M82.072 31V20.12H84.232V31H82.072ZM86.024 29.256C86.728 29.256 87.3253 29.112 87.816 28.824C88.3173 28.5253 88.7013 28.104 88.968 27.56C89.2347 27.0053 89.368 26.344 89.368 25.576C89.368 24.7973 89.2347 24.1307 88.968 23.576C88.7013 23.0213 88.3173 22.6 87.816 22.312C87.3253 22.0133 86.728 21.864 86.024 21.864H83.64V20.12H86.024C87.1653 20.12 88.1467 20.3387 88.968 20.776C89.8 21.2133 90.44 21.8373 90.888 22.648C91.336 23.4587 91.56 24.4347 91.56 25.576C91.56 26.7067 91.336 27.6773 90.888 28.488C90.44 29.2987 89.8 29.9227 88.968 30.36C88.1467 30.7867 87.1653 31 86.024 31H83.64V29.256H86.024ZM97.9932 31V20.12H100.153V31H97.9932ZM99.5612 31V29.288H105.641V31H99.5612ZM99.5612 21.832V20.12H105.641V21.832H99.5612ZM99.5612 26.248V24.552H105.033V26.248H99.5612ZM113.832 22.856C113.832 23.1867 113.923 23.4533 114.104 23.656C114.296 23.848 114.547 24.0027 114.856 24.12C115.166 24.2267 115.512 24.3227 115.896 24.408C116.28 24.4827 116.675 24.5627 117.08 24.648C117.496 24.7227 117.896 24.8293 118.28 24.968C118.664 25.1067 119.011 25.2933 119.32 25.528C119.64 25.752 119.891 26.0507 120.072 26.424C120.254 26.7867 120.344 27.2453 120.344 27.8C120.344 28.5253 120.158 29.1493 119.784 29.672C119.422 30.184 118.92 30.5733 118.28 30.84C117.64 31.1067 116.91 31.24 116.088 31.24C115.256 31.24 114.515 31.112 113.864 30.856C113.224 30.6 112.691 30.2107 112.264 29.688C111.848 29.1653 111.571 28.5093 111.432 27.72H113.688C113.827 28.296 114.099 28.7387 114.504 29.048C114.92 29.3573 115.454 29.512 116.104 29.512C116.776 29.512 117.283 29.384 117.624 29.128C117.966 28.8613 118.136 28.5093 118.136 28.072C118.136 27.72 118.046 27.4373 117.864 27.224C117.683 27.0107 117.438 26.8453 117.128 26.728C116.819 26.6 116.472 26.4933 116.088 26.408C115.704 26.3227 115.304 26.2373 114.888 26.152C114.483 26.056 114.083 25.944 113.688 25.816C113.304 25.6773 112.958 25.496 112.648 25.272C112.339 25.048 112.094 24.76 111.912 24.408C111.731 24.0453 111.64 23.592 111.64 23.048C111.64 22.472 111.795 21.944 112.104 21.464C112.414 20.984 112.867 20.6 113.464 20.312C114.062 20.024 114.787 19.88 115.64 19.88C116.376 19.88 117.054 20.0027 117.672 20.248C118.302 20.4933 118.824 20.872 119.24 21.384C119.667 21.896 119.934 22.5627 120.04 23.384H117.752C117.624 22.7653 117.374 22.3173 117 22.04C116.638 21.752 116.163 21.608 115.576 21.608C115.032 21.608 114.606 21.7253 114.296 21.96C113.987 22.184 113.832 22.4827 113.832 22.856ZM128.378 22.856C128.378 23.1867 128.469 23.4533 128.65 23.656C128.842 23.848 129.093 24.0027 129.402 24.12C129.712 24.2267 130.058 24.3227 130.442 24.408C130.826 24.4827 131.221 24.5627 131.626 24.648C132.042 24.7227 132.442 24.8293 132.826 24.968C133.21 25.1067 133.557 25.2933 133.866 25.528C134.186 25.752 134.437 26.0507 134.618 26.424C134.8 26.7867 134.89 27.2453 134.89 27.8C134.89 28.5253 134.704 29.1493 134.33 29.672C133.968 30.184 133.466 30.5733 132.826 30.84C132.186 31.1067 131.456 31.24 130.634 31.24C129.802 31.24 129.061 31.112 128.41 30.856C127.77 30.6 127.237 30.2107 126.81 29.688C126.394 29.1653 126.117 28.5093 125.978 27.72H128.234C128.373 28.296 128.645 28.7387 129.05 29.048C129.466 29.3573 130 29.512 130.65 29.512C131.322 29.512 131.829 29.384 132.17 29.128C132.512 28.8613 132.682 28.5093 132.682 28.072C132.682 27.72 132.592 27.4373 132.41 27.224C132.229 27.0107 131.984 26.8453 131.674 26.728C131.365 26.6 131.018 26.4933 130.634 26.408C130.25 26.3227 129.85 26.2373 129.434 26.152C129.029 26.056 128.629 25.944 128.234 25.816C127.85 25.6773 127.504 25.496 127.194 25.272C126.885 25.048 126.64 24.76 126.458 24.408C126.277 24.0453 126.186 23.592 126.186 23.048C126.186 22.472 126.341 21.944 126.65 21.464C126.96 20.984 127.413 20.6 128.01 20.312C128.608 20.024 129.333 19.88 130.186 19.88C130.922 19.88 131.6 20.0027 132.218 20.248C132.848 20.4933 133.37 20.872 133.786 21.384C134.213 21.896 134.48 22.5627 134.586 23.384H132.298C132.17 22.7653 131.92 22.3173 131.546 22.04C131.184 21.752 130.709 21.608 130.122 21.608C129.578 21.608 129.152 21.7253 128.842 21.96C128.533 22.184 128.378 22.4827 128.378 22.856ZM141.101 31V20.12H143.261V31H141.101ZM142.669 31V29.288H148.749V31H142.669ZM142.669 21.832V20.12H148.749V21.832H142.669ZM142.669 26.248V24.552H148.141V26.248H142.669ZM155.116 31V20.12H157.276V31H155.116ZM159.564 26.376H156.684V25.08H159.276C159.884 25.08 160.342 24.9307 160.652 24.632C160.972 24.3333 161.132 23.9387 161.132 23.448C161.132 22.9573 160.972 22.568 160.652 22.28C160.342 21.9813 159.9 21.832 159.324 21.832H156.684V20.12H159.372C160.588 20.12 161.553 20.408 162.268 20.984C162.982 21.56 163.34 22.344 163.34 23.336C163.34 24.3387 162.998 25.096 162.316 25.608C161.633 26.12 160.716 26.376 159.564 26.376ZM161.58 31L160.94 28.12C160.854 27.7467 160.742 27.464 160.604 27.272C160.476 27.0693 160.3 26.936 160.076 26.872C159.852 26.808 159.558 26.776 159.196 26.776H157.036V25.416H159.5C160.236 25.416 160.833 25.4853 161.292 25.624C161.75 25.7627 162.113 25.9973 162.38 26.328C162.657 26.6587 162.865 27.1227 163.004 27.72L163.82 31H161.58ZM172.51 31V20.12H174.67V31H172.51ZM169.006 21.896V20.12H178.174V21.896H169.006ZM186.017 22.856C186.017 23.1867 186.107 23.4533 186.289 23.656C186.481 23.848 186.731 24.0027 187.041 24.12C187.35 24.2267 187.697 24.3227 188.081 24.408C188.465 24.4827 188.859 24.5627 189.265 24.648C189.681 24.7227 190.081 24.8293 190.465 24.968C190.849 25.1067 191.195 25.2933 191.505 25.528C191.825 25.752 192.075 26.0507 192.257 26.424C192.438 26.7867 192.529 27.2453 192.529 27.8C192.529 28.5253 192.342 29.1493 191.969 29.672C191.606 30.184 191.105 30.5733 190.465 30.84C189.825 31.1067 189.094 31.24 188.273 31.24C187.441 31.24 186.699 31.112 186.049 30.856C185.409 30.6 184.875 30.2107 184.449 29.688C184.033 29.1653 183.755 28.5093 183.617 27.72H185.873C186.011 28.296 186.283 28.7387 186.689 29.048C187.105 29.3573 187.638 29.512 188.289 29.512C188.961 29.512 189.467 29.384 189.809 29.128C190.15 28.8613 190.321 28.5093 190.321 28.072C190.321 27.72 190.23 27.4373 190.049 27.224C189.867 27.0107 189.622 26.8453 189.313 26.728C189.003 26.6 188.657 26.4933 188.273 26.408C187.889 26.3227 187.489 26.2373 187.073 26.152C186.667 26.056 186.267 25.944 185.873 25.816C185.489 25.6773 185.142 25.496 184.833 25.272C184.523 25.048 184.278 24.76 184.097 24.408C183.915 24.0453 183.825 23.592 183.825 23.048C183.825 22.472 183.979 21.944 184.289 21.464C184.598 20.984 185.051 20.6 185.649 20.312C186.246 20.024 186.971 19.88 187.825 19.88C188.561 19.88 189.238 20.0027 189.857 20.248C190.486 20.4933 191.009 20.872 191.425 21.384C191.851 21.896 192.118 22.5627 192.225 23.384H189.937C189.809 22.7653 189.558 22.3173 189.185 22.04C188.822 21.752 188.347 21.608 187.761 21.608C187.217 21.608 186.79 21.7253 186.481 21.96C186.171 22.184 186.017 22.4827 186.017 22.856Z" fill="white"/>
<line x1="8" y1="45.5" x2="267" y2="45.5" stroke="#282624"/>
<line x1="8" y1="61.5" x2="267" y2="61.5" stroke="#282624"/>
<line x1="8" y1="77.5" x2="267" y2="77.5" stroke="#282624"/>
<line x1="8" y1="93.5" x2="267" y2="93.5" stroke="#282624"/>
<line x1="239.5" y1="45" x2="239.5" y2="94" stroke="#282624"/>
<path d="M250.408 33.8H251.524V29C251.524 28.464 251.64 28.016 251.872 27.656C252.104 27.288 252.42 27.008 252.82 26.816C253.22 26.624 253.672 26.528 254.176 26.528C254.712 26.528 255.168 26.648 255.544 26.888C255.92 27.12 256.248 27.46 256.528 27.908L255.352 28.556C255.232 28.324 255.072 28.12 254.872 27.944C254.68 27.768 254.444 27.68 254.164 27.68C253.94 27.68 253.752 27.732 253.6 27.836C253.448 27.932 253.332 28.068 253.252 28.244C253.18 28.42 253.144 28.616 253.144 28.832V33.8H256.66V35H250.408V33.8ZM250.6 31.592L250.72 30.608H255.064L254.944 31.592H250.6Z" fill="white"/>
<path d="M46.511 56V51.24H47.267L47.295 56H46.511ZM50.809 56L50.837 51.24H51.593V56H50.809ZM49.332 56H48.772L47.61 53.158L46.959 51.24H47.568L48.912 54.537L49.122 55.209H49.017L49.234 54.537L50.564 51.24H51.138L50.487 53.165L49.332 56ZM53.3995 56V52.269H54.1485V56H53.3995ZM53.3995 51.807V50.96H54.1485V51.807H53.3995ZM56.4888 53.249C56.4888 53.3843 56.5308 53.4893 56.6148 53.564C56.6988 53.634 56.8131 53.69 56.9578 53.732C57.1025 53.7693 57.2588 53.802 57.4268 53.83C57.5995 53.8533 57.7698 53.886 57.9378 53.928C58.1058 53.9653 58.2598 54.0213 58.3998 54.096C58.5445 54.166 58.6588 54.2663 58.7428 54.397C58.8315 54.5277 58.8758 54.7027 58.8758 54.922C58.8758 55.1553 58.8105 55.3607 58.6798 55.538C58.5491 55.7153 58.3671 55.853 58.1338 55.951C57.9051 56.0443 57.6391 56.091 57.3358 56.091C56.8878 56.091 56.5121 55.986 56.2088 55.776C55.9101 55.5613 55.7258 55.23 55.6558 54.782H56.4048C56.4421 55.0153 56.5448 55.195 56.7128 55.321C56.8808 55.447 57.0955 55.51 57.3568 55.51C57.6088 55.51 57.8001 55.4587 57.9308 55.356C58.0615 55.2533 58.1268 55.125 58.1268 54.971C58.1268 54.8403 58.0848 54.7377 58.0008 54.663C57.9168 54.5883 57.8025 54.5347 57.6578 54.502C57.5178 54.4647 57.3638 54.432 57.1958 54.404C57.0278 54.376 56.8598 54.3433 56.6918 54.306C56.5285 54.264 56.3768 54.2057 56.2368 54.131C56.0968 54.0563 55.9848 53.9537 55.9008 53.823C55.8168 53.6877 55.7748 53.5103 55.7748 53.291C55.7748 53.095 55.8238 52.913 55.9218 52.745C56.0245 52.5723 56.1785 52.4347 56.3838 52.332C56.5938 52.2247 56.8575 52.171 57.1748 52.171C57.4548 52.171 57.7045 52.2177 57.9238 52.311C58.1431 52.3997 58.3251 52.542 58.4698 52.738C58.6145 52.9293 58.7055 53.179 58.7428 53.487H57.9938C57.9518 53.2257 57.8585 53.0413 57.7138 52.934C57.5691 52.822 57.3778 52.766 57.1398 52.766C56.9345 52.766 56.7735 52.8127 56.6568 52.906C56.5448 52.9947 56.4888 53.109 56.4888 53.249ZM61.9589 56.091C61.5995 56.091 61.2892 56.014 61.0279 55.86C60.7665 55.7013 60.5659 55.475 60.4259 55.181C60.2859 54.887 60.2159 54.5393 60.2159 54.138C60.2159 53.7133 60.2859 53.3563 60.4259 53.067C60.5705 52.773 60.7735 52.5513 61.0349 52.402C61.3009 52.248 61.6089 52.171 61.9589 52.171C62.3229 52.171 62.6355 52.2503 62.8969 52.409C63.1582 52.5677 63.3565 52.794 63.4919 53.088C63.6319 53.3773 63.7019 53.7273 63.7019 54.138C63.7019 54.5533 63.6319 54.908 63.4919 55.202C63.3519 55.4913 63.1512 55.713 62.8899 55.867C62.6285 56.0163 62.3182 56.091 61.9589 56.091ZM61.9589 55.461C62.2762 55.461 62.5189 55.3467 62.6869 55.118C62.8549 54.8893 62.9389 54.5627 62.9389 54.138C62.9389 53.7087 62.8549 53.3797 62.6869 53.151C62.5189 52.9177 62.2762 52.801 61.9589 52.801C61.6415 52.801 61.3989 52.9153 61.2309 53.144C61.0629 53.3727 60.9789 53.704 60.9789 54.138C60.9789 54.5627 61.0629 54.8893 61.2309 55.118C61.4035 55.3467 61.6462 55.461 61.9589 55.461ZM68.1921 53.487H67.4431C67.4851 53.2117 67.5737 52.976 67.7091 52.78C67.8444 52.584 68.0264 52.4347 68.2551 52.332C68.4837 52.2247 68.7521 52.171 69.0601 52.171C69.3961 52.171 69.6761 52.234 69.9001 52.36C70.1287 52.4813 70.2991 52.6517 70.4111 52.871C70.5231 53.0903 70.5791 53.3447 70.5791 53.634V55.09C70.5791 55.314 70.5884 55.496 70.6071 55.636C70.6304 55.776 70.6631 55.8973 70.7051 56H69.9211C69.8791 55.9067 69.8534 55.79 69.8441 55.65C69.8347 55.51 69.8301 55.3677 69.8301 55.223V53.641C69.8301 53.3703 69.7624 53.1627 69.6271 53.018C69.4964 52.8733 69.2887 52.801 69.0041 52.801C68.7614 52.801 68.5724 52.864 68.4371 52.99C68.3064 53.1113 68.2247 53.277 68.1921 53.487ZM69.9351 53.725V54.236C69.5524 54.236 69.2397 54.2547 68.9971 54.292C68.7544 54.3293 68.5654 54.383 68.4301 54.453C68.2947 54.5183 68.2014 54.5977 68.1501 54.691C68.0987 54.7797 68.0731 54.88 68.0731 54.992C68.0731 55.1507 68.1337 55.2767 68.2551 55.37C68.3764 55.4587 68.5351 55.503 68.7311 55.503C68.9411 55.503 69.1277 55.454 69.2911 55.356C69.4591 55.2533 69.5897 55.118 69.6831 54.95C69.7811 54.782 69.8301 54.6 69.8301 54.404H70.1661C70.1474 54.7027 70.0891 54.9593 69.9911 55.174C69.8931 55.3887 69.7671 55.5637 69.6131 55.699C69.4637 55.8343 69.3004 55.9347 69.1231 56C68.9457 56.0607 68.7684 56.091 68.5911 56.091C68.3391 56.091 68.1174 56.0513 67.9261 55.972C67.7347 55.8927 67.5854 55.7737 67.4781 55.615C67.3707 55.4563 67.3171 55.258 67.3171 55.02C67.3171 54.7633 67.3871 54.544 67.5271 54.362C67.6671 54.18 67.8771 54.04 68.1571 53.942C68.4184 53.8533 68.6891 53.795 68.9691 53.767C69.2491 53.739 69.5711 53.725 69.9351 53.725ZM72.3583 56V52.269H73.1073V56H72.3583ZM73.1073 53.809H72.8133C72.8366 53.445 72.9089 53.1417 73.0303 52.899C73.1563 52.6563 73.3219 52.4743 73.5273 52.353C73.7326 52.2317 73.9683 52.171 74.2343 52.171C74.4956 52.171 74.7196 52.2223 74.9063 52.325C75.0929 52.423 75.2376 52.5723 75.3403 52.773C75.4429 52.969 75.4943 53.214 75.4943 53.508V56H74.7523V53.662C74.7523 53.48 74.7243 53.326 74.6683 53.2C74.6123 53.0693 74.5306 52.969 74.4233 52.899C74.3159 52.829 74.1759 52.794 74.0033 52.794C73.8633 52.794 73.7373 52.8243 73.6253 52.885C73.5133 52.941 73.4176 53.0157 73.3383 53.109C73.2636 53.2023 73.2053 53.3097 73.1633 53.431C73.1259 53.5523 73.1073 53.6783 73.1073 53.809ZM78.6452 56.091C78.3185 56.091 78.0362 56.014 77.7982 55.86C77.5602 55.7013 77.3782 55.475 77.2522 55.181C77.1262 54.887 77.0632 54.5393 77.0632 54.138C77.0632 53.5033 77.2055 53.018 77.4902 52.682C77.7748 52.3413 78.1598 52.171 78.6452 52.171C79.0652 52.171 79.3988 52.339 79.6462 52.675C79.8982 53.011 80.0242 53.4987 80.0242 54.138C80.0242 54.5393 79.9682 54.887 79.8562 55.181C79.7442 55.4703 79.5832 55.6943 79.3732 55.853C79.1678 56.0117 78.9252 56.091 78.6452 56.091ZM78.7432 55.461C79.0418 55.461 79.2682 55.349 79.4222 55.125C79.5808 54.8963 79.6602 54.5673 79.6602 54.138C79.6602 53.7087 79.5785 53.3797 79.4152 53.151C79.2565 52.9177 79.0325 52.801 78.7432 52.801C78.4445 52.801 78.2158 52.9153 78.0572 53.144C77.9032 53.3727 77.8262 53.704 77.8262 54.138C77.8262 54.5627 77.9055 54.8893 78.0642 55.118C78.2275 55.3467 78.4538 55.461 78.7432 55.461ZM79.6602 56V50.96H80.4092V56H79.6602ZM84.7128 51.24L86.0638 54.782L86.2248 55.328H86.1828L86.3438 54.782L87.6948 51.24H88.4718L86.6378 56H85.7278L83.8868 51.24H84.7128ZM90.2817 53.487H89.5327C89.5747 53.2117 89.6634 52.976 89.7987 52.78C89.9341 52.584 90.1161 52.4347 90.3447 52.332C90.5734 52.2247 90.8417 52.171 91.1497 52.171C91.4857 52.171 91.7657 52.234 91.9897 52.36C92.2184 52.4813 92.3887 52.6517 92.5007 52.871C92.6127 53.0903 92.6687 53.3447 92.6687 53.634V55.09C92.6687 55.314 92.6781 55.496 92.6967 55.636C92.7201 55.776 92.7527 55.8973 92.7947 56H92.0107C91.9687 55.9067 91.9431 55.79 91.9337 55.65C91.9244 55.51 91.9197 55.3677 91.9197 55.223V53.641C91.9197 53.3703 91.8521 53.1627 91.7167 53.018C91.5861 52.8733 91.3784 52.801 91.0937 52.801C90.8511 52.801 90.6621 52.864 90.5267 52.99C90.3961 53.1113 90.3144 53.277 90.2817 53.487ZM92.0247 53.725V54.236C91.6421 54.236 91.3294 54.2547 91.0867 54.292C90.8441 54.3293 90.6551 54.383 90.5197 54.453C90.3844 54.5183 90.2911 54.5977 90.2397 54.691C90.1884 54.7797 90.1627 54.88 90.1627 54.992C90.1627 55.1507 90.2234 55.2767 90.3447 55.37C90.4661 55.4587 90.6247 55.503 90.8207 55.503C91.0307 55.503 91.2174 55.454 91.3807 55.356C91.5487 55.2533 91.6794 55.118 91.7727 54.95C91.8707 54.782 91.9197 54.6 91.9197 54.404H92.2557C92.2371 54.7027 92.1787 54.9593 92.0807 55.174C91.9827 55.3887 91.8567 55.5637 91.7027 55.699C91.5534 55.8343 91.3901 55.9347 91.2127 56C91.0354 56.0607 90.8581 56.091 90.6807 56.091C90.4287 56.091 90.2071 56.0513 90.0157 55.972C89.8244 55.8927 89.6751 55.7737 89.5677 55.615C89.4604 55.4563 89.4067 55.258 89.4067 55.02C89.4067 54.7633 89.4767 54.544 89.6167 54.362C89.7567 54.18 89.9667 54.04 90.2467 53.942C90.5081 53.8533 90.7787 53.795 91.0587 53.767C91.3387 53.739 91.6607 53.725 92.0247 53.725ZM94.4479 56V52.269H95.1969V56H94.4479ZM95.1969 53.809H94.9029C94.9263 53.445 94.9986 53.1417 95.1199 52.899C95.2459 52.6563 95.4116 52.4743 95.6169 52.353C95.8223 52.2317 96.0579 52.171 96.3239 52.171C96.5853 52.171 96.8093 52.2223 96.9959 52.325C97.1826 52.423 97.3273 52.5723 97.4299 52.773C97.5326 52.969 97.5839 53.214 97.5839 53.508V56H96.8419V53.662C96.8419 53.48 96.8139 53.326 96.7579 53.2C96.7019 53.0693 96.6203 52.969 96.5129 52.899C96.4056 52.829 96.2656 52.794 96.0929 52.794C95.9529 52.794 95.8269 52.8243 95.7149 52.885C95.6029 52.941 95.5073 53.0157 95.4279 53.109C95.3533 53.2023 95.2949 53.3097 95.2529 53.431C95.2156 53.5523 95.1969 53.6783 95.1969 53.809ZM99.3348 56V52.269H100.084V56H99.3348ZM99.3348 51.807V50.96H100.084V51.807H99.3348ZM101.829 56V50.96H102.578V56H101.829ZM104.323 56V50.96H105.072V56H104.323ZM107.525 53.487H106.776C106.818 53.2117 106.906 52.976 107.042 52.78C107.177 52.584 107.359 52.4347 107.588 52.332C107.816 52.2247 108.085 52.171 108.393 52.171C108.729 52.171 109.009 52.234 109.233 52.36C109.461 52.4813 109.632 52.6517 109.744 52.871C109.856 53.0903 109.912 53.3447 109.912 53.634V55.09C109.912 55.314 109.921 55.496 109.94 55.636C109.963 55.776 109.996 55.8973 110.038 56H109.254C109.212 55.9067 109.186 55.79 109.177 55.65C109.167 55.51 109.163 55.3677 109.163 55.223V53.641C109.163 53.3703 109.095 53.1627 108.96 53.018C108.829 52.8733 108.621 52.801 108.337 52.801C108.094 52.801 107.905 52.864 107.77 52.99C107.639 53.1113 107.557 53.277 107.525 53.487ZM109.268 53.725V54.236C108.885 54.236 108.572 54.2547 108.33 54.292C108.087 54.3293 107.898 54.383 107.763 54.453C107.627 54.5183 107.534 54.5977 107.483 54.691C107.431 54.7797 107.406 54.88 107.406 54.992C107.406 55.1507 107.466 55.2767 107.588 55.37C107.709 55.4587 107.868 55.503 108.064 55.503C108.274 55.503 108.46 55.454 108.624 55.356C108.792 55.2533 108.922 55.118 109.016 54.95C109.114 54.782 109.163 54.6 109.163 54.404H109.499C109.48 54.7027 109.422 54.9593 109.324 55.174C109.226 55.3887 109.1 55.5637 108.946 55.699C108.796 55.8343 108.633 55.9347 108.456 56C108.278 56.0607 108.101 56.091 107.924 56.091C107.672 56.091 107.45 56.0513 107.259 55.972C107.067 55.8927 106.918 55.7737 106.811 55.615C106.703 55.4563 106.65 55.258 106.65 55.02C106.65 54.7633 106.72 54.544 106.86 54.362C107 54.18 107.21 54.04 107.49 53.942C107.751 53.8533 108.022 53.795 108.302 53.767C108.582 53.739 108.904 53.725 109.268 53.725ZM113.961 56V51.24H114.745V56H113.961ZM119.707 53.571H118.958C118.911 53.305 118.808 53.1113 118.65 52.99C118.496 52.864 118.309 52.801 118.09 52.801C117.777 52.801 117.539 52.9153 117.376 53.144C117.212 53.3727 117.131 53.704 117.131 54.138C117.131 54.5627 117.215 54.8917 117.383 55.125C117.555 55.3537 117.798 55.468 118.111 55.468C118.335 55.468 118.521 55.4073 118.671 55.286C118.825 55.1647 118.93 54.985 118.986 54.747H119.728C119.648 55.2137 119.459 55.5543 119.161 55.769C118.867 55.9837 118.512 56.091 118.097 56.091C117.737 56.091 117.429 56.014 117.173 55.86C116.916 55.7013 116.718 55.475 116.578 55.181C116.438 54.887 116.368 54.5393 116.368 54.138C116.368 53.7133 116.438 53.3563 116.578 53.067C116.718 52.773 116.916 52.5513 117.173 52.402C117.429 52.248 117.735 52.171 118.09 52.171C118.37 52.171 118.624 52.2247 118.853 52.332C119.081 52.4347 119.27 52.5887 119.42 52.794C119.569 52.9993 119.665 53.2583 119.707 53.571ZM124.22 53.767L123.793 54.117C123.793 53.6923 123.709 53.3657 123.541 53.137C123.373 52.9083 123.132 52.794 122.82 52.794C122.502 52.794 122.26 52.9107 122.092 53.144C121.928 53.3727 121.847 53.704 121.847 54.138C121.847 54.5627 121.933 54.8917 122.106 55.125C122.283 55.3537 122.533 55.468 122.855 55.468C123.093 55.468 123.291 55.412 123.45 55.3C123.613 55.188 123.727 55.0153 123.793 54.782H124.577C124.474 55.216 124.269 55.5427 123.961 55.762C123.657 55.9813 123.289 56.091 122.855 56.091C122.491 56.091 122.176 56.014 121.91 55.86C121.644 55.7013 121.438 55.475 121.294 55.181C121.154 54.887 121.084 54.5393 121.084 54.138C121.084 53.7133 121.154 53.3563 121.294 53.067C121.438 52.773 121.641 52.5513 121.903 52.402C122.164 52.248 122.47 52.171 122.82 52.171C123.179 52.171 123.487 52.2503 123.744 52.409C124 52.563 124.199 52.7823 124.339 53.067C124.479 53.3517 124.549 53.6947 124.549 54.096V54.278H121.392V53.767H124.22ZM132.427 52.654H131.608C131.524 52.3833 131.377 52.1757 131.167 52.031C130.957 51.8817 130.709 51.807 130.425 51.807C130.135 51.807 129.888 51.8817 129.683 52.031C129.477 52.1757 129.319 52.3833 129.207 52.654C129.095 52.9247 129.039 53.249 129.039 53.627C129.039 54.005 129.092 54.3293 129.2 54.6C129.312 54.866 129.47 55.0713 129.676 55.216C129.881 55.3607 130.131 55.433 130.425 55.433C130.695 55.433 130.933 55.363 131.139 55.223C131.349 55.083 131.5 54.88 131.594 54.614H132.42C132.331 54.9267 132.189 55.195 131.993 55.419C131.801 55.6383 131.57 55.8063 131.3 55.923C131.029 56.035 130.737 56.091 130.425 56.091C129.972 56.091 129.582 55.993 129.256 55.797C128.929 55.5963 128.677 55.3117 128.5 54.943C128.327 54.5743 128.241 54.1357 128.241 53.627C128.241 53.1183 128.329 52.6797 128.507 52.311C128.684 51.9377 128.936 51.6507 129.263 51.45C129.594 51.2493 129.988 51.149 130.446 51.149C130.763 51.149 131.057 51.205 131.328 51.317C131.603 51.429 131.836 51.5993 132.028 51.828C132.219 52.052 132.352 52.3273 132.427 52.654ZM133.992 56V52.269H134.741V56H133.992ZM134.741 53.963H134.461C134.479 53.543 134.552 53.2023 134.678 52.941C134.808 52.675 134.969 52.4813 135.161 52.36C135.357 52.234 135.571 52.171 135.805 52.171C135.879 52.171 135.949 52.1803 136.015 52.199C136.08 52.213 136.129 52.2363 136.162 52.269V52.927C136.106 52.9083 136.045 52.8967 135.98 52.892C135.914 52.8827 135.842 52.878 135.763 52.878C135.585 52.878 135.431 52.9037 135.301 52.955C135.175 53.0063 135.07 53.081 134.986 53.179C134.902 53.2723 134.839 53.3867 134.797 53.522C134.759 53.6527 134.741 53.7997 134.741 53.963ZM140.397 53.767L139.97 54.117C139.97 53.6923 139.886 53.3657 139.718 53.137C139.55 52.9083 139.31 52.794 138.997 52.794C138.68 52.794 138.437 52.9107 138.269 53.144C138.106 53.3727 138.024 53.704 138.024 54.138C138.024 54.5627 138.11 54.8917 138.283 55.125C138.46 55.3537 138.71 55.468 139.032 55.468C139.27 55.468 139.468 55.412 139.627 55.3C139.79 55.188 139.905 55.0153 139.97 54.782H140.754C140.651 55.216 140.446 55.5427 140.138 55.762C139.835 55.9813 139.466 56.091 139.032 56.091C138.668 56.091 138.353 56.014 138.087 55.86C137.821 55.7013 137.616 55.475 137.471 55.181C137.331 54.887 137.261 54.5393 137.261 54.138C137.261 53.7133 137.331 53.3563 137.471 53.067C137.616 52.773 137.819 52.5513 138.08 52.402C138.341 52.248 138.647 52.171 138.997 52.171C139.356 52.171 139.664 52.2503 139.921 52.409C140.178 52.563 140.376 52.7823 140.516 53.067C140.656 53.3517 140.726 53.6947 140.726 54.096V54.278H137.569V53.767H140.397ZM143.023 53.487H142.274C142.316 53.2117 142.405 52.976 142.54 52.78C142.676 52.584 142.858 52.4347 143.086 52.332C143.315 52.2247 143.583 52.171 143.891 52.171C144.227 52.171 144.507 52.234 144.731 52.36C144.96 52.4813 145.13 52.6517 145.242 52.871C145.354 53.0903 145.41 53.3447 145.41 53.634V55.09C145.41 55.314 145.42 55.496 145.438 55.636C145.462 55.776 145.494 55.8973 145.536 56H144.752C144.71 55.9067 144.685 55.79 144.675 55.65C144.666 55.51 144.661 55.3677 144.661 55.223V53.641C144.661 53.3703 144.594 53.1627 144.458 53.018C144.328 52.8733 144.12 52.801 143.835 52.801C143.593 52.801 143.404 52.864 143.268 52.99C143.138 53.1113 143.056 53.277 143.023 53.487ZM144.766 53.725V54.236C144.384 54.236 144.071 54.2547 143.828 54.292C143.586 54.3293 143.397 54.383 143.261 54.453C143.126 54.5183 143.033 54.5977 142.981 54.691C142.93 54.7797 142.904 54.88 142.904 54.992C142.904 55.1507 142.965 55.2767 143.086 55.37C143.208 55.4587 143.366 55.503 143.562 55.503C143.772 55.503 143.959 55.454 144.122 55.356C144.29 55.2533 144.421 55.118 144.514 54.95C144.612 54.782 144.661 54.6 144.661 54.404H144.997C144.979 54.7027 144.92 54.9593 144.822 55.174C144.724 55.3887 144.598 55.5637 144.444 55.699C144.295 55.8343 144.132 55.9347 143.954 56C143.777 56.0607 143.6 56.091 143.422 56.091C143.17 56.091 142.949 56.0513 142.757 55.972C142.566 55.8927 142.417 55.7737 142.309 55.615C142.202 55.4563 142.148 55.258 142.148 55.02C142.148 54.7633 142.218 54.544 142.358 54.362C142.498 54.18 142.708 54.04 142.988 53.942C143.25 53.8533 143.52 53.795 143.8 53.767C144.08 53.739 144.402 53.725 144.766 53.725ZM147.189 56V52.269H147.938V56H147.189ZM147.938 53.809H147.644C147.668 53.445 147.738 53.1417 147.854 52.899C147.971 52.6563 148.127 52.4743 148.323 52.353C148.519 52.2317 148.741 52.171 148.988 52.171C149.231 52.171 149.439 52.2223 149.611 52.325C149.789 52.423 149.924 52.5723 150.017 52.773C150.115 52.969 150.164 53.214 150.164 53.508V56H149.415V53.662C149.415 53.48 149.392 53.326 149.345 53.2C149.299 53.0693 149.226 52.969 149.128 52.899C149.03 52.829 148.904 52.794 148.75 52.794C148.624 52.794 148.51 52.8243 148.407 52.885C148.309 52.941 148.223 53.0157 148.148 53.109C148.078 53.2023 148.025 53.3097 147.987 53.431C147.955 53.5523 147.938 53.6783 147.938 53.809ZM150.164 53.809H149.779C149.803 53.445 149.875 53.1417 149.996 52.899C150.118 52.6563 150.279 52.4743 150.479 52.353C150.685 52.2317 150.918 52.171 151.179 52.171C151.427 52.171 151.641 52.2223 151.823 52.325C152.005 52.423 152.145 52.5723 152.243 52.773C152.341 52.969 152.39 53.214 152.39 53.508V56H151.641V53.662C151.641 53.48 151.618 53.326 151.571 53.2C151.525 53.0693 151.452 52.969 151.354 52.899C151.256 52.829 151.13 52.794 150.976 52.794C150.85 52.794 150.736 52.8243 150.633 52.885C150.535 52.941 150.451 53.0157 150.381 53.109C150.311 53.2023 150.258 53.3097 150.22 53.431C150.183 53.5523 150.164 53.6783 150.164 53.809ZM156.411 56V51.24H157.195V56H156.411ZM156.978 51.87V51.24H159.694V51.87H156.978ZM156.978 53.998V53.368H159.428V53.998H156.978ZM161.125 56V52.269H161.874V56H161.125ZM161.874 53.963H161.594C161.613 53.543 161.685 53.2023 161.811 52.941C161.942 52.675 162.103 52.4813 162.294 52.36C162.49 52.234 162.705 52.171 162.938 52.171C163.013 52.171 163.083 52.1803 163.148 52.199C163.214 52.213 163.263 52.2363 163.295 52.269V52.927C163.239 52.9083 163.179 52.8967 163.113 52.892C163.048 52.8827 162.976 52.878 162.896 52.878C162.719 52.878 162.565 52.9037 162.434 52.955C162.308 53.0063 162.203 53.081 162.119 53.179C162.035 53.2723 161.972 53.3867 161.93 53.522C161.893 53.6527 161.874 53.7997 161.874 53.963ZM164.645 56V52.269H165.394V56H164.645ZM164.645 51.807V50.96H165.394V51.807H164.645ZM170.093 53.767L169.666 54.117C169.666 53.6923 169.582 53.3657 169.414 53.137C169.246 52.9083 169.006 52.794 168.693 52.794C168.376 52.794 168.133 52.9107 167.965 53.144C167.802 53.3727 167.72 53.704 167.72 54.138C167.72 54.5627 167.807 54.8917 167.979 55.125C168.157 55.3537 168.406 55.468 168.728 55.468C168.966 55.468 169.165 55.412 169.323 55.3C169.487 55.188 169.601 55.0153 169.666 54.782H170.45C170.348 55.216 170.142 55.5427 169.834 55.762C169.531 55.9813 169.162 56.091 168.728 56.091C168.364 56.091 168.049 56.014 167.783 55.86C167.517 55.7013 167.312 55.475 167.167 55.181C167.027 54.887 166.957 54.5393 166.957 54.138C166.957 53.7133 167.027 53.3563 167.167 53.067C167.312 52.773 167.515 52.5513 167.776 52.402C168.038 52.248 168.343 52.171 168.693 52.171C169.053 52.171 169.361 52.2503 169.617 52.409C169.874 52.563 170.072 52.7823 170.212 53.067C170.352 53.3517 170.422 53.6947 170.422 54.096V54.278H167.265V53.767H170.093ZM173.413 56.091C173.086 56.091 172.804 56.014 172.566 55.86C172.328 55.7013 172.146 55.475 172.02 55.181C171.894 54.887 171.831 54.5393 171.831 54.138C171.831 53.5033 171.973 53.018 172.258 52.682C172.542 52.3413 172.927 52.171 173.413 52.171C173.833 52.171 174.166 52.339 174.414 52.675C174.666 53.011 174.792 53.4987 174.792 54.138C174.792 54.5393 174.736 54.887 174.624 55.181C174.512 55.4703 174.351 55.6943 174.141 55.853C173.935 56.0117 173.693 56.091 173.413 56.091ZM173.511 55.461C173.809 55.461 174.036 55.349 174.19 55.125C174.348 54.8963 174.428 54.5673 174.428 54.138C174.428 53.7087 174.346 53.3797 174.183 53.151C174.024 52.9177 173.8 52.801 173.511 52.801C173.212 52.801 172.983 52.9153 172.825 53.144C172.671 53.3727 172.594 53.704 172.594 54.138C172.594 54.5627 172.673 54.8893 172.832 55.118C172.995 55.3467 173.221 55.461 173.511 55.461ZM174.428 56V50.96H175.177V56H174.428ZM179.19 56V51.24H179.974V56H179.19ZM181.178 56H179.757V55.377H181.157C181.432 55.377 181.649 55.3093 181.808 55.174C181.967 55.034 182.046 54.8497 182.046 54.621C182.046 54.3923 181.96 54.2103 181.787 54.075C181.619 53.9397 181.383 53.872 181.08 53.872H179.757V53.263H180.905C181.185 53.263 181.4 53.2 181.549 53.074C181.703 52.948 181.78 52.7823 181.78 52.577C181.78 52.3577 181.703 52.185 181.549 52.059C181.4 51.9283 181.19 51.863 180.919 51.863H179.757V51.24H180.94C181.444 51.24 181.843 51.3567 182.137 51.59C182.436 51.8233 182.585 52.1383 182.585 52.535C182.585 52.8103 182.499 53.0437 182.326 53.235C182.153 53.4217 181.906 53.543 181.584 53.599V53.424C181.995 53.4707 182.307 53.6037 182.522 53.823C182.741 54.0377 182.851 54.3107 182.851 54.642C182.851 55.076 182.702 55.412 182.403 55.65C182.109 55.8833 181.701 56 181.178 56ZM185.124 53.487H184.375C184.417 53.2117 184.506 52.976 184.641 52.78C184.777 52.584 184.959 52.4347 185.187 52.332C185.416 52.2247 185.684 52.171 185.992 52.171C186.328 52.171 186.608 52.234 186.832 52.36C187.061 52.4813 187.231 52.6517 187.343 52.871C187.455 53.0903 187.511 53.3447 187.511 53.634V55.09C187.511 55.314 187.521 55.496 187.539 55.636C187.563 55.776 187.595 55.8973 187.637 56H186.853C186.811 55.9067 186.786 55.79 186.776 55.65C186.767 55.51 186.762 55.3677 186.762 55.223V53.641C186.762 53.3703 186.695 53.1627 186.559 53.018C186.429 52.8733 186.221 52.801 185.936 52.801C185.694 52.801 185.505 52.864 185.369 52.99C185.239 53.1113 185.157 53.277 185.124 53.487ZM186.867 53.725V54.236C186.485 54.236 186.172 54.2547 185.929 54.292C185.687 54.3293 185.498 54.383 185.362 54.453C185.227 54.5183 185.134 54.5977 185.082 54.691C185.031 54.7797 185.005 54.88 185.005 54.992C185.005 55.1507 185.066 55.2767 185.187 55.37C185.309 55.4587 185.467 55.503 185.663 55.503C185.873 55.503 186.06 55.454 186.223 55.356C186.391 55.2533 186.522 55.118 186.615 54.95C186.713 54.782 186.762 54.6 186.762 54.404H187.098C187.08 54.7027 187.021 54.9593 186.923 55.174C186.825 55.3887 186.699 55.5637 186.545 55.699C186.396 55.8343 186.233 55.9347 186.055 56C185.878 56.0607 185.701 56.091 185.523 56.091C185.271 56.091 185.05 56.0513 184.858 55.972C184.667 55.8927 184.518 55.7737 184.41 55.615C184.303 55.4563 184.249 55.258 184.249 55.02C184.249 54.7633 184.319 54.544 184.459 54.362C184.599 54.18 184.809 54.04 185.089 53.942C185.351 53.8533 185.621 53.795 185.901 53.767C186.181 53.739 186.503 53.725 186.867 53.725ZM190.852 56.091C190.492 56.091 190.182 56.014 189.921 55.86C189.659 55.7013 189.459 55.475 189.319 55.181C189.179 54.887 189.109 54.5393 189.109 54.138C189.109 53.7133 189.179 53.3563 189.319 53.067C189.463 52.773 189.666 52.5513 189.928 52.402C190.194 52.248 190.502 52.171 190.852 52.171C191.216 52.171 191.528 52.2503 191.79 52.409C192.051 52.5677 192.249 52.794 192.385 53.088C192.525 53.3773 192.595 53.7273 192.595 54.138C192.595 54.5533 192.525 54.908 192.385 55.202C192.245 55.4913 192.044 55.713 191.783 55.867C191.521 56.0163 191.211 56.091 190.852 56.091ZM190.852 55.461C191.169 55.461 191.412 55.3467 191.58 55.118C191.748 54.8893 191.832 54.5627 191.832 54.138C191.832 53.7087 191.748 53.3797 191.58 53.151C191.412 52.9177 191.169 52.801 190.852 52.801C190.534 52.801 190.292 52.9153 190.124 53.144C189.956 53.3727 189.872 53.704 189.872 54.138C189.872 54.5627 189.956 54.8893 190.124 55.118C190.296 55.3467 190.539 55.461 190.852 55.461ZM46.511 72V67.24H47.267L47.295 72H46.511ZM50.809 72L50.837 67.24H51.593V72H50.809ZM49.332 72H48.772L47.61 69.158L46.959 67.24H47.568L48.912 70.537L49.122 71.209H49.017L49.234 70.537L50.564 67.24H51.138L50.487 69.165L49.332 72ZM54.1065 69.487H53.3575C53.3995 69.2117 53.4882 68.976 53.6235 68.78C53.7588 68.584 53.9408 68.4347 54.1695 68.332C54.3982 68.2247 54.6665 68.171 54.9745 68.171C55.3105 68.171 55.5905 68.234 55.8145 68.36C56.0432 68.4813 56.2135 68.6517 56.3255 68.871C56.4375 69.0903 56.4935 69.3447 56.4935 69.634V71.09C56.4935 71.314 56.5028 71.496 56.5215 71.636C56.5448 71.776 56.5775 71.8973 56.6195 72H55.8355C55.7935 71.9067 55.7678 71.79 55.7585 71.65C55.7492 71.51 55.7445 71.3677 55.7445 71.223V69.641C55.7445 69.3703 55.6768 69.1627 55.5415 69.018C55.4108 68.8733 55.2032 68.801 54.9185 68.801C54.6758 68.801 54.4868 68.864 54.3515 68.99C54.2208 69.1113 54.1392 69.277 54.1065 69.487ZM55.8495 69.725V70.236C55.4668 70.236 55.1542 70.2547 54.9115 70.292C54.6688 70.3293 54.4798 70.383 54.3445 70.453C54.2092 70.5183 54.1158 70.5977 54.0645 70.691C54.0132 70.7797 53.9875 70.88 53.9875 70.992C53.9875 71.1507 54.0482 71.2767 54.1695 71.37C54.2908 71.4587 54.4495 71.503 54.6455 71.503C54.8555 71.503 55.0422 71.454 55.2055 71.356C55.3735 71.2533 55.5042 71.118 55.5975 70.95C55.6955 70.782 55.7445 70.6 55.7445 70.404H56.0805C56.0618 70.7027 56.0035 70.9593 55.9055 71.174C55.8075 71.3887 55.6815 71.5637 55.5275 71.699C55.3782 71.8343 55.2148 71.9347 55.0375 72C54.8602 72.0607 54.6828 72.091 54.5055 72.091C54.2535 72.091 54.0318 72.0513 53.8405 71.972C53.6492 71.8927 53.4998 71.7737 53.3925 71.615C53.2852 71.4563 53.2315 71.258 53.2315 71.02C53.2315 70.7633 53.3015 70.544 53.4415 70.362C53.5815 70.18 53.7915 70.04 54.0715 69.942C54.3328 69.8533 54.6035 69.795 54.8835 69.767C55.1635 69.739 55.4855 69.725 55.8495 69.725ZM58.3707 70.887V67.408H59.1197V70.845C59.1197 71.0597 59.1617 71.2183 59.2457 71.321C59.3344 71.4237 59.507 71.475 59.7637 71.475H59.9107V72.021C59.8734 72.0443 59.8104 72.0607 59.7217 72.07C59.6377 72.084 59.5444 72.091 59.4417 72.091C59.0824 72.091 58.814 71.9907 58.6367 71.79C58.4594 71.5893 58.3707 71.2883 58.3707 70.887ZM57.8667 68.85V68.269H59.9247V68.85H57.8667ZM64.4845 69.571H63.7355C63.6889 69.305 63.5862 69.1113 63.4275 68.99C63.2735 68.864 63.0869 68.801 62.8675 68.801C62.5549 68.801 62.3169 68.9153 62.1535 69.144C61.9902 69.3727 61.9085 69.704 61.9085 70.138C61.9085 70.5627 61.9925 70.8917 62.1605 71.125C62.3332 71.3537 62.5759 71.468 62.8885 71.468C63.1125 71.468 63.2992 71.4073 63.4485 71.286C63.6025 71.1647 63.7075 70.985 63.7635 70.747H64.5055C64.4262 71.2137 64.2372 71.5543 63.9385 71.769C63.6445 71.9837 63.2899 72.091 62.8745 72.091C62.5152 72.091 62.2072 72.014 61.9505 71.86C61.6939 71.7013 61.4955 71.475 61.3555 71.181C61.2155 70.887 61.1455 70.5393 61.1455 70.138C61.1455 69.7133 61.2155 69.3563 61.3555 69.067C61.4955 68.773 61.6939 68.5513 61.9505 68.402C62.2072 68.248 62.5129 68.171 62.8675 68.171C63.1475 68.171 63.4019 68.2247 63.6305 68.332C63.8592 68.4347 64.0482 68.5887 64.1975 68.794C64.3469 68.9993 64.4425 69.2583 64.4845 69.571ZM66.0435 72V66.96H66.7925V72H66.0435ZM66.7925 69.809H66.4985C66.5218 69.445 66.5942 69.1417 66.7155 68.899C66.8415 68.6563 67.0072 68.4743 67.2125 68.353C67.4178 68.2317 67.6535 68.171 67.9195 68.171C68.1808 68.171 68.4048 68.2223 68.5915 68.325C68.7782 68.423 68.9228 68.5723 69.0255 68.773C69.1282 68.969 69.1795 69.214 69.1795 69.508V72H68.4375V69.662C68.4375 69.48 68.4095 69.326 68.3535 69.2C68.2975 69.0693 68.2158 68.969 68.1085 68.899C68.0012 68.829 67.8612 68.794 67.6885 68.794C67.5485 68.794 67.4225 68.8243 67.3105 68.885C67.1985 68.941 67.1028 69.0157 67.0235 69.109C66.9488 69.2023 66.8905 69.3097 66.8485 69.431C66.8112 69.5523 66.7925 69.6783 66.7925 69.809ZM71.6374 69.487H70.8884C70.9304 69.2117 71.0191 68.976 71.1544 68.78C71.2897 68.584 71.4717 68.4347 71.7004 68.332C71.9291 68.2247 72.1974 68.171 72.5054 68.171C72.8414 68.171 73.1214 68.234 73.3454 68.36C73.5741 68.4813 73.7444 68.6517 73.8564 68.871C73.9684 69.0903 74.0244 69.3447 74.0244 69.634V71.09C74.0244 71.314 74.0337 71.496 74.0524 71.636C74.0757 71.776 74.1084 71.8973 74.1504 72H73.3664C73.3244 71.9067 73.2987 71.79 73.2894 71.65C73.2801 71.51 73.2754 71.3677 73.2754 71.223V69.641C73.2754 69.3703 73.2077 69.1627 73.0724 69.018C72.9417 68.8733 72.7341 68.801 72.4494 68.801C72.2067 68.801 72.0177 68.864 71.8824 68.99C71.7517 69.1113 71.6701 69.277 71.6374 69.487ZM73.3804 69.725V70.236C72.9977 70.236 72.6851 70.2547 72.4424 70.292C72.1997 70.3293 72.0107 70.383 71.8754 70.453C71.7401 70.5183 71.6467 70.5977 71.5954 70.691C71.5441 70.7797 71.5184 70.88 71.5184 70.992C71.5184 71.1507 71.5791 71.2767 71.7004 71.37C71.8217 71.4587 71.9804 71.503 72.1764 71.503C72.3864 71.503 72.5731 71.454 72.7364 71.356C72.9044 71.2533 73.0351 71.118 73.1284 70.95C73.2264 70.782 73.2754 70.6 73.2754 70.404H73.6114C73.5927 70.7027 73.5344 70.9593 73.4364 71.174C73.3384 71.3887 73.2124 71.5637 73.0584 71.699C72.9091 71.8343 72.7457 71.9347 72.5684 72C72.3911 72.0607 72.2137 72.091 72.0364 72.091C71.7844 72.091 71.5627 72.0513 71.3714 71.972C71.1801 71.8927 71.0307 71.7737 70.9234 71.615C70.8161 71.4563 70.7624 71.258 70.7624 71.02C70.7624 70.7633 70.8324 70.544 70.9724 70.362C71.1124 70.18 71.3224 70.04 71.6024 69.942C71.8637 69.8533 72.1344 69.795 72.4144 69.767C72.6944 69.739 73.0164 69.725 73.3804 69.725ZM78.5267 70.929V70.313H80.9277V70.929H78.5267ZM81.2287 72L79.8777 68.458L79.7167 67.926H79.7587L79.5977 68.458L78.2467 72H77.4627L79.2967 67.24H80.2137L82.0477 72H81.2287ZM83.549 68.073C83.549 67.667 83.6354 67.366 83.808 67.17C83.9854 66.9693 84.2467 66.869 84.592 66.869C84.69 66.869 84.774 66.876 84.844 66.89C84.914 66.904 84.9677 66.9203 85.005 66.939V67.443H84.935C84.6784 67.443 84.5057 67.4967 84.417 67.604C84.333 67.7067 84.291 67.8653 84.291 68.08V72H83.549V68.073ZM83.045 68.85V68.269H85.005V68.85H83.045ZM86.392 68.073C86.392 67.667 86.4783 67.366 86.651 67.17C86.8283 66.9693 87.0896 66.869 87.435 66.869C87.533 66.869 87.617 66.876 87.687 66.89C87.757 66.904 87.8106 66.9203 87.848 66.939V67.443H87.778C87.5213 67.443 87.3486 67.4967 87.26 67.604C87.176 67.7067 87.134 67.8653 87.134 68.08V72H86.392V68.073ZM85.888 68.85V68.269H87.848V68.85H85.888ZM90.7119 72.091C90.3526 72.091 90.0422 72.014 89.7809 71.86C89.5196 71.7013 89.3189 71.475 89.1789 71.181C89.0389 70.887 88.9689 70.5393 88.9689 70.138C88.9689 69.7133 89.0389 69.3563 89.1789 69.067C89.3236 68.773 89.5266 68.5513 89.7879 68.402C90.0539 68.248 90.3619 68.171 90.7119 68.171C91.0759 68.171 91.3886 68.2503 91.6499 68.409C91.9112 68.5677 92.1096 68.794 92.2449 69.088C92.3849 69.3773 92.4549 69.7273 92.4549 70.138C92.4549 70.5533 92.3849 70.908 92.2449 71.202C92.1049 71.4913 91.9042 71.713 91.6429 71.867C91.3816 72.0163 91.0712 72.091 90.7119 72.091ZM90.7119 71.461C91.0292 71.461 91.2719 71.3467 91.4399 71.118C91.6079 70.8893 91.6919 70.5627 91.6919 70.138C91.6919 69.7087 91.6079 69.3797 91.4399 69.151C91.2719 68.9177 91.0292 68.801 90.7119 68.801C90.3946 68.801 90.1519 68.9153 89.9839 69.144C89.8159 69.3727 89.7319 69.704 89.7319 70.138C89.7319 70.5627 89.8159 70.8893 89.9839 71.118C90.1566 71.3467 90.3992 71.461 90.7119 71.461ZM95.3681 72.021C95.0508 72.021 94.7778 71.944 94.5491 71.79C94.3204 71.636 94.1454 71.4167 94.0241 71.132C93.9028 70.8427 93.8421 70.4997 93.8421 70.103C93.8421 69.4777 93.9774 68.9993 94.2481 68.668C94.5234 68.3367 94.8968 68.171 95.3681 68.171C95.8488 68.171 96.2081 68.339 96.4461 68.675C96.6841 69.0063 96.8031 69.48 96.8031 70.096C96.8031 70.726 96.6724 71.2043 96.4111 71.531C96.1544 71.8577 95.8068 72.021 95.3681 72.021ZM95.5221 71.391C95.8208 71.391 96.0471 71.2813 96.2011 71.062C96.3598 70.838 96.4391 70.516 96.4391 70.096C96.4391 69.6853 96.3574 69.368 96.1941 69.144C96.0354 68.9153 95.8114 68.801 95.5221 68.801C95.2234 68.801 94.9948 68.913 94.8361 69.137C94.6821 69.3563 94.6051 69.6783 94.6051 70.103C94.6051 70.5137 94.6844 70.831 94.8431 71.055C95.0018 71.279 95.2281 71.391 95.5221 71.391ZM97.1881 72.119C97.1881 72.4597 97.1181 72.742 96.9781 72.966C96.8381 73.19 96.6491 73.358 96.4111 73.47C96.1778 73.582 95.9118 73.638 95.6131 73.638C95.1651 73.638 94.7894 73.5307 94.4861 73.316C94.1874 73.106 94.0054 72.784 93.9401 72.35H94.6891C94.7218 72.574 94.8198 72.7443 94.9831 72.861C95.1511 72.9777 95.3588 73.036 95.6061 73.036C95.8581 73.036 96.0588 72.966 96.2081 72.826C96.3621 72.686 96.4391 72.455 96.4391 72.133V68.269H97.1881V72.119ZM99.6453 69.487H98.8963C98.9383 69.2117 99.027 68.976 99.1623 68.78C99.2977 68.584 99.4797 68.4347 99.7083 68.332C99.937 68.2247 100.205 68.171 100.513 68.171C100.849 68.171 101.129 68.234 101.353 68.36C101.582 68.4813 101.752 68.6517 101.864 68.871C101.976 69.0903 102.032 69.3447 102.032 69.634V71.09C102.032 71.314 102.042 71.496 102.06 71.636C102.084 71.776 102.116 71.8973 102.158 72H101.374C101.332 71.9067 101.307 71.79 101.297 71.65C101.288 71.51 101.283 71.3677 101.283 71.223V69.641C101.283 69.3703 101.216 69.1627 101.08 69.018C100.95 68.8733 100.742 68.801 100.457 68.801C100.215 68.801 100.026 68.864 99.8903 68.99C99.7597 69.1113 99.678 69.277 99.6453 69.487ZM101.388 69.725V70.236C101.006 70.236 100.693 70.2547 100.45 70.292C100.208 70.3293 100.019 70.383 99.8833 70.453C99.748 70.5183 99.6547 70.5977 99.6033 70.691C99.552 70.7797 99.5263 70.88 99.5263 70.992C99.5263 71.1507 99.587 71.2767 99.7083 71.37C99.8297 71.4587 99.9883 71.503 100.184 71.503C100.394 71.503 100.581 71.454 100.744 71.356C100.912 71.2533 101.043 71.118 101.136 70.95C101.234 70.782 101.283 70.6 101.283 70.404H101.619C101.601 70.7027 101.542 70.9593 101.444 71.174C101.346 71.3887 101.22 71.5637 101.066 71.699C100.917 71.8343 100.754 71.9347 100.576 72C100.399 72.0607 100.222 72.091 100.044 72.091C99.7923 72.091 99.5707 72.0513 99.3793 71.972C99.188 71.8927 99.0387 71.7737 98.9313 71.615C98.824 71.4563 98.7703 71.258 98.7703 71.02C98.7703 70.7633 98.8403 70.544 98.9803 70.362C99.1203 70.18 99.3303 70.04 99.6103 69.942C99.8717 69.8533 100.142 69.795 100.422 69.767C100.702 69.739 101.024 69.725 101.388 69.725ZM103.91 70.887V67.408H104.659V70.845C104.659 71.0597 104.701 71.2183 104.785 71.321C104.873 71.4237 105.046 71.475 105.303 71.475H105.45V72.021C105.412 72.0443 105.349 72.0607 105.261 72.07C105.177 72.084 105.083 72.091 104.981 72.091C104.621 72.091 104.353 71.9907 104.176 71.79C103.998 71.5893 103.91 71.2883 103.91 70.887ZM103.406 68.85V68.269H105.464V68.85H103.406ZM108.427 72.091C108.068 72.091 107.758 72.014 107.496 71.86C107.235 71.7013 107.034 71.475 106.894 71.181C106.754 70.887 106.684 70.5393 106.684 70.138C106.684 69.7133 106.754 69.3563 106.894 69.067C107.039 68.773 107.242 68.5513 107.503 68.402C107.769 68.248 108.077 68.171 108.427 68.171C108.791 68.171 109.104 68.2503 109.365 68.409C109.627 68.5677 109.825 68.794 109.96 69.088C110.1 69.3773 110.17 69.7273 110.17 70.138C110.17 70.5533 110.1 70.908 109.96 71.202C109.82 71.4913 109.62 71.713 109.358 71.867C109.097 72.0163 108.787 72.091 108.427 72.091ZM108.427 71.461C108.745 71.461 108.987 71.3467 109.155 71.118C109.323 70.8893 109.407 70.5627 109.407 70.138C109.407 69.7087 109.323 69.3797 109.155 69.151C108.987 68.9177 108.745 68.801 108.427 68.801C108.11 68.801 107.867 68.9153 107.699 69.144C107.531 69.3727 107.447 69.704 107.447 70.138C107.447 70.5627 107.531 70.8893 107.699 71.118C107.872 71.3467 108.115 71.461 108.427 71.461ZM47.148 84.416C47.148 84.5747 47.1877 84.703 47.267 84.801C47.3463 84.8943 47.456 84.969 47.596 85.025C47.736 85.0763 47.89 85.1207 48.058 85.158C48.2307 85.1907 48.408 85.2257 48.59 85.263C48.772 85.2957 48.947 85.3423 49.115 85.403C49.2877 85.459 49.4417 85.5383 49.577 85.641C49.717 85.739 49.8267 85.8673 49.906 86.026C49.99 86.1847 50.032 86.3853 50.032 86.628C50.032 86.9407 49.9527 87.2067 49.794 87.426C49.64 87.6453 49.4277 87.811 49.157 87.923C48.8863 88.035 48.576 88.091 48.226 88.091C47.876 88.091 47.5633 88.0373 47.288 87.93C47.0173 87.8227 46.791 87.6593 46.609 87.44C46.4317 87.2207 46.3103 86.9453 46.245 86.614H47.064C47.134 86.8847 47.267 87.0923 47.463 87.237C47.659 87.377 47.9157 87.447 48.233 87.447C48.5597 87.447 48.807 87.3817 48.975 87.251C49.143 87.1203 49.227 86.9477 49.227 86.733C49.227 86.565 49.1873 86.4297 49.108 86.327C49.0287 86.2197 48.919 86.138 48.779 86.082C48.639 86.0213 48.4827 85.9723 48.31 85.935C48.142 85.893 47.967 85.8533 47.785 85.816C47.603 85.7787 47.4257 85.732 47.253 85.676C47.085 85.62 46.931 85.5453 46.791 85.452C46.6557 85.354 46.546 85.228 46.462 85.074C46.3827 84.92 46.343 84.7217 46.343 84.479C46.343 84.241 46.4083 84.0217 46.539 83.821C46.6697 83.6157 46.8587 83.4523 47.106 83.331C47.358 83.2097 47.666 83.149 48.03 83.149C48.3427 83.149 48.6297 83.2027 48.891 83.31C49.157 83.4127 49.3787 83.5737 49.556 83.793C49.7333 84.0077 49.85 84.29 49.906 84.64H49.073C49.0077 84.346 48.884 84.1313 48.702 83.996C48.52 83.8607 48.289 83.793 48.009 83.793C47.7383 83.793 47.526 83.8513 47.372 83.968C47.2227 84.08 47.148 84.2293 47.148 84.416ZM54.5283 85.767L54.1013 86.117C54.1013 85.6923 54.0173 85.3657 53.8493 85.137C53.6813 84.9083 53.441 84.794 53.1283 84.794C52.811 84.794 52.5683 84.9107 52.4003 85.144C52.237 85.3727 52.1553 85.704 52.1553 86.138C52.1553 86.5627 52.2416 86.8917 52.4143 87.125C52.5916 87.3537 52.8413 87.468 53.1633 87.468C53.4013 87.468 53.5996 87.412 53.7583 87.3C53.9216 87.188 54.036 87.0153 54.1013 86.782H54.8853C54.7826 87.216 54.5773 87.5427 54.2693 87.762C53.966 87.9813 53.5973 88.091 53.1633 88.091C52.7993 88.091 52.4843 88.014 52.2183 87.86C51.9523 87.7013 51.747 87.475 51.6023 87.181C51.4623 86.887 51.3923 86.5393 51.3923 86.138C51.3923 85.7133 51.4623 85.3563 51.6023 85.067C51.747 84.773 51.95 84.5513 52.2113 84.402C52.4726 84.248 52.7783 84.171 53.1283 84.171C53.4876 84.171 53.7956 84.2503 54.0523 84.409C54.309 84.563 54.5073 84.7823 54.6473 85.067C54.7873 85.3517 54.8573 85.6947 54.8573 86.096V86.278H51.7003V85.767H54.5283ZM56.4475 88V82.96H57.1965V88H56.4475ZM61.8958 85.767L61.4688 86.117C61.4688 85.6923 61.3848 85.3657 61.2168 85.137C61.0488 84.9083 60.8085 84.794 60.4958 84.794C60.1785 84.794 59.9358 84.9107 59.7678 85.144C59.6045 85.3727 59.5228 85.704 59.5228 86.138C59.5228 86.5627 59.6091 86.8917 59.7818 87.125C59.9591 87.3537 60.2088 87.468 60.5308 87.468C60.7688 87.468 60.9671 87.412 61.1258 87.3C61.2891 87.188 61.4035 87.0153 61.4688 86.782H62.2528C62.1501 87.216 61.9448 87.5427 61.6368 87.762C61.3335 87.9813 60.9648 88.091 60.5308 88.091C60.1668 88.091 59.8518 88.014 59.5858 87.86C59.3198 87.7013 59.1145 87.475 58.9698 87.181C58.8298 86.887 58.7598 86.5393 58.7598 86.138C58.7598 85.7133 58.8298 85.3563 58.9698 85.067C59.1145 84.773 59.3175 84.5513 59.5788 84.402C59.8401 84.248 60.1458 84.171 60.4958 84.171C60.8551 84.171 61.1631 84.2503 61.4198 84.409C61.6765 84.563 61.8748 84.7823 62.0148 85.067C62.1548 85.3517 62.2248 85.6947 62.2248 86.096V86.278H59.0678V85.767H61.8958ZM66.972 85.571H66.223C66.1763 85.305 66.0737 85.1113 65.915 84.99C65.761 84.864 65.5743 84.801 65.355 84.801C65.0423 84.801 64.8043 84.9153 64.641 85.144C64.4777 85.3727 64.396 85.704 64.396 86.138C64.396 86.5627 64.48 86.8917 64.648 87.125C64.8207 87.3537 65.0633 87.468 65.376 87.468C65.6 87.468 65.7867 87.4073 65.936 87.286C66.09 87.1647 66.195 86.985 66.251 86.747H66.993C66.9137 87.2137 66.7247 87.5543 66.426 87.769C66.132 87.9837 65.7773 88.091 65.362 88.091C65.0027 88.091 64.6947 88.014 64.438 87.86C64.1813 87.7013 63.983 87.475 63.843 87.181C63.703 86.887 63.633 86.5393 63.633 86.138C63.633 85.7133 63.703 85.3563 63.843 85.067C63.983 84.773 64.1813 84.5513 64.438 84.402C64.6947 84.248 65.0003 84.171 65.355 84.171C65.635 84.171 65.8893 84.2247 66.118 84.332C66.3467 84.4347 66.5357 84.5887 66.685 84.794C66.8343 84.9993 66.93 85.2583 66.972 85.571ZM68.629 86.887V83.408H69.378V86.845C69.378 87.0597 69.42 87.2183 69.504 87.321C69.5926 87.4237 69.7653 87.475 70.022 87.475H70.169V88.021C70.1316 88.0443 70.0686 88.0607 69.98 88.07C69.896 88.084 69.8026 88.091 69.7 88.091C69.3406 88.091 69.0723 87.9907 68.895 87.79C68.7176 87.5893 68.629 87.2883 68.629 86.887ZM68.125 84.85V84.269H70.183V84.85H68.125ZM71.5858 88V84.269H72.3348V88H71.5858ZM71.5858 83.807V82.96H72.3348V83.807H71.5858ZM75.6411 88.091C75.2818 88.091 74.9714 88.014 74.7101 87.86C74.4488 87.7013 74.2481 87.475 74.1081 87.181C73.9681 86.887 73.8981 86.5393 73.8981 86.138C73.8981 85.7133 73.9681 85.3563 74.1081 85.067C74.2528 84.773 74.4558 84.5513 74.7171 84.402C74.9831 84.248 75.2911 84.171 75.6411 84.171C76.0051 84.171 76.3178 84.2503 76.5791 84.409C76.8404 84.5677 77.0388 84.794 77.1741 85.088C77.3141 85.3773 77.3841 85.7273 77.3841 86.138C77.3841 86.5533 77.3141 86.908 77.1741 87.202C77.0341 87.4913 76.8334 87.713 76.5721 87.867C76.3108 88.0163 76.0004 88.091 75.6411 88.091ZM75.6411 87.461C75.9584 87.461 76.2011 87.3467 76.3691 87.118C76.5371 86.8893 76.6211 86.5627 76.6211 86.138C76.6211 85.7087 76.5371 85.3797 76.3691 85.151C76.2011 84.9177 75.9584 84.801 75.6411 84.801C75.3238 84.801 75.0811 84.9153 74.9131 85.144C74.7451 85.3727 74.6611 85.704 74.6611 86.138C74.6611 86.5627 74.7451 86.8893 74.9131 87.118C75.0858 87.3467 75.3284 87.461 75.6411 87.461ZM78.9533 88V84.269H79.7023V88H78.9533ZM79.7023 85.809H79.4083C79.4317 85.445 79.504 85.1417 79.6253 84.899C79.7513 84.6563 79.917 84.4743 80.1223 84.353C80.3277 84.2317 80.5633 84.171 80.8293 84.171C81.0907 84.171 81.3147 84.2223 81.5013 84.325C81.688 84.423 81.8327 84.5723 81.9353 84.773C82.038 84.969 82.0893 85.214 82.0893 85.508V88H81.3473V85.662C81.3473 85.48 81.3193 85.326 81.2633 85.2C81.2073 85.0693 81.1257 84.969 81.0183 84.899C80.911 84.829 80.771 84.794 80.5983 84.794C80.4583 84.794 80.3323 84.8243 80.2203 84.885C80.1083 84.941 80.0127 85.0157 79.9333 85.109C79.8587 85.2023 79.8003 85.3097 79.7583 85.431C79.721 85.5523 79.7023 85.6783 79.7023 85.809ZM87.6152 88.091C87.2559 88.091 86.9456 88.014 86.6842 87.86C86.4229 87.7013 86.2222 87.475 86.0822 87.181C85.9422 86.887 85.8722 86.5393 85.8722 86.138C85.8722 85.7133 85.9422 85.3563 86.0822 85.067C86.2269 84.773 86.4299 84.5513 86.6912 84.402C86.9572 84.248 87.2652 84.171 87.6152 84.171C87.9792 84.171 88.2919 84.2503 88.5532 84.409C88.8146 84.5677 89.0129 84.794 89.1482 85.088C89.2882 85.3773 89.3582 85.7273 89.3582 86.138C89.3582 86.5533 89.2882 86.908 89.1482 87.202C89.0082 87.4913 88.8076 87.713 88.5462 87.867C88.2849 88.0163 87.9746 88.091 87.6152 88.091ZM87.6152 87.461C87.9326 87.461 88.1752 87.3467 88.3432 87.118C88.5112 86.8893 88.5952 86.5627 88.5952 86.138C88.5952 85.7087 88.5112 85.3797 88.3432 85.151C88.1752 84.9177 87.9326 84.801 87.6152 84.801C87.2979 84.801 87.0552 84.9153 86.8872 85.144C86.7192 85.3727 86.6352 85.704 86.6352 86.138C86.6352 86.5627 86.7192 86.8893 86.8872 87.118C87.0599 87.3467 87.3026 87.461 87.6152 87.461ZM91.0114 84.073C91.0114 83.667 91.0978 83.366 91.2704 83.17C91.4478 82.9693 91.7091 82.869 92.0544 82.869C92.1524 82.869 92.2364 82.876 92.3064 82.89C92.3764 82.904 92.4301 82.9203 92.4674 82.939V83.443H92.3974C92.1408 83.443 91.9681 83.4967 91.8794 83.604C91.7954 83.7067 91.7534 83.8653 91.7534 84.08V88H91.0114V84.073ZM90.5074 84.85V84.269H92.4674V84.85H90.5074ZM96.0404 88V83.24H96.8244V88H96.0404ZM96.6074 88V87.363H99.1274V88H96.6074ZM102.193 88.091C101.834 88.091 101.523 88.014 101.262 87.86C101.001 87.7013 100.8 87.475 100.66 87.181C100.52 86.887 100.45 86.5393 100.45 86.138C100.45 85.7133 100.52 85.3563 100.66 85.067C100.805 84.773 101.008 84.5513 101.269 84.402C101.535 84.248 101.843 84.171 102.193 84.171C102.557 84.171 102.87 84.2503 103.131 84.409C103.392 84.5677 103.591 84.794 103.726 85.088C103.866 85.3773 103.936 85.7273 103.936 86.138C103.936 86.5533 103.866 86.908 103.726 87.202C103.586 87.4913 103.385 87.713 103.124 87.867C102.863 88.0163 102.552 88.091 102.193 88.091ZM102.193 87.461C102.51 87.461 102.753 87.3467 102.921 87.118C103.089 86.8893 103.173 86.5627 103.173 86.138C103.173 85.7087 103.089 85.3797 102.921 85.151C102.753 84.9177 102.51 84.801 102.193 84.801C101.876 84.801 101.633 84.9153 101.465 85.144C101.297 85.3727 101.213 85.704 101.213 86.138C101.213 86.5627 101.297 86.8893 101.465 87.118C101.638 87.3467 101.88 87.461 102.193 87.461ZM108.662 85.571H107.913C107.867 85.305 107.764 85.1113 107.605 84.99C107.451 84.864 107.265 84.801 107.045 84.801C106.733 84.801 106.495 84.9153 106.331 85.144C106.168 85.3727 106.086 85.704 106.086 86.138C106.086 86.5627 106.17 86.8917 106.338 87.125C106.511 87.3537 106.754 87.468 107.066 87.468C107.29 87.468 107.477 87.4073 107.626 87.286C107.78 87.1647 107.885 86.985 107.941 86.747H108.683C108.604 87.2137 108.415 87.5543 108.116 87.769C107.822 87.9837 107.468 88.091 107.052 88.091C106.693 88.091 106.385 88.014 106.128 87.86C105.872 87.7013 105.673 87.475 105.533 87.181C105.393 86.887 105.323 86.5393 105.323 86.138C105.323 85.7133 105.393 85.3563 105.533 85.067C105.673 84.773 105.872 84.5513 106.128 84.402C106.385 84.248 106.691 84.171 107.045 84.171C107.325 84.171 107.58 84.2247 107.808 84.332C108.037 84.4347 108.226 84.5887 108.375 84.794C108.525 84.9993 108.62 85.2583 108.662 85.571ZM110.928 85.487H110.179C110.221 85.2117 110.31 84.976 110.445 84.78C110.581 84.584 110.763 84.4347 110.991 84.332C111.22 84.2247 111.488 84.171 111.796 84.171C112.132 84.171 112.412 84.234 112.636 84.36C112.865 84.4813 113.035 84.6517 113.147 84.871C113.259 85.0903 113.315 85.3447 113.315 85.634V87.09C113.315 87.314 113.325 87.496 113.343 87.636C113.367 87.776 113.399 87.8973 113.441 88H112.657C112.615 87.9067 112.59 87.79 112.58 87.65C112.571 87.51 112.566 87.3677 112.566 87.223V85.641C112.566 85.3703 112.499 85.1627 112.363 85.018C112.233 84.8733 112.025 84.801 111.74 84.801C111.498 84.801 111.309 84.864 111.173 84.99C111.043 85.1113 110.961 85.277 110.928 85.487ZM112.671 85.725V86.236C112.289 86.236 111.976 86.2547 111.733 86.292C111.491 86.3293 111.302 86.383 111.166 86.453C111.031 86.5183 110.938 86.5977 110.886 86.691C110.835 86.7797 110.809 86.88 110.809 86.992C110.809 87.1507 110.87 87.2767 110.991 87.37C111.113 87.4587 111.271 87.503 111.467 87.503C111.677 87.503 111.864 87.454 112.027 87.356C112.195 87.2533 112.326 87.118 112.419 86.95C112.517 86.782 112.566 86.6 112.566 86.404H112.902C112.884 86.7027 112.825 86.9593 112.727 87.174C112.629 87.3887 112.503 87.5637 112.349 87.699C112.2 87.8343 112.037 87.9347 111.859 88C111.682 88.0607 111.505 88.091 111.327 88.091C111.075 88.091 110.854 88.0513 110.662 87.972C110.471 87.8927 110.322 87.7737 110.214 87.615C110.107 87.4563 110.053 87.258 110.053 87.02C110.053 86.7633 110.123 86.544 110.263 86.362C110.403 86.18 110.613 86.04 110.893 85.942C111.155 85.8533 111.425 85.795 111.705 85.767C111.985 85.739 112.307 85.725 112.671 85.725ZM115.094 88V82.96H115.843V88H115.094ZM123.877 84.654H123.058C122.974 84.3833 122.827 84.1757 122.617 84.031C122.407 83.8817 122.159 83.807 121.875 83.807C121.585 83.807 121.338 83.8817 121.133 84.031C120.927 84.1757 120.769 84.3833 120.657 84.654C120.545 84.9247 120.489 85.249 120.489 85.627C120.489 86.005 120.542 86.3293 120.65 86.6C120.762 86.866 120.92 87.0713 121.126 87.216C121.331 87.3607 121.581 87.433 121.875 87.433C122.145 87.433 122.383 87.363 122.589 87.223C122.799 87.083 122.95 86.88 123.044 86.614H123.87C123.781 86.9267 123.639 87.195 123.443 87.419C123.251 87.6383 123.02 87.8063 122.75 87.923C122.479 88.035 122.187 88.091 121.875 88.091C121.422 88.091 121.032 87.993 120.706 87.797C120.379 87.5963 120.127 87.3117 119.95 86.943C119.777 86.5743 119.691 86.1357 119.691 85.627C119.691 85.1183 119.779 84.6797 119.957 84.311C120.134 83.9377 120.386 83.6507 120.713 83.45C121.044 83.2493 121.438 83.149 121.896 83.149C122.213 83.149 122.507 83.205 122.778 83.317C123.053 83.429 123.286 83.5993 123.478 83.828C123.669 84.052 123.802 84.3273 123.877 84.654ZM125.442 88V82.96H126.191V88H125.442ZM126.191 85.809H125.897C125.92 85.445 125.992 85.1417 126.114 84.899C126.24 84.6563 126.405 84.4743 126.611 84.353C126.816 84.2317 127.052 84.171 127.318 84.171C127.579 84.171 127.803 84.2223 127.99 84.325C128.176 84.423 128.321 84.5723 128.424 84.773C128.526 84.969 128.578 85.214 128.578 85.508V88H127.836V85.662C127.836 85.48 127.808 85.326 127.752 85.2C127.696 85.0693 127.614 84.969 127.507 84.899C127.399 84.829 127.259 84.794 127.087 84.794C126.947 84.794 126.821 84.8243 126.709 84.885C126.597 84.941 126.501 85.0157 126.422 85.109C126.347 85.2023 126.289 85.3097 126.247 85.431C126.209 85.5523 126.191 85.6783 126.191 85.809ZM133.282 85.767L132.855 86.117C132.855 85.6923 132.771 85.3657 132.603 85.137C132.435 84.9083 132.195 84.794 131.882 84.794C131.565 84.794 131.322 84.9107 131.154 85.144C130.991 85.3727 130.909 85.704 130.909 86.138C130.909 86.5627 130.996 86.8917 131.168 87.125C131.346 87.3537 131.595 87.468 131.917 87.468C132.155 87.468 132.354 87.412 132.512 87.3C132.676 87.188 132.79 87.0153 132.855 86.782H133.639C133.537 87.216 133.331 87.5427 133.023 87.762C132.72 87.9813 132.351 88.091 131.917 88.091C131.553 88.091 131.238 88.014 130.972 87.86C130.706 87.7013 130.501 87.475 130.356 87.181C130.216 86.887 130.146 86.5393 130.146 86.138C130.146 85.7133 130.216 85.3563 130.356 85.067C130.501 84.773 130.704 84.5513 130.965 84.402C131.227 84.248 131.532 84.171 131.882 84.171C132.242 84.171 132.55 84.2503 132.806 84.409C133.063 84.563 133.261 84.7823 133.401 85.067C133.541 85.3517 133.611 85.6947 133.611 86.096V86.278H130.454V85.767H133.282ZM138.156 85.767L137.729 86.117C137.729 85.6923 137.645 85.3657 137.477 85.137C137.309 84.9083 137.068 84.794 136.756 84.794C136.438 84.794 136.196 84.9107 136.028 85.144C135.864 85.3727 135.783 85.704 135.783 86.138C135.783 86.5627 135.869 86.8917 136.042 87.125C136.219 87.3537 136.469 87.468 136.791 87.468C137.029 87.468 137.227 87.412 137.386 87.3C137.549 87.188 137.663 87.0153 137.729 86.782H138.513C138.41 87.216 138.205 87.5427 137.897 87.762C137.593 87.9813 137.225 88.091 136.791 88.091C136.427 88.091 136.112 88.014 135.846 87.86C135.58 87.7013 135.374 87.475 135.23 87.181C135.09 86.887 135.02 86.5393 135.02 86.138C135.02 85.7133 135.09 85.3563 135.23 85.067C135.374 84.773 135.577 84.5513 135.839 84.402C136.1 84.248 136.406 84.171 136.756 84.171C137.115 84.171 137.423 84.2503 137.68 84.409C137.936 84.563 138.135 84.7823 138.275 85.067C138.415 85.3517 138.485 85.6947 138.485 86.096V86.278H135.328V85.767H138.156ZM140.67 85.249C140.67 85.3843 140.712 85.4893 140.796 85.564C140.88 85.634 140.994 85.69 141.139 85.732C141.283 85.7693 141.44 85.802 141.608 85.83C141.78 85.8533 141.951 85.886 142.119 85.928C142.287 85.9653 142.441 86.0213 142.581 86.096C142.725 86.166 142.84 86.2663 142.924 86.397C143.012 86.5277 143.057 86.7027 143.057 86.922C143.057 87.1553 142.991 87.3607 142.861 87.538C142.73 87.7153 142.548 87.853 142.315 87.951C142.086 88.0443 141.82 88.091 141.517 88.091C141.069 88.091 140.693 87.986 140.39 87.776C140.091 87.5613 139.907 87.23 139.837 86.782H140.586C140.623 87.0153 140.726 87.195 140.894 87.321C141.062 87.447 141.276 87.51 141.538 87.51C141.79 87.51 141.981 87.4587 142.112 87.356C142.242 87.2533 142.308 87.125 142.308 86.971C142.308 86.8403 142.266 86.7377 142.182 86.663C142.098 86.5883 141.983 86.5347 141.839 86.502C141.699 86.4647 141.545 86.432 141.377 86.404C141.209 86.376 141.041 86.3433 140.873 86.306C140.709 86.264 140.558 86.2057 140.418 86.131C140.278 86.0563 140.166 85.9537 140.082 85.823C139.998 85.6877 139.956 85.5103 139.956 85.291C139.956 85.095 140.005 84.913 140.103 84.745C140.205 84.5723 140.359 84.4347 140.565 84.332C140.775 84.2247 141.038 84.171 141.356 84.171C141.636 84.171 141.885 84.2177 142.105 84.311C142.324 84.3997 142.506 84.542 142.651 84.738C142.795 84.9293 142.886 85.179 142.924 85.487H142.175C142.133 85.2257 142.039 85.0413 141.895 84.934C141.75 84.822 141.559 84.766 141.321 84.766C141.115 84.766 140.954 84.8127 140.838 84.906C140.726 84.9947 140.67 85.109 140.67 85.249ZM147.533 85.767L147.106 86.117C147.106 85.6923 147.022 85.3657 146.854 85.137C146.686 84.9083 146.446 84.794 146.133 84.794C145.816 84.794 145.573 84.9107 145.405 85.144C145.242 85.3727 145.16 85.704 145.16 86.138C145.16 86.5627 145.246 86.8917 145.419 87.125C145.596 87.3537 145.846 87.468 146.168 87.468C146.406 87.468 146.604 87.412 146.763 87.3C146.926 87.188 147.041 87.0153 147.106 86.782H147.89C147.787 87.216 147.582 87.5427 147.274 87.762C146.971 87.9813 146.602 88.091 146.168 88.091C145.804 88.091 145.489 88.014 145.223 87.86C144.957 87.7013 144.752 87.475 144.607 87.181C144.467 86.887 144.397 86.5393 144.397 86.138C144.397 85.7133 144.467 85.3563 144.607 85.067C144.752 84.773 144.955 84.5513 145.216 84.402C145.477 84.248 145.783 84.171 146.133 84.171C146.492 84.171 146.8 84.2503 147.057 84.409C147.314 84.563 147.512 84.7823 147.652 85.067C147.792 85.3517 147.862 85.6947 147.862 86.096V86.278H144.705V85.767H147.533Z" fill="#282624"/>
<path d="M152.04 88.905C151.797 88.5217 151.612 88.1433 151.485 87.77C151.358 87.3967 151.295 87.0233 151.295 86.65C151.295 86.2767 151.358 85.905 151.485 85.535C151.612 85.1617 151.797 84.7833 152.04 84.4H152.57C152.34 84.7933 152.165 85.175 152.045 85.545C151.925 85.915 151.865 86.2833 151.865 86.65C151.865 87.02 151.925 87.39 152.045 87.76C152.165 88.13 152.34 88.5117 152.57 88.905H152.04ZM153.95 88.015C153.723 88.015 153.528 87.96 153.365 87.85C153.202 87.74 153.077 87.5833 152.99 87.38C152.903 87.1733 152.86 86.9283 152.86 86.645C152.86 86.1983 152.957 85.8567 153.15 85.62C153.347 85.3833 153.613 85.265 153.95 85.265C154.293 85.265 154.55 85.385 154.72 85.625C154.89 85.8617 154.975 86.2 154.975 86.64C154.975 87.09 154.882 87.4317 154.695 87.665C154.512 87.8983 154.263 88.015 153.95 88.015ZM154.06 87.565C154.273 87.565 154.435 87.4867 154.545 87.33C154.658 87.17 154.715 86.94 154.715 86.64C154.715 86.3467 154.657 86.12 154.54 85.96C154.427 85.7967 154.267 85.715 154.06 85.715C153.847 85.715 153.683 85.795 153.57 85.955C153.46 86.1117 153.405 86.3417 153.405 86.645C153.405 86.9383 153.462 87.165 153.575 87.325C153.688 87.485 153.85 87.565 154.06 87.565ZM155.25 88.085C155.25 88.3283 155.2 88.53 155.1 88.69C155 88.85 154.865 88.97 154.695 89.05C154.528 89.13 154.338 89.17 154.125 89.17C153.805 89.17 153.537 89.0933 153.32 88.94C153.107 88.79 152.977 88.56 152.93 88.25H153.465C153.488 88.41 153.558 88.5317 153.675 88.615C153.795 88.6983 153.943 88.74 154.12 88.74C154.3 88.74 154.443 88.69 154.55 88.59C154.66 88.49 154.715 88.325 154.715 88.095V85.335H155.25V88.085ZM155.9 88V85.335H156.435V88H155.9ZM156.435 86.545H156.235C156.249 86.245 156.3 86.0017 156.39 85.815C156.484 85.625 156.599 85.4867 156.735 85.4C156.875 85.31 157.029 85.265 157.195 85.265C157.249 85.265 157.299 85.2717 157.345 85.285C157.392 85.295 157.427 85.3117 157.45 85.335V85.805C157.41 85.7917 157.367 85.7833 157.32 85.78C157.274 85.7733 157.222 85.77 157.165 85.77C157.039 85.77 156.929 85.7883 156.835 85.825C156.745 85.8617 156.67 85.915 156.61 85.985C156.55 86.0517 156.505 86.1333 156.475 86.23C156.449 86.3233 156.435 86.4283 156.435 86.545ZM159.875 86.405L159.57 86.655C159.57 86.3517 159.51 86.1183 159.39 85.955C159.27 85.7917 159.099 85.71 158.875 85.71C158.649 85.71 158.475 85.7933 158.355 85.96C158.239 86.1233 158.18 86.36 158.18 86.67C158.18 86.9733 158.242 87.2083 158.365 87.375C158.492 87.5383 158.67 87.62 158.9 87.62C159.07 87.62 159.212 87.58 159.325 87.5C159.442 87.42 159.524 87.2967 159.57 87.13H160.13C160.057 87.44 159.91 87.6733 159.69 87.83C159.474 87.9867 159.21 88.065 158.9 88.065C158.64 88.065 158.415 88.01 158.225 87.9C158.035 87.7867 157.889 87.625 157.785 87.415C157.685 87.205 157.635 86.9567 157.635 86.67C157.635 86.3667 157.685 86.1117 157.785 85.905C157.889 85.695 158.034 85.5367 158.22 85.43C158.407 85.32 158.625 85.265 158.875 85.265C159.132 85.265 159.352 85.3217 159.535 85.435C159.719 85.545 159.86 85.7017 159.96 85.905C160.06 86.1083 160.11 86.3533 160.11 86.64V86.77H157.855V86.405H159.875ZM161.151 86.205H160.616C160.646 86.0083 160.71 85.84 160.806 85.7C160.903 85.56 161.033 85.4533 161.196 85.38C161.36 85.3033 161.551 85.265 161.771 85.265C162.011 85.265 162.211 85.31 162.371 85.4C162.535 85.4867 162.656 85.6083 162.736 85.765C162.816 85.9217 162.856 86.1033 162.856 86.31V87.35C162.856 87.51 162.863 87.64 162.876 87.74C162.893 87.84 162.916 87.9267 162.946 88H162.386C162.356 87.9333 162.338 87.85 162.331 87.75C162.325 87.65 162.321 87.5483 162.321 87.445V86.315C162.321 86.1217 162.273 85.9733 162.176 85.87C162.083 85.7667 161.935 85.715 161.731 85.715C161.558 85.715 161.423 85.76 161.326 85.85C161.233 85.9367 161.175 86.055 161.151 86.205ZM162.396 86.375V86.74C162.123 86.74 161.9 86.7533 161.726 86.78C161.553 86.8067 161.418 86.845 161.321 86.895C161.225 86.9417 161.158 86.9983 161.121 87.065C161.085 87.1283 161.066 87.2 161.066 87.28C161.066 87.3933 161.11 87.4833 161.196 87.55C161.283 87.6133 161.396 87.645 161.536 87.645C161.686 87.645 161.82 87.61 161.936 87.54C162.056 87.4667 162.15 87.37 162.216 87.25C162.286 87.13 162.321 87 162.321 86.86H162.561C162.548 87.0733 162.506 87.2567 162.436 87.41C162.366 87.5633 162.276 87.6883 162.166 87.785C162.06 87.8817 161.943 87.9533 161.816 88C161.69 88.0433 161.563 88.065 161.436 88.065C161.256 88.065 161.098 88.0367 160.961 87.98C160.825 87.9233 160.718 87.8383 160.641 87.725C160.565 87.6117 160.526 87.47 160.526 87.3C160.526 87.1167 160.576 86.96 160.676 86.83C160.776 86.7 160.926 86.6 161.126 86.53C161.313 86.4667 161.506 86.425 161.706 86.405C161.906 86.385 162.136 86.375 162.396 86.375ZM163.597 87.205V84.72H164.132V87.175C164.132 87.3283 164.162 87.4417 164.222 87.515C164.285 87.5883 164.409 87.625 164.592 87.625H164.697V88.015C164.67 88.0317 164.625 88.0433 164.562 88.05C164.502 88.06 164.435 88.065 164.362 88.065C164.105 88.065 163.914 87.9933 163.787 87.85C163.66 87.7067 163.597 87.4917 163.597 87.205ZM163.237 85.75V85.335H164.707V85.75H163.237ZM167.351 85.265C167.587 85.265 167.789 85.3217 167.956 85.435C168.126 85.545 168.256 85.705 168.346 85.915C168.436 86.1217 168.481 86.37 168.481 86.66C168.481 87.1133 168.379 87.4617 168.176 87.705C167.972 87.945 167.697 88.065 167.351 88.065C167.051 88.065 166.811 87.945 166.631 87.705C166.454 87.465 166.366 87.1167 166.366 86.66C166.366 86.3767 166.406 86.13 166.486 85.92C166.566 85.71 166.681 85.5483 166.831 85.435C166.981 85.3217 167.154 85.265 167.351 85.265ZM167.286 85.715C167.069 85.715 166.904 85.7967 166.791 85.96C166.681 86.12 166.626 86.3533 166.626 86.66C166.626 86.9667 166.682 87.2033 166.796 87.37C166.912 87.5333 167.076 87.615 167.286 87.615C167.496 87.615 167.656 87.5333 167.766 87.37C167.879 87.2067 167.936 86.97 167.936 86.66C167.936 86.3567 167.879 86.1233 167.766 85.96C167.652 85.7967 167.492 85.715 167.286 85.715ZM166.626 89.1H166.091V85.335H166.626V89.1ZM169.001 88V85.335H169.536V88H169.001ZM169.001 85.005V84.4H169.536V85.005H169.001ZM172.437 86.265H171.902C171.869 86.075 171.796 85.9367 171.682 85.85C171.572 85.76 171.439 85.715 171.282 85.715C171.059 85.715 170.889 85.7967 170.772 85.96C170.656 86.1233 170.597 86.36 170.597 86.67C170.597 86.9733 170.657 87.2083 170.777 87.375C170.901 87.5383 171.074 87.62 171.297 87.62C171.457 87.62 171.591 87.5767 171.697 87.49C171.807 87.4033 171.882 87.275 171.922 87.105H172.452C172.396 87.4383 172.261 87.6817 172.047 87.835C171.837 87.9883 171.584 88.065 171.287 88.065C171.031 88.065 170.811 88.01 170.627 87.9C170.444 87.7867 170.302 87.625 170.202 87.415C170.102 87.205 170.052 86.9567 170.052 86.67C170.052 86.3667 170.102 86.1117 170.202 85.905C170.302 85.695 170.444 85.5367 170.627 85.43C170.811 85.32 171.029 85.265 171.282 85.265C171.482 85.265 171.664 85.3033 171.827 85.38C171.991 85.4533 172.126 85.5633 172.232 85.71C172.339 85.8567 172.407 86.0417 172.437 86.265ZM172.951 88V84.4H173.486V88H172.951ZM173.396 86.56L174.546 85.335H175.186L173.996 86.56H173.396ZM173.396 86.56L174.001 86.48L175.256 88H174.591L173.396 86.56ZM178.958 88L178.428 86.105L178.358 85.725H178.388L178.313 86.105L177.783 88H177.123L176.353 85.335H176.928L177.418 87.315L177.498 87.68H177.468L177.553 87.315L178.113 85.335H178.678L179.243 87.315L179.323 87.68H179.288L179.363 87.315L179.853 85.335H180.403L179.628 88H178.958ZM180.778 88V84.4H181.313V88H180.778ZM181.313 86.435H181.103C181.12 86.175 181.171 85.9583 181.258 85.785C181.348 85.6117 181.466 85.4817 181.613 85.395C181.76 85.3083 181.928 85.265 182.118 85.265C182.305 85.265 182.465 85.3017 182.598 85.375C182.731 85.445 182.835 85.5517 182.908 85.695C182.981 85.835 183.018 86.01 183.018 86.22V88H182.488V86.33C182.488 86.2 182.468 86.09 182.428 86C182.388 85.9067 182.33 85.835 182.253 85.785C182.176 85.735 182.076 85.71 181.953 85.71C181.853 85.71 181.763 85.7317 181.683 85.775C181.603 85.815 181.535 85.8683 181.478 85.935C181.425 86.0017 181.383 86.0783 181.353 86.165C181.326 86.2517 181.313 86.3417 181.313 86.435ZM185.779 86.405L185.474 86.655C185.474 86.3517 185.414 86.1183 185.294 85.955C185.174 85.7917 185.002 85.71 184.779 85.71C184.552 85.71 184.379 85.7933 184.259 85.96C184.142 86.1233 184.084 86.36 184.084 86.67C184.084 86.9733 184.145 87.2083 184.269 87.375C184.395 87.5383 184.574 87.62 184.804 87.62C184.974 87.62 185.115 87.58 185.229 87.5C185.345 87.42 185.427 87.2967 185.474 87.13H186.034C185.96 87.44 185.814 87.6733 185.594 87.83C185.377 87.9867 185.114 88.065 184.804 88.065C184.544 88.065 184.319 88.01 184.129 87.9C183.939 87.7867 183.792 87.625 183.689 87.415C183.589 87.205 183.539 86.9567 183.539 86.67C183.539 86.3667 183.589 86.1117 183.689 85.905C183.792 85.695 183.937 85.5367 184.124 85.43C184.31 85.32 184.529 85.265 184.779 85.265C185.035 85.265 185.255 85.3217 185.439 85.435C185.622 85.545 185.764 85.7017 185.864 85.905C185.964 86.1083 186.014 86.3533 186.014 86.64V86.77H183.759V86.405H185.779ZM186.55 88V85.335H187.085V88H186.55ZM187.085 86.435H186.875C186.891 86.175 186.943 85.9583 187.03 85.785C187.12 85.6117 187.238 85.4817 187.385 85.395C187.531 85.3083 187.7 85.265 187.89 85.265C188.076 85.265 188.236 85.3017 188.37 85.375C188.503 85.445 188.606 85.5517 188.68 85.695C188.753 85.835 188.79 86.01 188.79 86.22V88H188.26V86.33C188.26 86.2 188.24 86.09 188.2 86C188.16 85.9067 188.101 85.835 188.025 85.785C187.948 85.735 187.848 85.71 187.725 85.71C187.625 85.71 187.535 85.7317 187.455 85.775C187.375 85.815 187.306 85.8683 187.25 85.935C187.196 86.0017 187.155 86.0783 187.125 86.165C187.098 86.2517 187.085 86.3417 187.085 86.435ZM191.422 88.065C191.188 88.065 190.987 88.01 190.817 87.9C190.647 87.7867 190.517 87.625 190.427 87.415C190.337 87.205 190.292 86.9567 190.292 86.67C190.292 86.2167 190.393 85.87 190.597 85.63C190.8 85.3867 191.075 85.265 191.422 85.265C191.722 85.265 191.96 85.385 192.137 85.625C192.317 85.865 192.407 86.2133 192.407 86.67C192.407 86.9567 192.367 87.205 192.287 87.415C192.207 87.6217 192.092 87.7817 191.942 87.895C191.795 88.0083 191.622 88.065 191.422 88.065ZM191.492 87.615C191.705 87.615 191.867 87.535 191.977 87.375C192.09 87.2117 192.147 86.9767 192.147 86.67C192.147 86.3633 192.088 86.1283 191.972 85.965C191.858 85.7983 191.698 85.715 191.492 85.715C191.278 85.715 191.115 85.7967 191.002 85.96C190.892 86.1233 190.837 86.36 190.837 86.67C190.837 86.9733 190.893 87.2067 191.007 87.37C191.123 87.5333 191.285 87.615 191.492 87.615ZM192.147 88V84.4H192.682V88H192.147ZM193.327 88V85.335H193.862V88H193.327ZM193.862 86.545H193.662C193.675 86.245 193.727 86.0017 193.817 85.815C193.91 85.625 194.025 85.4867 194.162 85.4C194.302 85.31 194.455 85.265 194.622 85.265C194.675 85.265 194.725 85.2717 194.772 85.285C194.819 85.295 194.854 85.3117 194.877 85.335V85.805C194.837 85.7917 194.794 85.7833 194.747 85.78C194.7 85.7733 194.649 85.77 194.592 85.77C194.465 85.77 194.355 85.7883 194.262 85.825C194.172 85.8617 194.097 85.915 194.037 85.985C193.977 86.0517 193.932 86.1333 193.902 86.23C193.875 86.3233 193.862 86.4283 193.862 86.545ZM195.241 88V85.335H195.776V88H195.241ZM195.241 85.005V84.4H195.776V85.005H195.241ZM196.423 88V85.335H196.958V88H196.423ZM196.958 86.435H196.748C196.764 86.175 196.816 85.9583 196.903 85.785C196.993 85.6117 197.111 85.4817 197.258 85.395C197.404 85.3083 197.573 85.265 197.763 85.265C197.949 85.265 198.109 85.3017 198.243 85.375C198.376 85.445 198.479 85.5517 198.553 85.695C198.626 85.835 198.663 86.01 198.663 86.22V88H198.133V86.33C198.133 86.2 198.113 86.09 198.073 86C198.033 85.9067 197.974 85.835 197.898 85.785C197.821 85.735 197.721 85.71 197.598 85.71C197.498 85.71 197.408 85.7317 197.328 85.775C197.248 85.815 197.179 85.8683 197.123 85.935C197.069 86.0017 197.028 86.0783 196.998 86.165C196.971 86.2517 196.958 86.3417 196.958 86.435ZM199.313 88V84.4H199.848V88H199.313ZM199.758 86.56L200.908 85.335H201.548L200.358 86.56H199.758ZM199.758 86.56L200.363 86.48L201.618 88H200.953L199.758 86.56ZM202.009 88V85.335H202.544V88H202.009ZM202.009 85.005V84.4H202.544V85.005H202.009ZM203.19 88V85.335H203.725V88H203.19ZM203.725 86.435H203.515C203.532 86.175 203.584 85.9583 203.67 85.785C203.76 85.6117 203.879 85.4817 204.025 85.395C204.172 85.3083 204.34 85.265 204.53 85.265C204.717 85.265 204.877 85.3017 205.01 85.375C205.144 85.445 205.247 85.5517 205.32 85.695C205.394 85.835 205.43 86.01 205.43 86.22V88H204.9V86.33C204.9 86.2 204.88 86.09 204.84 86C204.8 85.9067 204.742 85.835 204.665 85.785C204.589 85.735 204.489 85.71 204.365 85.71C204.265 85.71 204.175 85.7317 204.095 85.775C204.015 85.815 203.947 85.8683 203.89 85.935C203.837 86.0017 203.795 86.0783 203.765 86.165C203.739 86.2517 203.725 86.3417 203.725 86.435ZM207.041 88.015C206.814 88.015 206.619 87.96 206.456 87.85C206.293 87.74 206.168 87.5833 206.081 87.38C205.994 87.1733 205.951 86.9283 205.951 86.645C205.951 86.1983 206.048 85.8567 206.241 85.62C206.438 85.3833 206.704 85.265 207.041 85.265C207.384 85.265 207.641 85.385 207.811 85.625C207.981 85.8617 208.066 86.2 208.066 86.64C208.066 87.09 207.973 87.4317 207.786 87.665C207.603 87.8983 207.354 88.015 207.041 88.015ZM207.151 87.565C207.364 87.565 207.526 87.4867 207.636 87.33C207.749 87.17 207.806 86.94 207.806 86.64C207.806 86.3467 207.748 86.12 207.631 85.96C207.518 85.7967 207.358 85.715 207.151 85.715C206.938 85.715 206.774 85.795 206.661 85.955C206.551 86.1117 206.496 86.3417 206.496 86.645C206.496 86.9383 206.553 87.165 206.666 87.325C206.779 87.485 206.941 87.565 207.151 87.565ZM208.341 88.085C208.341 88.3283 208.291 88.53 208.191 88.69C208.091 88.85 207.956 88.97 207.786 89.05C207.619 89.13 207.429 89.17 207.216 89.17C206.896 89.17 206.628 89.0933 206.411 88.94C206.198 88.79 206.068 88.56 206.021 88.25H206.556C206.579 88.41 206.649 88.5317 206.766 88.615C206.886 88.6983 207.034 88.74 207.211 88.74C207.391 88.74 207.534 88.69 207.641 88.59C207.751 88.49 207.806 88.325 207.806 88.095V85.335H208.341V88.085ZM210.467 85.44C210.467 85.5533 210.496 85.645 210.552 85.715C210.609 85.7817 210.687 85.835 210.787 85.875C210.887 85.9117 210.997 85.9433 211.117 85.97C211.241 85.9933 211.367 86.0183 211.497 86.045C211.627 86.0683 211.752 86.1017 211.872 86.145C211.996 86.185 212.106 86.2417 212.202 86.315C212.302 86.385 212.381 86.4767 212.437 86.59C212.497 86.7033 212.527 86.8467 212.527 87.02C212.527 87.2433 212.471 87.4333 212.357 87.59C212.247 87.7467 212.096 87.865 211.902 87.945C211.709 88.025 211.487 88.065 211.237 88.065C210.987 88.065 210.764 88.0267 210.567 87.95C210.374 87.8733 210.212 87.7567 210.082 87.6C209.956 87.4433 209.869 87.2467 209.822 87.01H210.407C210.457 87.2033 210.552 87.3517 210.692 87.455C210.832 87.555 211.016 87.605 211.242 87.605C211.476 87.605 211.652 87.5583 211.772 87.465C211.892 87.3717 211.952 87.2483 211.952 87.095C211.952 86.975 211.924 86.8783 211.867 86.805C211.811 86.7283 211.732 86.67 211.632 86.63C211.532 86.5867 211.421 86.5517 211.297 86.525C211.177 86.495 211.052 86.4667 210.922 86.44C210.792 86.4133 210.666 86.38 210.542 86.34C210.422 86.3 210.312 86.2467 210.212 86.18C210.116 86.11 210.037 86.02 209.977 85.91C209.921 85.8 209.892 85.6583 209.892 85.485C209.892 85.315 209.939 85.1583 210.032 85.015C210.126 84.8683 210.261 84.7517 210.437 84.665C210.617 84.5783 210.837 84.535 211.097 84.535C211.321 84.535 211.526 84.5733 211.712 84.65C211.902 84.7233 212.061 84.8383 212.187 84.995C212.314 85.1483 212.397 85.35 212.437 85.6H211.842C211.796 85.39 211.707 85.2367 211.577 85.14C211.447 85.0433 211.282 84.995 211.082 84.995C210.889 84.995 210.737 85.0367 210.627 85.12C210.521 85.2 210.467 85.3067 210.467 85.44ZM213.534 86.205H212.999C213.029 86.0083 213.092 85.84 213.189 85.7C213.286 85.56 213.416 85.4533 213.579 85.38C213.742 85.3033 213.934 85.265 214.154 85.265C214.394 85.265 214.594 85.31 214.754 85.4C214.917 85.4867 215.039 85.6083 215.119 85.765C215.199 85.9217 215.239 86.1033 215.239 86.31V87.35C215.239 87.51 215.246 87.64 215.259 87.74C215.276 87.84 215.299 87.9267 215.329 88H214.769C214.739 87.9333 214.721 87.85 214.714 87.75C214.707 87.65 214.704 87.5483 214.704 87.445V86.315C214.704 86.1217 214.656 85.9733 214.559 85.87C214.466 85.7667 214.317 85.715 214.114 85.715C213.941 85.715 213.806 85.76 213.709 85.85C213.616 85.9367 213.557 86.055 213.534 86.205ZM214.779 86.375V86.74C214.506 86.74 214.282 86.7533 214.109 86.78C213.936 86.8067 213.801 86.845 213.704 86.895C213.607 86.9417 213.541 86.9983 213.504 87.065C213.467 87.1283 213.449 87.2 213.449 87.28C213.449 87.3933 213.492 87.4833 213.579 87.55C213.666 87.6133 213.779 87.645 213.919 87.645C214.069 87.645 214.202 87.61 214.319 87.54C214.439 87.4667 214.532 87.37 214.599 87.25C214.669 87.13 214.704 87 214.704 86.86H214.944C214.931 87.0733 214.889 87.2567 214.819 87.41C214.749 87.5633 214.659 87.6883 214.549 87.785C214.442 87.8817 214.326 87.9533 214.199 88C214.072 88.0433 213.946 88.065 213.819 88.065C213.639 88.065 213.481 88.0367 213.344 87.98C213.207 87.9233 213.101 87.8383 213.024 87.725C212.947 87.6117 212.909 87.47 212.909 87.3C212.909 87.1167 212.959 86.96 213.059 86.83C213.159 86.7 213.309 86.6 213.509 86.53C213.696 86.4667 213.889 86.425 214.089 86.405C214.289 86.385 214.519 86.375 214.779 86.375ZM215.91 88V84.4H216.445V88H215.91ZM216.355 86.56L217.505 85.335H218.145L216.955 86.56H216.355ZM216.355 86.56L216.96 86.48L218.215 88H217.55L216.355 86.56ZM220.5 86.405L220.195 86.655C220.195 86.3517 220.135 86.1183 220.015 85.955C219.895 85.7917 219.724 85.71 219.5 85.71C219.274 85.71 219.1 85.7933 218.98 85.96C218.864 86.1233 218.805 86.36 218.805 86.67C218.805 86.9733 218.867 87.2083 218.99 87.375C219.117 87.5383 219.295 87.62 219.525 87.62C219.695 87.62 219.837 87.58 219.95 87.5C220.067 87.42 220.149 87.2967 220.195 87.13H220.755C220.682 87.44 220.535 87.6733 220.315 87.83C220.099 87.9867 219.835 88.065 219.525 88.065C219.265 88.065 219.04 88.01 218.85 87.9C218.66 87.7867 218.514 87.625 218.41 87.415C218.31 87.205 218.26 86.9567 218.26 86.67C218.26 86.3667 218.31 86.1117 218.41 85.905C218.514 85.695 218.659 85.5367 218.845 85.43C219.032 85.32 219.25 85.265 219.5 85.265C219.757 85.265 219.977 85.3217 220.16 85.435C220.344 85.545 220.485 85.7017 220.585 85.905C220.685 86.1083 220.735 86.3533 220.735 86.64V86.77H218.48V86.405H220.5ZM221.441 88V87.42H222.061V88H221.441ZM221.486 87.12V84.6H222.016V87.12H221.486ZM223.183 88.905H222.653C222.886 88.5117 223.061 88.13 223.178 87.76C223.298 87.39 223.358 87.02 223.358 86.65C223.358 86.2833 223.298 85.915 223.178 85.545C223.061 85.175 222.886 84.7933 222.653 84.4H223.183C223.429 84.7833 223.614 85.1617 223.738 85.535C223.864 85.905 223.928 86.2767 223.928 86.65C223.928 87.0233 223.864 87.3967 223.738 87.77C223.614 88.1433 223.429 88.5217 223.183 88.905Z" fill="#282624"/>
<path d="M246.904 88H246.008V83.96C245.976 83.96 245.939 83.96 245.896 83.96C245.853 83.96 245.803 83.96 245.744 83.96H245.032V83.304H245.552C245.792 83.304 245.952 83.2747 246.032 83.216C246.112 83.1573 246.152 83.0667 246.152 82.944V82.856H246.904V88ZM245.032 88V87.336H247.872V88H245.032ZM254.201 84.248C254.201 84.456 254.159 84.6427 254.073 84.808C253.993 84.968 253.863 85.104 253.681 85.216C253.5 85.3227 253.263 85.4053 252.969 85.464C252.676 85.5227 252.321 85.552 251.905 85.552V85.024H252.105C252.367 85.024 252.577 85.0027 252.737 84.96C252.897 84.912 253.02 84.848 253.105 84.768C253.196 84.688 253.255 84.6053 253.281 84.52C253.313 84.4293 253.329 84.3413 253.329 84.256C253.329 84.0107 253.249 83.8187 253.089 83.68C252.929 83.5413 252.695 83.472 252.385 83.472C252.06 83.472 251.809 83.5493 251.633 83.704C251.463 83.8587 251.353 84.072 251.305 84.344H250.449C250.497 84.0133 250.604 83.7307 250.769 83.496C250.935 83.256 251.153 83.072 251.425 82.944C251.697 82.816 252.02 82.752 252.393 82.752C252.788 82.752 253.119 82.8187 253.385 82.952C253.652 83.0853 253.855 83.264 253.993 83.488C254.132 83.712 254.201 83.9653 254.201 84.248ZM254.345 86.552C254.345 86.8453 254.271 87.1093 254.121 87.344C253.977 87.5787 253.759 87.7653 253.465 87.904C253.172 88.0373 252.809 88.104 252.377 88.104C251.993 88.104 251.657 88.04 251.369 87.912C251.081 87.784 250.849 87.5973 250.673 87.352C250.497 87.1067 250.385 86.8187 250.337 86.488H251.209C251.252 86.76 251.367 86.9787 251.553 87.144C251.745 87.304 252.017 87.384 252.369 87.384C252.732 87.384 253.007 87.3093 253.193 87.16C253.38 87.0053 253.473 86.7893 253.473 86.512C253.473 86.4053 253.455 86.304 253.417 86.208C253.385 86.112 253.321 86.024 253.225 85.944C253.135 85.864 253.001 85.8 252.825 85.752C252.655 85.704 252.431 85.68 252.153 85.68H251.905V85.056C252.364 85.056 252.748 85.0933 253.057 85.168C253.372 85.2427 253.623 85.3467 253.809 85.48C254.001 85.608 254.137 85.7627 254.217 85.944C254.303 86.1253 254.345 86.328 254.345 86.552ZM257.939 85.904H257.195V83.64C257.168 83.64 257.141 83.64 257.115 83.64C257.088 83.64 257.056 83.64 257.019 83.64H256.627V83.12H256.859C257.035 83.12 257.155 83.1013 257.219 83.064C257.283 83.0213 257.315 82.9547 257.315 82.864V82.824H257.939V85.904ZM256.627 85.904V85.376H258.507V85.904H256.627ZM257.451 88L261.051 82.856H261.851L258.259 88H257.451ZM261.987 88H261.291V85.696L260.395 86.84H262.363V87.368H259.883V86.752L261.347 84.92H261.987V88Z" fill="#282624"/>
<path d="M249.248 72H248.352C248.48 71.1573 248.704 70.3653 249.024 69.624C249.344 68.8773 249.741 68.1787 250.216 67.528H247.448V66.856H251.136V67.4C250.603 68.1253 250.176 68.872 249.856 69.64C249.541 70.408 249.339 71.1947 249.248 72ZM254.889 69.904H254.145V67.64C254.119 67.64 254.092 67.64 254.065 67.64C254.039 67.64 254.007 67.64 253.969 67.64H253.577V67.12H253.809C253.985 67.12 254.105 67.1013 254.169 67.064C254.233 67.0213 254.265 66.9547 254.265 66.864V66.824H254.889V69.904ZM253.577 69.904V69.376H255.457V69.904H253.577ZM254.401 72L258.001 66.856H258.801L255.209 72H254.401ZM258.937 72H258.241V69.696L257.345 70.84H259.313V71.368H256.833V70.752L258.297 68.92H258.937V72Z" fill="#282624"/>
<path d="M253.432 55.408L253.456 56.104C253.035 56.104 252.664 56.0107 252.344 55.824C252.024 55.632 251.776 55.3387 251.6 54.944C251.424 54.544 251.336 54.04 251.336 53.432C251.336 52.5733 251.523 51.912 251.896 51.448C252.269 50.984 252.784 50.752 253.44 50.752C253.931 50.752 254.341 50.888 254.672 51.16C255.008 51.432 255.235 51.8213 255.352 52.328H254.48C254.395 52.0453 254.259 51.8347 254.072 51.696C253.891 51.552 253.669 51.48 253.408 51.48C252.997 51.48 252.683 51.648 252.464 51.984C252.245 52.3147 252.136 52.7973 252.136 53.432C252.136 53.9013 252.179 54.2827 252.264 54.576C252.355 54.864 252.496 55.0747 252.688 55.208C252.88 55.3413 253.128 55.408 253.432 55.408ZM253.456 56.104C253.131 56.104 252.845 56.0347 252.6 55.896C252.355 55.752 252.163 55.5493 252.024 55.288C251.885 55.0267 251.816 54.72 251.816 54.368C251.816 54.0107 251.891 53.7013 252.04 53.44C252.189 53.1787 252.392 52.9787 252.648 52.84C252.904 52.7013 253.192 52.632 253.512 52.632C253.885 52.632 254.211 52.7013 254.488 52.84C254.765 52.9733 254.981 53.168 255.136 53.424C255.296 53.6747 255.376 53.9813 255.376 54.344C255.376 54.7067 255.293 55.0213 255.128 55.288C254.963 55.5547 254.733 55.7573 254.44 55.896C254.152 56.0347 253.824 56.104 253.456 56.104ZM253.432 55.384C253.757 55.384 254.016 55.2987 254.208 55.128C254.4 54.952 254.496 54.7013 254.496 54.376C254.496 54.1573 254.451 53.9733 254.36 53.824C254.269 53.6693 254.144 53.552 253.984 53.472C253.829 53.3867 253.645 53.344 253.432 53.344C253.107 53.344 252.845 53.4347 252.648 53.616C252.451 53.792 252.352 54.0453 252.352 54.376C252.352 54.6907 252.451 54.9387 252.648 55.12C252.845 55.296 253.107 55.384 253.432 55.384Z" fill="#282624"/>
</svg>
