<svg width="755" height="566" viewBox="0 0 755 566" fill="none" xmlns="http://www.w3.org/2000/svg">
<g clip-path="url(#clip0_69_435)">
<path fill-rule="evenodd" clip-rule="evenodd" d="M257.127 102.789C257.009 103.418 256.892 104.047 256.775 104.678C256.846 104.694 262.489 93.7938 263.423 92.4776C266.594 88.0152 270.719 84.3023 274.697 80.5754C283.122 72.6808 292.983 66.3089 301.239 58.2736C303.956 55.6301 308.823 51.6246 307.748 47.1548C306.68 42.7123 297.666 43.6151 294.578 44.9004C289.739 46.916 285.808 51.1316 282.201 54.8047C278.267 58.8116 274.301 62.7736 270.967 67.3083C267.372 72.1981 263.959 77.494 261.756 83.1688C259.288 89.526 258.324 96.105 257.127 102.789ZM258.979 122.292C255.151 123.473 259.951 124.27 258.451 126.316C256.806 128.559 254.041 121.647 253.627 120.342C251.19 112.631 252.28 103.263 253.611 95.4343C254.283 91.4849 254.717 87.4705 255.624 83.5638C256.508 79.7544 258.434 76.1343 260.213 72.669C263.775 65.7355 268.491 59.2759 273.844 53.6226C279.213 47.9508 285.197 42.276 292.282 38.7842C298.136 35.9004 307.414 37.9013 310.154 44.2003C312.954 50.6371 309.168 57.6487 304.69 62.1745C298.848 68.0769 292.484 73.9396 285.923 79.0292C282.551 81.6454 279.725 84.8093 276.449 87.5391C272.962 90.445 269.946 93.3678 267.368 97.1257C264.871 100.767 262.301 104.406 260.678 108.539C258.901 113.066 258.979 117.503 258.979 122.292Z" fill="#282624"/>
<path fill-rule="evenodd" clip-rule="evenodd" d="M598.614 27.7582C584.56 21.404 570.506 15.0497 556.453 8.6955C555.876 15.0659 555.3 21.4357 554.723 27.8061C554.567 29.5299 553.928 31.875 554.2 33.5759C554.491 35.3911 553.87 35.1973 556.237 34.9393C559.263 34.6084 562.299 33.8611 565.294 33.3268C570.678 32.3658 576.405 32.0916 581.675 30.6781C584.364 29.9566 586.94 29.866 589.67 29.4297C592.668 28.9506 595.585 28.0633 598.614 27.7582ZM551.074 40.0731C551.074 32.8972 551.871 25.8177 552.528 18.6749C553.119 12.2485 553.347 6.1227 555.444 -0.00012207C557.404 3.55875 562.83 4.98112 566.188 6.81251C570.815 9.33593 575.742 11.1939 580.478 13.4925C585.13 15.7499 589.611 18.3418 594.268 20.594C596.629 21.7363 599.026 22.802 601.383 23.9532C602.859 24.6739 606.358 25.8339 607.275 27.1723C610.062 31.2345 600.525 31.6273 598.684 31.9855C593.163 33.0622 587.578 33.6688 582.068 34.7757C576.93 35.809 571.783 36.7678 566.627 37.7045C561.524 38.6316 556.267 40.0731 551.074 40.0731Z" fill="#282624"/>
<path fill-rule="evenodd" clip-rule="evenodd" d="M117.744 217.721C123.277 217.146 128.787 216.318 134.315 215.771C139.549 215.253 144.179 214.701 148.96 212.303C142.43 210.334 135.885 208.469 129.299 206.69C126.033 205.808 122.773 204.874 119.492 204.051C116.954 203.412 114.741 203.045 113.766 200.275C112.63 197.05 115.788 197.539 117.756 198.358C120.471 199.488 123.429 200.19 126.243 201.13C132.523 203.227 138.842 205.155 145.182 207.062C147.152 207.654 158.571 209.846 154.456 213.656C152.696 215.286 148.767 216.182 146.614 217.353C143.853 218.855 140.847 219.453 137.775 220.051C131.373 221.297 124.729 221.775 118.248 222.855C114.938 223.407 111.629 223.959 108.32 224.511C106.381 224.834 105.635 224.802 105.128 222.64C104.76 221.069 105.24 219.497 105.594 217.975C106.492 214.108 107.49 210.261 108.479 206.417C108.854 204.95 109.52 198.503 110.828 197.798C113.796 196.198 111.506 205.124 111.286 206.216C110.453 210.339 109.464 214.433 109.019 218.617C111.934 218.353 114.84 218.08 117.744 217.721Z" fill="#282624"/>
<path fill-rule="evenodd" clip-rule="evenodd" d="M226.082 94.1363C225.689 85.7539 226.81 77.3487 226.141 68.9884C214.647 79.1779 220.31 94.9249 226.922 105.981L226.082 94.1363ZM231.058 93.6573C231.131 97.752 231.363 101.844 230.965 105.918C230.547 110.195 232.553 112.398 235.168 115.548C232.947 117.801 227.852 112.547 226.445 110.998C223.548 107.808 221.392 103.57 219.474 99.7403C215.388 91.5812 212.574 82.8458 215.844 73.8878C217.057 70.5678 218.539 66.0538 221.749 64.1207C225.273 61.9982 227.969 64.9918 229.431 68.0709C233.001 75.5836 230.279 85.5933 231.058 93.6573Z" fill="#282624"/>
<path fill-rule="evenodd" clip-rule="evenodd" d="M608.503 191.816C610.905 193.978 609.751 196.208 608.964 198.908C608.491 200.529 605.893 205.85 606.61 207.366C607.439 209.118 611.331 209.549 612.996 210.103C615.896 211.067 618.808 212.035 621.552 213.394C622.769 213.998 627.161 215.385 627.984 216.511C628.456 217.157 628.628 217.662 628.273 218.494C627.65 219.955 626.762 219.182 625.245 218.869C618.311 217.436 611.435 215.604 605.004 212.582C603.211 216.744 601.693 220.994 600.177 225.264C599.732 226.515 599.308 229.359 597.619 229.561C595.56 229.808 595.532 227.05 595.669 225.562C595.868 223.389 596.994 221.073 597.674 219.016C598.235 217.318 600.202 213.783 599.959 212.033C599.793 210.829 599.059 210.913 597.751 210.44C596.515 209.993 595.279 209.549 594.043 209.097C592.063 208.373 590.091 207.646 588.164 206.787C587.106 206.315 584.893 205.764 584.127 204.785C583.683 204.217 583.188 202.172 583.749 201.606C585.06 200.28 593.78 203.849 595.573 204.336C596.762 204.66 597.957 204.907 599.112 205.33C599.549 205.492 600.066 206.146 600.538 206.17C602.544 206.272 602.704 204.73 603.326 203.075C604.771 199.23 606.34 195.308 608.503 191.816Z" fill="#282624"/>
</g>
<defs>
<clipPath id="clip0_69_435">
<rect width="754.667" height="566" fill="white"/>
</clipPath>
</defs>
</svg>
