<svg width="755" height="566" viewBox="0 0 755 566" fill="none" xmlns="http://www.w3.org/2000/svg">
<g clip-path="url(#clip0_69_94)">
<path fill-rule="evenodd" clip-rule="evenodd" d="M586.638 68.2922C586.904 70.5968 589.765 68.8369 590.033 70.086C590.202 70.8709 587.257 72.8188 586.621 73.3553C588.673 74.5919 591.292 71.7428 592.83 70.5489C593.623 71.4089 593.891 71.8607 593.163 72.8446C591.879 74.5816 591.937 72.28 590.41 73.4887C591.046 74.5573 591.605 73.9449 592.413 73.6574C592.061 75.7136 592.849 74.4121 593.466 75.7144C593.967 76.7734 593.906 77.5561 594.055 78.7389C593.33 80.4045 592.606 82.0708 591.88 83.7364C591.009 85.7402 591.268 86.3843 589.135 85.7144C589.375 85.2988 590.971 83.2662 590.841 82.7665C590.694 82.1954 588.512 81.4053 587.935 80.9255C586.921 80.0817 586.932 79.358 586.285 78.4515C586.542 77.6084 586.343 77.2141 585.685 77.2709L584.958 79.2246C585.018 80.6108 586.189 80.4811 586.88 81.8055C587.938 83.8322 587.346 82.6361 586.481 84.267C585.632 85.8692 585.537 87.9143 584.141 88.7198C584.892 89.0492 585.641 89.3787 586.391 89.7074C584.64 91.6294 588.283 90.6935 588.885 90.507C588.269 91.8151 587.652 93.1233 587.037 94.4314C585.191 93.3982 584.28 91.4393 583.051 89.8216L580.243 95.0409C581.174 94.9547 582.106 94.8692 583.036 94.783C582.906 95.0284 581.714 96.7116 581.815 97.086C582.232 98.6123 585.401 97.7515 585.051 99.748C585.005 100.004 582.165 102.868 581.678 103.145C583.105 103.786 583.751 103.52 583.239 105.204L581.251 104.002C580.686 105.015 580.033 106.005 579.673 107.115C579.742 107.841 579.613 108.528 579.284 109.178C578.893 109.76 578.453 110.302 577.964 110.805C577.576 111.826 577.452 117.397 577.919 118.306C578.961 116.959 581.291 119.336 577.359 119.336C575.637 119.336 575.753 118.978 575.095 120.49C574.578 121.68 574.298 122.719 575.765 122.833C574.662 125.006 574.897 126.681 574.798 128.997C574.717 130.874 574.191 132.739 573.801 134.58C574.15 134.078 574.499 133.577 574.849 133.075C575.79 135.082 575.073 136.773 574.626 138.921C573.648 137.631 573.529 139.933 572.693 139.695C570.989 139.209 572.265 138.851 571.572 137.733C570.972 136.764 571.034 136.486 569.924 135.895C568.452 135.11 565.871 135.08 564.205 134.803C561.405 134.336 558.601 134.219 555.768 134.096C545.163 133.636 534.594 133.518 523.991 134.101C514.235 134.637 504.243 136.005 494.677 137.858C484.493 139.83 474.532 141.649 464.668 144.985C462.762 145.63 460.854 146.975 458.949 147.447C457.141 147.896 455.33 147.89 453.446 148.545C448.933 150.112 444.264 151.3 439.717 152.795C434.817 154.407 429.514 155.751 424.85 157.982C422.825 158.951 420.986 160.265 418.961 161.247C417.053 162.172 413.846 163.015 412.839 165.151C412.446 165.984 412.513 166.588 412.757 167.451C413.246 169.182 413.632 168.995 414.962 168.878C416.812 168.714 419.205 167.275 421.001 166.709C425.919 165.16 430.895 163.92 435.895 162.679C444.875 160.449 453.891 156.502 462.752 154.958C468.007 154.043 472.987 151.553 478.271 150.613C479.43 150.407 482.786 148.753 483.738 149.325C483.99 149.476 484.607 151.292 484.825 151.726C485.605 153.285 486.5 154.791 487.548 156.187C490.706 160.398 494.943 163.79 498.725 167.419C503.044 171.564 506.798 176.137 510.784 180.587C511.13 180.186 511.476 179.784 511.822 179.383C511.457 182.193 513.562 184.22 515.283 186.128C517.325 188.395 518.967 190.525 520.578 193.11C521.899 195.23 523.59 197.085 525.083 199.016C526.551 200.916 527.528 203.209 528.879 205.256C531.98 209.959 535.032 214.752 538.16 219.391C539.632 221.575 540.795 224.032 541.96 226.518C542.885 228.491 545.668 232.525 545.668 234.439C545.468 235.376 547.501 241.016 545.328 238.358C544.982 238.895 544.635 239.431 544.287 239.968C544.882 239.719 545.475 239.47 546.07 239.221C544.266 240.854 547.635 241.064 547.71 241.978C547.409 242.267 547.109 242.557 546.809 242.846C546.296 243.903 545.628 244.04 544.808 243.258C543.904 243.313 543.723 242.807 542.715 243.144C543.678 244.647 544.918 243.697 545.406 245.774C545.835 247.604 544.475 247.996 543.039 249.078L542.949 249.146L542.918 249.254C542.604 250.19 541.717 249.792 540.727 249.588C538.362 249.1 535.748 248.167 533.444 247.448C528.464 245.895 523.446 244.586 518.297 243.524C506.55 241.101 494.897 241.215 483.043 240.448C483.354 239.15 483.357 239.264 482.987 238.459C483.461 239.491 480.598 238.144 482.756 240.423C477.248 241.324 471.298 240.647 465.712 240.947C465.972 240.367 466.57 239.701 466.011 239.282C463.366 243.106 454.528 241.466 450.159 242.014C447.595 242.336 445.06 242.953 442.504 243.359L441.427 243.527C440.53 243.67 439.632 243.827 438.755 244.064C437.626 244.368 435.743 245.619 434.672 245.329C436.24 242.168 434.432 244.904 434.186 244.94C433.442 245.05 432.16 245.301 431.091 245.301C432.31 240.406 434.4 235.897 435.243 230.856C435.768 227.713 437.211 222.652 434.104 220.425C432.402 219.204 429.612 218.94 427.64 218.525C425.479 218.07 421.704 218.088 419.824 216.867C418.356 215.913 418.045 215.036 416.123 214.306C413.904 213.465 412.881 212.629 410.64 213.309C411.552 212.168 412.829 211.335 411.04 210.168C410.306 209.691 408.869 210.333 408.612 209.29C407.284 210.228 407.599 210.985 407.244 212.271C407.276 212.815 407.419 213.334 407.674 213.826C406.971 214.109 406.269 214.392 405.565 214.675C406.012 213.475 404.701 214.191 404.439 213.6C404.049 212.718 404.281 211.372 404.281 210.414C402.832 210.872 401.317 211.438 400.683 212.946C398.909 211.888 399.614 211.816 400.523 210.229C399.034 209.877 398.718 210.643 398.492 211.877C397.706 211.634 396.919 211.391 396.134 211.149C397.905 211.136 398.331 209.752 398.373 208.249C397.683 208.473 396.994 208.698 396.305 208.922C396.163 209.649 396.022 210.377 395.88 211.104C394.794 212.024 391.97 210.363 391.054 209.887C387.86 208.231 386.691 207.752 387.142 203.989C387.518 200.835 388.352 197.665 388.537 194.495C388.742 190.973 388.331 187.206 388.022 183.695C387.424 176.901 386.461 170.205 386.123 163.383C385.941 159.689 385.738 155.995 385.593 152.299C385.478 149.361 384.464 146.129 388.129 145.868C387.68 144.446 389.022 142.801 390.407 142.022C390.891 140.919 391.421 140.82 391.996 141.727C392.496 141.884 392.96 141.81 393.39 141.504C395.408 141.047 397.828 138.184 399.639 137.151C401.416 136.139 405.288 134.668 406.557 132.964C407.783 131.316 405.928 131.501 406.303 129.991C406.815 127.926 408.678 130.891 408.964 131.304C409.587 130.678 411.966 129.505 411.938 128.596C411.355 128.492 410.773 128.388 410.19 128.284C410.827 127.916 412.24 126.818 412.98 126.673C414.239 126.426 413.767 126.107 414.775 127.495C415.126 126.951 415.98 125.163 416.514 124.802C416.769 124.628 418.284 124.513 418.602 124.401C420.251 123.818 420.085 122.535 421.297 121.925C421.885 121.63 422.609 122.084 423.103 121.868C423.891 121.524 423.893 120.347 424.609 119.92C425.228 119.55 426.798 119.857 427.537 119.588C428.762 119.141 428.708 118.724 429.622 117.908C430.904 116.763 432.083 116.929 433.511 116.062C434.991 115.163 434.764 113.138 436.107 112.752C437.9 112.237 438.359 113.935 439.334 112.257C439.553 111.881 438.559 111.318 439.183 110.713C439.952 109.969 440.271 110.857 440.624 111.436L441.841 109.139C443.793 110.207 442.973 108.829 444.462 108.095C445.124 107.769 445.668 108.413 446.393 108.019C446.925 107.73 447.018 107.101 447.4 106.711C448.136 105.961 448.542 104.933 449.682 104.576C449.27 104.704 452.645 104.607 452.344 104.462C452.016 103.98 451.687 103.498 451.358 103.016C453.125 103.016 454.667 103.192 456.376 102.661C456.982 102.474 457.927 102.185 458.43 101.8C459.814 100.743 459.502 101.001 459.502 99.0582C461.41 100.273 463.839 99.8482 465.722 98.4398C466.705 97.7043 467.335 96.8244 468.414 96.1596C468.876 95.9201 469.347 95.6961 469.825 95.4882C470.423 94.8692 471.022 94.8633 471.623 95.4713C472.472 95.2436 472.463 95.0866 473.121 94.6746C473.309 94.3017 473.51 93.9354 473.725 93.5765C474.431 93.5028 475.127 93.3753 475.814 93.194C478.479 92.4769 480.089 90.6979 482.563 92.2743C482.879 91.6294 483.196 90.9838 483.511 90.3382C484.564 91.9832 485.284 90.4119 486.682 89.7457C487.268 89.4664 488.028 89.3971 488.557 89.1421L489.452 89.3536C489.705 88.5724 489.957 87.7912 490.209 87.01C490.718 87.2083 492.737 88.2924 493.343 88.2349C494.213 88.1531 495.252 86.6813 496.095 86.4035C497.38 85.9797 496.919 86.5398 498.182 86.5487C499.152 86.5553 499.61 86.6931 500.449 85.878C497.614 85.1418 501.19 84.7947 502.385 84.5456C504.245 84.1579 505.204 84.5721 506.497 83.1018H505.155C506.479 81.8969 506.033 82.3221 507.428 82.44C507.867 82.4761 509.777 83.5249 509.781 82.1261C511.583 83.1881 511.603 83.1903 513.461 82.7112C514.283 82.499 514.983 81.8084 515.888 81.7922C516.77 81.7767 517.402 82.1755 518.189 82.09C518.66 82.0399 520.309 81.4215 520.866 81.2189C521.749 80.8968 522.332 80.2092 523.177 79.9431C524.107 79.6491 525.291 79.9984 526.268 79.7839C529.174 79.1443 530.879 77.405 534.025 78.3468C534.361 75.5308 537.871 76.1573 539.76 76.4476C541.075 76.6503 541.744 77.1824 543.106 76.5383C544.214 76.0143 544.846 75.183 546.079 74.7644C547.026 74.4431 548.301 74.2094 549.289 74.0046C549.9 73.8115 550.524 73.7496 551.162 73.8196C551.802 73.9094 552.339 74.1882 552.772 74.6546L552.852 74.7467C552.95 74.5143 554.439 73.4114 554.268 73.5476C555.379 72.6581 555.9 72.9979 556.584 71.2659L554.202 70.7633C555.428 70.6808 556.349 70.5393 557.44 71.0161C558.194 71.3455 559.461 73.0914 560.216 73.0929C561.582 73.0944 562.059 71.1701 561.924 70.1686C563.07 72.8372 564.048 73.2816 566.621 71.9174C566.923 71.7568 567.226 71.5968 567.528 71.4362C568.141 70.7943 568.75 70.8061 569.355 71.4723L570.434 72.0597C570.867 71.3396 571.299 70.6204 571.732 69.9003C572.65 71.165 573.523 71.2269 575.021 70.9314C576.053 70.7272 578.173 68.856 578.934 68.8568C579.375 68.8568 579.939 69.9328 580.675 70.1428C581.894 70.4921 583.787 69.6136 584.221 68.4477C584.452 68.9341 584.682 69.4213 584.912 69.9084C585.488 69.3704 586.066 68.8339 586.638 68.2922ZM542.91 249.137L542.908 249.179L542.949 249.146L542.95 249.145L542.91 249.137ZM541.415 246.598V248.865L542.182 249.005L542.91 249.137L542.917 249.013C542.95 247.923 542.391 247.116 541.415 246.598ZM473.598 237.582C473.359 238.316 473.12 239.051 472.881 239.785C473.687 239.851 474.493 239.916 475.299 239.983C474.732 239.182 474.165 238.383 473.598 237.582ZM378.95 179.513C380.712 180.027 380.688 179.965 381.041 181.595C383.054 190.873 376.827 201.515 381.399 210.335C368.033 210.227 354.64 210.494 341.352 212.06C341.352 207.007 341.518 201.966 341.136 196.921C340.963 194.631 340.704 192.349 340.471 190.066C340.175 187.167 340.269 187.337 342.641 186.838C343.887 186.575 344.333 185.785 345.524 185.304C346.418 184.942 346.819 185.387 347.7 185.511C349.277 185.734 349.296 185.469 350.741 185.161C353.841 184.5 356.474 184.736 358.924 182.421C360.194 182.311 359.783 183.487 360.668 183.372C361.311 183.288 361.721 182.087 362.377 181.8C364.42 180.906 367.819 181.125 370.054 180.845C372.336 180.561 374.356 179.531 376.541 179.226C377.441 179.101 378.097 179.264 378.95 179.513ZM404.733 206.292C404.301 207.896 402.409 205.807 402.38 207.066L402.381 207.18L402.386 207.152C402.485 206.937 404.399 209.47 404.286 209.385C405.314 210.16 405.913 210.087 407.078 209.198C404.993 209.119 405.223 207.833 404.733 206.292ZM410.544 208.559C411.306 208.977 411.539 207.906 411.933 207.253C411.082 206.829 410.957 207.815 410.544 208.559ZM408.188 201.579C408.485 202.621 408.463 203.42 408.463 204.496C410.224 204.246 410.777 204.118 410.81 202.246L409.869 202.837C409.375 201.859 409.266 201.783 408.188 201.579ZM394.563 203.323C394.962 203.067 395.36 202.809 395.759 202.552C395.171 201.706 394.125 202.712 394.563 203.323ZM399.016 187.754C399.524 187.487 400.034 187.22 400.543 186.953C399.222 185.269 399.126 185.835 399.016 187.754ZM397.176 174.397H395.174C395.566 175.683 397.176 175.96 397.176 174.397ZM593.288 99.5327C593.745 99.7995 594.202 100.066 594.659 100.332C593.471 101.415 592.01 102.506 593.168 103.775C594.087 104.783 598.377 105.263 599.663 105.63C599.217 106.143 598.298 107.545 597.69 107.898C597.208 108.177 596.768 107.071 595.796 108.173C597.407 109.009 596.976 108.376 596.557 110.148C596.31 111.194 595.426 112.317 594.929 113.255C593.717 115.538 592.476 117.805 591.205 120.055C588.597 124.67 585.851 129.207 582.966 133.654C582.479 131.142 583.871 128.328 584.592 125.905C585.5 122.855 586.409 119.807 587.323 116.76C589.087 110.887 590.67 105.076 593.288 99.5327ZM523.285 107.195C521.981 107.528 521.127 107.744 519.779 108.088C521.737 108.711 521.737 108.711 523.285 107.195ZM581.009 95.8759C579.346 96.6541 579.168 97.2194 580.513 98.1716C580.673 97.4309 580.79 96.8878 581.009 95.8759ZM580.807 77.4595C580.581 78.4478 579.183 77.4971 578.873 78.2193C578.164 79.8717 580.418 79.6476 581.23 79.5481C581.09 78.8517 580.947 78.156 580.807 77.4595ZM590.228 76.2052C589.783 78.3181 589.783 78.3181 591.844 78.6357C591.303 77.8221 590.849 77.1397 590.228 76.2052ZM552.852 74.7467L552.848 74.7691C552.85 74.782 552.863 74.7882 552.888 74.7865L552.852 74.7467Z" fill="#282624"/>
<path fill-rule="evenodd" clip-rule="evenodd" d="M292.287 296.056C291.975 297.665 291.194 298.422 292.012 299.9C292.707 301.155 294.7 301.977 296.038 301.659L292.287 296.056ZM256.047 238.832L249.449 241.094C251.252 242.864 252.971 244.724 254.959 246.295L256.047 238.832ZM364.883 244.625C361.736 243.039 358.211 242.86 354.762 242.656C355.286 245.489 355.811 248.322 356.337 251.154C359.185 248.978 362.035 246.801 364.883 244.625ZM289.319 463.873C288.691 462.76 284.407 454.168 283.517 454.609C283.045 454.843 283.008 459.627 282.939 460.307C282.693 462.727 282.447 465.147 282.202 467.567C284.735 466.672 287.442 465.93 289.319 463.873ZM259.391 394.409C260.039 396.308 260.688 398.207 261.336 400.106C261.644 401.009 261.824 402.341 262.37 403.137C263.078 404.171 262.543 404.779 263.489 403.647C264.505 402.432 264.808 399.191 265.249 397.702C265.919 395.44 266.588 393.18 267.257 390.919C264.102 390.892 262.19 393.49 259.391 394.409ZM193.091 282.58C189.212 285.232 185.284 287.862 181.909 291.158C184.878 290.973 189.013 293.016 191.81 292.056C193.101 292.332 193.528 291.842 193.091 290.584V287.973V282.58ZM250.614 301.338V316.819C254.236 313.733 258.049 310.866 261.534 307.62C257.894 305.526 254.255 303.432 250.614 301.338ZM380.102 341.452C378.959 348.344 378.895 355.437 378.582 362.412C378.527 363.65 378.05 365.514 378.875 366.598C379.702 367.685 382.06 368.287 383.258 368.868C386.63 370.502 389.979 372.184 393.341 373.838C388.928 363.043 384.515 352.247 380.102 341.452ZM465.703 299.066C474.02 294.978 482.339 290.889 490.657 286.799C482.502 283.347 474.345 279.895 466.191 276.442C466.028 283.983 465.865 291.526 465.703 299.066ZM380.084 318.317C381.605 318.426 381.845 312.636 382.096 311.104C382.575 308.198 383.066 305.293 383.569 302.39C384.577 296.587 385.635 290.793 386.749 285.01C388.978 273.445 391.436 261.924 394.16 250.466C391.233 249.939 388.543 249.559 385.685 248.707C383.376 248.019 380.626 248.393 378.565 246.962C378.297 252.331 379.638 258.039 380.134 263.408C380.708 269.62 381.017 275.799 380.966 282.039C380.866 294.132 380.407 306.228 380.084 318.317ZM188.63 482.161C190.072 481.777 188.109 462.017 188.022 459.167C187.771 450.916 187.722 442.66 187.87 434.407C180.103 439.277 172.157 443.763 163.953 447.808C166.061 450.543 168.037 453.492 170.37 456.038C172.774 458.659 175.532 460.807 177.76 463.631C182.245 469.317 185.318 475.771 188.63 482.161ZM375.519 365.263C375.88 359.32 376.214 353.388 376.814 347.462C377.07 344.94 379.507 331.54 375.605 331.855C373.385 332.034 369.492 335.282 367.456 336.421C364.768 337.924 362.075 339.423 359.374 340.904C354.042 343.825 348.676 346.682 343.325 349.569C354.056 354.8 364.787 360.032 375.519 365.263ZM352.349 241.673C347.905 241.341 343.608 241.011 339.224 240.183C336.86 239.737 334.495 239.798 332.119 239.497C330.416 239.281 327.089 237.883 325.503 238.341C323.51 238.916 322.786 248.902 322.512 251.409C322.071 255.446 321.773 260.344 323.576 264.136C327.052 271.447 336.417 265.741 340.973 262.674C344.878 260.045 349.302 257.382 352.766 254.19C355.834 251.362 353.08 245.327 352.349 241.673ZM375.4 321.174C378.749 319.82 378.696 318.119 378.842 314.615C379.019 310.358 379.122 306.096 379.243 301.837C379.46 294.248 379.665 286.655 379.597 279.061C379.531 271.643 379.168 264.237 378.319 256.865C378.019 254.259 378.318 249.807 376.944 247.583C375.69 245.555 371.799 245.534 369.676 245.659C367.282 245.8 365.343 248.073 363.577 249.51C361.62 251.103 357.6 253.345 357.279 255.719C356.92 258.371 358.377 262.155 358.941 264.727C361.005 274.114 363.517 283.408 366.163 292.646C368.907 302.229 371.689 311.91 375.4 321.174ZM290.317 298.705C290.533 296.596 291.318 294.835 290.257 292.826C289.345 291.098 287.861 289.363 286.746 287.727C283.555 283.043 279.976 278.556 276.5 274.081C273.316 269.983 270.054 265.928 266.717 261.954C264.858 259.74 262.942 257.575 261.038 255.401C259.643 253.81 258.321 251.574 256.348 250.741C254.894 259.877 253.692 269.054 252.755 278.258C252.302 282.707 251.912 287.163 251.584 291.623C251.491 292.882 250.514 297.133 251.139 298.306C251.795 299.537 255.808 301.185 257.037 301.94C260.471 304.051 263.14 307.231 266.406 303.761C268.654 301.372 270.465 298.004 272.978 295.919C274.288 294.832 275.521 294.883 276.99 294.238C278.697 293.49 278.751 292.768 280.792 293.787C284.23 295.504 286.318 298.04 290.317 298.705ZM118.196 345.713C118.196 352.039 117.764 357.239 122.052 362.36C125.798 366.835 129.692 367.87 134.962 369.636C138.065 370.675 138.282 369.717 140.797 367.961C143.187 366.294 145.789 364.957 148.146 363.237C153.226 359.53 158.302 355.706 163.239 351.807C164.899 350.496 164.654 350.943 164.402 349.37C164.171 347.936 163.143 346.111 162.58 344.748C161.563 342.281 160.365 339.894 159.166 337.512C157.805 334.808 156.619 331.872 154.928 329.352C154.227 328.306 153.394 327.36 152.575 326.406C150.851 324.398 150.912 324.472 148.851 326.113C144.499 329.579 140.45 333.331 135.552 336.041C129.757 339.249 123.977 342.477 118.196 345.713ZM249.415 296.715C250.044 287.634 250.752 278.603 251.841 269.564C252.4 264.922 253.051 260.293 253.684 255.661C253.942 253.775 254.937 250.61 254.383 248.778C253.838 246.974 251.434 245.258 250.115 243.954C249.761 243.603 248.671 242.131 248.202 242.065C247.7 241.995 245.811 243.378 245.266 243.69C243.34 244.794 241.448 245.956 239.585 247.165C236.074 249.443 232.672 251.887 229.343 254.423C222.363 259.74 215.705 265.462 208.873 270.966C215.133 276.452 222.838 280.713 229.837 285.156C233.975 287.783 238.135 290.382 242.348 292.887C244.484 294.156 246.962 296.096 249.415 296.715ZM163.841 459.103C158.786 462.445 153.959 465.973 148.242 468.118C142.551 470.253 136.927 471.075 131.045 472.344C128.079 472.985 125.291 473.685 122.263 474.133C120.567 474.383 117.941 474.287 116.394 475.003C115.016 474.71 114.526 475.179 114.923 476.412C114.938 476.795 114.952 477.179 114.967 477.562C115.357 482.893 118.783 489.307 121.772 493.641C123.516 496.171 125.739 498.526 127.947 500.653C130.441 503.055 131.879 504.748 135.356 503.742C141.215 502.046 146.387 498.631 152.326 497.126C157.024 495.935 160.927 493.439 165.508 492.147C171.159 490.553 176.75 488.737 182.479 487.406C179.92 482.467 177.632 477.325 174.356 472.8C170.996 468.157 167.291 463.696 163.841 459.103ZM194.844 292.901C205.415 295.005 216.873 296.953 226.334 302.41C230.026 304.54 234.707 307.832 235.788 312.237C237.081 317.502 231.999 320.763 227.754 322.406C222.657 324.379 217.109 325.136 211.708 325.758C208.849 326.087 205.977 326.267 203.105 326.43C200.781 326.562 196.839 326.052 194.714 326.973C193.383 326.707 192.922 327.247 193.33 328.592C193.305 329.075 193.281 329.558 193.256 330.041L193.036 334.382C192.889 337.272 192.743 340.163 192.595 343.054C192.276 349.35 191.956 355.648 191.637 361.945C197.174 358.514 201.637 353.602 207.048 349.942C209.621 348.202 212.175 346.459 214.738 344.724C215.812 343.998 216.469 342.979 217.527 342.301C218.929 341.403 220.172 340.863 221.488 339.686C226.86 334.881 232.835 330.727 238.533 326.316C241.122 324.312 243.955 322.469 246.418 320.319C248.998 318.067 248.641 316.213 248.578 312.975C248.511 309.548 249.769 305.292 249.186 301.986C249.676 300.865 249.299 300.167 248.057 299.892C247.228 299.362 246.398 298.831 245.569 298.301C243.914 297.242 242.26 296.184 240.605 295.126C234.023 290.918 227.442 286.708 220.86 282.499C217.572 280.396 214.285 278.294 210.996 276.191C210.078 275.605 207.083 272.951 206.053 273.03C205.002 273.109 203.178 275.161 202.39 275.814C201.182 276.815 200.009 277.868 198.703 278.744C198.052 279.195 197.372 279.598 196.665 279.952C195.534 280.061 195.141 280.682 195.485 281.815C194.492 285.002 195.038 289.553 194.844 292.901ZM341.438 443.131C339.044 431.94 335.957 418.688 326.62 411.076C317.151 403.356 303.306 406.339 295.899 415.405C292.189 419.946 289.889 425.315 288.181 430.879C286.427 436.589 283.842 444.029 284.315 450.067C284.522 452.715 286.791 455.56 288.087 457.87C289.425 460.255 290.313 463.676 293.466 462.85C298.354 461.568 303.326 458.626 307.9 456.52C312.527 454.39 317.398 452.637 322.196 450.58C325.381 449.214 328.688 448.175 331.865 446.789C334.878 445.477 338.853 445.16 341.438 443.131ZM482.887 376.476C489.564 378.866 493.034 375.041 497.733 370.734C502.183 366.654 507.005 362.73 511.104 358.296C515.331 353.724 518.672 348.32 521.923 343.039C525.208 337.702 529.649 331.937 531.672 325.993C532.701 322.969 533.14 319.618 533.789 316.493C533.945 315.74 534.992 312.941 534.66 312.308C534.201 311.437 531.286 311.345 530.485 311.218C524.114 310.211 517.363 310.161 510.972 311.061C498.608 312.804 488.268 319.738 484.359 331.863C479.778 346.076 481.98 361.874 482.887 376.476ZM439.595 253.193C439.491 255.654 445.39 256.338 446.919 256.912C450.452 258.237 453.966 259.636 457.396 261.205C464.462 264.434 471.996 266.538 478.761 270.443C493.345 278.86 509.178 284.793 523.912 292.844C526.207 294.099 530.693 297.121 533.315 296.866C534.709 296.73 533.671 297.852 534.575 295.636C534.9 294.839 535.008 293.802 535.19 292.948C535.736 290.388 536.159 287.805 536.772 285.26C537.781 281.07 538.811 277.183 539.236 272.877C539.417 271.052 539.614 269.23 539.636 267.395C539.658 265.535 540.086 260.874 539.247 259.264C538.689 258.196 538.578 258.562 537.187 258.261C536.389 258.088 535.553 257.729 534.784 257.49C532.979 256.928 531.173 256.389 529.281 256.224C527.411 256.06 526.218 255.491 524.464 255.161C522.625 254.814 520.735 255.234 518.861 254.751C516.838 254.229 515.873 253.752 513.759 253.951C511.709 254.144 511.12 253.691 509.113 253.132C507.438 252.666 505.442 252.992 503.696 252.85C501.583 252.678 499.477 252.414 497.363 252.247C487.856 251.494 478.236 252.61 468.707 252.522C463.525 252.474 458.455 253.239 453.28 253.002C448.758 252.796 444.084 252.844 439.595 253.193ZM464.327 303.3C459.702 305.061 455.414 307.922 451.126 310.386C446.182 313.227 441.45 316.245 436.874 319.652C429.18 325.382 420.202 332.251 418.177 342.248C416.1 352.508 425.01 360.915 433.363 365.113C442.89 369.9 453.974 372.375 464.409 374.204C463.294 350.584 463.556 326.926 464.327 303.3ZM325.972 358.906C323.167 359.681 320.791 361.342 318.188 362.57C315.857 363.671 313.601 364.5 311.424 365.917C307.875 368.226 303.761 370.203 300.051 371.988C290.871 376.405 281.959 381.89 272.871 386.785C270.462 388.083 269.673 388.903 268.857 391.573C267.971 394.474 267.136 397.395 266.283 400.306C265.487 403.021 264.216 405.924 264.551 408.79C264.843 411.283 266.133 413.635 267.105 415.909C269.553 421.633 272.207 427.265 274.949 432.852C277.41 437.868 279.655 443.189 282.814 447.8C285.269 434.996 287.472 420.649 296.988 410.892C306.498 401.142 321.668 401.005 330.832 411.069C335.185 415.85 337.835 421.871 339.917 427.921C341.011 431.099 341.746 434.338 342.45 437.621C343.201 441.127 343.016 442.988 346.886 441.925C349.958 441.082 353.215 440.408 356.227 439.445C357.79 438.946 359.314 438.386 359.385 437.151C359.475 435.592 357.376 432.401 356.756 430.934C353.555 423.365 350.354 415.794 347.152 408.225C343.676 400.005 340.199 391.786 336.721 383.567C334.986 379.466 333.251 375.365 331.515 371.264C329.932 367.527 328.614 361.976 325.972 358.906ZM464.587 294.986C464.639 291.248 464.701 287.511 464.749 283.773C464.779 281.546 465.771 277.239 463.832 275.648C462.629 274.662 459.061 273.906 457.54 273.231C454.538 271.9 451.288 271.306 448.269 269.984C436.443 264.803 424.136 260.489 411.961 256.314C409.336 255.414 406.652 254.677 404.01 253.79C402.583 253.312 397.298 250.501 395.978 251.236C394.822 251.88 393.95 259.544 393.58 261.135C392.704 264.903 391.866 268.68 391.061 272.464C387.935 287.153 385.314 301.946 382.876 316.763C389.352 314.304 395.56 310.043 401.679 306.749C408.036 303.327 414.37 299.913 420.77 296.57C422.576 295.626 428.931 291.288 430.418 292.991C432.804 295.723 427.12 298.927 425.627 300.097C419.855 304.625 413.758 308.571 407.585 312.52C401.188 316.613 394.532 320.229 388.103 324.247C385.782 325.697 382.077 327.463 381.165 329.913C379.991 333.064 380.838 336.894 381.907 339.905C384.53 347.303 387.404 354.61 390.442 361.847C391.824 365.138 393.242 368.414 394.685 371.677C396.405 375.564 398.661 376.386 402.407 378.174C418.365 385.795 434.941 393.027 450.27 401.845C447.704 404.801 441.452 399.946 438.92 398.717C434.232 396.44 429.538 394.17 424.854 391.886C416.125 387.631 407.442 383.292 398.664 379.14C404.29 391.935 410.928 404.262 418.289 416.138C416.431 416.768 416.884 416.801 415.717 415.683C414.735 414.742 414.075 412.898 413.41 411.716C412.034 409.274 410.676 406.823 409.29 404.387C406.414 399.332 403.434 394.354 400.808 389.161C398.833 385.257 397.303 378.431 393.244 376.462C388.186 374.008 383.061 371.62 378.003 369.131C378.003 388.583 379.401 407.604 381.453 426.937C381.557 427.912 382.491 430.789 380.607 430.507C379.757 430.38 379.47 425.046 379.321 423.932C378.636 418.825 378.055 413.706 377.579 408.577C376.632 398.341 376.117 388.064 376.051 377.785C374.837 387.779 373.623 397.773 372.409 407.767L370.684 421.974C370.382 424.461 370.08 426.948 369.778 429.436C369.639 430.579 369.727 432.073 369.325 433.163C368.693 434.878 368.906 434.746 366.925 435.528C368.819 422.514 370.568 409.478 372.115 396.418C372.87 390.045 373.577 383.667 374.23 377.283C374.405 375.567 374.577 373.849 374.745 372.132C374.83 371.256 375.585 368.441 375.166 367.714C374.751 366.993 372 366.241 371.207 365.873C369.473 365.069 367.739 364.265 366.006 363.455C360.382 360.827 354.762 358.176 349.199 355.419C346.765 354.213 344.213 352.349 341.567 351.706C338.932 351.065 337.016 352.899 334.763 354.065C333.01 354.972 328.879 356.18 327.708 357.721C326.618 359.155 330.003 364.895 330.892 367.011C333.4 372.98 335.909 378.95 338.418 384.92C343.504 397.024 348.59 409.128 353.677 421.233C354.92 424.191 356.163 427.15 357.407 430.109C358.203 432.006 359.534 437.409 361.467 437.621C362.322 437.714 363.727 436.783 364.554 436.516C365.788 436.117 366.927 436.123 368.165 435.913C370.433 435.528 372.789 434.358 375.017 433.537C380.742 431.426 386.678 430.064 392.45 428.092C398.249 426.112 403.953 423.887 409.728 421.906C414.974 420.108 420.267 418.058 425.307 415.716C430.628 413.242 436.087 411.061 441.272 408.318C450.717 403.322 460.06 398.656 468.405 392.529C470.367 391.088 472.457 389.641 474.398 388.099C476.1 386.745 479.347 385.073 480.506 383.293C480.947 382.615 481.327 381.284 480.811 380.478C480.257 379.613 477.806 379.692 476.661 379.538C473.049 379.053 469.438 378.567 465.827 378.082C466.104 380.458 466.384 382.831 466.585 385.215C466.726 386.897 467.721 391.344 466.379 392.663C464.535 390.91 465.128 385.669 464.963 383.335C464.874 382.087 465.192 379.645 464.633 378.538C464.021 377.325 462.329 377.341 460.795 377.009C454.292 375.602 447.848 374.422 441.555 372.192C430.924 368.427 418.216 362.069 415.842 349.806C413.366 337.021 424.244 325.945 433.402 318.814C438.886 314.546 444.72 310.85 450.754 307.419C453.574 305.816 456.393 304.212 459.231 302.643C460.263 302.072 463.653 300.897 464.197 299.899C464.754 298.878 464.469 296.149 464.587 294.986ZM237.141 491.321C236.625 491.573 236.109 491.825 235.594 492.077C241.331 475.727 247.015 459.451 251.812 442.793C254.128 434.754 256.474 426.722 258.868 418.705C259.902 415.247 262.441 410.485 261.736 406.903C260.972 403.025 259.142 398.901 257.725 395.214C248.658 400.914 239.401 406.321 230.183 411.762C221.919 416.642 213.515 420.981 205.193 425.809C200.929 428.282 196.53 429.953 192.079 431.974C188.463 433.617 189.867 438.638 189.919 441.992C190.102 453.833 190.093 465.717 190.812 477.542C191.073 481.85 190.736 486.796 193.478 490.381C196.985 494.965 200.238 499.638 203.437 504.464C204.635 506.272 209.67 516.06 211.547 515.845C212.772 515.706 213.901 511.742 214.514 510.803C215.835 508.777 217.767 507.034 219.525 505.403C227.119 498.357 235.546 493.394 244.303 488.245C253.201 483.014 262.306 478.145 271.372 473.184C273.42 472.063 275.626 471.255 277.66 470.11C278.464 469.657 280.058 468.939 280.565 468.13C281.322 466.92 281.065 463.567 281.223 462.121C281.546 459.165 282.126 456.095 282.157 453.118C282.187 450.177 280.419 447.65 279.137 445.086C273.511 433.827 268.045 422.54 263.15 410.939C259.29 424.41 255.238 437.817 251.453 451.307C249.476 458.351 247.093 465.28 244.773 472.216C243.589 475.759 242.397 479.298 241.215 482.842C240.293 485.601 239.815 489.641 237.141 491.321ZM317.944 237.456C314.962 237.489 312.259 237.05 309.342 236.428C308.271 236.2 307.331 236.103 306.246 236.007C305.016 235.899 303.899 235.233 302.821 235.102C302.006 235.004 300.583 235.346 299.804 235.607C298 236.212 298.058 235.906 297.983 238.001C297.865 241.237 297.776 244.474 297.599 247.707C296.899 260.434 295.548 273.037 293.696 285.641C293.32 288.188 292.271 291.53 292.848 294.06C293.368 296.341 295.339 298.777 296.641 300.691C299.318 304.625 305.624 306.57 310.059 307.685C314.737 308.862 319.594 309.296 324.038 310.345C325.269 310.636 326.683 310.123 327.995 310.415C329.209 310.685 330.152 311.351 331.273 311.833C334.022 313.013 337.092 313.23 339.93 314.141C345.558 315.948 351.583 315.839 357.216 317.574C358.656 318.017 359.9 319.134 361.285 319.517C362.552 319.866 363.857 319.455 365.183 319.65C367.992 320.064 370.611 321.024 371.259 324.04C372.977 322.68 373.216 323.037 372.919 320.934C372.728 319.585 371.977 317.943 371.566 316.643C370.518 313.328 369.464 310.016 368.417 306.701C366.345 300.141 364.286 293.576 362.377 286.967C360.668 281.056 359.114 275.1 357.757 269.098C357.066 266.046 356.489 262.981 355.897 259.913C355.725 259.023 355.896 257.608 355.001 257.015C354.19 256.478 352.296 258.406 351.439 259.027C345.452 263.363 331.721 276.189 324.237 268.623C320.206 264.549 320.442 257.386 320.88 252.123C321.148 248.888 321.716 245.694 322.352 242.513C322.51 241.72 323.481 239.17 323.125 238.605C322.741 237.997 318.745 237.634 317.944 237.456ZM528.292 308.246C529.886 308.424 531.479 308.604 533.072 308.783C532.926 307.495 533.058 305.559 532.57 304.36C531.896 302.703 530.246 302.518 528.431 301.831C525.56 300.745 522.631 299.801 519.792 298.632C513.629 296.096 507.495 293.524 501.329 290.988C498.627 289.876 495.451 288.057 492.516 288.965C489.352 289.945 486.228 291.94 483.27 293.402C479.921 295.057 476.572 296.716 473.225 298.375C471.655 299.153 470.085 299.931 468.515 300.709C466.048 301.931 465.72 302.055 465.526 304.846C464.535 319.122 464.608 333.953 465.04 348.249C465.261 355.545 465.014 362.88 465.537 370.163C465.577 370.723 465.535 373.884 465.886 374.315C466.38 374.922 469.856 375.127 470.687 375.28C473.925 375.871 477.186 376.068 480.459 376.361C479.688 359.755 476.856 340.124 485.384 324.935C493.95 309.675 512.259 306.37 528.292 308.246ZM379.381 144.88C380.341 142.693 381.995 140.846 383.409 138.927C384.173 137.889 385.495 136.649 385.984 135.435C386.681 133.707 386.677 134.077 385.637 132.564C384.653 131.135 384.673 131.027 383.152 130.771C381.871 130.556 380.507 130.922 379.198 130.687C377.876 130.45 374.24 129.336 375.074 127.231C375.037 127.323 377.141 126.286 377.304 126.106C377.833 125.531 378 124.303 378.261 123.608C379.101 121.378 379.396 119.934 378.46 117.559C377.061 114.014 371.532 112.964 368.091 114.157C366.37 114.753 365.389 116.016 364.616 117.604C364.124 118.612 364.01 120.069 363.375 120.947C362.417 122.268 362.358 122.121 360.372 121.888C357.843 121.591 355.769 120.619 353.373 119.942C350.764 119.204 349.066 120.706 346.786 121.916C342.669 124.104 338.693 124.863 334.082 125.21C328.947 125.597 324.187 124.359 319.103 124.04C320.422 130.116 323.834 135.049 326.56 140.552C327.039 141.519 327.814 142.508 327.832 143.628C327.852 144.682 326.325 146.117 326.496 146.99C326.864 148.852 330.961 150.342 332.513 150.866C336.903 152.346 341.902 155.245 346.734 154.08C349.383 153.442 350.808 149.259 353.302 148.952C356.646 148.538 354.144 152.844 353.523 154.326C358.27 155.047 364.286 154.436 368.83 152.826C371.107 152.02 373.036 150.816 375.115 149.623C377.703 148.137 378.241 147.729 379.381 144.88ZM296.313 235.315C287.85 235.455 279.263 234.237 270.781 235.357C268.817 235.615 266.878 236.032 264.947 236.476C263.559 236.795 259.151 237.065 258.225 238.097C257.382 239.038 257.376 243.371 257.203 244.592C256.816 247.311 256.919 248.25 258.653 250.353C264.359 257.271 270.301 263.984 275.923 270.979C281.324 277.699 285.757 285.207 291.216 291.832C294.131 283.346 294.306 273.161 295.106 264.263C295.533 259.519 295.921 254.77 296.286 250.021C296.633 245.498 297.814 239.627 296.313 235.315ZM186.776 324.752C187.755 324.752 189.316 325.059 190.267 324.752C191.575 325.169 192.012 324.678 191.58 323.281C191.6 322.792 191.621 322.303 191.642 321.813C191.779 318.661 191.929 315.51 192.075 312.358C192.209 309.476 192.34 306.594 192.453 303.712C192.531 301.744 193.525 296.866 192.73 295.089C192.196 293.894 190.93 294.165 189.391 293.991C187.927 293.825 186.458 293.672 185.001 293.445C183.153 293.156 181.104 292.495 179.224 292.909C177.334 293.325 175.96 295.07 174.477 296.18C172.131 297.934 169.733 299.624 167.367 301.352C163.066 304.493 158.808 307.691 154.544 310.88C152.782 312.196 152.444 311.739 153.302 313.632C153.834 314.801 155.042 316.124 155.777 317.18C157.242 319.283 158.7 322.471 160.579 324.178C163.312 326.662 170.896 325.085 174.527 325.067C178.668 325.046 182.659 325.11 186.776 324.752ZM197.493 324.547C201.084 324.195 204.711 324.347 208.28 323.864C212.159 323.339 216.011 322.561 219.883 321.978C223.743 321.398 235.487 319.051 234.327 313.289C233.103 307.199 224.112 303.551 219.138 301.504C211.368 298.306 203.257 296.594 195.085 294.786C194.06 300.245 194.207 306.107 194.02 311.639C193.918 314.644 193.829 317.652 193.83 320.66C193.83 321.384 193.582 322.885 193.878 323.558C194.572 325.142 195.38 324.547 197.493 324.547ZM185.685 327.163H162.768C166.16 334.183 169.366 341.335 173.022 348.223C176.663 355.084 181.352 361.549 185.483 368.135C186.53 366.996 188.199 365.761 188.91 364.405C189.698 362.906 189.676 360.701 189.805 358.965C190.14 354.461 190.292 349.916 190.406 345.402C190.505 341.448 190.679 337.52 190.983 333.576C191.049 332.711 192.003 328.218 191.457 327.479C190.97 326.822 186.688 327.17 185.685 327.163ZM280.067 189.32C283.933 189.319 287.803 189.27 291.669 189.335C295.177 189.395 299.748 188.784 302.961 190.59C309.507 194.269 296.421 203.718 293.767 206.096C298.058 207.651 304.755 204.565 308.955 203.151C314.15 201.403 319.446 200.229 324.744 198.859C326.068 198.517 331.75 197.847 332.468 196.833C333.18 195.827 331.585 189.758 331.425 188.478C331.276 187.275 331.402 185.398 330.9 184.266C331.208 182.907 330.73 182.43 329.468 182.838C329.031 182.837 328.597 182.834 328.16 182.833C324.937 182.859 321.71 183.008 318.489 183.115C307.417 183.484 296.613 183.975 285.635 185.703C280.532 186.507 275.383 187.495 270.306 188.481C266.032 189.311 266.752 190.007 270.743 190.018C273.865 190.026 276.96 189.562 280.067 189.32ZM597.689 107.898C598.346 107.143 599.005 106.387 599.663 105.631C598.06 105.173 596.457 104.715 594.854 104.257C593.149 103.771 592.232 103.882 592.99 101.977C593.939 99.5918 598.276 99.3184 600.36 99.2285C607.536 98.9182 615.074 101.201 621.891 103.213C625.217 104.194 627.824 105.713 630.639 107.733C631.867 108.615 633.286 109.444 634.361 110.504C635.478 111.605 635.944 113.015 637.036 114.119C638.827 115.929 641.12 116.831 641.999 119.443C643.007 122.442 641.803 125.875 640.311 128.49C638.797 131.143 636.549 133.15 634.722 135.562C633.273 137.475 630.246 142.702 634.976 142.096C637.477 141.776 640.721 137.51 642.522 135.811C645.102 133.373 647.64 130.88 650.373 128.61C652.796 126.598 655.588 124.534 658.828 124.18C662.243 123.807 663.949 125.993 665.614 128.652C667.184 131.159 667.436 133.606 668.54 136.173C669.073 137.41 669.751 138.1 670.064 139.448C670.545 141.523 670.596 143.786 670.841 145.901C671.227 149.223 671.59 151.835 670.947 155.089C670.344 158.135 670.18 161.371 669.672 164.47C669.097 167.979 668.619 171.505 668.052 175.016C667.572 177.99 665.747 182.226 667.538 184.992C671.84 191.639 677.002 181.854 678.361 178.199C680.75 171.775 681.966 164.753 684.075 158.198C685.204 154.692 686.189 151.153 686.836 147.523C687.372 144.522 687.108 140.865 688.753 138.191C690.032 136.114 692.306 134.537 694.802 135.171C697.926 135.965 699.125 140.479 700.044 143.224C702.47 150.463 701.577 156.982 700.59 164.364C700.133 167.782 699.697 171.206 698.912 174.567C698.382 176.835 696.188 181.425 699.45 182.657C704.074 184.407 708.976 171.14 710.294 168.144C713.744 160.298 715.066 152.516 716.488 144.108C716.814 142.175 717.064 140.201 717.553 138.301C717.978 136.647 719.249 134.976 719.363 133.322C719.477 131.667 718.381 130.512 719.504 128.887C720.439 127.534 722.127 127.453 723.653 127.441C727.236 127.413 730.664 128.986 733.997 130.128C737.1 131.19 741.689 133.52 745.033 132.77C734.539 122.115 724.071 111.582 711.555 103.284C705.744 99.4304 699.927 95.7271 693.645 92.5846C687.282 89.4016 679.991 87.2519 673.176 85.3261C669.469 84.2781 665.784 83.0909 662.124 81.8889C658.866 80.8188 655.586 80.6161 652.396 79.4023C645.465 76.7661 637.72 75.7447 630.543 73.8757C627.374 73.051 624.17 72.3435 620.994 71.5793C617.655 70.7759 612.965 69.3808 609.564 69.5164C606.659 69.6321 605.679 72.9611 604.281 75.2767C602.252 78.638 600.523 82.1306 598.927 85.716C595.659 93.0622 592.21 100.652 589.872 108.327C588.589 112.541 587.321 116.759 586.06 120.98C584.97 124.634 582.241 129.905 582.966 133.654C588.341 125.371 593.345 116.769 597.689 107.898ZM347.46 182.69C344.609 182.82 341.757 182.949 338.906 183.078C341.749 192.423 341.352 202.374 341.352 212.06C354.639 210.494 368.033 210.227 381.399 210.335C378.943 205.598 379.896 199.453 380.595 194.38C381.005 191.411 381.233 188.55 381.173 185.555C381.117 182.744 381.927 180.382 378.95 179.513C376.588 178.824 375.095 179.972 372.845 180.496C370.15 181.123 367.214 181.199 364.471 181.54C358.76 182.25 353.253 182.666 347.46 182.69ZM270.896 200.889C279.459 198.514 288.559 199.389 297.164 197.584C295.207 195.797 291.519 196.855 288.92 197.004C285.965 197.172 283.012 197.295 280.056 197.439C277.174 197.58 269.179 197.362 268.139 201.029C269.058 200.982 269.977 200.935 270.896 200.889ZM584.216 68.4685C573.011 69.4516 561.276 69.299 550.152 71.2542C537.412 73.4932 524.131 74.8979 511.779 78.8437C499.662 82.715 487.304 85.4249 475.359 89.9706C463.748 94.3895 452.563 99.0907 441.628 105.001C436.276 107.894 431.068 110.96 425.966 114.283C420.984 117.526 415.526 120.185 410.7 123.623C406.403 126.684 402.697 129.491 398.95 133.241C394.945 137.25 391.049 141.367 387.041 145.37C383.695 148.709 385.813 156.874 386.025 161.318C386.319 167.479 386.827 173.553 387.582 179.673C388.301 185.506 389.041 191.775 388.091 197.595C387.692 200.041 386.315 204.268 386.973 206.71C387.498 208.666 390.987 210.1 392.767 210.738C394.944 211.518 397.167 211.189 399.401 212.181C401.896 213.29 403.999 214.673 406.649 215.256C409.914 215.974 413.586 216.578 416.942 216.601C420.045 216.62 423.159 217.626 426.254 218.245C431.287 219.253 436.201 219.567 435.888 225.637C435.526 232.642 432.747 238.652 431.091 245.301C433.329 245.301 434.89 245.444 436.939 244.65C439.331 243.724 441.883 243.478 444.397 243.079C449.951 242.195 455.365 241.912 460.956 241.348C471.197 240.315 481.616 240.439 491.865 240.548C497.054 240.603 502.683 241.003 507.801 241.811C513.051 242.64 518.488 243.158 523.576 244.748C527.868 246.089 532.301 247.003 536.679 248.188C538.653 248.722 541.016 249.155 542.881 249.752C545.583 250.618 547.026 252.464 550.146 252.423C549.268 246.644 547.206 241.284 545.962 235.554C544.663 229.57 542.072 224.275 539.213 218.63C537.937 216.112 536.993 213.44 535.763 210.9C534.395 208.075 532.472 205.735 530.821 203.094C527.442 197.691 523.835 192.494 520.516 187.053C517.618 182.302 514.307 177.748 511.135 173.163C507.647 168.121 502.801 164.316 498.843 159.691C497.172 157.737 495.581 155.922 493.709 154.129C491.986 152.478 489.54 148.824 486.901 148.653C485.385 148.555 482.756 149.408 481.309 149.866C478.631 150.714 475.79 151.267 473.024 152.013C469.997 152.83 467.023 153.894 463.991 154.671C462.778 154.981 461.337 154.834 460.186 155.185C458.984 155.554 458.023 156.365 456.708 156.737C450.218 158.578 443.767 160.668 437.23 162.344C430.499 164.07 423.665 165.54 417.142 167.984C415.898 168.451 414.514 169.553 413.558 168.829C412.845 168.288 412.385 166.76 412.573 165.868C413.199 162.9 417.947 161.828 420.233 160.636C426.36 157.442 432.447 155.19 439.031 153.021C442.274 151.953 445.506 150.814 448.794 149.892C451.543 149.122 454.404 147.819 457.215 147.425C459.715 147.074 461.49 146.089 463.972 145.217C467.627 143.933 471.386 142.878 475.102 141.781C481.451 139.905 488.181 139.116 494.677 137.858C509.728 134.943 525.354 133.484 540.712 133.665C548.454 133.756 556.554 133.53 564.206 134.803C566.051 135.11 569.93 135.051 571.202 136.707C571.885 137.596 571.515 138.919 571.691 139.882C571.987 141.508 572.874 142.265 573.642 143.746C575.276 135.731 577.153 127.886 579.262 119.988C581.17 112.84 582.935 105.562 585.483 98.5144C588.18 91.0576 591.449 83.1513 595.48 76.3269C596.31 74.9222 598.378 72.6906 598.556 71.1194C598.74 69.498 596.468 68.2422 594.907 68.0616C591.405 67.657 587.655 68.3498 584.216 68.4685ZM659.489 182.999C660.629 171.88 663.961 160.25 662.1 149.087C661.312 144.361 660.696 139.85 658.333 135.584C657.138 133.427 656.659 131.843 654.377 133.115C652.067 134.402 649.941 137.582 648.026 139.426C644.507 142.813 640.822 146.302 636.608 148.818C633.288 150.799 626.695 152.677 624.2 148.392C621.822 144.307 624.993 138.608 627.27 135.238C629.875 131.383 634.81 127.812 632.04 123.056C630.849 121.008 629.134 120.472 627.331 119.128C625.771 117.965 624.464 116.459 622.903 115.275C618.381 111.845 613.421 110.375 608.199 108.415C605.789 107.509 605.472 106.657 604.079 108.727C602.566 110.976 601.738 114.127 600.644 116.614C598.454 121.595 596.118 126.315 593.294 130.959C590.444 135.646 587.918 140.543 585.225 145.323C584.208 147.126 583.252 148.959 582.051 150.652C581.397 151.573 580.587 152.394 580.055 153.402C579.269 154.893 579.619 156.252 579.13 157.737C577.018 164.141 573.937 155.201 573.348 153.111C572.679 150.733 571.064 148.88 570.018 146.662C569.153 144.831 568.564 142.109 566.477 141.247C564.767 140.541 562.563 141.51 560.819 141.604C557.613 141.778 554.383 141.519 551.164 141.719C548.153 141.906 545.149 142.195 542.139 142.379C539.127 142.564 536.118 142.055 533.145 142.372C527.81 142.941 522.355 142.85 517.032 143.638C510.785 144.562 504.603 145.548 498.338 146.318C499.794 149.07 502.811 150.264 505.197 152.228C507.329 153.984 509.017 156.01 511.165 157.68C513.344 159.375 514.639 161.882 516.442 163.919C518.21 165.914 519.846 167.587 521.394 169.819C528.866 180.598 536.574 190.979 542.737 202.63C545.857 208.526 548.836 214.835 550.967 221.161C553.253 227.946 554.375 235.223 555.733 242.239C556.409 245.736 556.764 248.688 556.023 252.205C555.828 253.042 555.625 253.878 555.415 254.711C554.765 255.709 555.006 256.356 556.138 256.653C556.799 257.618 557.703 257.98 557.76 259.299C557.805 260.301 557.247 261.463 556.384 262.028C554.717 263.119 554.717 261.645 552.999 261.972C552.355 262.321 551.711 262.668 551.068 263.016C550.728 262.499 550.378 261.987 550.019 261.483C548.924 260.442 548.053 260.537 546.622 260.284C547.349 268.661 546.189 276.14 544.345 284.312C543.458 288.242 541.937 292.088 541.171 296.024C540.315 300.422 542.186 302.425 545.079 305.358C544.345 305.741 543.058 306.158 542.453 306.73C541.489 307.643 541.735 307.755 541.735 309.184C541.737 311.801 541.235 314.379 540.824 316.952C540.063 321.717 539.368 326.647 537.728 331.209C534.748 339.495 529.932 348.1 525.025 355.398C522.279 359.482 519.527 364.122 516.085 367.647C512.631 371.183 509.207 374.751 505.761 378.298C498.978 385.28 491.566 390.104 483.441 395.331C480.223 397.402 476.834 399.671 474.067 402.249C471.254 404.868 467.514 406.701 464.153 408.604C462.653 409.453 461.586 410.673 459.967 411.369C458.446 412.023 457.383 412.237 456.107 413.095C452.942 415.223 449.523 417.043 446.038 418.648C441.787 420.605 437.604 422.883 433.238 424.553C431.249 425.315 429.378 426.144 427.451 427.035C425.366 427.998 423.117 428.63 420.978 429.657C419.171 430.524 417.342 431.028 415.502 431.737C414 432.317 412.821 433.254 411.289 433.86C408.107 435.116 405.212 435.793 402.121 437.274C398.013 439.243 393.146 440.161 388.82 441.577C383.99 443.16 378.98 444.734 374.023 445.856C371.913 446.333 370.117 446.957 368.08 447.68C366.752 448.151 365.23 448.409 363.76 448.857C359.697 450.095 355.636 451.289 351.552 452.342C343.572 454.401 335.42 456.872 327.681 459.666C323.623 461.131 319.507 462.894 315.614 464.759C311.214 466.867 306.472 468.084 302.055 470.171C293.523 474.201 285.02 478.351 276.587 482.582C272.158 484.805 267.791 487.095 263.468 489.512C261.899 490.389 260.183 490.751 258.624 491.611C256.586 492.736 254.913 494.388 252.825 495.503C244.777 499.801 236.563 503.85 229.172 509.288C225.303 512.134 221.147 515.049 217.804 518.514C216.7 519.657 214.789 521.428 214.589 523.087C214.295 525.541 214.571 523.283 215.42 524.796C216.597 524.939 216.863 525.392 216.221 526.152C215.925 526.509 215.546 526.691 215.083 526.699C213.597 526.999 210.816 525.424 209.622 524.765C207.552 523.625 206.453 522.182 205.123 520.267C202.236 516.112 199.418 511.919 196.444 507.822C193.77 504.138 191.152 500.082 188.109 496.698C186.046 494.405 185.891 495.406 183.596 496.7C181.888 497.662 179.905 498.072 178.136 498.978C171.393 502.432 163.981 504.983 157.066 507.39C155.491 507.938 154.651 508.808 153.267 509.565C151.504 510.529 149.271 511.001 147.386 511.686C142.193 513.574 137.025 515.535 131.868 517.522C127.887 519.057 124.061 520.266 120.945 523.098C119.704 524.226 118.203 525.034 116.922 526.174C115.431 527.5 113.413 529.658 111.536 530.408L110.392 531.301C109.618 530.763 108.843 530.226 108.067 529.69C107.298 529.157 106.528 528.627 105.76 528.092C103.831 526.752 101.917 525.392 99.9997 524.034C95.6523 520.953 91.2768 517.902 87.233 514.423C80.0497 508.247 72.5959 502.401 65.0846 496.616C57.2011 490.544 49.5152 484.19 41.3612 478.482C33.9708 473.31 25.9075 468.941 18.7419 463.481C15.1351 460.733 11.5372 457.967 7.85448 455.305C7.65402 455.161 4.65746 453.322 4.6274 453.118C4.5764 452.742 5.56247 451.761 5.85358 451.446C7.23173 449.947 8.75875 448.613 10.1317 447.099C16.5309 440.042 24.8861 440.288 33.7173 439.955C37.722 439.804 42.065 441.651 45.8686 442.908C50.5197 444.446 55.0064 446.702 59.499 448.651C68.7577 452.667 78.3134 456.098 87.6656 459.818C91.3432 461.28 95.0067 461.993 98.7454 462.999C102.539 464.019 106.446 463.046 110.503 463.119C112.609 463.157 114.599 463.28 116.72 463.161C117.978 463.09 119.429 462.851 120.672 462.872C121.679 462.89 122.725 463.306 123.652 463.2C127.711 462.741 131.998 462.096 136.184 461.568C140.34 461.044 144.628 460.784 148.73 459.964C150.795 459.551 152.832 458.967 154.819 458.267C156.544 457.659 159.679 456.969 161.094 455.737C162.36 454.635 161.806 454.621 161.1 452.823C160.821 452.113 160.532 451.035 160.118 450.35C158.999 448.501 157.917 447.919 158.568 445.604C159.716 441.524 163.627 438.92 166.975 436.91C174.517 432.385 181.415 426.581 189.357 422.742C205.721 414.832 220.634 404.558 236.593 395.872C254.134 386.325 270.728 375.121 288.514 365.977C305.069 357.465 321.549 348.904 338.242 340.66C346.393 336.636 355.611 332.953 363.007 327.677C358.909 327.169 354.8 326.512 350.688 326.148C348.781 325.979 346.851 326.136 344.955 325.833C342.834 325.494 340.828 324.636 338.712 324.279C335.072 323.664 331.799 322.417 328.156 321.957C324.25 321.463 320.424 320.315 316.5 319.994C308.291 319.321 300.882 316.293 293.685 312.478C291.904 311.533 290.44 312.073 288.733 311.431C287.793 311.078 286.794 309.666 285.738 308.907C282.83 306.819 280.333 304.353 277.568 302.071C271.756 315.114 260.344 323.985 249.454 332.734C243.938 337.165 237.95 340.922 232.377 345.269C228.057 348.64 224.134 351.657 219.522 354.338C215.093 356.91 210.933 360.384 206.711 363.474C203.849 365.568 200.495 367.149 197.452 368.968C194.965 370.454 190.111 372.67 189.433 375.365C188.878 377.567 189.961 380.188 186.6 379.175C183.591 378.269 181.409 374.929 179.657 372.576C175.124 366.487 170.896 360.191 166.688 353.878C164.428 358.29 160.529 361.467 156.925 364.738C154.736 366.725 152.463 368.569 150.098 370.343C148.951 371.204 147.791 372.048 146.642 372.906C146.19 373.245 145.164 373.767 144.871 374.244C144.185 375.361 144.602 374.855 144.709 376.206C144.875 378.322 145.581 379.987 144.384 382.014C143.259 383.918 140.807 384.731 139.088 386.031C135 389.125 130.7 392.414 126.164 394.831C125.134 395.379 124.161 395.855 123.202 396.526C121.601 397.645 121.894 398.051 120.281 396.978C117.758 395.299 115.579 392.511 113.302 390.486C108.532 386.242 103.71 382.052 98.825 377.942C89.5162 370.108 79.9325 362.664 70.7394 354.69C62.0033 347.112 52.6378 340.589 43.6186 333.385C41.1446 331.409 38.7007 329.393 36.2591 327.377C34.085 325.582 30.5571 323.604 28.949 321.308C26.6135 317.972 35.7491 313.414 38.5054 312.735C43.2582 311.565 49.4039 312.235 54.164 313.193C59.1608 314.199 64.2489 317.564 68.9147 319.66C74.1738 322.022 79.5301 324.065 84.8283 326.295C87.191 327.289 89.696 328.083 91.8893 329.422C94.2166 330.844 96.2942 332.465 98.769 333.657C101.621 335.029 104.584 336.31 107.584 337.326C108.943 337.786 110.406 338.248 111.834 338.434C113.856 338.697 113.582 337.765 115.262 337.245C116.689 336.803 117.028 337.971 118.312 338.296C119.521 338.602 120.424 338.292 121.471 337.642C123.804 336.194 125.881 334.197 128.215 332.689C130.38 331.289 132.767 329.982 134.797 328.397C135.702 327.691 136.371 326.724 137.263 326.007C138.692 324.857 139.259 325.313 140.927 324.522C142.291 323.874 143.529 322.668 144.826 321.869C145.632 321.373 147.586 320.747 148.105 319.944C149.47 317.837 147.141 316.374 145.054 316.995C144.742 315.175 143.137 310.855 143.83 309.149C144.443 307.64 146.053 307.922 147.407 307.123C152.495 304.119 156.25 298.661 161.01 295.132C165.497 291.804 169.456 287.832 173.902 284.443C177.71 281.54 181.871 278.706 185.339 275.575C189.439 271.874 194.688 268.995 199.145 265.691C203.749 262.279 208.028 258.482 212.584 255.03C216.966 251.71 221.271 248.242 225.775 245.081C229.822 242.24 234.065 239.646 238.029 236.766C240.2 235.189 242.574 233.803 245.052 232.768C247.516 231.737 249.672 230.529 252.078 229.42C256.861 227.216 263.088 225.693 268.288 225.061C274.006 224.367 279.747 223.744 285.519 223.739C288.593 223.737 291.58 224.322 294.636 224.508C297.444 224.677 300.48 225.388 303.268 225.294C304.531 225.252 305.628 224.718 306.851 224.89C307.871 225.034 308.759 225.65 309.855 225.758C312.293 225.998 314.745 225.758 317.211 226.074C322.876 226.797 328.549 227.829 334.226 228.404C340.274 229.016 346.27 229.132 352.287 230.164C358.166 231.171 364.083 232.216 369.929 233.381C382.352 235.857 394.905 238.275 407.131 241.952C409.989 242.811 412.864 243.629 415.612 244.807C416.945 245.378 418.226 246.071 419.617 246.498C421.608 247.11 422 247.342 423.026 245.671C424.792 242.796 425.764 238.992 427.046 235.864C428.313 232.768 429.852 229.647 430.586 226.414C428.45 226.076 425.755 226.733 423.551 226.808C420.855 226.901 418.19 226.843 415.498 226.827C410.071 226.794 405.828 225.192 400.694 223.509C396.366 222.09 390.605 221.277 387.304 218.028C385.533 216.287 384.945 215.98 382.284 216.293C379.6 216.607 376.949 217.15 374.239 217.24C364.026 217.579 353.86 219.361 343.6 219.713C340.825 219.808 333.883 221.123 334.338 216.416C334.432 215.439 335.181 214.592 335.327 213.586C335.483 212.507 335.213 211.413 335.044 210.359C334.643 207.866 334.223 205.374 333.823 202.88C324.468 205.883 314.995 208.315 305.461 210.694C301.508 211.68 295.157 213.947 291.072 212.704C287.122 211.502 289.41 205.938 290.64 203.274C282.793 205.065 274.424 207.994 266.423 208.666C263.989 208.871 261.619 209.41 261.053 206.467C260.601 204.122 262.295 201.254 263.159 199.195C257.018 198.646 250.66 198.699 251.815 190.828C252.874 183.606 258.873 182.168 265.261 180.849C273.144 179.219 281.196 178.676 289.131 177.358C296.035 176.21 303.567 174.931 310.618 175.51C314.351 175.816 318.106 175.886 321.837 176.232C323.598 176.395 325.291 176.667 326.994 177.148C328.566 177.59 330.765 178.962 332.376 178.986C334.808 179.024 337.74 175.736 340.355 174.976C343.595 174.034 347.086 173.863 350.433 173.632C354.227 173.372 358.027 173.227 361.818 172.92C362.683 172.85 365.95 173.063 366.632 172.557C367.626 171.819 366.965 168.036 366.895 166.482C366.83 165.044 367.108 162.351 366.111 161.787C365.175 161.258 362.447 161.984 361.526 162.131C357.707 162.743 354.079 162.673 350.275 162.517C348.518 162.446 346.83 162.914 345.09 162.683C343.224 162.436 341.344 161.808 339.485 161.459C335.457 160.702 331.788 159.76 328.317 157.504C325.271 155.523 321.665 154.183 319.963 150.715C318.716 148.175 318.209 143.274 321.875 142.552C319.379 138.95 317.655 134.904 316.332 130.742C316.092 129.988 315.932 128.851 315.573 128.193C314.306 125.866 315.482 127.93 313.674 126.999C311.886 126.08 310.598 125.353 309.202 123.754C306.975 121.205 306.038 118.068 305.756 114.746C305.374 110.235 304.661 105.149 305.32 100.66C306.46 92.8861 312.142 87.0448 317.916 82.3428C321.05 79.7899 325.176 78.8392 328.852 77.2901C332.401 75.794 336.365 74.2257 340.104 73.8749C343.478 73.558 346.768 72.4563 350.147 72.0119C354.79 71.4002 359.438 71.6286 364.104 71.4429C366.251 71.3574 368.394 71.0545 370.532 70.8238C371.739 70.6934 373.78 70.8327 374.886 70.3544C376.695 69.5702 375.718 71.2167 376.364 68.8185C377.593 64.2566 378.597 59.9785 380.459 55.5455C382.194 51.4155 384.301 47.4668 387.086 43.9359C389.698 40.6239 393.085 38.2015 396.162 35.3722C398.442 33.2762 401.028 31.3829 403.629 29.6879C405.116 28.7187 406.773 28.1948 408.226 27.3391C410.03 26.2779 411.622 25.4731 413.651 24.8231C418.007 23.4287 422.329 21.9481 426.955 22.0211C431.942 22.0992 436.942 20.9385 441.797 22.4102C450.813 25.1437 455.23 34.9145 455.079 43.8873C458.163 43.1179 460.858 41.6365 464.124 41.5098C467.133 41.3933 470.707 41.6542 473.662 42.2128C479.397 43.2969 485.296 46.4851 488.716 51.3167C491.978 55.9251 492.465 62.0435 490.461 67.2716C489.501 69.7744 487.979 72.0008 486.358 74.1152C485.17 75.6658 482.518 77.3822 482.393 79.4598C504.592 72.7496 526.881 68.0196 549.844 64.9582C561.485 63.4069 573.145 64.1837 584.797 63.2971C589.775 62.9183 595.184 63.4482 600.33 63.4681C602.502 63.4769 604.193 63.1747 605.768 61.7686C607.363 60.3462 608.637 58.604 610.496 60.6572C610.97 61.1812 611.07 62.4488 611.708 62.8431C612.482 63.3207 614.732 62.9927 615.657 63.0495C618.893 63.247 622.051 63.796 625.229 64.4283C631.058 65.5891 636.85 66.7624 642.61 68.2356C653.578 71.0413 664.401 73.7548 675.21 77.0852C686.239 80.4834 697.385 84.6761 707.555 90.1769C712.481 92.8411 717.401 96.1671 721.93 99.4629C724.035 100.996 725.923 102.654 727.753 104.502C729.712 106.478 732.106 107.811 734.045 109.802C738.263 114.132 742.463 118.725 746.289 123.415C748.287 125.864 750.119 128.448 751.898 131.058C753.147 132.889 756.437 136.243 755.679 138.608C755.275 139.871 753.865 140.755 752.573 140.446C752.142 140.342 751.782 139.782 751.414 139.729C750.166 139.552 751.301 139.113 749.845 139.703C746.952 140.877 746.029 143.232 742.353 142.696C736.104 141.785 730.227 138.834 724.544 136.261C722.921 142.466 722.691 148.899 721.27 155.179C719.885 161.306 717.574 167.148 714.785 172.768C712.338 177.698 709.196 182.953 704.865 186.477C701.56 189.165 693.404 192.505 690.977 186.781C689.946 184.35 691.479 180.572 691.913 178.07C692.496 174.712 693.139 171.345 693.49 167.953C693.774 165.198 693.918 162.426 694.183 159.667C694.412 157.294 695.046 152.2 693.712 150.104C692.908 148.84 692.838 150.08 692.37 151.341C691.802 152.87 691.33 154.387 690.916 155.962C690.033 159.309 689.237 162.678 688.402 166.036C686.91 172.037 685.267 177.906 682.159 183.302C679.398 188.093 675.513 193.349 669.608 194.134C666.844 194.501 663.24 193.237 661.13 191.374C658.762 189.285 659.469 185.839 659.489 182.999Z" fill="#282624"/>
<path fill-rule="evenodd" clip-rule="evenodd" d="M2.7343 465.843C1.09157 466.425 1.02303 467.002 0.270578 465.312C-0.108229 464.46 -0.00578917 463.294 0.0833853 462.409C0.297109 460.289 1.4129 458.331 2.3297 456.452C10.9583 463.569 19.9177 469.984 29.1697 476.273C39.0644 482.998 48.5118 490.475 57.8699 497.924C66.2501 504.596 74.7313 511.071 83.0238 517.826C87.0233 521.084 91.583 523.609 95.3851 526.967C98.4576 529.68 103.553 530.896 106.172 534.088C102.022 536.569 96.4803 538.566 91.8808 536.42C86.8067 534.053 82.9147 530.967 78.3992 527.759C76.0726 526.106 73.6531 524.605 71.2896 523.006C69.212 521.599 67.7447 519.546 65.6414 518.227C61.221 515.453 56.6863 512.398 52.4922 509.231C48.1838 505.979 43.4214 503.391 39.2649 499.935C35.0037 496.391 30.2339 494.043 25.7848 490.816C16.3559 483.979 8.05308 476.289 2.7343 465.843Z" fill="#282624"/>
<path fill-rule="evenodd" clip-rule="evenodd" d="M105.838 399.871C97.0402 394.205 88.2126 389.232 80.551 382.007C72.9867 374.874 66.3774 366.83 57.9582 360.64C53.7574 357.553 49.4217 354.654 45.2954 351.465C41.3791 348.438 36.8776 345.846 33.3379 342.394C28.6198 337.79 19.7863 329.238 25.8141 322.375C33.2959 331.273 43.5613 338.287 52.9202 345.042C62.7883 352.165 71.8458 360.475 81.2062 368.235C90.2231 375.71 99.2098 383.255 108.009 390.928C110.319 392.944 112.548 395.061 114.885 397.044C115.171 397.287 117.595 398.822 117.595 399.23C117.595 400.21 115.717 400.822 115.048 401.095C113.991 401.525 111.135 402.595 109.937 402.233C109.309 402.043 109.298 401.532 108.846 401.228C108.586 400.737 108.282 400.275 107.937 399.84C107.237 399.851 106.538 399.862 105.838 399.871Z" fill="#282624"/>
<path fill-rule="evenodd" clip-rule="evenodd" d="M196.201 250.544C197.299 253.301 195.476 253.918 193.264 254.873C190.394 256.112 187.571 257.419 184.649 258.535C178.502 260.881 172.31 263.059 166.31 265.773C154.865 270.949 143.266 275.919 131.999 281.461C129.199 282.839 126.397 284.211 123.573 285.538C120.651 286.91 117.301 289.219 114.175 290.003C111.449 290.687 111.165 288.746 112.78 286.958C114.863 284.652 118.083 282.93 120.698 281.327C131.463 274.729 143.211 269.358 154.968 264.819C168.557 259.572 182.183 254.537 196.201 250.544Z" fill="#282624"/>
<path fill-rule="evenodd" clip-rule="evenodd" d="M108.551 268.311C107.482 265.69 118.832 262.523 120.939 261.64C126.081 259.488 131.591 258.185 136.916 256.541C142.152 254.924 147.365 253.183 152.515 251.312C154.108 250.733 165.577 245.149 166.177 245.965C168.164 248.667 144.098 257.154 141.753 257.999C130.863 261.92 119.619 264.93 108.551 268.311Z" fill="#282624"/>
<path fill-rule="evenodd" clip-rule="evenodd" d="M596.723 63.3089C593.781 63.3384 589.538 64.1727 586.838 62.9788C590.133 63.0886 593.428 63.1991 596.723 63.3089Z" fill="#282624"/>
<path fill-rule="evenodd" clip-rule="evenodd" d="M183.929 144.788L177.387 144.764C179.57 144.258 181.751 143.952 183.929 144.788Z" fill="#282624"/>
<path fill-rule="evenodd" clip-rule="evenodd" d="M524.615 143.04C526.157 143.032 527.7 143.024 529.233 143.015C527.686 143.024 526.151 143.032 524.615 143.04Z" fill="#282624"/>
<path fill-rule="evenodd" clip-rule="evenodd" d="M659.489 182.999C659.477 184.649 659.466 186.299 659.452 187.943C659.463 186.29 659.475 184.645 659.489 182.999Z" fill="#282624"/>
<path fill-rule="evenodd" clip-rule="evenodd" d="M355.705 487.158C354.066 487.277 352.428 487.395 350.791 487.512C352.43 487.395 354.067 487.276 355.705 487.158Z" fill="#282624"/>
<path fill-rule="evenodd" clip-rule="evenodd" d="M364.937 172.667C363.273 172.801 361.609 172.937 359.947 173.072C361.611 172.936 363.274 172.801 364.937 172.667Z" fill="#282624"/>
<path fill-rule="evenodd" clip-rule="evenodd" d="M537.115 142.497C538.292 142.495 539.469 142.493 540.637 142.49C539.457 142.493 538.286 142.496 537.115 142.497Z" fill="#282624"/>
<path fill-rule="evenodd" clip-rule="evenodd" d="M300.206 175.886C298.743 176.018 297.279 176.15 295.816 176.282C297.279 176.15 298.743 176.018 300.206 175.886Z" fill="#282624"/>
<path fill-rule="evenodd" clip-rule="evenodd" d="M364.836 71.4383C363.372 71.4472 361.908 71.456 360.445 71.4649C361.905 70.691 363.369 70.8908 364.836 71.4383Z" fill="#282624"/>
<path fill-rule="evenodd" clip-rule="evenodd" d="M97.7032 324.553C96.4857 324.488 95.4937 325.079 94.8069 323.918C95.9308 323.042 96.5793 324.051 97.7032 324.553Z" fill="#282624"/>
<path fill-rule="evenodd" clip-rule="evenodd" d="M349.173 515.583C350.012 515.602 350.851 515.621 351.681 515.64C350.838 515.62 350.005 515.601 349.173 515.583Z" fill="#282624"/>
<path fill-rule="evenodd" clip-rule="evenodd" d="M544.161 65.698C542.854 65.8152 541.545 65.9324 540.237 66.0495C541.546 65.9316 542.854 65.8152 544.161 65.698Z" fill="#282624"/>
<path fill-rule="evenodd" clip-rule="evenodd" d="M129.612 462.518C128.355 462.523 127.099 462.529 125.844 462.533C127.1 462.528 128.356 462.523 129.612 462.518Z" fill="#282624"/>
<path fill-rule="evenodd" clip-rule="evenodd" d="M349.074 173.713C347.786 173.84 346.499 173.966 345.211 174.092C346.5 173.966 347.786 173.84 349.074 173.713Z" fill="#282624"/>
<path fill-rule="evenodd" clip-rule="evenodd" d="M313.15 175.802C311.884 175.656 310.617 175.51 309.351 175.364C310.606 175.609 312.001 174.64 313.15 175.802Z" fill="#282624"/>
<path fill-rule="evenodd" clip-rule="evenodd" d="M427.878 226.651C428.667 226.562 429.774 226.286 430.587 226.415C430.481 226.879 428.181 226.65 427.878 226.651Z" fill="#282624"/>
<path fill-rule="evenodd" clip-rule="evenodd" d="M347.522 326.024C348.372 326.04 349.223 326.056 350.064 326.07C349.211 326.055 348.367 326.039 347.522 326.024Z" fill="#282624"/>
<path fill-rule="evenodd" clip-rule="evenodd" d="M270.769 224.821C269.528 224.941 268.288 225.061 267.047 225.181C268.289 225.061 269.528 224.941 270.769 224.821Z" fill="#282624"/>
<path fill-rule="evenodd" clip-rule="evenodd" d="M131.823 220.591C132.499 220.61 133.176 220.628 133.844 220.647C133.164 220.628 132.493 220.61 131.823 220.591Z" fill="#282624"/>
<path fill-rule="evenodd" clip-rule="evenodd" d="M314.72 225.755C313.659 225.734 312.597 225.712 311.536 225.692C312.598 225.712 313.659 225.734 314.72 225.755Z" fill="#282624"/>
<path fill-rule="evenodd" clip-rule="evenodd" d="M117.744 217.721C116.671 217.854 115.598 217.986 114.526 218.118C115.6 217.985 116.671 217.853 117.744 217.721Z" fill="#282624"/>
<path fill-rule="evenodd" clip-rule="evenodd" d="M264.938 208.606C265.6 208.632 266.263 208.659 266.917 208.688C266.251 208.662 265.594 208.634 264.938 208.606Z" fill="#282624"/>
<path fill-rule="evenodd" clip-rule="evenodd" d="M315.493 320.059C316.166 320.015 316.838 319.972 317.502 319.927C316.827 319.97 316.16 320.015 315.493 320.059Z" fill="#282624"/>
<path fill-rule="evenodd" clip-rule="evenodd" d="M366.964 232.785C365.882 232.65 364.8 232.515 363.719 232.38C364.801 232.515 365.882 232.65 366.964 232.785Z" fill="#282624"/>
<path fill-rule="evenodd" clip-rule="evenodd" d="M105.838 399.871C106.54 399.861 107.243 399.852 107.937 399.84C107.232 399.85 106.534 399.86 105.838 399.871Z" fill="#282624"/>
<path fill-rule="evenodd" clip-rule="evenodd" d="M48.1724 312.598C47.0536 312.485 45.9349 312.372 44.8154 312.259C45.9342 312.372 47.0529 312.485 48.1724 312.598Z" fill="#282624"/>
<path fill-rule="evenodd" clip-rule="evenodd" d="M24.3012 440.399C23.2016 440.525 22.102 440.653 21.0017 440.78C22.1028 440.652 23.2016 440.525 24.3012 440.399Z" fill="#282624"/>
<path fill-rule="evenodd" clip-rule="evenodd" d="M623.718 142.862C623.632 143.812 623.545 144.763 623.457 145.71C623.543 144.758 623.63 143.81 623.718 142.862Z" fill="#282624"/>
<path fill-rule="evenodd" clip-rule="evenodd" d="M136.184 461.568C135.077 461.695 133.971 461.822 132.866 461.949C133.972 461.821 135.078 461.695 136.184 461.568Z" fill="#282624"/>
<path fill-rule="evenodd" clip-rule="evenodd" d="M125.331 462.665C124.211 463.446 123.092 463.491 121.972 462.667C123.092 462.666 124.211 462.665 125.331 462.665Z" fill="#282624"/>
<path fill-rule="evenodd" clip-rule="evenodd" d="M104.106 463.6C103.02 463.6 101.935 463.601 100.85 463.602C101.936 463.601 103.021 463.6 104.106 463.6Z" fill="#282624"/>
<path fill-rule="evenodd" clip-rule="evenodd" d="M231.057 93.6575C230.965 92.6943 230.872 91.7318 230.779 90.7722C230.872 91.7369 230.965 92.6972 231.057 93.6575Z" fill="#282624"/>
<path fill-rule="evenodd" clip-rule="evenodd" d="M349.606 72.149C348.516 72.2839 347.425 72.418 346.335 72.5522C347.426 72.418 348.516 72.2839 349.606 72.149Z" fill="#282624"/>
<path fill-rule="evenodd" clip-rule="evenodd" d="M181.313 199.987C181.996 199.977 182.678 199.966 183.351 199.956C182.666 199.966 181.99 199.977 181.313 199.987Z" fill="#282624"/>
<path fill-rule="evenodd" clip-rule="evenodd" d="M280.066 189.32C283.686 188.723 287.306 188.524 290.924 189.318L280.066 189.32Z" fill="#282624"/>
<path fill-rule="evenodd" clip-rule="evenodd" d="M376.601 148.604C377.355 146.636 377.542 145.898 379.381 144.88C378.615 146.792 378.495 147.815 376.601 148.604Z" fill="#282624"/>
<path fill-rule="evenodd" clip-rule="evenodd" d="M464.867 343.343C464.94 345.389 465.012 347.435 465.084 349.478C465.011 347.432 464.939 345.387 464.867 343.343Z" fill="#282624"/>
<path fill-rule="evenodd" clip-rule="evenodd" d="M596.131 68.0341C594.493 68.0709 592.857 68.1085 591.226 68.1453C592.866 68.1085 594.499 68.0709 596.131 68.0341Z" fill="#282624"/>
<path fill-rule="evenodd" clip-rule="evenodd" d="M378.003 379.705C378.06 381.41 378.117 383.116 378.174 384.82C378.116 383.113 378.059 381.409 378.003 379.705Z" fill="#282624"/>
<path fill-rule="evenodd" clip-rule="evenodd" d="M317.945 237.456C316.948 237.465 315.952 237.474 314.965 237.487C315.964 237.478 316.954 237.467 317.945 237.456Z" fill="#282624"/>
<path fill-rule="evenodd" clip-rule="evenodd" d="M314.698 183.241C313.879 183.213 313.058 183.185 312.248 183.16C313.071 183.189 313.884 183.215 314.698 183.241Z" fill="#282624"/>
<path fill-rule="evenodd" clip-rule="evenodd" d="M182.84 325.095C184.152 324.981 185.463 324.866 186.776 324.752C185.464 324.866 184.152 324.981 182.84 325.095Z" fill="#282624"/>
<path fill-rule="evenodd" clip-rule="evenodd" d="M187.624 327.175C186.972 327.171 186.32 327.167 185.676 327.163C186.331 327.167 186.978 327.171 187.624 327.175Z" fill="#282624"/>
<path fill-rule="evenodd" clip-rule="evenodd" d="M464.295 297.863C464.392 296.902 464.49 295.94 464.587 294.982C464.49 295.945 464.392 296.904 464.295 297.863Z" fill="#282624"/>
<path fill-rule="evenodd" clip-rule="evenodd" d="M268.427 200.678C269.249 200.748 270.072 200.818 270.896 200.889C269.977 200.936 269.058 200.982 268.139 201.029C268.145 200.841 268.24 200.723 268.427 200.678Z" fill="#282624"/>
<path fill-rule="evenodd" clip-rule="evenodd" d="M479.81 362.384C479.758 361.508 479.705 360.632 479.654 359.762C479.706 360.639 479.759 361.512 479.81 362.384Z" fill="#282624"/>
<path fill-rule="evenodd" clip-rule="evenodd" d="M283.195 197.337C282.535 197.351 281.874 197.363 281.222 197.376C281.886 197.362 282.54 197.35 283.195 197.337Z" fill="#282624"/>
<path fill-rule="evenodd" clip-rule="evenodd" d="M296.312 235.314C295.634 235.325 294.957 235.334 294.288 235.346C294.968 235.336 295.64 235.325 296.312 235.314Z" fill="#282624"/>
<path fill-rule="evenodd" clip-rule="evenodd" d="M257.127 102.789C257.838 103.168 257.469 104.837 256.775 104.678C256.893 104.047 257.01 103.418 257.127 102.789Z" fill="#282624"/>
<path fill-rule="evenodd" clip-rule="evenodd" d="M623.774 301.095C623.12 301.078 622.467 301.061 621.823 301.044C622.478 301.062 623.126 301.079 623.774 301.095Z" fill="#282624"/>
<path fill-rule="evenodd" clip-rule="evenodd" d="M226.082 94.1364C226.013 92.6661 225.944 91.1966 225.875 89.7307C225.944 91.2025 226.013 92.669 226.082 94.1364Z" fill="#282624"/>
<path fill-rule="evenodd" clip-rule="evenodd" d="M349.804 509.888C350.811 510.035 351.817 510.183 352.823 510.33C351.815 510.183 350.81 510.035 349.804 509.888Z" fill="#282624"/>
<path fill-rule="evenodd" clip-rule="evenodd" d="M343.152 131.387C339.603 132.117 335.959 132.499 332.493 133.574C331.629 133.843 328.791 135.49 327.756 135.056C326.183 134.395 326.978 132.7 327.641 131.795C329.414 129.374 332.586 128.018 335.495 128.048C338.398 128.079 342.384 127.973 343.152 131.387Z" fill="#282624"/>
<path fill-rule="evenodd" clip-rule="evenodd" d="M333.292 138.68C337.2 141.415 340.185 142.762 340.516 136.615C344.75 137.192 342.853 144.012 339.648 144.526C336.161 145.085 333.834 141.602 333.292 138.68Z" fill="#282624"/>
</g>
<defs>
<clipPath id="clip0_69_94">
<rect width="754.667" height="566" fill="white"/>
</clipPath>
</defs>
</svg>
