<svg width="755" height="566" viewBox="0 0 755 566" fill="none" xmlns="http://www.w3.org/2000/svg">
<g clip-path="url(#clip0_69_861)">
<path fill-rule="evenodd" clip-rule="evenodd" d="M524.66 428.03C527.905 427.389 530.636 424.799 533.286 422.854C536.666 420.372 539.873 417.668 543.155 415.062C549.339 410.15 554.95 404.762 560.286 398.903C570.813 387.345 578.739 372.466 582.342 357.264C584.165 349.572 586.419 340.56 585.384 332.611C585.025 329.849 584.476 329.343 581.769 329.029C580.546 328.887 577.443 328.536 576.341 329.016C573.488 330.263 571.948 335.569 571.102 338.235C568.602 346.108 567.131 354.261 564.872 362.198C562.658 369.978 559.09 377.872 555.561 385.146C547.709 401.333 536.796 414.875 524.66 428.03ZM589.03 338.661C587.09 360.704 580.97 381.705 567.248 399.455C560.726 407.893 553.055 415.234 544.741 421.902C536.157 428.788 527.39 435.273 517.649 440.408C515.057 441.775 512.462 443.137 509.837 444.441C508.382 445.164 504.71 447.826 503.032 447.405C501.688 447.067 501.337 446.027 501.127 444.674C500.657 441.636 502.63 440.12 504.625 438.17C512.639 430.335 520.679 422.471 528.172 414.136C542.972 397.675 554.089 377.963 560.269 356.694C562.172 350.145 563.871 343.523 565.926 337.021C567.177 333.06 568.952 326.008 573.111 324.033C575.341 322.974 577.941 324.004 580.286 323.37C582.486 322.774 583.943 321.56 585.818 323.597C589.108 327.171 589.255 334.182 589.03 338.661Z" fill="#282624"/>
<path fill-rule="evenodd" clip-rule="evenodd" d="M623.774 301.095C617.502 300.934 607.955 300.915 608.307 309.48C608.481 313.72 610.78 316.835 612.669 320.462C614.652 324.274 616.122 328.211 616.705 332.484C619.059 349.779 612.742 366.675 607.028 382.663C619.3 372.759 628.162 358.977 632.815 343.872C635.071 336.546 635.949 327.13 635.22 319.503C634.855 315.686 633.447 312.264 631.752 308.864C630.901 307.155 630.05 305.204 628.692 303.822C627.333 302.436 625.447 301.975 623.774 301.095ZM601.896 392.569C597.844 385.906 604.223 376.095 606.309 369.598C608.803 361.83 611.104 353.743 612.169 345.641C613.286 337.155 611.844 330.557 607.911 323.061C604.393 316.359 602.306 307.435 606.216 300.344C607.791 297.49 610.116 297.14 612.88 296.001C616.274 294.604 617.208 292.242 621.372 292.616C628.801 293.283 632.239 300.329 635.002 306.333C641.447 320.328 639.695 338.389 634.199 352.443C631.036 360.529 627.428 368.925 622.058 375.811C619.425 379.187 616.33 382.113 613.118 384.93C609.643 387.976 606.53 391.648 601.896 392.569Z" fill="#282624"/>
<path fill-rule="evenodd" clip-rule="evenodd" d="M352.821 510.33C358.121 510.75 363.342 511.164 368.642 511.5C367.728 504.235 366.812 496.969 365.898 489.703C362.831 490.413 359.765 491.123 356.698 491.832C355.248 492.167 353.025 492.256 351.742 492.98C351.262 493.09 350.782 493.201 350.302 493.313C350.289 494.255 350.279 495.199 350.27 496.142C350.234 498.932 350.154 501.719 350.038 504.507C349.989 505.675 349.582 507.386 349.861 508.543C349.365 509.713 349.68 510.211 350.81 510.035C351.481 510.133 352.151 510.232 352.821 510.33ZM349.173 515.583C345.018 513.514 346.154 507.194 346.161 503.17C346.166 500.611 346.346 498.068 346.413 495.513C346.46 493.756 346.058 491.581 346.663 489.884C347.738 486.865 352.999 486.947 355.705 487.158C357.711 487.314 359.389 487.213 361.446 487.082C362.459 487.017 363.589 487.21 364.585 486.911C364.8 486.846 366.826 485.433 366.736 485.429C370.37 485.568 370.419 494.282 370.655 496.493C371.238 501.943 371.766 507.402 372.24 512.863C372.366 514.308 372.903 515.942 371.53 516.767C370.292 517.511 367.011 516.776 365.641 516.734C360.121 516.567 354.632 515.706 349.173 515.583Z" fill="#282624"/>
<path fill-rule="evenodd" clip-rule="evenodd" d="M596.724 63.3088C593.781 63.3383 589.538 64.1725 586.838 62.9786C590.133 63.0884 593.428 63.199 596.724 63.3088Z" fill="#282624"/>
</g>
<defs>
<clipPath id="clip0_69_861">
<rect width="754.667" height="566" fill="white"/>
</clipPath>
</defs>
</svg>
