<svg width="185" height="66" viewBox="0 0 185 66" fill="none" xmlns="http://www.w3.org/2000/svg">
<path d="M88.1247 9.43281C80.1297 11.9904 75.1344 20.7572 78.2793 28.54C81.5863 36.7235 88.9706 37.044 96.7812 32.933C100.809 30.813 106.523 30.1074 107.843 25.7509C110.739 16.1846 97.6447 6.38741 88.1247 9.43281Z" fill="white" stroke="#282624" stroke-width="2.20661"/>
<path d="M93.4765 19.5104C91.6313 19.4429 86.9352 19.9738 82.9123 22.6378" stroke="#282624" stroke-width="1.77187" stroke-linecap="round"/>
<path d="M96.7558 18.3073C97.447 17.3095 99.5655 15.3414 102.509 15.4506" stroke="#282624" stroke-width="1.77187" stroke-linecap="round"/>
<path d="M1.47843 59.4121V44.4072H4.45735V50.4974H11.0992V44.4072H14.0561V59.4121H11.0992V52.9247H4.45735V59.4121H1.47843ZM40.7357 59.4121L39.5883 56.3008H33.1891L32.0417 59.4121H29.0627L34.7117 44.4072H38.2202L43.8691 59.4121H40.7357ZM35.9474 48.8645L34.0497 54.0059H38.7277L36.83 48.8645L36.3887 47.3199L35.9474 48.8645ZM58.8588 59.4121V44.4072H61.8378V51.5345L67.8618 44.4072H71.3482L64.9932 51.7552L71.6351 59.4121H67.8618L61.8378 52.4613V59.4121H58.8588ZM86.6009 59.4121V44.4072H89.5798V51.5345L95.6038 44.4072H99.0903L92.7353 51.7552L99.3771 59.4121H95.6038L89.5798 52.4613V59.4121H86.6009ZM124.802 59.4121L123.655 56.3008H117.256L116.108 59.4121H113.129L118.778 44.4072H122.287L127.936 59.4121H124.802ZM120.014 48.8645L118.116 54.0059H122.794L120.897 48.8645L120.455 47.3199L120.014 48.8645ZM142.925 59.4121V44.4072H148.508C152.105 44.4072 154.334 46.2607 154.334 49.3279C154.334 52.4834 152.083 54.2928 148.552 54.2928H145.904V59.4121H142.925ZM148.464 46.7682H145.904V51.9317H148.398C150.295 51.9317 151.288 50.9167 151.288 49.35C151.288 47.7833 150.273 46.7682 148.464 46.7682ZM176.646 59.7431C172.1 59.7431 169.298 56.7642 169.298 51.9317C169.298 47.0992 172.1 44.0762 176.646 44.0762C181.192 44.0762 184.016 47.0992 184.016 51.9317C184.016 56.7642 181.192 59.7431 176.646 59.7431ZM176.646 57.2717C179.36 57.2717 180.971 55.2637 180.971 51.9317C180.971 48.5997 179.36 46.5476 176.646 46.5476C173.932 46.5476 172.343 48.5777 172.343 51.9317C172.343 55.2637 173.932 57.2717 176.646 57.2717Z" fill="#282624"/>
<ellipse cx="93.8926" cy="36.3035" rx="15.3359" ry="1.21363" fill="#282624"/>
</svg>
