<svg width="839" height="368" viewBox="0 0 839 368" fill="none" xmlns="http://www.w3.org/2000/svg">
<path d="M399.36 42.7507C363.128 54.3412 340.49 94.0712 354.742 129.341C369.729 166.428 403.193 167.88 438.59 149.25C456.844 139.642 482.74 136.445 488.718 116.702C501.845 73.3489 442.503 28.9494 399.36 42.7507Z" stroke="#282624" stroke-width="10"/>
<path d="M423.613 88.4087C415.251 88.1028 393.969 90.5091 375.738 102.582" stroke="#282624" stroke-width="8.02984" stroke-linecap="round"/>
<path d="M438.476 82.958C441.609 78.4366 451.21 69.5174 464.55 70.0121" stroke="#282624" stroke-width="8.02984" stroke-linecap="round"/>
<path d="M6.7 268V200H20.2V227.6H50.3V200H63.7V268H50.3V238.6H20.2V268H6.7ZM184.608 268L179.408 253.9H150.408L145.208 268H131.708L157.308 200H173.208L198.808 268H184.608ZM162.908 220.2L154.308 243.5H175.508L166.908 220.2L164.908 213.2L162.908 220.2ZM266.739 268V200H280.239V232.3L307.539 200H323.339L294.539 233.3L324.639 268H307.539L280.239 236.5V268H266.739ZM392.462 268V200H405.962V232.3L433.262 200H449.062L420.262 233.3L450.362 268H433.262L405.962 236.5V268H392.462ZM565.584 268L560.384 253.9H531.384L526.184 268H512.684L538.284 200H554.184L579.784 268H565.584ZM543.884 220.2L535.284 243.5H556.484L547.884 220.2L545.884 213.2L543.884 220.2ZM647.716 268V200H673.016C689.316 200 699.416 208.4 699.416 222.3C699.416 236.6 689.216 244.8 673.216 244.8H661.216V268H647.716ZM672.816 210.7H661.216V234.1H672.516C681.116 234.1 685.616 229.5 685.616 222.4C685.616 215.3 681.016 210.7 672.816 210.7ZM800.532 269.5C779.932 269.5 767.232 256 767.232 234.1C767.232 212.2 779.932 198.5 800.532 198.5C821.132 198.5 833.932 212.2 833.932 234.1C833.932 256 821.132 269.5 800.532 269.5ZM800.532 258.3C812.832 258.3 820.132 249.2 820.132 234.1C820.132 219 812.832 209.7 800.532 209.7C788.232 209.7 781.032 218.9 781.032 234.1C781.032 249.2 788.232 258.3 800.532 258.3Z" fill="#282624"/>
<ellipse cx="425.5" cy="164.5" rx="69.5" ry="5.5" fill="#282624"/>
<path d="M344.123 326.351L349.671 327.434C346.377 332.115 341.956 336.016 335.282 339.093C334.588 337.88 332.984 336.059 331.857 335.236C337.969 332.895 341.956 329.601 344.123 326.351ZM345.337 329.255H358.296V333.155H341.783L345.337 329.255ZM356.736 329.255H357.733L358.6 329.038L362.11 331.118C356.389 340.697 344.123 345.898 331.641 348.325C331.164 346.982 330.08 344.858 329.17 343.731C340.786 341.954 352.402 337.273 356.736 329.992V329.255ZM343.256 332.202C348.284 337.836 358.383 341.304 370.085 342.431C368.915 343.644 367.485 345.985 366.748 347.458C354.829 345.811 344.947 341.564 338.749 334.196L343.256 332.202ZM337.405 345.335H362.327V358.814H356.996V349.582H342.476V358.901H337.405V345.335ZM339.962 353.31H359.597V357.557H339.962V353.31ZM346.854 318.246H352.228V324.4H346.854V318.246ZM330.991 321.756H368.352V331.335H363.021V326.437H336.062V331.335H330.991V321.756ZM416.288 318.246H421.619V324.444H416.288V318.246ZM400.642 321.626H437.526V331.422H432.238V326.351H405.713V331.422H400.642V321.626ZM407.23 329.125H430.634V333.546H407.23V329.125ZM411.477 336.84L415.465 334.499C425.693 341.607 425.607 353.83 420.969 357.167C419.322 358.597 417.935 358.987 415.638 358.987C414.555 359.031 413.254 358.987 411.954 358.901C411.867 357.471 411.391 355.39 410.48 353.916C412.084 354.09 413.514 354.133 414.641 354.133C415.725 354.133 416.548 354.003 417.285 353.223C419.756 351.316 419.756 342.734 411.477 336.84ZM418.325 330.252L422.616 332.029C418.022 336.71 410.134 340.047 402.895 341.954C402.419 340.957 401.075 338.877 400.252 337.923C407.143 336.536 414.555 333.849 418.325 330.252ZM414.945 338.877L418.282 341.217C414.685 343.991 408.313 347.198 403.459 348.889C402.895 347.762 401.812 345.985 400.858 344.945C405.583 343.818 411.867 341.217 414.945 338.877ZM418.455 342.994L422.009 345.638C417.372 350.059 408.92 354.653 402.029 356.95C401.422 355.65 400.295 353.786 399.298 352.66C406.146 350.969 414.424 346.895 418.455 342.994ZM425.043 330.988C427.124 340.09 431.588 347.849 439.26 351.273C438.089 352.313 436.442 354.393 435.662 355.824C427.471 351.446 423.136 342.777 420.666 331.855L425.043 330.988ZM433.495 333.806L437.569 337.316C434.579 339.57 430.808 341.997 427.991 343.428L424.653 340.307C427.384 338.747 431.241 335.973 433.495 333.806Z" fill="#282624"/>
<path d="M482.201 323.88H502.095V328.691H482.201V323.88ZM482.288 334.716H500.318V339.353H482.288V334.716ZM489.483 318.159H494.554V337.316H489.483V318.159ZM479.471 323.88H484.455V335.019C484.455 342.041 483.718 352.269 479.08 358.814C478.17 357.991 475.96 356.69 474.703 356.214C479.08 350.146 479.471 341.304 479.471 334.976V323.88ZM500.882 323.88H501.705L502.529 323.707L506.343 324.617C505.346 327.954 504.002 331.595 502.789 333.979L498.281 332.679C499.235 330.642 500.275 327.304 500.882 324.617V323.88ZM488.226 337.706C491.173 345.681 497.371 351.879 506.473 354.437C505.303 355.477 503.829 357.514 503.092 358.857C493.47 355.563 487.359 348.629 483.761 338.963L488.226 337.706ZM468.028 322.233L470.932 318.462C473.316 319.633 476.913 321.54 478.69 322.753L475.656 326.958C473.966 325.657 470.455 323.577 468.028 322.233ZM465.471 334.022L468.375 330.165C470.802 331.248 474.443 333.069 476.263 334.282L473.273 338.617C471.582 337.316 467.985 335.323 465.471 334.022ZM466.338 355.303C468.375 351.966 471.236 346.505 473.446 341.391L477.52 344.511C475.57 349.149 473.229 354.176 470.975 358.424L466.338 355.303ZM498.454 334.716H499.495L500.405 334.586L503.656 335.973C500.708 348.109 493.557 355.477 484.498 358.944C483.848 357.731 482.244 355.563 481.204 354.653C489.829 351.749 496.244 345.638 498.454 335.669V334.716Z" fill="#282624"/>
</svg>
