<svg width="261" height="188" viewBox="0 0 261 188" fill="none" xmlns="http://www.w3.org/2000/svg">
<path fill-rule="evenodd" clip-rule="evenodd" d="M106.503 75.471C103.912 75.6364 101.299 75.569 98.7049 75.4865C98.4493 75.4782 97.8384 75.3594 97.6826 75.5121C97.5035 75.688 97.5416 76.6568 97.5119 76.8968C97.288 78.7147 97.0637 80.5328 96.8399 82.3507C96.7367 83.1853 96.6339 84.0202 96.531 84.8549C96.5017 85.0922 96.211 86.1183 96.3499 86.3242C96.6021 86.6988 98.4092 86.7843 98.8854 86.876L104.557 87.9684C105.091 88.0712 106.454 88.0955 106.701 88.5173C106.858 88.7849 106.762 89.5097 106.781 89.8134L106.935 92.3193C107.137 95.6013 107.339 98.8833 107.541 102.165C111.555 101.843 115.569 101.52 119.582 101.197C120.558 101.119 121.535 101.04 122.512 100.962C122.744 100.943 123.231 100.992 123.421 100.864C123.836 100.583 124.189 99.3821 124.413 98.9507C124.983 97.8506 125.553 96.7508 126.123 95.6507C126.672 94.5907 127.222 93.5307 127.771 92.4707C127.912 92.1994 128.263 91.7468 128.254 91.4501C128.244 91.1158 127.745 90.5172 127.59 90.2315C127.133 89.394 126.677 88.5565 126.22 87.719C123.96 83.5719 121.7 79.4249 119.439 75.2781C119.324 75.0678 119.069 74.3036 118.845 74.1874C118.409 73.9621 116.887 74.4154 116.418 74.469C113.121 74.8453 109.816 75.2597 106.503 75.471Z" fill="#282624"/>
<path fill-rule="evenodd" clip-rule="evenodd" d="M68.2695 68.3487C69.0707 69.2993 69.8719 70.25 70.6733 71.2007C72.7979 68.5783 74.9225 65.956 77.0473 63.3336C75.9821 62.8576 74.9171 62.3816 73.852 61.9056C72.9066 61.4832 73.0274 61.684 72.4293 62.5215C71.0428 64.464 69.6561 66.4063 68.2695 68.3487Z" fill="#282624"/>
<path fill-rule="evenodd" clip-rule="evenodd" d="M109.242 130.204C109.239 131.586 109.236 132.968 109.232 134.35C113.459 134.141 117.685 133.933 121.911 133.725C121.72 133.145 121.527 132.566 121.336 131.986C121.186 131.533 120.996 130.165 120.631 129.861C120.233 129.529 118.482 129.871 117.947 129.891C115.045 129.995 112.144 130.1 109.242 130.204Z" fill="#282624"/>
<path fill-rule="evenodd" clip-rule="evenodd" d="M99.1754 25.6035C94.2382 28.7226 89.3007 31.842 84.3633 34.9611C85.4535 36.236 86.5433 37.511 87.6333 38.7859C87.8944 39.0913 87.9408 39.2846 88.2394 39.2549C88.5869 39.2204 89.1716 38.675 89.461 38.4946C92.9612 36.316 96.461 34.1374 99.961 31.959C101.02 31.2998 102.079 30.6406 103.138 29.9814C101.817 28.5221 100.496 27.0628 99.1754 25.6035Z" fill="#282624"/>
<path fill-rule="evenodd" clip-rule="evenodd" d="M213.887 74.3547C213.709 72.9047 212.978 71.4308 212.443 70.0878C211.812 68.5055 211.148 66.9365 210.469 65.3749C210.038 64.3864 209.882 64.6293 208.756 64.6735C207.441 64.7248 206.126 64.7763 204.811 64.8278C205.823 68.5046 206.836 72.1812 207.849 75.8578C208.024 76.4943 208.307 78.8803 208.86 79.2026C209.051 79.3143 209.712 79.1706 209.929 79.1626C210.549 79.1392 211.169 79.116 211.79 79.0928C212.633 79.0612 213.476 79.0295 214.32 78.9979C214.202 77.4485 214.077 75.8972 213.887 74.3547Z" fill="#282624"/>
<path fill-rule="evenodd" clip-rule="evenodd" d="M130.357 167.452C128.094 166.88 125.632 167.422 123.352 167.438C122.009 167.447 120.668 167.357 119.326 167.427C118.876 167.45 116.818 167.39 116.748 167.661C116.694 167.868 117.104 168.392 117.262 168.478C117.706 168.72 118.019 168.409 118.467 168.294C119.682 167.98 121.102 168.174 122.351 168.114C123.657 168.052 124.962 167.974 126.268 167.914C127.569 167.854 129.229 168.124 130.357 167.452ZM19.4856 50.1519C19.312 49.7541 19.2406 49.1227 18.8418 48.8737C18.4723 48.6427 17.698 48.8113 17.271 48.8054C16.363 48.793 14.3916 48.8282 13.7984 49.6548C13.0773 50.6596 15.1988 51.376 15.9064 51.3569C17.1358 51.3235 18.2543 50.3791 19.4856 50.1519ZM42.0872 37.5394C42.1807 37.2849 41.8523 37.1168 41.615 37.0357C41.0113 36.8295 40.6141 37.1726 40.0829 37.4306C38.7413 38.0825 37.2827 38.5132 35.8716 38.9842C34.6428 39.3941 33.503 39.9685 32.2982 40.4301C31.444 40.7573 29.6412 40.6936 29.1493 41.5193C28.178 43.1502 30.7222 41.9269 31.1705 41.7687C32.457 41.3151 33.8262 41.0355 35.0872 40.5171C36.3007 40.0182 37.5383 39.5107 38.7393 38.9706C39.2873 38.724 39.8321 38.5147 40.3909 38.2994C40.9136 38.0981 41.5311 37.5926 42.0872 37.5394ZM78.8005 65.8071C78.48 65.6107 77.1663 64.5138 76.7248 64.6584C76.3802 64.7716 75.9944 66.0318 75.7795 66.3627C74.7036 68.0194 73.5431 69.6077 72.3895 71.2103C72.9014 71.4856 73.4134 71.7608 73.9256 72.0362C74.9694 69.5622 76.9823 67.7108 78.8005 65.8071ZM98.7215 74.6495C100.369 74.6534 102.002 74.4468 103.648 74.4697C105.492 74.4954 107.304 74.5453 109.146 74.3948C110.96 74.2464 112.766 74.2392 114.579 74.1288C115.149 74.0943 118.324 73.8519 116.464 72.9438C115.838 72.6383 115.086 73.019 114.406 73.1561C113.618 73.3152 112.823 73.3748 112.027 73.4706C111.269 73.562 110.463 73.8143 109.698 73.7956C108.895 73.7761 108.292 73.6326 107.485 73.7486C105.812 73.9895 104.146 73.8548 102.474 73.6996C101.321 73.5926 98.7896 72.9442 98.7215 74.6495ZM143.563 168.476C144.624 167.621 146.302 167.991 147.562 167.719C148.953 167.417 147.857 165.943 147.324 165.158C146.768 164.339 145.93 162.703 144.995 163.914C144.018 165.18 143.903 166.965 143.563 168.476ZM110.18 131.314C110.144 132.083 109.764 132.874 110.563 133.138C111.331 133.391 112.648 133.006 113.443 132.937C114.479 132.848 115.499 132.677 116.532 132.57C116.994 132.523 117.457 132.487 117.921 132.53C118.24 132.559 119.01 132.906 119.295 132.762C119.646 132.586 119.816 131.635 119.53 131.268C119.219 130.87 117.344 131.264 116.673 131.315C114.487 131.481 112.356 131.216 110.18 131.314ZM110.046 128.847C111.052 128.433 112.248 128.627 113.308 128.621C114.555 128.615 115.787 128.683 117.031 128.764C117.581 128.8 119.187 129.208 119.648 128.855C119.891 128.67 119.978 127.083 119.773 126.84C119.437 126.443 118.382 126.921 117.951 126.986C116.794 127.157 115.613 127.153 114.447 127.142C113.354 127.132 112.259 127.084 111.167 127.081C109.874 127.078 110.049 127.739 110.046 128.847ZM75.4263 63.7907C75.0151 63.5523 73.6656 62.4569 73.1616 62.6233C72.7326 62.7648 72.2773 64.072 72.0211 64.4828C71.5331 65.2654 71.0176 66.0329 70.5118 66.8043C70.1887 67.2974 69.3266 68.1886 69.4739 68.8554C69.5523 69.2103 70.2701 69.8235 70.6326 69.7158C71.0067 69.6048 71.6227 68.2134 71.8303 67.9389C72.9539 66.4548 74.3655 65.3382 75.4263 63.7907ZM206.284 65.3979C207.724 68.2207 207.909 71.4124 208.69 74.442C208.871 75.147 209.151 75.843 209.305 76.5523C209.391 76.9474 209.233 77.6245 209.454 77.9608C210.008 78.8029 212.57 78.5355 213.123 77.7942C213.448 77.3588 213.195 76.9072 213.057 76.4551C212.871 75.8446 212.96 75.313 212.852 74.7035C212.635 73.4823 211.535 72.2496 211.012 71.1223C210.442 69.891 210.18 68.4095 209.363 67.3095C208.816 66.5735 207.282 65.0547 206.284 65.3979ZM112.378 175.511C114.305 175.257 117.336 174.684 117.235 172.094C117.135 169.52 113.76 169.063 111.881 168.837C111.331 168.771 111.271 168.74 110.712 169.073C110.328 169.303 109.945 169.548 109.587 169.815C108.889 170.336 108.099 171.046 107.95 171.954C107.572 174.262 110.687 175.306 112.378 175.511ZM101.363 29.2779C102.238 29.3705 101.075 28.5208 100.854 28.418C100.185 28.1057 99.4421 28.1624 98.7319 28.2811C97.0134 28.5683 95.4922 30.0111 94.0238 30.9032C92.4688 31.8475 90.9341 32.9154 89.3126 33.7398C88.5713 34.1169 87.9583 34.4369 87.3423 34.9993C87.0284 35.2861 86.9195 35.485 86.4975 35.4847C86.2635 35.4847 85.7417 34.9377 85.4925 35.2542C84.797 36.1375 88.3012 36.4232 88.667 36.3634C90.4939 36.0645 92.0789 35.3713 93.6466 34.4312C95.2472 33.4716 96.9471 32.6925 98.5558 31.7585C99.2511 31.3546 99.8464 30.819 100.481 30.3392C100.571 30.2704 100.736 30.0388 100.827 29.9509C100.975 29.9942 101.098 29.9559 101.197 29.8362C101.249 29.6489 101.304 29.4628 101.363 29.2779ZM136.708 167.476C134.931 168.106 132.026 168.598 131.192 170.682C130.247 173.044 134.492 174.727 136.158 174.855C137.908 174.99 141.019 174.282 141.263 172.105C141.403 170.853 140.41 170.053 139.482 169.429C138.533 168.79 137.179 168.653 136.708 167.476ZM22.9986 35.9564C21.7424 36.1005 20.8887 36.2245 19.8881 37.0396C19.0578 37.7163 18.3737 38.3998 18.0354 39.4435C17.2532 41.8557 19.1864 43.9269 21.6698 43.646C21.9435 43.615 22.2109 43.5137 22.4889 43.5416C22.7442 43.5673 22.9227 43.7506 23.1385 43.7873C23.6471 43.8737 23.7457 43.7844 24.163 43.3886C25.0144 42.581 25.8688 41.6935 26.3403 40.6037C27.476 37.9789 25.7682 36.0034 22.9986 35.9564ZM51.5578 30.9291C51.6799 28.2125 47.5445 27.7661 45.6377 27.9727C43.4727 28.2074 39.9206 30.4056 40.7452 33.1024C41.471 35.4762 45.5652 35.2953 47.3349 34.8127C47.7134 34.7096 48.3017 34.4854 48.6743 34.5613C49.2338 34.6747 49.2611 35.1353 49.7884 34.7184C50.1199 34.4562 50.4191 33.6929 50.6531 33.3169C51.1194 32.5677 51.3605 31.7866 51.5578 30.9291ZM109.681 142.49C109.624 143.072 109.402 143.819 110.028 144.096C110.415 144.267 111.489 144.08 111.878 144.094C113.5 144.152 115.165 144.023 116.777 144.151C117.254 144.19 118.679 144.673 119.103 144.349C119.518 144.032 119.195 143.04 119.167 142.596C119.054 140.784 119.297 139.023 119.375 137.221C119.396 136.737 119.595 135.561 119.224 135.203C118.773 134.766 117.77 135.019 117.232 135.073C115.552 135.243 113.824 135.492 112.136 135.496C111.672 135.497 110.646 135.168 110.244 135.342C109.627 135.608 109.772 136.537 109.738 137.13C109.635 138.919 109.566 140.7 109.681 142.49ZM71.9201 61.3781C69.718 59.7467 67.4353 58.1997 65.2332 56.6134C64.449 56.0488 63.8661 55.2425 63.1314 54.6913C62.6706 54.3452 62.5301 54.1946 61.9002 54.5287C61.1723 54.9148 60.4957 55.5214 59.8241 56.0005C59.2601 56.4027 58.6935 56.8015 58.1289 57.2022C57.6055 57.5734 57.4303 57.6578 57.8011 58.2742C58.4536 59.3588 59.8085 60.3377 60.6943 61.2297C62.8804 63.4312 65.0158 65.7087 67.472 67.6104C68.3163 65.1472 70.0631 63.1442 71.9201 61.3781ZM96.6066 23.3553C92.7836 21.8448 92.4936 16.7303 91.1567 13.4702C90.7426 15.702 91.841 19.3291 89.9866 21.0818C88.8461 22.1595 88.1853 20.6385 87.573 19.8106C86.6404 18.55 85.6394 17.3447 84.7492 16.0521C85.0225 17.6116 85.8058 19.3618 85.6594 20.9477C85.5443 22.1927 84.7485 23.8981 83.5903 22.4863C82.7949 21.5167 81.7767 20.6097 80.8492 19.7497C79.7342 18.7159 78.462 18.048 77.2499 17.1663C77.7193 19.4985 78.6139 21.5688 79.9329 23.5425C80.6095 24.5553 81.3502 25.528 81.9888 26.5657C82.5108 27.4141 82.7571 28.4692 83.4489 29.1898C84.0952 29.863 85.0453 30.4005 85.819 30.9177C86.9013 31.6409 87.1753 31.4516 88.1451 30.7813C88.1625 30.7692 88.1802 30.757 88.198 30.7447C90.1591 29.3905 92.2884 28.3061 94.2622 26.969C93.8969 26.486 93.3134 26.0088 93.3325 25.3513C93.3478 24.819 93.7553 24.3344 94.3006 24.3981C94.7278 24.448 94.9254 24.8957 95.4009 24.7447C95.8029 24.6168 96.3524 23.657 96.6066 23.3553ZM228.247 64.0855C226.475 64.2945 224.821 64.9259 223.006 64.8107C222.271 64.7641 221.722 64.8997 221.399 64.1622C221.142 63.5729 221.406 62.6776 220.596 62.5172C219.996 62.3985 219.253 62.9558 218.809 63.2712C218.012 63.838 217.306 64.341 216.404 64.7415C214.804 65.4513 213.179 66.0682 211.431 66.1458C211.854 67.4306 212.299 68.7174 212.885 69.9384C213.447 71.1089 213.999 72.1047 214.166 73.4086C214.238 73.9666 214.238 74.5747 214.786 74.82C215.323 75.0609 216.281 74.8624 216.863 74.8728C218.194 74.8967 219.527 74.9279 220.859 74.931C221.875 74.933 222.884 75.1749 223.873 75.1609C225.102 75.1431 226.492 74.609 227.691 74.3554C229.962 73.875 233.139 73.577 234.949 72.028C233.274 71.7645 231.568 71.9438 229.922 72.3047C229.169 72.4702 227.441 73.3311 226.936 72.4691C226.334 71.4423 227.511 70.0248 228.342 69.5477C229.279 69.009 230.678 69.0672 231.339 68.0965C230.091 68.2018 228.776 68.2479 227.57 68.615C226.646 68.896 225.453 69.6969 225.087 68.3099C224.495 66.0627 226.701 64.9971 228.247 64.0855ZM96.034 83.3243C96.3473 80.3497 96.9216 77.3434 96.9725 74.3486C96.9943 73.0548 95.5324 73.2862 94.5092 72.9185C93.0218 72.3843 91.5639 71.7518 90.1036 71.1489C88.6479 70.5481 87.1842 69.9685 85.7235 69.38C84.3973 68.8459 83.1244 68.0383 81.7872 67.5636C81.0595 67.3051 81.0029 67.5574 80.5805 68.2253C80.1697 68.8749 79.7381 69.511 79.2914 70.1364C78.3531 71.4505 77.3485 72.7152 76.3218 73.9607C79.4112 75.8206 82.636 77.5395 85.8238 79.2251C89.077 80.9455 92.6157 81.987 96.034 83.3243ZM162.028 72.0397C163.662 72.0436 165.254 71.8085 166.881 71.7586C168.489 71.7094 170.044 71.7799 171.64 71.8217C173.171 71.8617 174.673 72.1724 176.201 72.2447C176.573 72.2623 176.959 72.2608 177.328 72.3021C177.7 72.3436 177.92 72.4816 178.265 72.5401C179.113 72.6838 179.938 72.4803 180.793 72.526C183.945 72.6944 187.052 73.342 190.205 73.5062C193.447 73.675 196.611 73.9266 199.838 74.3154C201.543 74.5209 203.252 74.6415 204.965 74.7618C205.316 74.7864 206.068 75.0077 206.261 74.6068C206.495 74.12 205.702 72.457 205.556 71.9417C205.366 71.272 205.21 70.5872 204.955 69.9378C204.806 69.5582 204.491 68.3191 204.189 68.0783C203.767 67.7425 203.137 68.0651 202.644 68.1363C201.646 68.2805 200.631 68.3664 199.628 68.4653C198.142 68.6121 196.656 68.9631 195.171 69.0077C193.496 69.0578 191.828 68.9859 190.154 68.9235C186.802 68.798 183.369 68.8629 180.034 68.5205C176.18 68.1246 172.309 67.9638 168.446 67.6732C167.53 67.6042 166.612 67.5869 165.695 67.5319C165.04 67.4926 163.701 67.0324 163.089 67.2458C162.466 67.4627 162.584 68.1994 162.514 68.7719C162.38 69.8644 162.206 70.9536 162.028 72.0397ZM121.9 102.355C119.575 102.713 117.293 102.853 114.942 102.92C113.905 102.95 112.875 103 111.842 103.103C110.979 103.19 110.495 103.228 110.463 104.173C110.322 108.32 110.097 112.422 109.969 116.57C109.897 118.912 109.98 121.257 109.972 123.6C109.969 124.49 109.787 125.131 110.764 125.234C111.951 125.361 113.197 125.195 114.392 125.206C115.491 125.217 116.591 125.244 117.691 125.268C118.397 125.283 119.706 125.634 119.943 124.779C120.018 124.506 119.882 124.026 119.889 123.723C119.902 123.161 119.972 122.593 120.006 122.03C120.084 120.74 120.14 119.448 120.219 118.158C120.539 112.871 121.401 107.628 121.9 102.355ZM95.2731 36.5394C96.807 37.7163 98.5516 38.526 100.191 39.5551C100.977 40.0488 101.736 40.578 102.507 41.0953C103.299 41.6276 104.219 41.95 104.968 42.5412C106.417 43.6855 108.209 44.4147 109.801 45.4077C111.418 46.4167 113.03 47.4274 114.684 48.3755C115.416 48.795 116.216 49.0471 116.967 49.4256C117.866 49.8794 118.683 50.4739 119.595 50.9075C121.547 51.836 123.497 52.7657 125.441 53.7122C129.257 55.5699 133.169 57.2864 137.065 58.9698C137.895 59.3285 138.768 59.4861 139.643 59.6979C140.056 59.7979 140.58 59.8498 140.953 60.0485C141.069 60.1104 141.191 60.1192 141.283 60.2232C141.459 60.4225 141.31 60.7016 141.418 60.85C142.025 61.6805 143.709 59.3467 144.101 58.7813C144.706 57.9074 144.461 57.7659 143.527 57.4035C142.584 57.0378 141.633 56.693 140.701 56.3022C138.983 55.5825 137.227 54.7682 135.586 53.8865C133.88 52.9692 132.103 52.2118 130.414 51.2552C128.521 50.1822 126.642 49.0873 124.727 48.0524C121.495 46.3063 118.527 44.1049 115.388 42.2096C113.654 41.1632 112.025 39.918 110.348 38.7659C108.711 37.6416 107.16 36.3862 105.488 35.3357C104.569 34.758 103.613 34.2771 102.753 33.6096C102.111 33.111 101.47 32.5994 100.665 33.018C99.7955 33.4703 98.9744 34.2307 98.1297 34.756C97.1765 35.3489 96.225 35.9447 95.2731 36.5394ZM166.48 56.0003C165.982 55.7396 164.154 55.044 165.012 54.192C165.623 53.5856 167.067 54.3913 167.659 54.592C167.647 53.7535 167.648 53.1753 167.378 52.376C167.107 51.5727 167.182 50.9653 167.843 50.3565C168.145 50.0781 169.241 49.8378 169.368 49.4726C169.566 48.9051 168.583 49.0851 168.247 49.0058C166.474 48.5865 166.581 46.7274 166.537 45.3042C166.485 43.6308 166.093 42.0219 164.8 40.9342C164.216 40.443 164.005 40.4421 163.286 40.7648C163.02 40.8837 162.782 41.0749 162.489 41.1276C162.075 41.2021 161.798 40.9325 161.43 40.9507C160.859 40.9788 160.277 41.9228 159.721 42.2243C159.002 42.615 158.294 42.4983 157.583 42.7779C156.951 43.0264 156.34 43.7007 155.75 44.0594C154.947 44.5477 155.13 45.027 155.181 45.9866C155.224 46.7872 155.198 47.3124 154.411 47.6094C154.157 47.7052 153.711 47.6621 153.495 47.8162C153.176 48.0436 153.349 48.2146 153.246 48.595C152.985 49.5576 152.433 48.9702 151.728 48.8416C150.87 48.6849 149.925 49.2906 150.373 50.2117C150.533 50.5413 150.878 50.8415 151.223 50.9442C151.63 51.0653 152.139 50.7317 152.515 50.8822C153.474 51.2666 152.707 52.1769 152.753 52.7973C153.335 52.4815 153.533 51.5762 154.135 52.5797C154.569 53.305 154.396 54.4067 154.288 55.1985C154.038 57.0306 153.476 59.2749 152.285 60.7445C152.113 60.9561 151.857 61.3537 151.534 61.3036C151.266 61.262 151.234 60.9139 151.001 60.8249C150.504 60.6333 149.742 60.917 149.551 61.3779C149.229 62.1567 149.263 63.2993 149.237 64.1237C149.208 65.0725 149.096 66.1458 149.326 67.0766C149.719 68.6662 151.198 69.2196 152.637 69.5708C153.438 69.7661 154.317 69.9942 155.128 69.7195C156.014 69.4198 156.622 68.6156 157.246 67.9666C157.715 67.4787 158.625 66.9234 158.686 66.2177C158.715 65.8874 158.48 65.432 158.427 65.0938C158.342 64.5569 158.318 64.0142 158.332 63.471C158.358 62.473 158.637 61.4585 158.552 60.4605C158.465 59.4397 157.706 59.3663 157.293 58.5799C157.046 58.1107 156.989 57.3802 157.587 57.2207C157.935 57.1279 158.587 57.3921 158.964 57.4189C159.539 57.4598 160.122 57.4688 160.699 57.4745C161.761 57.4853 162.562 57.4308 163.524 56.9679C164.514 56.4919 165.399 56.195 166.48 56.0003ZM141.838 167.844C141.878 166.974 141.999 166.104 142.269 165.273C142.498 164.567 142.989 163.949 143.072 163.219C143.245 161.697 142.74 160.266 141.272 159.717C139.849 159.184 138.308 159.193 136.822 159.293C135.959 159.351 135.228 159.056 134.382 159.095C133.49 159.136 132.704 159.014 131.819 158.92C130.175 158.745 128.774 158.021 127.178 157.715C126.397 157.565 126.127 157.899 125.649 158.449C125.122 159.054 124.529 159.563 123.862 160.008C122.836 160.692 121.001 161.948 120.903 159.828C120.821 158.049 122.603 156.732 123.703 155.579C122.588 155.106 122.684 153.347 121.389 154.055C120.827 154.362 120.383 154.816 119.864 155.185C119.427 155.495 118.425 156.358 117.85 156.291C117.039 156.196 116.952 155.043 117.074 154.404C117.294 153.242 118.508 152.574 119.37 151.891C119.891 151.479 120.67 151.155 121.113 150.671C121.583 150.156 121.478 149.579 121.462 148.933C121.455 148.638 121.676 147.53 121.556 147.276C121.372 146.884 120.732 146.988 120.277 146.947C119.431 146.872 118.592 146.723 117.749 146.644C117.089 146.581 116.455 146.73 115.794 146.754C114.125 146.815 112.436 146.729 110.765 146.724C110.462 146.723 109.191 146.506 108.98 146.768C108.798 146.994 108.971 148.042 108.97 148.313C108.965 149.995 108.97 151.675 109.02 153.356C109.119 156.674 109.008 160.08 108.327 163.341C108.204 163.931 107.815 164.586 108.414 164.877C108.874 165.101 110.104 164.753 110.606 164.72C112.235 164.614 113.882 164.719 115.502 164.6C118.322 164.394 121.239 164.584 124.116 164.65C127.943 164.74 131.748 165.153 135.574 165.251C137.237 165.294 138.929 164.991 140.57 165.041C141.215 165.06 141.398 165.224 141.434 165.915C141.477 166.737 141.12 167.178 141.838 167.844ZM61.5338 50.5301C60.0638 48.0469 58.6781 45.5147 57.2097 43.0308C56.5463 41.9091 55.8014 40.8428 55.0609 39.7716C54.6816 39.2228 54.2622 38.6684 53.9722 38.064C53.7064 37.5106 53.6274 36.8744 53.3145 36.3432C52.7227 37.6517 51.4522 38.3695 50.1227 38.8378C49.0896 39.2017 48.0817 39.7228 47.0038 39.9474C44.1848 40.5355 41.3961 41.8025 38.6298 42.7212C32.7557 44.6712 26.4771 45.7422 20.8217 48.2759C22.7514 50.1862 22.1519 54.259 25.3718 54.875C26.6527 55.1203 27.9906 54.726 29.2167 54.3882C30.7648 53.9617 32.314 53.5384 33.8637 53.1164C35.5451 52.6582 37.2434 52.3026 38.9387 51.9026C39.79 51.7017 40.6468 51.5624 41.4999 51.3813C42.2106 51.2305 42.2191 51.0829 42.5915 50.4134C43.2211 49.2818 44.3892 48.1243 45.3771 49.6172C45.7793 50.2253 45.6941 50.9886 46.0467 51.5912C46.3479 52.1059 46.9918 52.3729 47.4444 52.7208C47.7586 51.8338 48.1338 50.6325 48.8279 49.9512C49.5853 49.208 50.3377 49.806 50.6103 50.6796C50.9379 51.7294 50.4551 53.007 50.2439 54.0399C50.1407 54.5447 49.9449 55.1249 50.0635 55.6427C50.2211 56.3308 50.8206 57.0402 51.1778 57.6373C54.5165 55.1489 57.9271 52.6076 61.5338 50.5301ZM126.804 92.3374C125.826 91.0122 124.793 89.8379 124.059 88.3533C123.275 86.7666 122.64 85.0576 121.804 83.5113C120.973 81.9758 120.208 80.411 119.45 78.8344C118.921 77.734 118.318 75.0921 116.802 75.1582C116.045 75.1914 115.273 75.4642 114.511 75.5389C113.618 75.6268 112.721 75.6217 111.83 75.7307C109.873 75.9701 107.969 76.398 105.995 76.5138C104.298 76.6133 102.58 76.6643 100.881 76.5905C100.418 76.5705 99.2131 76.2098 98.7841 76.4164C98.2838 76.6573 98.4509 77.5968 98.4087 78.0777C98.2491 79.8862 98.0048 81.6962 97.7299 83.4902C97.6829 83.7962 97.2101 85.3249 97.4217 85.5833C97.7479 85.982 99.1503 85.7154 99.6076 85.7508C101.412 85.8897 103.184 86.3018 104.982 86.5011C105.893 86.6022 106.806 86.6255 107.722 86.6288C108.613 86.6319 109.912 86.3862 110.757 86.6912C111.3 86.8875 111.608 87.349 111.432 87.9369C111.239 88.585 110.611 88.7298 110.028 88.8511C109.6 88.9399 108.36 88.8905 108.091 89.2834C107.8 89.7089 108.31 90.5106 108.454 90.9141C108.73 91.6877 108.573 92.0198 108.553 92.7763C108.531 93.5725 108.992 94.2731 108.931 95.0784C108.871 95.8654 108.838 96.4937 108.915 97.2961C108.982 98.0011 108.935 98.7732 109.034 99.458C109.263 101.043 112.69 100.084 113.753 100.06C115.951 100.011 118.158 100.367 120.348 100.261C120.992 100.231 122.486 100.347 122.94 99.8004C123.401 99.2464 123.474 97.982 123.771 97.2963C124.546 95.5047 125.702 93.9342 126.804 92.3374ZM146.376 57.0637C146.216 58.9026 146.127 60.3188 145.025 61.8662C143.85 63.5184 142.498 63.3703 140.642 63.5521C138.975 63.7151 137.668 64.2657 136.33 65.2507C134.756 66.4091 133.058 67.3711 131.381 68.3682C128.191 70.265 124.385 70.7896 120.762 71.3533C119.851 71.4953 118.169 71.903 119.241 72.9827C120.393 74.1435 121.039 75.8565 121.813 77.3087C123.588 80.6385 124.949 84.2153 126.974 87.4044C127.792 88.6927 128.77 90.2474 130.026 91.157C131.218 92.0203 133.61 90.417 134.823 89.8867C136.4 89.1975 138.055 88.6744 139.54 87.8239C140.926 87.0305 142.336 86.3462 143.793 85.693C145.223 85.0515 146.608 84.4131 148.106 83.945C149.868 83.394 151.73 83.1986 153.521 82.7186C155.357 82.2265 156.807 81.7048 158.291 80.4875C158.981 79.922 159.821 79.3563 160.099 78.4625C160.383 77.548 160.174 76.3817 160.131 75.4442C160.086 74.464 159.933 73.4603 159.953 72.4799C159.974 71.4916 160.458 70.716 160.751 69.7976C161.213 68.3484 161.738 65.721 160.276 64.745C160.172 66.2933 159.626 67.6825 159.115 69.1347C158.623 70.5336 157.814 71.3891 156.605 72.2047C156.145 72.515 155.647 72.9471 155.102 73.088C154.525 73.2376 153.717 73.1609 153.116 73.1673C151.766 73.1816 150.302 72.8278 149.262 71.9175C147.157 70.0745 146.697 66.7713 146.901 64.1512C147.018 62.6442 147.266 61.126 147.957 59.7663C148.194 59.2988 148.667 58.7999 148.403 58.2525C148.127 57.6793 146.892 57.3323 146.376 57.0637ZM104.834 89.1727C102.35 88.8485 99.7643 88.5846 97.3523 87.8837C96.4744 87.6285 95.4158 87.3057 95.4066 86.2532C95.4035 85.9302 95.6455 85.3467 95.5063 85.0427C95.3636 84.7315 94.4743 84.7104 94.0629 84.6287C89.2786 83.6799 84.8348 81.8252 80.564 79.5029C76.2445 77.1538 72.2545 74.382 68.1786 71.6445C64.202 68.9738 60.8981 65.7122 57.5926 62.2822C57.1335 61.8058 56.6624 61.3414 56.1882 60.8799C55.8422 60.5429 55.3617 59.8568 54.9068 59.674C54.0893 59.3452 52.9464 60.5904 52.2234 60.9612C51.2832 61.4434 50.1616 61.5163 49.541 60.5001C49.1311 59.8287 49.5122 59.7061 49.5708 59.0744C49.6191 58.5551 49.2637 58.2606 48.9511 57.8991C48.71 58.4683 48.3893 59.5096 47.5687 59.3801C46.8311 59.2641 46.7501 58.2474 46.6976 57.6677C46.6363 56.9919 46.8469 56.1334 46.3896 55.5864C46.0298 55.1561 45.3268 54.8416 44.8662 55.2315C43.9398 56.0156 44.5407 58.3512 43.2331 58.9333C41.3895 59.754 41.5693 56.0093 41.5302 55.2607C37.4028 55.7172 33.5234 57.52 29.3914 58.1101C27.7098 58.3503 25.7674 58.2714 24.2998 57.3114C22.9503 56.429 21.5488 54.4873 20.9719 52.9973C19.5877 54.0232 18.1406 54.8097 16.3632 54.3522C14.5565 53.8867 12.9671 52.8843 12.3032 51.0683C11.6367 49.2456 11.8294 47.8575 13.4933 46.8287C14.1741 46.4076 14.7124 46.2015 15.4616 45.9982C16.2912 45.7732 17.3421 45.6101 18.1254 45.2536C17.3178 44.0737 16.399 42.9177 16.032 41.5076C15.6179 39.9173 15.8245 38.1282 16.4666 36.6245C17.6273 33.9068 20.89 32.0884 23.8289 32.7095C26.3937 33.2514 28.2086 35.4718 28.937 37.9003C29.268 39.0044 28.9774 39.6872 30.3279 39.0899C31.8616 38.4115 33.2038 37.4132 34.7879 36.8146C36.1622 36.295 37.661 35.8586 38.9343 35.1127C39.5933 34.7267 39.5623 34.6936 39.2936 33.9852C38.9599 33.1055 38.7538 32.2864 38.8282 31.3304C39.041 28.5931 41.3065 26.6528 43.731 25.7521C46.4796 24.7311 49.8878 25.1344 51.9475 27.3409C52.9481 28.4129 53.6311 29.8219 53.7185 31.297C53.7575 31.9508 53.3677 32.9448 53.585 33.5477C53.7742 34.0723 54.6697 34.4745 55.0152 34.976C55.5632 35.772 55.8172 36.7247 56.361 37.5343C56.8325 38.2354 57.3102 38.9308 57.7634 39.6444C58.8641 41.3768 59.8959 43.1519 60.7955 44.9978C61.2072 45.8422 61.5935 46.6986 61.9707 47.559C62.2297 48.1491 62.4433 49.2271 62.9092 49.6972C63.3797 50.1723 64.0811 50.0203 64.485 50.6218C64.9939 51.3791 64.5105 52.0488 64.1072 52.7085C67.1736 53.6067 69.0565 56.2031 71.5103 58.1059C73.9875 60.0263 76.7064 61.6895 79.3693 63.3362C82.1411 65.0505 84.8625 66.6843 87.8802 67.9299C90.6921 69.0908 93.4102 70.4591 96.2145 71.6344C96.6075 71.7992 96.9137 72.0177 97.3025 71.7619C97.6621 71.525 97.7343 70.7613 98.1102 70.4518C99.0623 69.6677 101.302 70.1028 102.435 70.085C104.07 70.0595 105.727 69.9672 107.361 70.0516C107.913 70.08 108.448 70.3004 108.989 70.2274C109.819 70.1158 110.595 69.9461 111.458 69.9112C112.178 69.8819 112.895 69.8288 113.616 69.8545C113.957 69.8668 114.535 70.0134 114.841 69.7808C115.223 69.4914 114.993 68.7965 115.254 68.3752C115.423 68.1022 115.757 68.0275 115.921 67.8121C115.9 67.8396 116.182 67.3535 116.104 67.4152C116.607 67.0181 118.015 66.8979 118.61 67.0394C118.782 67.0803 118.81 67.3695 119.026 67.3702C119.242 67.3708 119.258 67.1533 119.411 67.1012C119.568 67.0469 119.611 66.8282 119.822 66.795C120.055 66.7581 120.355 67.0207 120.607 67.0355C120.892 67.0517 121.164 66.8629 121.429 66.7893C121.781 66.6917 122.053 66.7634 122.346 66.7287C122.881 66.6651 123.456 66.6049 124.012 66.5399C124.82 66.4454 125.607 66.1931 126.396 66.0012C126.742 65.917 127.087 65.819 127.444 65.792C127.855 65.7606 128.391 65.9544 128.779 65.8628C129.112 65.7845 128.841 65.6658 129.129 65.5661C129.44 65.4582 129.777 65.4285 130.093 65.3193C130.818 65.0683 131.487 64.6511 132.138 64.2536C133.656 63.3272 135.014 62.173 136.514 61.2218C136.171 60.7234 134.896 60.639 134.357 60.4627C133.614 60.2201 132.886 59.9359 132.16 59.6494C130.509 58.9975 128.87 58.3142 127.232 57.6316C124.124 56.3369 120.999 55.0878 118.029 53.4993C115.239 52.0072 112.259 50.8444 109.492 49.299C108.085 48.5128 106.676 47.6852 105.308 46.8325C104.033 46.0382 102.661 45.4965 101.341 44.7701C98.7613 43.3511 96.3921 41.5856 93.8027 40.1967C93.1911 39.8688 92.5121 39.1743 91.8522 38.9958C91.2849 38.8424 90.7095 39.1589 90.1969 39.3809C89.6537 39.616 89.1442 40.0019 88.5348 40.0151C87.8637 40.0296 87.0955 39.6681 86.4624 39.449C85.2857 39.042 84.2636 37.9137 83.8357 36.7388C83.6267 36.1643 83.5299 35.5261 83.4526 34.9217C83.3611 34.2055 83.603 33.3633 83.4285 32.682C83.0965 31.3862 81.5633 30.1696 80.706 29.2401C79.6415 28.0861 78.7188 26.7945 77.8785 25.4706C75.9999 22.5109 74.6966 19.0003 75.7437 15.5167C75.9033 14.9857 76.1878 14.1084 76.6579 13.755C77.3101 13.264 77.5893 13.837 78.1535 14.1216C78.8543 14.4752 79.519 14.6811 80.1761 15.1615C80.9723 15.7437 81.6274 16.4538 82.3615 17.105C82.3653 15.6013 82.1312 14.2831 82.4557 12.7772C82.6223 12.0043 82.9951 10.3964 83.9784 10.2586C84.9986 10.1156 85.7298 11.9643 86.1737 12.6388C86.9992 13.8921 87.9214 15.0681 88.8397 16.2534C88.9589 14.4145 88.7148 10.043 91.0267 9.31977C93.098 8.67144 94.1689 14.2539 94.6705 15.5031C95.1386 16.6685 95.7956 17.8199 96.5067 18.8552C97.2516 19.94 98.0636 19.3873 99.2179 19.4383C100.285 19.4856 100.765 20.2238 100.753 21.2703C100.738 22.5944 99.686 23.5617 98.958 24.5608C100.534 25.3225 102.574 26.3132 103.515 27.8817C103.724 28.2292 103.867 28.6281 103.88 29.0382C103.892 29.4436 103.522 30.186 103.714 30.5607C103.855 30.8348 104.33 30.9341 104.583 31.0834C105.106 31.3921 105.571 31.7915 106.088 32.1115C109.476 34.209 112.661 36.7153 115.93 38.9299C118.882 40.9294 122.008 42.7106 124.993 44.709C128.789 47.25 132.781 49.4119 136.844 51.5009C137.781 51.9828 138.65 52.518 139.55 53.0575C140.473 53.6109 141.574 53.9847 142.56 54.4328C143.25 54.7467 144.003 55.344 144.728 55.5396C145.59 55.7724 145.953 54.8577 146.957 55.0948C147.824 55.2994 148.769 55.39 149.29 56.1701C149.746 56.8543 149.704 57.9008 150.439 58.343C151.291 58.8555 151.53 58.3061 151.727 57.5943C151.951 56.7844 152.584 55.8583 151.807 55.2752C151.073 54.7245 150.034 54.6638 149.176 54.4601C148.741 54.357 148.164 53.9806 147.749 53.9465C147.232 53.9039 147.111 54.386 146.671 54.3867C146.437 54.3869 146.231 54.1608 146.009 54.0889C145.958 54.0726 145.826 54.257 145.766 54.2401C145.548 54.179 145.531 54.1063 145.318 54.019C144.561 53.708 143.56 53.2177 143.788 52.2725C143.911 51.7655 144.741 50.9499 144.161 50.4849C143.617 50.0475 142.885 50.9593 142.585 50.0469C142.372 49.3987 142.892 49.2249 142.23 48.6915C141.744 48.2992 141.296 48.1926 141.565 47.4733C141.738 47.01 142.639 46.3057 142.381 45.747C142.015 44.9565 140.625 45.7558 140.759 44.3275C140.854 43.3045 142.141 42.566 142.149 41.5595C142.155 40.8391 141.472 40.8441 141.295 40.376C141.119 39.9134 141.279 39.9151 141.536 39.5903C141.726 39.349 141.849 39.2688 141.991 38.9844C142.164 38.6387 142.463 38.191 142.35 37.7888C142.25 37.4273 141.826 37.2124 141.72 36.8119C141.319 35.3032 144.506 31.8756 145.317 33.9527C145.92 33.2554 146.711 31.7954 147.776 31.9123C148.42 31.9831 148.144 32.1668 148.368 32.5389C148.53 32.809 148.98 32.9462 149.108 33.2382C149.36 32.4541 149.093 31.001 149.794 30.4256C150.479 29.8647 150.908 30.8515 151.199 31.4005C151.387 30.8825 151.507 29.9104 152.152 29.7245C152.843 29.5261 153.275 30.3904 153.611 30.8306C153.974 30.3155 154.653 28.7973 155.436 28.9823C156.023 29.121 156.314 30.1014 156.588 30.5539C157.231 30.132 158.243 29.1157 159.075 29.2232C159.885 29.3276 159.814 30.0871 160.761 29.7764C161.448 29.5509 162.163 28.952 162.892 28.9072C163.661 28.8599 164.067 29.3988 164.921 29.268C165.827 29.1294 165.966 28.9184 166.556 29.6584C166.848 30.0236 166.771 30.1838 167.277 30.2603C167.705 30.3252 168.08 30.0423 168.529 30.2205C168.86 30.3522 169.092 30.6596 169.231 30.9757C169.395 31.3489 169.205 31.9956 169.369 32.2893C169.684 32.8541 170.876 32.3556 171.411 32.7479C172.133 33.2774 171.453 34.0811 171.837 34.6676C172.146 35.1386 173.015 35.0186 173.361 35.6542C173.674 36.2298 173.601 36.9906 173.237 37.524C173.084 37.7482 172.655 37.9339 172.554 38.1367C172.347 38.5552 172.521 38.5064 172.641 38.9341C172.872 39.7521 172.688 40.0606 172.057 40.6202C171.693 40.9439 171.616 40.8509 171.592 41.3428C171.573 41.7223 171.896 42.0742 171.836 42.499C171.739 43.1891 171.06 43.6227 170.856 44.3011C170.593 45.1743 169.873 45.6521 169.331 46.3707C169.972 46.7573 170.814 47.0777 171.125 47.8034C171.465 48.595 171.402 49.7218 171.161 50.5249C170.93 51.2945 170.436 51.7857 169.961 52.3964C169.383 53.1401 169.433 53.7298 169.397 54.6374C169.321 56.5563 168.498 58.2989 166.616 58.9083C165.869 59.15 165.195 59.5056 164.438 59.7311C163.511 60.0069 162.834 60.0293 161.873 59.9748C161.272 59.941 160.568 59.8113 160.36 60.4478C160.255 60.766 160.293 62.0047 160.436 62.2873C160.68 62.7712 161.372 62.707 161.788 63.1255C162.54 63.8802 162.328 64.5235 163.596 64.541C167.706 64.5984 171.803 64.2811 175.913 64.5786C177.94 64.7254 179.923 65.0757 181.958 65.1788C184.198 65.292 186.443 65.3298 188.681 65.4658C190.793 65.5942 192.86 65.8709 194.984 65.7614C196.967 65.6592 198.872 65.5232 200.847 65.3041C201.523 65.2291 202.569 65.3368 203.047 64.8202C203.311 64.5338 203.373 64.0426 203.637 63.7272C203.881 63.436 204.211 63.2253 204.511 62.998C205.237 62.4471 205.921 61.9515 206.879 61.9697C207.718 61.9858 208.387 62.5919 209.071 63.0376C209.865 63.5551 210.194 63.7929 211.135 63.5923C212.073 63.3925 212.933 63.022 213.848 62.7495C215.779 62.1748 217.588 61.348 219.347 60.3676C220.213 59.8845 220.824 59.5599 221.821 59.8507C222.844 60.1487 223.135 60.4421 223.147 61.5042C223.151 61.8414 223.023 62.4407 223.41 62.6354C223.691 62.7767 224.311 62.3824 224.549 62.2787C225.605 61.8209 226.641 61.344 227.744 61.0097C228.75 60.7045 229.77 60.4337 230.78 60.1423C231.626 59.8983 232.753 59.5452 233.596 59.9992C235.724 61.146 232.593 64.06 231.779 65.0294C232.793 64.7863 234.97 64.925 235.504 66.0135C236.135 67.3018 234.87 68.5794 234.155 69.5158C235.156 69.9714 237.175 69.5795 237.457 71.014C237.694 72.2181 236.441 73.431 235.625 74.1354C233.512 75.9586 230.235 77.2353 227.444 77.2593C226.736 77.2654 226.046 77.1274 225.341 77.0938C224.826 77.0694 224.361 77.2476 223.86 77.2483C223.154 77.2492 222.529 77.1105 221.801 77.21C220.961 77.3247 220.129 77.4656 219.286 77.5606C218.504 77.6485 217.722 77.7287 216.937 77.7898C216.42 77.8304 215.64 77.7162 215.16 77.8898C214.538 78.1144 214.72 78.339 214.669 78.937C214.607 79.6713 214.235 80.335 213.694 80.8246C211.729 82.6035 208.382 82.1764 207.394 79.5653C207.154 78.9302 207.473 78.5983 207.382 78.0258C207.291 77.4498 206.755 77.4694 206.23 77.4305C204.633 77.3122 203.016 77.3012 201.412 77.1907C198.307 76.9769 195.109 76.5413 192.006 76.6153C188.767 76.6925 185.508 76.4975 182.273 76.3217C180.763 76.2397 179.199 75.7103 177.714 75.8246C176.135 75.9457 174.459 75.6057 172.873 75.4409C169.326 75.0721 165.367 74.9653 162.09 73.4917C162.349 77.0445 162.779 80.6514 159.896 83.3012C158.688 84.4115 157.171 85.6833 155.587 86.1567C153.545 86.7668 151.588 87.2727 149.51 87.7255C145.647 88.5674 141.808 90.5823 138.323 92.3923C136.683 93.2437 134.76 93.5756 132.982 94.0527C132.136 94.2802 131.182 94.5799 130.294 94.5483C129.419 94.5171 128.812 93.9226 128.04 93.5677C127.301 95.3083 126.304 96.9018 125.56 98.6198C125.191 99.4721 124.901 100.378 124.471 101.203C124.143 101.831 123.613 102.169 123.563 102.897C123.441 104.666 123.765 106.511 123.678 108.3C123.584 110.251 123.28 112.23 123.102 114.184C122.715 118.405 122.896 122.655 122.582 126.881C122.296 130.742 122.475 134.574 122.046 138.439C121.927 139.511 121.796 140.583 121.71 141.659C121.653 142.365 121.263 143.991 121.631 144.624C121.792 144.901 122.178 144.93 122.437 145.069C122.84 145.286 123.208 145.617 123.509 145.961C124.146 146.689 124.298 147.555 124.443 148.481C125.267 148.038 128.722 145.763 128.205 148.255C128.044 149.028 127.343 149.444 126.79 149.937C126.385 150.298 125.998 150.682 125.567 151.013C125.276 151.236 124.66 151.513 124.519 151.878C124.269 152.53 125.564 153.461 126.175 153.454C127.033 153.444 128.105 152.155 128.833 151.745C130.764 150.654 130.589 153.009 129.861 154.033C129.312 154.805 129.776 154.746 130.532 154.903C131.713 155.148 132.803 155.357 134.004 155.507C136.298 155.793 138.555 155.423 140.832 155.953C143.099 156.481 144.446 157.895 144.776 160.227C144.951 161.459 145.115 160.841 146.149 161.13C147.105 161.397 147.644 162.489 148.194 163.23C149.292 164.708 151.344 168.432 149.663 170.174C148.949 170.914 147.215 170.726 146.276 170.853C145.671 170.934 144.943 171.216 144.333 171.07C143.753 170.931 143.367 170.412 142.949 170.032C142.944 172.371 142.929 174.403 141.076 176.092C139.58 177.455 137.58 178.081 135.574 177.943C133.609 177.808 131.59 177.008 130.345 175.428C129.688 174.595 129.22 173.572 129.05 172.521C128.972 172.038 128.949 171.529 129.025 171.042C129.07 170.754 129.345 170.23 129.171 169.951C128.865 169.462 127.366 169.868 126.872 169.918C125.566 170.05 124.264 170.215 122.963 170.389C121.888 170.533 120.791 170.686 119.712 170.482C118.784 170.307 118.43 170.207 118.597 171.304C118.932 173.512 118.374 175.47 116.558 176.827C114.742 178.185 113.065 178.454 110.843 178.097C108.814 177.77 106.957 175.853 106.366 173.946C105.579 171.409 106.39 169.097 108.285 167.364C107.136 166.781 106.373 166.438 105.968 165.092C105.544 163.686 105.94 162.207 106.141 160.797C106.571 157.769 106.403 154.822 106.551 151.784C106.616 150.444 106.893 149.079 106.898 147.743C106.9 146.98 106.858 147.008 106.073 147.002C105.587 146.998 105.071 147.032 104.866 146.465C104.371 145.097 106.692 145.212 107.276 144.667C107.972 144.018 107.491 141.456 107.471 140.555C107.405 137.626 107.694 134.766 107.751 131.845C107.777 130.526 107.857 129.139 107.748 127.824C107.704 127.299 107.404 126.875 107.424 126.353C107.45 125.685 107.579 125.06 107.544 124.364C107.241 118.244 107.175 112.011 107.96 105.931C108.007 105.567 108.264 104.747 108.127 104.381C107.918 103.828 107.256 104.024 106.794 103.821C105.5 103.254 105.18 102.354 105.109 101.035C105.068 100.254 105.026 99.4723 104.985 98.6908C104.965 98.2895 104.944 97.888 104.922 97.4864C104.897 97.0212 105.088 96.4979 105.077 96.1071C105.074 95.9816 105.02 95.7942 105.019 95.7201C104.869 95.6465 104.811 95.5384 104.843 95.3955C104.836 95.2612 104.858 95.1302 104.908 95.003C104.915 95.079 104.818 94.572 104.809 94.6169C104.823 94.5474 105.076 94.1362 105.051 94.0863C104.932 93.8536 104.681 94.1364 104.597 93.7026C104.527 93.3384 104.764 92.9101 104.685 92.4838C104.472 91.3456 104.673 90.3245 104.834 89.1727Z" fill="#282624"/>
<path d="M96.6066 23.3553C92.7836 21.8448 92.4936 16.7303 91.1567 13.4702C90.7426 15.702 91.841 19.3291 89.9866 21.0818C88.8461 22.1595 88.1853 20.6385 87.573 19.8106C86.6404 18.55 85.6394 17.3447 84.7492 16.0521C85.0225 17.6116 85.8058 19.3618 85.6594 20.9477C85.5443 22.1927 84.7485 23.8981 83.5903 22.4863C82.7949 21.5167 81.7767 20.6097 80.8492 19.7497C79.7342 18.7159 78.462 18.048 77.2499 17.1663C77.7193 19.4985 78.6139 21.5688 79.9329 23.5425C80.6095 24.5553 81.3502 25.528 81.9888 26.5657C82.5108 27.4141 82.7571 28.4692 83.4489 29.1898C84.0952 29.863 85.0453 30.4005 85.819 30.9177C86.9013 31.6409 87.1753 31.4516 88.1451 30.7813L88.198 30.7447C90.1591 29.3905 92.2884 28.3061 94.2622 26.969C93.8969 26.486 93.3134 26.0088 93.3325 25.3513C93.3478 24.819 93.7553 24.3344 94.3006 24.3981C94.7278 24.448 94.9254 24.8957 95.4009 24.7447C95.8029 24.6168 96.3524 23.657 96.6066 23.3553Z" fill="white"/>
<path d="M22.9986 35.9564C21.7424 36.1005 20.8887 36.2245 19.8881 37.0396C19.0578 37.7163 18.3737 38.3998 18.0354 39.4435C17.2532 41.8557 19.1864 43.9269 21.6698 43.646C21.9435 43.615 22.2109 43.5137 22.4889 43.5416C22.7442 43.5673 22.9227 43.7506 23.1385 43.7873C23.6471 43.8737 23.7457 43.7844 24.163 43.3886C25.0144 42.581 25.8688 41.6935 26.3403 40.6037C27.476 37.9789 25.7682 36.0034 22.9986 35.9564Z" fill="white"/>
<path d="M19.4856 50.1519C19.312 49.7541 19.2406 49.1227 18.8418 48.8737C18.4723 48.6427 17.698 48.8113 17.271 48.8054C16.363 48.793 14.3916 48.8282 13.7984 49.6548C13.0773 50.6596 15.1988 51.376 15.9064 51.3569C17.1358 51.3235 18.2543 50.3791 19.4856 50.1519Z" fill="white"/>
<path d="M61.5338 50.5301C60.0638 48.0469 58.6781 45.5147 57.2097 43.0308C56.5463 41.9091 55.8014 40.8428 55.0609 39.7716C54.6816 39.2228 54.2622 38.6684 53.9722 38.064C53.7064 37.5106 53.6274 36.8744 53.3145 36.3432C52.7227 37.6517 51.4522 38.3695 50.1227 38.8378C49.0896 39.2017 48.0817 39.7228 47.0038 39.9474C44.1848 40.5355 41.3961 41.8025 38.6298 42.7212C32.7557 44.6712 26.4771 45.7422 20.8217 48.2759C22.7514 50.1862 22.1519 54.259 25.3718 54.875C26.6527 55.1203 27.9906 54.726 29.2167 54.3882C30.7648 53.9617 32.314 53.5384 33.8637 53.1164C35.5451 52.6582 37.2434 52.3026 38.9387 51.9026C39.79 51.7017 40.6468 51.5624 41.4999 51.3813C42.2106 51.2305 42.2191 51.0829 42.5915 50.4134C43.2211 49.2818 44.3892 48.1243 45.3771 49.6172C45.7793 50.2253 45.6941 50.9886 46.0467 51.5912C46.3479 52.1059 46.9918 52.3729 47.4444 52.7208C47.7586 51.8338 48.1338 50.6325 48.8279 49.9512C49.5853 49.208 50.3377 49.806 50.6103 50.6796C50.9379 51.7294 50.4551 53.007 50.2439 54.0399C50.1407 54.5447 49.9449 55.1249 50.0635 55.6427C50.2211 56.3308 50.8206 57.0402 51.1778 57.6373C54.5165 55.1489 57.9271 52.6076 61.5338 50.5301Z" fill="white"/>
<path fill-rule="evenodd" clip-rule="evenodd" d="M41.8516 107.043C56.2275 107.076 70.6371 107.431 84.9767 107.855C86.5569 107.902 88.1422 108.036 89.7233 108.103C89.9982 108.115 90.9029 108 91.1068 108.295C91.4383 108.775 90.6791 109.264 90.3214 109.483C89.0905 110.236 87.4613 110.105 86.0664 110.152C84.1419 110.217 82.2162 110.225 80.2908 110.198C73.6007 110.105 66.9078 109.597 60.2321 109.201C56.1198 108.958 51.9948 108.809 47.8768 108.687C45.8441 108.628 43.8098 108.594 41.7773 108.527C41.2285 108.509 40.2285 108.681 40.2285 107.959C40.2285 107.208 41.3252 107.084 41.8516 107.043Z" fill="#282624"/>
<path fill-rule="evenodd" clip-rule="evenodd" d="M59.0439 115.128C69.2165 115.566 79.3962 115.866 89.5696 116.272C90.2292 116.299 91.6331 116.104 91.8807 116.914C92.1384 117.755 91.0658 118.599 90.356 118.817C89.4343 119.101 88.2608 118.942 87.2988 118.969C86.0043 119.006 84.7743 118.994 83.4842 118.907C78.5682 118.574 73.6606 118.142 68.7435 117.808C65.96 117.619 63.1783 117.396 60.3989 117.156C59.6577 117.092 57.4564 117.291 56.9373 116.686C56.6175 116.314 56.9564 115.739 57.2725 115.452C57.793 114.98 58.3914 115.087 59.0439 115.128Z" fill="#282624"/>
<path fill-rule="evenodd" clip-rule="evenodd" d="M89.062 126.248C85.7562 126.426 82.4137 126.164 79.1641 125.618C78.7214 125.544 77.698 125.535 77.4151 125.124C76.9829 124.496 77.795 123.949 78.3413 123.893C79.8548 123.739 81.6545 124.267 83.1819 124.361C84.7795 124.458 86.399 124.288 88.0006 124.275C88.916 124.268 89.8315 124.261 90.7471 124.258C91.2842 124.257 92.0563 124.121 92.5866 124.243C94.0705 124.584 92.1834 125.833 91.5226 125.977C91.2932 126.027 89.0697 126.357 89.062 126.248Z" fill="#282624"/>
<path fill-rule="evenodd" clip-rule="evenodd" d="M161.2 46.9454C161.222 46.5575 161.121 45.5771 161.601 45.3933C162.537 45.0349 162.476 47.333 162.84 47.6565C164.179 48.8427 163.819 44.2723 165.095 45.7463C166.131 46.9441 165.299 49.83 163.84 50.3683C162.766 50.7648 162.035 50.0017 161.617 49.1182C161.607 49.0977 161.027 46.9361 161.2 46.9454Z" fill="#282624"/>
<path fill-rule="evenodd" clip-rule="evenodd" d="M162.411 41.712C163.058 41.5889 163.899 42.2602 163.503 42.9103C163.214 43.3857 161.252 44.1228 160.721 44.1352C160.069 44.1507 160.124 43.6318 160.332 43.1035C160.658 42.2768 161.528 41.7025 162.411 41.712Z" fill="#282624"/>
<path fill-rule="evenodd" clip-rule="evenodd" d="M44.6191 31.2972C44.8177 30.4702 45.1108 29.4904 46.0896 30.2875C46.747 30.8232 47.2277 32.1439 47.2937 32.97C47.3726 33.9592 46.8296 34.4623 45.9519 33.9074C45.0613 33.3444 44.7215 32.3063 44.6191 31.2972Z" fill="#282624"/>
<path fill-rule="evenodd" clip-rule="evenodd" d="M23.4054 41.6992C23.087 43.9105 21.1255 41.8525 21.2138 40.5034C21.2597 39.8013 21.6618 39.2259 22.4254 39.647C23.1091 40.0243 23.3471 41.0161 23.4054 41.6992Z" fill="#282624"/>
<path fill-rule="evenodd" clip-rule="evenodd" d="M135.08 170.949C135.226 170.4 135.258 169.27 135.893 169.029C136.833 168.673 137.24 170.234 137.271 170.862C137.305 171.544 137.067 172.991 136.092 172.871C135.293 172.772 135.24 171.545 135.08 170.949Z" fill="#282624"/>
<path fill-rule="evenodd" clip-rule="evenodd" d="M111.428 171.824C111.607 171.152 111.642 169.938 112.45 169.734C113.339 169.51 113.611 170.722 113.622 171.408C113.632 172.048 113.274 173.706 112.368 173.604C111.67 173.525 111.577 172.367 111.428 171.824Z" fill="#282624"/>
<path d="M227.198 37.7012C217.491 40.8065 211.425 51.4509 215.244 60.9004C219.259 70.8365 228.225 71.2256 237.708 66.2342C242.599 63.6602 249.537 62.8034 251.138 57.514C254.655 45.899 238.757 34.0036 227.198 37.7012Z" fill="white" stroke="#282624" stroke-width="2.67918"/>
<path d="M233.696 49.9339C231.455 49.852 225.754 50.4966 220.869 53.7312" stroke="#282624" stroke-width="2.15134" stroke-linecap="round"/>
<path d="M237.678 48.473C238.518 47.2616 241.09 44.872 244.664 45.0045" stroke="#282624" stroke-width="2.15134" stroke-linecap="round"/>
</svg>
