<svg width="542" height="321" viewBox="0 0 542 321" fill="none" xmlns="http://www.w3.org/2000/svg">
<g clip-path="url(#clip0_16_449)">
<path fill-rule="evenodd" clip-rule="evenodd" d="M444.603 231.728C434.858 244.091 418.289 246.044 403.573 245.923C394.737 245.85 385.883 245.184 377.22 243.384C372.55 242.413 367.911 241.126 363.398 239.581C360.417 238.56 355.98 238.05 354.711 234.856C351.365 226.429 353.827 215.861 355.205 207.308C355.906 202.957 356.432 198.581 357.114 194.226C357.55 191.441 357.758 188.358 358.926 185.752C360.293 182.699 362.02 183.309 364.911 184.152C368.894 185.315 372.984 185.799 377.079 186.424C387.074 187.95 395.794 191.028 404.878 195.39C413.86 199.703 422.572 203.96 430.584 209.958C434.643 212.997 438.14 216.296 441.399 220.169C443.916 223.162 447.673 227.834 444.603 231.728ZM402.003 286.638C401.924 287.969 386.651 283.95 384.641 283.5C371.453 280.542 358.003 277.173 345.553 271.828C333.932 266.84 323.692 261.133 314.548 252.27C310.285 248.139 306.451 243.788 302.782 239.155C300.943 236.833 298.431 237.102 296.381 235.138C294.536 233.37 293.122 231.989 293.698 229.345C298.307 230.56 306.817 238.193 311.595 234.339C314.318 232.142 310.541 229.846 308.798 228.573C305.52 226.179 302.717 223.225 300.111 220.125C304.585 220.993 308.749 222.668 312.643 225.001C314.373 226.037 320.302 229.794 321.682 226.212C322.532 224.007 318.511 221.237 317.258 220.017C314.18 217.022 310.857 213.525 309.223 209.499C313.263 208.561 317.072 211.684 319.823 214.227C322.877 217.051 326.621 220.015 329.182 223.269C330.504 224.947 330.791 226.929 331.823 228.739C332.984 230.775 334.842 232.521 336.618 234.028C340.038 236.932 344.039 239.069 348.146 240.838C357.53 244.878 367.588 247.737 377.59 249.743C382.498 250.727 387.284 251.18 392.265 251.347C396.136 251.477 397.848 252.635 399.326 256.201C403.326 265.852 402.6 276.469 402.003 286.638ZM291.6 258.715C289.48 259.374 287.196 252.73 289.23 251.669C291.169 250.658 293.52 258.119 291.6 258.715ZM258.302 250.771C257.567 253.281 257.257 256.129 255.462 258.171C253.818 256.221 253.656 252.621 255.25 250.616C256.16 249.472 259.105 248.029 258.302 250.771ZM326.146 206.798C326.134 206.861 328.697 208.087 327.446 209.427C325.738 211.258 325.973 207.695 326.146 206.798ZM336.737 186.343C336.708 188.881 331.336 188.268 331.374 185.716C331.421 182.575 336.768 183.653 336.737 186.343ZM330.324 165.135C330.856 162.811 340.2 159.579 339.946 163.628C339.818 165.659 329.197 170.074 330.324 165.135ZM234.531 243.926C233.484 245.186 231.996 245.682 230.741 246.649C229.424 247.662 228.483 248.976 227.333 250.165C224.175 253.43 220.373 256.113 216.967 259.112C210.703 264.626 204.703 270.553 197.759 275.229C185.348 283.585 170.957 288.155 156.671 292.156C155.488 292.488 152.078 293.826 150.907 292.829C149.644 291.754 150.286 287.972 150.345 286.542C150.582 280.679 151.265 274.747 151.191 268.893C151.16 266.488 150.456 263.07 151.711 260.869C153.112 258.412 157.023 257.693 159.443 256.768C166.796 253.958 173.88 249.217 180.376 244.825C188.361 239.427 196.426 233.939 204.644 228.9C212.695 223.963 221.575 220.657 230.556 217.837C230.972 218.711 226.687 221.525 226.197 221.919C223.847 223.811 221.291 225.771 219.547 228.268C218.312 230.036 217.046 234.035 220.456 234.138C222.108 234.188 224.551 232.589 226.05 232.072C228.525 231.218 231.076 230.618 233.665 230.228C231.439 232.679 223.894 237.082 225.267 241.158C226.599 245.113 234.303 240.497 236.955 240.497C236.52 241.877 235.427 242.85 234.531 243.926ZM143.517 254.966C138.584 256.701 133.527 257.687 128.435 258.807C123.581 259.875 119.095 260.68 114.124 260.055C107.26 259.192 99.6644 256.349 98.7943 248.549C97.7624 239.309 104.289 230.817 109.892 224.188C116.712 216.121 124.371 208.91 132.67 202.381C140.961 195.858 149.909 190.107 159.283 185.251C166.415 181.558 174.47 179.315 182.011 176.544C183.446 176.016 187.414 174.163 188.756 175.699C189.84 176.941 188.364 179.01 187.87 180.163C186.906 182.41 186.773 184.673 186.524 187.087C185.412 197.865 184.074 208.64 183.458 219.464C183.287 222.481 182.985 225.636 183.161 228.655C183.258 230.327 184.128 232.457 183.549 234.089C182.435 237.227 177.334 239.304 174.631 240.706C169.791 243.215 164.666 245.088 159.777 247.488C154.408 250.124 149.179 252.974 143.517 254.966ZM211.941 184.933C213.295 184.747 215.324 184.379 216.531 185.256C218.106 186.4 217.693 187.992 216.239 188.822C215.09 189.478 212.403 189.657 211.268 189.062C209.335 188.048 209.662 185.247 211.941 184.933ZM219.441 209.891C218.347 211.713 214.347 212.909 214.696 209.507C214.994 206.595 221.457 206.534 219.441 209.891ZM217.956 158.544C219.716 159.225 222.908 159.809 223.43 162.072C223.916 164.178 221.92 164.039 220.479 163.459C219.295 162.983 214.017 158.508 217.956 158.544ZM493.59 238.892C492.562 234.894 493.345 230.467 492.778 226.372C492.228 222.402 491.238 218.754 489.817 215.012C486.672 206.729 483.07 199.273 477.972 192.004C468.371 178.315 457.232 166.257 443.781 156.258C430.502 146.387 415.798 138.365 400.222 132.743C383.704 126.78 367.078 124.705 349.66 123.562C344.458 123.222 339.261 122.817 334.089 122.16C330.309 121.68 325.57 121.088 321.832 122.246C319.484 122.974 318.172 125.022 320.73 126.365C322.544 127.318 324.918 127.432 326.921 127.685C324.502 135.372 320.565 143.085 314.326 148.378C308.235 153.546 300.085 155.317 292.398 156.627C288.229 157.338 283.562 157.887 279.328 157.581C276.652 157.388 274.564 156.149 273.484 158.905C272.735 160.82 272.38 162.922 271.392 160.03C270.224 156.611 269.65 156.633 266.016 155.662C258.582 153.676 250.061 151.864 243.576 147.57C236.848 143.115 234.508 135.907 230.752 129.195C229.823 127.536 227.022 124.179 228.453 122.278C229.763 120.54 234.02 120.713 235.97 120.532C238.027 120.34 240.097 120.332 242.161 120.252C243.357 120.206 245.763 120.696 245.282 118.91C244.556 116.217 236.779 116.563 234.847 116.519C231.256 116.438 227.614 116.521 224.041 116.917C206.322 118.876 188.444 122.499 171.298 127.331C138.031 136.705 105.812 153.978 81.5345 178.863C58.2305 202.749 50.8473 242.499 65.1738 272.998C72.619 288.849 88.7767 295.36 104.44 300.619C112.701 303.393 121.449 305.562 130.231 305.039C134.446 304.788 138.445 303.653 142.555 302.798C144.347 302.425 146.387 301.83 148.228 301.98C149.622 302.094 150.961 303.373 152.269 302.694C153.197 302.211 153.6 300.826 154.734 300.236C156.095 299.528 157.746 299.272 159.216 298.915C163.304 297.922 167.261 296.312 171.256 294.992C175.387 293.627 179.286 291.869 183.25 290.091C185.251 289.193 189.883 285.543 191.187 288.212C191.782 289.43 191.529 291.779 191.673 293.056C191.927 295.29 192.225 297.519 192.551 299.744C193.269 304.641 194.129 309.518 195.01 314.39C196.6 323.179 198.648 331.593 202.074 339.86C204.809 346.462 207.21 353.944 212.289 359.196C214.506 361.488 217.532 362.52 220.712 361.799C224.329 360.98 226.13 357.694 228.325 355.037C233.157 349.191 241.133 344.712 248.499 343.099C257.519 341.125 266.304 344.013 274.914 346.467C284.02 349.064 293.291 351.538 302.23 354.66C310.559 357.569 319.553 361.865 328.586 361.491C336.463 361.165 343.821 354.754 349.502 349.867C355.208 344.959 362.343 337.772 370.547 338.35C374.621 338.637 378.334 340.603 382.302 341.402C386.659 342.279 391.294 342.403 395.724 342.73C401.223 343.136 413.526 341.702 415.561 335.087C415.862 334.105 415.864 332.084 414.568 331.692C413.376 331.331 412.767 332.724 411.637 332.661C409.34 332.531 407.544 328.525 406.282 326.973C401.187 320.711 394.199 316.041 388.482 310.384C382.027 303.997 376.515 296.258 371.651 288.625C373.85 288.054 376.223 289.003 378.351 289.454C380.937 290.002 383.457 290.664 386.005 291.365C388.814 292.139 391.663 292.67 394.513 293.26C396.64 293.699 399.463 293.831 401.382 294.898C403.058 295.83 403.994 296.83 406.074 297.1C408.19 297.375 410.362 297.143 412.488 297.129C418.236 297.09 423.973 296.983 429.695 296.375C449.912 294.228 471.343 285.676 483.5 268.705C486.807 264.089 489.47 258.975 491.154 253.548C492.467 249.312 494.733 243.341 493.59 238.892Z" fill="#282624"/>
<path fill-rule="evenodd" clip-rule="evenodd" d="M303.965 43.3533C309.279 43.4285 314.258 45.004 319.209 46.7951C323.563 48.3699 328.204 49.827 331.724 52.9705C338.056 58.6251 339.706 67.9878 340.742 75.9982C342.034 85.9939 337.733 94.3802 334.113 103.423C330.727 111.881 324.513 118.733 317.127 123.954C313.257 126.689 308.98 128.339 304.506 129.787C299.96 131.257 295.558 133.226 290.696 133.219C283.311 133.208 273.856 129.7 270.71 122.425C269.278 119.112 270.673 118.517 273.538 120.318C277.696 122.93 281.704 125.749 286.563 126.907C295.986 129.155 307.271 125.673 315.533 121.078C323.793 116.484 329.337 109.584 333.043 100.991C336.782 92.3228 338.235 83.781 336.793 74.4358C335.571 66.5163 333.14 59.2825 326.004 54.9834C310.597 45.704 289.84 46.4516 276.14 58.511C274.26 60.1642 272.403 61.7729 270.467 63.3516C269.236 64.3549 267.786 65.5588 267.966 67.2941C268.118 68.7799 271.287 74.5091 267.472 72.7494C264.379 71.3224 262.698 68.533 258.952 68.1877C254.964 67.8199 250.208 70.8831 249.015 74.7385C247.877 78.4172 249.906 83.4501 253.084 85.5602C255.052 86.8668 257.217 86.665 259.452 86.6124C260.561 86.5861 263.649 86.2257 264.383 87.3983C265.681 89.472 261.1 91.6516 259.621 92.1103C256.023 93.2265 251.771 91.9129 249.703 88.7011C247.6 85.4361 246.161 81.6572 245.871 77.7673C245.594 74.0404 246.44 70.2671 248.639 67.207C250.977 63.9526 255.745 60.304 260.018 61.4345C261.873 61.9252 263.363 63.8416 265.183 64.2057C266.333 64.4351 265.849 64.5993 266.801 63.7476C267.405 63.2074 267.976 62.2104 268.534 61.5699C271.741 57.8875 274.913 53.9575 278.838 51.0102C285.877 45.7253 295.233 43.2292 303.965 43.3533ZM284.501 116.361C285.333 114.41 286.862 117.891 287.315 118.473C288.21 119.625 290.315 120.521 290.224 122.219C290.074 125.023 286.252 124.503 284.978 123.04C283.527 121.375 283.679 118.289 284.501 116.361ZM311.653 103.086C313.714 106.299 311.202 109.767 309.572 112.611C308.013 115.33 306.565 118.404 304.751 120.96C301.739 125.204 295.186 120.613 294.991 116.251C294.842 112.912 297.207 114.365 298.726 115.612C300.288 116.897 301.028 117.217 302.667 115.814C305.962 112.99 307.442 108.269 309.72 104.695C310.172 103.986 310.991 103.56 311.653 103.086ZM317.53 104.119C318.062 105.673 316.946 109.79 320.047 109.378C321.76 109.151 322.126 106.693 323.027 105.62C326.055 102.013 325.127 108.835 324.335 110.542C322.591 114.305 317.708 116.898 315.287 112.124C314.386 110.348 314.39 108.107 314.847 106.198C315.097 105.158 316.549 101.25 317.53 104.119ZM289.881 96.7599C289.607 98.5729 287.903 102.185 289.983 103.482C291.814 104.624 295.002 102.144 296.412 101.109C297.877 100.033 301.196 96.9476 301.326 100.788C301.393 102.745 299.433 105.094 298.035 106.222C295.052 108.627 288.854 110.784 286.655 106.257C285.457 103.791 286.113 100.281 286.904 97.7957C287.546 95.7818 290.544 92.3809 289.881 96.7599ZM329.008 86.8342C330.222 88.2439 333.099 91.4024 331.535 93.4101C329.706 95.7568 326.733 91.4512 325.562 90.2529C324.506 89.1733 322.285 86.0993 323.232 84.4687C324.8 81.7705 327.942 85.5964 329.008 86.8342ZM309.927 80.7638C313.895 83.3489 308.677 85.2104 306.417 85.4418C303.682 85.7208 300.184 85.9059 297.672 84.5636C294.11 82.6609 295.297 79.7867 298.749 79.0987C302.289 78.3938 306.847 78.7572 309.927 80.7638ZM258.339 72.5341C261.257 73.102 264.59 73.8409 265.584 77.0223C266.61 80.3103 265.136 81.4015 262.155 80.6613C259.397 79.9762 255.278 79.2868 253.719 76.593C251.856 73.3746 255.633 72.0083 258.339 72.5341Z" fill="#282624"/>
<path fill-rule="evenodd" clip-rule="evenodd" d="M97.7712 143.184C96.7919 146.346 91.8353 148.444 89.3636 150.366C80.718 157.092 72.2697 164.095 64.4535 171.772C60.3967 175.756 57.326 180.575 53.8079 185.007C52.9496 186.088 51.4289 188.51 49.7454 188.283C47.8984 188.034 47.525 184.853 47.5838 183.463C47.7856 178.726 52.1125 174.15 55.1982 170.888C58.6693 167.22 62.3803 163.645 66.1703 160.305C70.343 156.628 74.8711 153.467 79.4855 150.373C84.0167 147.334 88.3612 143.824 93.0734 141.071C95.2932 139.775 98.9792 139.282 97.7712 143.184ZM399.985 113.149C403.594 113.263 407.116 114.447 410.519 115.546C418.005 117.963 425.136 121.317 432.167 124.822C444.493 130.966 456.356 138.4 467.229 146.853C469.502 148.619 471.833 150.05 474.304 151.495C475.886 152.42 478.142 153.549 478.751 155.435C480.299 160.229 472.485 155.417 471.376 154.729L469.817 153.762C446.681 139.423 423.572 125.492 397.403 117.269C396.009 116.831 395.575 115.587 396.307 114.354C397.1 113.019 398.645 113.107 399.985 113.149ZM96.7183 123.182C96.551 124.642 94.8978 124.974 93.7828 125.442C89.6222 127.19 85.3579 128.68 81.2087 130.457C73.5077 133.754 66.4355 138.539 58.3974 141.041C56.5605 141.614 56.2895 139.76 56.7812 138.499C57.329 137.091 58.9741 136.102 60.1639 135.288C63.5962 132.937 67.4889 131.246 71.3004 129.613C75.0792 127.993 78.97 126.767 82.8444 125.409C86.4452 124.146 90.6247 121.796 94.4915 121.622L94.6605 121.614C95.8912 121.552 96.9132 121.469 96.7183 123.182ZM406.554 101.008C402.874 99.9733 406.351 97.6441 408.537 97.8078C410.976 97.9905 413.334 99.1422 415.647 99.8368C422.72 101.96 429.275 104.283 435.883 107.579C436.868 108.071 441.209 110.404 438.338 111.437C436.347 112.153 431.7 109.082 429.991 108.345C422.483 105.108 414.415 103.219 406.554 101.008Z" fill="#282624"/>
<path fill-rule="evenodd" clip-rule="evenodd" d="M259.886 108.548C260.346 107.198 266.034 92.4479 263.808 92.0031C261.45 91.5315 258.297 100.089 257.613 101.636C255.087 107.346 253.591 113.473 252.419 119.599C251.602 123.864 250.885 128.233 251.171 132.594C251.39 135.944 252.774 136.452 255.055 138.505C255.055 128.327 256.602 118.181 259.886 108.548Z" fill="#282624"/>
<path d="M253.525 150.605C224.901 159.762 207.016 191.149 218.276 219.013C230.116 248.312 256.553 249.46 284.517 234.742C298.938 227.151 319.397 224.625 324.12 209.028C334.49 174.778 287.609 139.701 253.525 150.605Z" fill="white" stroke="#282624" stroke-width="6.34375"/>
<path d="M274.235 187.549C267.629 187.307 250.816 189.208 236.413 198.746" stroke="#282624" stroke-width="6.34375" stroke-linecap="round"/>
<path d="M285.977 183.243C288.452 179.671 296.037 172.625 306.576 173.015" stroke="#282624" stroke-width="6.34375" stroke-linecap="round"/>
</g>
<defs>
<clipPath id="clip0_16_449">
<rect width="541.333" height="406" fill="white"/>
</clipPath>
</defs>
</svg>
