<svg width="529" height="944" viewBox="0 0 529 944" fill="none" xmlns="http://www.w3.org/2000/svg">
<g filter="url(#filter0_d_116_1367)">
<rect x="6" y="6" width="496.283" height="911" fill="#FFFCF0"/>
</g>
<rect x="38.3241" y="89.3241" width="431.352" height="799.352" stroke="#1E1E1E" stroke-width="2.64826"/>
<line x1="37" y1="139.675" x2="469" y2="139.675" stroke="black" stroke-width="2.65"/>
<line x1="37" y1="194.675" x2="469" y2="194.675" stroke="black" stroke-width="2.65"/>
<line x1="37" y1="249.675" x2="469" y2="249.675" stroke="black" stroke-width="2.65"/>
<line x1="37" y1="304.675" x2="469" y2="304.675" stroke="black" stroke-width="2.65"/>
<line x1="317.325" y1="88" x2="317.325" y2="890" stroke="black" stroke-width="2.65"/>
<line x1="397.325" y1="88" x2="397.325" y2="890" stroke="black" stroke-width="2.65"/>
<rect x="37" y="34" width="434" height="55" fill="#1E1E1E"/>
<path d="M63.314 120V107.76H65.33V120H63.314ZM68.426 120H64.772V118.398H68.372C69.08 118.398 69.638 118.224 70.046 117.876C70.454 117.516 70.658 117.042 70.658 116.454C70.658 115.866 70.436 115.398 69.992 115.05C69.56 114.702 68.954 114.528 68.174 114.528H64.772V112.962H67.724C68.444 112.962 68.996 112.8 69.38 112.476C69.776 112.152 69.974 111.726 69.974 111.198C69.974 110.634 69.776 110.19 69.38 109.866C68.996 109.53 68.456 109.362 67.76 109.362H64.772V107.76H67.814C69.11 107.76 70.136 108.06 70.892 108.66C71.66 109.26 72.044 110.07 72.044 111.09C72.044 111.798 71.822 112.398 71.378 112.89C70.934 113.37 70.298 113.682 69.47 113.826V113.376C70.526 113.496 71.33 113.838 71.882 114.402C72.446 114.954 72.728 115.656 72.728 116.508C72.728 117.624 72.344 118.488 71.576 119.1C70.82 119.7 69.77 120 68.426 120ZM89.4818 114.258L88.3838 115.158C88.3838 114.066 88.1678 113.226 87.7358 112.638C87.3038 112.05 86.6858 111.756 85.8818 111.756C85.0658 111.756 84.4418 112.056 84.0098 112.656C83.5898 113.244 83.3798 114.096 83.3798 115.212C83.3798 116.304 83.6018 117.15 84.0458 117.75C84.5018 118.338 85.1438 118.632 85.9718 118.632C86.5838 118.632 87.0938 118.488 87.5018 118.2C87.9218 117.912 88.2158 117.468 88.3838 116.868H90.3998C90.1358 117.984 89.6078 118.824 88.8158 119.388C88.0358 119.952 87.0878 120.234 85.9718 120.234C85.0358 120.234 84.2258 120.036 83.5418 119.64C82.8578 119.232 82.3298 118.65 81.9578 117.894C81.5978 117.138 81.4178 116.244 81.4178 115.212C81.4178 114.12 81.5978 113.202 81.9578 112.458C82.3298 111.702 82.8518 111.132 83.5238 110.748C84.1958 110.352 84.9818 110.154 85.8818 110.154C86.8058 110.154 87.5978 110.358 88.2578 110.766C88.9178 111.162 89.4278 111.726 89.7878 112.458C90.1478 113.19 90.3278 114.072 90.3278 115.104V115.572H82.2098V114.258H89.4818ZM107.143 114.258L106.045 115.158C106.045 114.066 105.829 113.226 105.397 112.638C104.965 112.05 104.347 111.756 103.543 111.756C102.727 111.756 102.103 112.056 101.671 112.656C101.251 113.244 101.041 114.096 101.041 115.212C101.041 116.304 101.263 117.15 101.707 117.75C102.163 118.338 102.805 118.632 103.633 118.632C104.245 118.632 104.755 118.488 105.163 118.2C105.583 117.912 105.877 117.468 106.045 116.868H108.061C107.797 117.984 107.269 118.824 106.477 119.388C105.697 119.952 104.749 120.234 103.633 120.234C102.697 120.234 101.887 120.036 101.203 119.64C100.519 119.232 99.9909 118.65 99.6189 117.894C99.2589 117.138 99.0789 116.244 99.0789 115.212C99.0789 114.12 99.2589 113.202 99.6189 112.458C99.9909 111.702 100.513 111.132 101.185 110.748C101.857 110.352 102.643 110.154 103.543 110.154C104.467 110.154 105.259 110.358 105.919 110.766C106.579 111.162 107.089 111.726 107.449 112.458C107.809 113.19 107.989 114.072 107.989 115.104V115.572H99.8709V114.258H107.143ZM117.424 109.902C117.424 108.858 117.646 108.084 118.09 107.58C118.546 107.064 119.218 106.806 120.106 106.806C120.358 106.806 120.574 106.824 120.754 106.86C120.934 106.896 121.072 106.938 121.168 106.986V108.282H120.988C120.328 108.282 119.884 108.42 119.656 108.696C119.44 108.96 119.332 109.368 119.332 109.92V120H117.424V109.902ZM116.128 111.9V110.406H121.168V111.9H116.128Z" fill="black"/>
<path d="M73.646 167.396H71.54C71.324 166.7 70.946 166.166 70.406 165.794C69.866 165.41 69.23 165.218 68.498 165.218C67.754 165.218 67.118 165.41 66.59 165.794C66.062 166.166 65.654 166.7 65.366 167.396C65.078 168.092 64.934 168.926 64.934 169.898C64.934 170.87 65.072 171.704 65.348 172.4C65.636 173.084 66.044 173.612 66.572 173.984C67.1 174.356 67.742 174.542 68.498 174.542C69.194 174.542 69.806 174.362 70.334 174.002C70.874 173.642 71.264 173.12 71.504 172.436H73.628C73.4 173.24 73.034 173.93 72.53 174.506C72.038 175.07 71.444 175.502 70.748 175.802C70.052 176.09 69.302 176.234 68.498 176.234C67.334 176.234 66.332 175.982 65.492 175.478C64.652 174.962 64.004 174.23 63.548 173.282C63.104 172.334 62.882 171.206 62.882 169.898C62.882 168.59 63.11 167.462 63.566 166.514C64.022 165.554 64.67 164.816 65.51 164.3C66.362 163.784 67.376 163.526 68.552 163.526C69.368 163.526 70.124 163.67 70.82 163.958C71.528 164.246 72.128 164.684 72.62 165.272C73.112 165.848 73.454 166.556 73.646 167.396ZM82.7998 176V163.04H84.7258V176H82.7998ZM84.7258 170.366H83.9698C84.0298 169.43 84.2158 168.65 84.5278 168.026C84.8518 167.402 85.2778 166.934 85.8058 166.622C86.3338 166.31 86.9398 166.154 87.6238 166.154C88.2958 166.154 88.8718 166.286 89.3518 166.55C89.8318 166.802 90.2038 167.186 90.4678 167.702C90.7318 168.206 90.8638 168.836 90.8638 169.592V176H88.9558V169.988C88.9558 169.52 88.8838 169.124 88.7398 168.8C88.5958 168.464 88.3858 168.206 88.1098 168.026C87.8338 167.846 87.4738 167.756 87.0298 167.756C86.6698 167.756 86.3458 167.834 86.0578 167.99C85.7698 168.134 85.5238 168.326 85.3198 168.566C85.1278 168.806 84.9778 169.082 84.8698 169.394C84.7738 169.706 84.7258 170.03 84.7258 170.366ZM100.496 176V166.406H102.422V176H100.496ZM100.496 165.218V163.04H102.422V165.218H100.496ZM120.158 169.754H118.232C118.112 169.07 117.848 168.572 117.44 168.26C117.044 167.936 116.564 167.774 116 167.774C115.196 167.774 114.584 168.068 114.164 168.656C113.744 169.244 113.534 170.096 113.534 171.212C113.534 172.304 113.75 173.15 114.182 173.75C114.626 174.338 115.25 174.632 116.054 174.632C116.63 174.632 117.11 174.476 117.494 174.164C117.89 173.852 118.16 173.39 118.304 172.778H120.212C120.008 173.978 119.522 174.854 118.754 175.406C117.998 175.958 117.086 176.234 116.018 176.234C115.094 176.234 114.302 176.036 113.642 175.64C112.982 175.232 112.472 174.65 112.112 173.894C111.752 173.138 111.572 172.244 111.572 171.212C111.572 170.12 111.752 169.202 112.112 168.458C112.472 167.702 112.982 167.132 113.642 166.748C114.302 166.352 115.088 166.154 116 166.154C116.72 166.154 117.374 166.292 117.962 166.568C118.55 166.832 119.036 167.228 119.42 167.756C119.804 168.284 120.05 168.95 120.158 169.754ZM129.297 176V163.04H131.223V176H129.297ZM130.899 170.816L135.039 166.406H137.343L133.059 170.816H130.899ZM130.899 170.816L133.077 170.528L137.595 176H135.201L130.899 170.816ZM153.112 170.258L152.014 171.158C152.014 170.066 151.798 169.226 151.366 168.638C150.934 168.05 150.316 167.756 149.512 167.756C148.696 167.756 148.072 168.056 147.64 168.656C147.22 169.244 147.01 170.096 147.01 171.212C147.01 172.304 147.232 173.15 147.676 173.75C148.132 174.338 148.774 174.632 149.602 174.632C150.214 174.632 150.724 174.488 151.132 174.2C151.552 173.912 151.846 173.468 152.014 172.868H154.03C153.766 173.984 153.238 174.824 152.446 175.388C151.666 175.952 150.718 176.234 149.602 176.234C148.666 176.234 147.856 176.036 147.172 175.64C146.488 175.232 145.96 174.65 145.588 173.894C145.228 173.138 145.048 172.244 145.048 171.212C145.048 170.12 145.228 169.202 145.588 168.458C145.96 167.702 146.482 167.132 147.154 166.748C147.826 166.352 148.612 166.154 149.512 166.154C150.436 166.154 151.228 166.358 151.888 166.766C152.548 167.162 153.058 167.726 153.418 168.458C153.778 169.19 153.958 170.072 153.958 171.104V171.572H145.84V170.258H153.112ZM163.178 176V166.406H165.104V176H163.178ZM165.104 170.366H164.348C164.408 169.43 164.594 168.65 164.906 168.026C165.23 167.402 165.656 166.934 166.184 166.622C166.712 166.31 167.318 166.154 168.002 166.154C168.674 166.154 169.25 166.286 169.73 166.55C170.21 166.802 170.582 167.186 170.846 167.702C171.11 168.206 171.242 168.836 171.242 169.592V176H169.334V169.988C169.334 169.52 169.262 169.124 169.118 168.8C168.974 168.464 168.764 168.206 168.488 168.026C168.212 167.846 167.852 167.756 167.408 167.756C167.048 167.756 166.724 167.834 166.436 167.99C166.148 168.134 165.902 168.326 165.698 168.566C165.506 168.806 165.356 169.082 165.248 169.394C165.152 169.706 165.104 170.03 165.104 170.366Z" fill="black"/>
<path d="M73.646 222.396H71.54C71.324 221.7 70.946 221.166 70.406 220.794C69.866 220.41 69.23 220.218 68.498 220.218C67.754 220.218 67.118 220.41 66.59 220.794C66.062 221.166 65.654 221.7 65.366 222.396C65.078 223.092 64.934 223.926 64.934 224.898C64.934 225.87 65.072 226.704 65.348 227.4C65.636 228.084 66.044 228.612 66.572 228.984C67.1 229.356 67.742 229.542 68.498 229.542C69.194 229.542 69.806 229.362 70.334 229.002C70.874 228.642 71.264 228.12 71.504 227.436H73.628C73.4 228.24 73.034 228.93 72.53 229.506C72.038 230.07 71.444 230.502 70.748 230.802C70.052 231.09 69.302 231.234 68.498 231.234C67.334 231.234 66.332 230.982 65.492 230.478C64.652 229.962 64.004 229.23 63.548 228.282C63.104 227.334 62.882 226.206 62.882 224.898C62.882 223.59 63.11 222.462 63.566 221.514C64.022 220.554 64.67 219.816 65.51 219.3C66.362 218.784 67.376 218.526 68.552 218.526C69.368 218.526 70.124 218.67 70.82 218.958C71.528 219.246 72.128 219.684 72.62 220.272C73.112 220.848 73.454 221.556 73.646 222.396ZM82.7998 231V218.04H84.7258V231H82.7998ZM84.7258 225.366H83.9698C84.0298 224.43 84.2158 223.65 84.5278 223.026C84.8518 222.402 85.2778 221.934 85.8058 221.622C86.3338 221.31 86.9398 221.154 87.6238 221.154C88.2958 221.154 88.8718 221.286 89.3518 221.55C89.8318 221.802 90.2038 222.186 90.4678 222.702C90.7318 223.206 90.8638 223.836 90.8638 224.592V231H88.9558V224.988C88.9558 224.52 88.8838 224.124 88.7398 223.8C88.5958 223.464 88.3858 223.206 88.1098 223.026C87.8338 222.846 87.4738 222.756 87.0298 222.756C86.6698 222.756 86.3458 222.834 86.0578 222.99C85.7698 223.134 85.5238 223.326 85.3198 223.566C85.1278 223.806 84.9778 224.082 84.8698 224.394C84.7738 224.706 84.7258 225.03 84.7258 225.366ZM102.314 224.538H100.388C100.496 223.83 100.724 223.224 101.072 222.72C101.42 222.216 101.888 221.832 102.476 221.568C103.064 221.292 103.754 221.154 104.546 221.154C105.41 221.154 106.13 221.316 106.706 221.64C107.294 221.952 107.732 222.39 108.02 222.954C108.308 223.518 108.452 224.172 108.452 224.916V228.66C108.452 229.236 108.476 229.704 108.524 230.064C108.584 230.424 108.668 230.736 108.776 231H106.76C106.652 230.76 106.586 230.46 106.562 230.1C106.538 229.74 106.526 229.374 106.526 229.002V224.934C106.526 224.238 106.352 223.704 106.004 223.332C105.668 222.96 105.134 222.774 104.402 222.774C103.778 222.774 103.292 222.936 102.944 223.26C102.608 223.572 102.398 223.998 102.314 224.538ZM106.796 225.15V226.464C105.812 226.464 105.008 226.512 104.384 226.608C103.76 226.704 103.274 226.842 102.926 227.022C102.578 227.19 102.338 227.394 102.206 227.634C102.074 227.862 102.008 228.12 102.008 228.408C102.008 228.816 102.164 229.14 102.476 229.38C102.788 229.608 103.196 229.722 103.7 229.722C104.24 229.722 104.72 229.596 105.14 229.344C105.572 229.08 105.908 228.732 106.148 228.3C106.4 227.868 106.526 227.4 106.526 226.896H107.39C107.342 227.664 107.192 228.324 106.94 228.876C106.688 229.428 106.364 229.878 105.968 230.226C105.584 230.574 105.164 230.832 104.708 231C104.252 231.156 103.796 231.234 103.34 231.234C102.692 231.234 102.122 231.132 101.63 230.928C101.138 230.724 100.754 230.418 100.478 230.01C100.202 229.602 100.064 229.092 100.064 228.48C100.064 227.82 100.244 227.256 100.604 226.788C100.964 226.32 101.504 225.96 102.224 225.708C102.896 225.48 103.592 225.33 104.312 225.258C105.032 225.186 105.86 225.15 106.796 225.15ZM118.157 231V221.406H120.083V231H118.157ZM120.083 225.762H119.363C119.411 224.682 119.597 223.806 119.921 223.134C120.257 222.45 120.671 221.952 121.163 221.64C121.667 221.316 122.219 221.154 122.819 221.154C123.011 221.154 123.191 221.178 123.359 221.226C123.527 221.262 123.653 221.322 123.737 221.406V223.098C123.593 223.05 123.437 223.02 123.269 223.008C123.101 222.984 122.915 222.972 122.711 222.972C122.255 222.972 121.859 223.038 121.523 223.17C121.199 223.302 120.929 223.494 120.713 223.746C120.497 223.986 120.335 224.28 120.227 224.628C120.131 224.964 120.083 225.342 120.083 225.762ZM144.943 221.784C144.943 222.192 145.045 222.522 145.249 222.774C145.453 223.014 145.735 223.206 146.095 223.35C146.455 223.482 146.851 223.596 147.283 223.692C147.727 223.776 148.183 223.866 148.651 223.962C149.119 224.046 149.569 224.166 150.001 224.322C150.445 224.466 150.841 224.67 151.189 224.934C151.549 225.186 151.831 225.516 152.035 225.924C152.251 226.332 152.359 226.848 152.359 227.472C152.359 228.276 152.155 228.96 151.747 229.524C151.351 230.088 150.805 230.514 150.109 230.802C149.413 231.09 148.615 231.234 147.715 231.234C146.815 231.234 146.011 231.096 145.303 230.82C144.607 230.544 144.025 230.124 143.557 229.56C143.101 228.996 142.789 228.288 142.621 227.436H144.727C144.907 228.132 145.249 228.666 145.753 229.038C146.257 229.398 146.917 229.578 147.733 229.578C148.573 229.578 149.209 229.41 149.641 229.074C150.073 228.738 150.289 228.294 150.289 227.742C150.289 227.31 150.187 226.962 149.983 226.698C149.779 226.422 149.497 226.212 149.137 226.068C148.777 225.912 148.375 225.786 147.931 225.69C147.499 225.582 147.049 225.48 146.581 225.384C146.113 225.288 145.657 225.168 145.213 225.024C144.781 224.88 144.385 224.688 144.025 224.448C143.677 224.196 143.395 223.872 143.179 223.476C142.975 223.08 142.873 222.57 142.873 221.946C142.873 221.334 143.041 220.77 143.377 220.254C143.713 219.726 144.199 219.306 144.835 218.994C145.483 218.682 146.275 218.526 147.211 218.526C148.015 218.526 148.753 218.664 149.425 218.94C150.109 219.204 150.679 219.618 151.135 220.182C151.591 220.734 151.891 221.46 152.035 222.36H149.893C149.725 221.604 149.407 221.052 148.939 220.704C148.471 220.356 147.877 220.182 147.157 220.182C146.461 220.182 145.915 220.332 145.519 220.632C145.135 220.92 144.943 221.304 144.943 221.784ZM169.411 221.406V231H167.503V221.406H169.411ZM167.503 227.022H168.241C168.193 227.97 168.007 228.756 167.683 229.38C167.371 230.004 166.951 230.472 166.423 230.784C165.907 231.084 165.313 231.234 164.641 231.234C163.993 231.234 163.429 231.108 162.949 230.856C162.469 230.592 162.097 230.208 161.833 229.704C161.581 229.2 161.455 228.57 161.455 227.814V221.406H163.381V227.418C163.381 227.874 163.447 228.27 163.579 228.606C163.711 228.942 163.915 229.2 164.191 229.38C164.467 229.548 164.815 229.632 165.235 229.632C165.583 229.632 165.895 229.56 166.171 229.416C166.459 229.272 166.699 229.08 166.891 228.84C167.083 228.588 167.233 228.306 167.341 227.994C167.449 227.682 167.503 227.358 167.503 227.022ZM179.046 231V221.406H180.972V231H179.046ZM179.046 220.218V218.04H180.972V220.218H179.046Z" fill="black"/>
<path d="M357.472 118.668L357.526 120.234C356.578 120.234 355.744 120.024 355.024 119.604C354.304 119.172 353.746 118.512 353.35 117.624C352.954 116.724 352.756 115.59 352.756 114.222C352.756 112.29 353.176 110.802 354.016 109.758C354.856 108.714 356.014 108.192 357.49 108.192C358.594 108.192 359.518 108.498 360.262 109.11C361.018 109.722 361.528 110.598 361.792 111.738H359.83C359.638 111.102 359.332 110.628 358.912 110.316C358.504 109.992 358.006 109.83 357.418 109.83C356.494 109.83 355.786 110.208 355.294 110.964C354.802 111.708 354.556 112.794 354.556 114.222C354.556 115.278 354.652 116.136 354.844 116.796C355.048 117.444 355.366 117.918 355.798 118.218C356.23 118.518 356.788 118.668 357.472 118.668ZM357.526 120.234C356.794 120.234 356.152 120.078 355.6 119.766C355.048 119.442 354.616 118.986 354.304 118.398C353.992 117.81 353.836 117.12 353.836 116.328C353.836 115.524 354.004 114.828 354.34 114.24C354.676 113.652 355.132 113.202 355.708 112.89C356.284 112.578 356.932 112.422 357.652 112.422C358.492 112.422 359.224 112.578 359.848 112.89C360.472 113.19 360.958 113.628 361.306 114.204C361.666 114.768 361.846 115.458 361.846 116.274C361.846 117.09 361.66 117.798 361.288 118.398C360.916 118.998 360.4 119.454 359.74 119.766C359.092 120.078 358.354 120.234 357.526 120.234ZM357.472 118.614C358.204 118.614 358.786 118.422 359.218 118.038C359.65 117.642 359.866 117.078 359.866 116.346C359.866 115.854 359.764 115.44 359.56 115.104C359.356 114.756 359.074 114.492 358.714 114.312C358.366 114.12 357.952 114.024 357.472 114.024C356.74 114.024 356.152 114.228 355.708 114.636C355.264 115.032 355.042 115.602 355.042 116.346C355.042 117.054 355.264 117.612 355.708 118.02C356.152 118.416 356.74 118.614 357.472 118.614Z" fill="black"/>
<path d="M357.472 174.668L357.526 176.234C356.578 176.234 355.744 176.024 355.024 175.604C354.304 175.172 353.746 174.512 353.35 173.624C352.954 172.724 352.756 171.59 352.756 170.222C352.756 168.29 353.176 166.802 354.016 165.758C354.856 164.714 356.014 164.192 357.49 164.192C358.594 164.192 359.518 164.498 360.262 165.11C361.018 165.722 361.528 166.598 361.792 167.738H359.83C359.638 167.102 359.332 166.628 358.912 166.316C358.504 165.992 358.006 165.83 357.418 165.83C356.494 165.83 355.786 166.208 355.294 166.964C354.802 167.708 354.556 168.794 354.556 170.222C354.556 171.278 354.652 172.136 354.844 172.796C355.048 173.444 355.366 173.918 355.798 174.218C356.23 174.518 356.788 174.668 357.472 174.668ZM357.526 176.234C356.794 176.234 356.152 176.078 355.6 175.766C355.048 175.442 354.616 174.986 354.304 174.398C353.992 173.81 353.836 173.12 353.836 172.328C353.836 171.524 354.004 170.828 354.34 170.24C354.676 169.652 355.132 169.202 355.708 168.89C356.284 168.578 356.932 168.422 357.652 168.422C358.492 168.422 359.224 168.578 359.848 168.89C360.472 169.19 360.958 169.628 361.306 170.204C361.666 170.768 361.846 171.458 361.846 172.274C361.846 173.09 361.66 173.798 361.288 174.398C360.916 174.998 360.4 175.454 359.74 175.766C359.092 176.078 358.354 176.234 357.526 176.234ZM357.472 174.614C358.204 174.614 358.786 174.422 359.218 174.038C359.65 173.642 359.866 173.078 359.866 172.346C359.866 171.854 359.764 171.44 359.56 171.104C359.356 170.756 359.074 170.492 358.714 170.312C358.366 170.12 357.952 170.024 357.472 170.024C356.74 170.024 356.152 170.228 355.708 170.636C355.264 171.032 355.042 171.602 355.042 172.346C355.042 173.054 355.264 173.612 355.708 174.02C356.152 174.416 356.74 174.614 357.472 174.614Z" fill="black"/>
<path d="M357.472 229.668L357.526 231.234C356.578 231.234 355.744 231.024 355.024 230.604C354.304 230.172 353.746 229.512 353.35 228.624C352.954 227.724 352.756 226.59 352.756 225.222C352.756 223.29 353.176 221.802 354.016 220.758C354.856 219.714 356.014 219.192 357.49 219.192C358.594 219.192 359.518 219.498 360.262 220.11C361.018 220.722 361.528 221.598 361.792 222.738H359.83C359.638 222.102 359.332 221.628 358.912 221.316C358.504 220.992 358.006 220.83 357.418 220.83C356.494 220.83 355.786 221.208 355.294 221.964C354.802 222.708 354.556 223.794 354.556 225.222C354.556 226.278 354.652 227.136 354.844 227.796C355.048 228.444 355.366 228.918 355.798 229.218C356.23 229.518 356.788 229.668 357.472 229.668ZM357.526 231.234C356.794 231.234 356.152 231.078 355.6 230.766C355.048 230.442 354.616 229.986 354.304 229.398C353.992 228.81 353.836 228.12 353.836 227.328C353.836 226.524 354.004 225.828 354.34 225.24C354.676 224.652 355.132 224.202 355.708 223.89C356.284 223.578 356.932 223.422 357.652 223.422C358.492 223.422 359.224 223.578 359.848 223.89C360.472 224.19 360.958 224.628 361.306 225.204C361.666 225.768 361.846 226.458 361.846 227.274C361.846 228.09 361.66 228.798 361.288 229.398C360.916 229.998 360.4 230.454 359.74 230.766C359.092 231.078 358.354 231.234 357.526 231.234ZM357.472 229.614C358.204 229.614 358.786 229.422 359.218 229.038C359.65 228.642 359.866 228.078 359.866 227.346C359.866 226.854 359.764 226.44 359.56 226.104C359.356 225.756 359.074 225.492 358.714 225.312C358.366 225.12 357.952 225.024 357.472 225.024C356.74 225.024 356.152 225.228 355.708 225.636C355.264 226.032 355.042 226.602 355.042 227.346C355.042 228.054 355.264 228.612 355.708 229.02C356.152 229.416 356.74 229.614 357.472 229.614Z" fill="black"/>
<path d="M63.206 69V56.76H67.922C70.604 56.76 72.278 58.074 72.278 60.162C72.278 61.242 71.738 62.07 70.784 62.538C72.188 63.006 72.962 64.05 72.962 65.454C72.962 67.704 71.342 69 68.534 69H63.206ZM67.868 58.686H65.636V61.854H67.814C69.11 61.854 69.794 61.224 69.794 60.288C69.794 59.298 69.092 58.686 67.868 58.686ZM68.336 63.654H65.636V67.074H68.48C69.74 67.074 70.478 66.39 70.478 65.364C70.478 64.338 69.704 63.654 68.336 63.654ZM93.9989 69L93.0629 66.462H87.8429L86.9069 69H84.4769L89.0849 56.76H91.9469L96.5549 69H93.9989ZM90.0929 60.396L88.5449 64.59H92.3609L90.8129 60.396L90.4529 59.136L90.0929 60.396ZM113.642 69.27C109.934 69.27 107.648 66.84 107.648 62.898C107.648 58.956 109.934 56.49 113.642 56.49C117.35 56.49 119.654 58.956 119.654 62.898C119.654 66.84 117.35 69.27 113.642 69.27ZM113.642 67.254C115.856 67.254 117.17 65.616 117.17 62.898C117.17 60.18 115.856 58.506 113.642 58.506C111.428 58.506 110.132 60.162 110.132 62.898C110.132 65.616 111.428 67.254 113.642 67.254ZM146.713 69V56.76H151.429C154.111 56.76 155.785 58.074 155.785 60.162C155.785 61.242 155.245 62.07 154.291 62.538C155.695 63.006 156.469 64.05 156.469 65.454C156.469 67.704 154.849 69 152.041 69H146.713ZM151.375 58.686H149.143V61.854H151.321C152.617 61.854 153.301 61.224 153.301 60.288C153.301 59.298 152.599 58.686 151.375 58.686ZM151.843 63.654H149.143V67.074H151.987C153.247 67.074 153.985 66.39 153.985 65.364C153.985 64.338 153.211 63.654 151.843 63.654ZM179.159 64.338C179.159 67.398 177.215 69.27 174.065 69.27C170.915 69.27 168.971 67.398 168.971 64.338V56.76H171.401V64.338C171.401 66.192 172.391 67.308 174.065 67.308C175.757 67.308 176.747 66.192 176.747 64.338V56.76H179.159V64.338ZM192.272 69V56.76H194.828L199.364 64.032L200.21 65.706L200.12 56.76H202.532V69H199.994L195.458 61.746L194.594 60.036L194.702 69H192.272ZM217.815 59.838C217.815 62.772 225.141 60.396 225.141 65.4C225.141 67.866 223.125 69.27 220.353 69.27C217.563 69.27 215.583 67.974 215.115 65.31H217.653C217.959 66.606 218.895 67.326 220.371 67.326C221.883 67.326 222.657 66.696 222.657 65.706C222.657 62.592 215.349 64.932 215.349 60.054C215.349 58.11 216.951 56.49 219.849 56.49C222.315 56.49 224.403 57.678 224.799 60.432H222.225C221.937 59.064 221.091 58.434 219.777 58.434C218.553 58.434 217.815 58.992 217.815 59.838Z" fill="white"/>
<path d="M351.9 69V67.038H353.142C354.024 66.534 354.402 65.832 354.402 65.058C354.402 64.842 354.366 64.644 354.294 64.446H352.206V63.15H353.484C352.926 62.43 352.35 61.62 352.35 60.468C352.35 58.74 353.772 57.156 356.4 57.156C358.56 57.156 360.36 58.254 360.648 60.774H358.29C358.11 59.604 357.426 59.064 356.4 59.064C355.302 59.064 354.726 59.658 354.726 60.54C354.726 61.44 355.5 62.25 356.076 63.15H359.1V64.446H356.688C356.742 64.626 356.76 64.806 356.76 64.986C356.76 65.76 356.4 66.462 355.752 67.038H360.648V69H351.9Z" fill="white"/>
<defs>
<filter id="filter0_d_116_1367" x="0.703488" y="0.703488" width="528.062" height="942.779" filterUnits="userSpaceOnUse" color-interpolation-filters="sRGB">
<feFlood flood-opacity="0" result="BackgroundImageFix"/>
<feColorMatrix in="SourceAlpha" type="matrix" values="0 0 0 0 0 0 0 0 0 0 0 0 0 0 0 0 0 0 127 0" result="hardAlpha"/>
<feMorphology radius="5.29651" operator="dilate" in="SourceAlpha" result="effect1_dropShadow_116_1367"/>
<feOffset dx="10.593" dy="10.593"/>
<feGaussianBlur stdDeviation="5.29651"/>
<feComposite in2="hardAlpha" operator="out"/>
<feColorMatrix type="matrix" values="0 0 0 0 0 0 0 0 0 0 0 0 0 0 0 0 0 0 0.25 0"/>
<feBlend mode="normal" in2="BackgroundImageFix" result="effect1_dropShadow_116_1367"/>
<feBlend mode="normal" in="SourceGraphic" in2="effect1_dropShadow_116_1367" result="shape"/>
</filter>
</defs>
</svg>
